<?xml version="1.0" encoding="UTF-8"?>
<svg width="637px" height="395px" viewBox="0 0 637 395" version="1.1" xmlns="http://www.w3.org/2000/svg" xmlns:xlink="http://www.w3.org/1999/xlink">
    <!-- Generator: Sketch 61 (89581) - https://sketch.com -->
    <title>undraw_suburbs_8b83</title>
    <desc>Created with Sketch.</desc>
    <g id="Home" stroke="none" stroke-width="1" fill="none" fill-rule="evenodd">
        <g id="05---SaaS" transform="translate(-574.000000, -209.000000)">
            <g id="undraw_suburbs_8b83" transform="translate(557.000000, 155.000000)">
                <path d="M30.5802647,313.85932 C34.7121141,321.315167 43.4813722,324.515798 43.4813722,324.515798 C43.4813722,324.515798 45.5515883,315.628124 41.4197331,308.172277 C37.287878,300.71643 28.5186257,297.515798 28.5186257,297.515798 C28.5186257,297.515798 26.4484153,306.403479 30.5802647,313.85932 Z" id="Path" fill="#3F3D56" fill-rule="nonzero"></path>
                <path d="M33.0551606,312.501532 C40.2348664,316.76676 43,325.238675 43,325.238675 C43,325.238675 34.1245231,326.795292 26.9448173,322.530065 C19.7651115,318.264837 17,309.792922 17,309.792922 C17,309.792922 25.8754493,308.236305 33.0551606,312.501532 Z" id="Path" fill="#4B6EE5" fill-rule="nonzero"></path>
                <path d="M414,190.042617 C414,249.689381 378.406639,270.515798 334.5,270.515798 C290.593367,270.515798 255,249.689381 255,190.042617 C255,130.395853 334.5,54.5157985 334.5,54.5157985 C334.5,54.5157985 414,130.395859 414,190.042617 Z" id="Path" fill="#F2F2F2" fill-rule="nonzero"></path>
                <polygon id="Path" fill="#3F3D56" fill-rule="nonzero" points="331.639993 261.850599 332.446128 211.820595 366 149.926948 332.572537 203.972434 332.935132 181.47724 356.060248 136.697606 333.031048 175.524176 333.031048 175.524176 333.683053 135.065251 358.445943 99.4150645 333.785622 128.702979 334.192571 54.5157985 331.633339 152.726549 331.843467 148.67529 306.666975 109.818533 331.439845 156.452455 329.094068 201.637942 329.02421 200.438832 300 159.54834 328.936056 204.675688 328.642765 210.326879 328.590094 210.411851 328.614489 210.875842 322.662724 325.515798 330.614304 325.515798 331.568472 266.301562 360.433561 221.2849"></polygon>
                <path d="M636,190.042617 C636,249.689381 600.406639,270.515798 556.5,270.515798 C512.593367,270.515798 477,249.689381 477,190.042617 C477,130.395853 556.5,54.5157985 556.5,54.5157985 C556.5,54.5157985 636,130.395859 636,190.042617 Z" id="Path" fill="#F2F2F2" fill-rule="nonzero"></path>
                <polygon id="Path" fill="#3F3D56" fill-rule="nonzero" points="553.639993 261.850599 554.446128 211.820595 588 149.926948 554.572537 203.972434 554.935132 181.47724 578.060248 136.697606 555.031048 175.524176 555.031048 175.524176 555.683053 135.065251 580.445943 99.4150645 555.785622 128.702979 556.192571 54.5157985 553.633339 152.726549 553.843467 148.67529 528.666975 109.818533 553.439845 156.452455 551.094068 201.637942 551.02421 200.438832 522 159.54834 550.936056 204.675688 550.642765 210.326879 550.590094 210.411851 550.614489 210.875842 544.662724 325.515798 552.614304 325.515798 553.568472 266.301562 582.433561 221.2849"></polygon>
                <circle id="Oval" fill="#FF6584" fill-rule="nonzero" cx="77.5" cy="208.015798" r="30.5"></circle>
                <polygon id="Path" fill="#3F3D56" fill-rule="nonzero" points="39.4398942 264.662017 35 257.222802 76.439755 221.515798 183 221.515798 183 231.930364 144.519989 273.588628 100.119933 282.515798"></polygon>
                <polygon id="Path" fill="#CCCCCC" fill-rule="nonzero" points="201.678399 242.69088 201.678399 219.515798 187.624382 219.515798 187.624382 226.823568 183.2 221.828737 147.417876 257.378316 141.454188 263.303338 134 292.928452 147.417876 325.515798 216 325.515798 216 258.859711"></polygon>
                <rect id="Rectangle" fill="#F2F2F2" fill-rule="nonzero" x="35" y="257.515798" width="113" height="68"></rect>
                <rect id="Rectangle" fill="#3F3D56" fill-rule="nonzero" x="108" y="279.515798" width="24" height="21"></rect>
                <rect id="Rectangle" fill="#CCCCCC" fill-rule="nonzero" x="78" y="278.515798" width="21" height="47"></rect>
                <polygon id="Path" fill="#3F3D56" fill-rule="nonzero" points="54 285.515798 54 278.515798 45 278.515798 45 285.515798 53.2499059 285.515798"></polygon>
                <polygon id="Path" fill="#3F3D56" fill-rule="nonzero" points="53.2499059 291.515798 45 291.515798 45 298.515798 54 298.515798 54 291.515798"></polygon>
                <rect id="Rectangle" fill="#3F3D56" fill-rule="nonzero" x="60" y="278.515798" width="9" height="7"></rect>
                <rect id="Rectangle" fill="#3F3D56" fill-rule="nonzero" x="60" y="291.515798" width="9" height="7"></rect>
                <polygon id="Path" fill="#3F3D56" fill-rule="nonzero" points="180 286.515798 180 279.515798 171 279.515798 171 286.515798 179.249953 286.515798"></polygon>
                <polygon id="Path" fill="#3F3D56" fill-rule="nonzero" points="179.249953 292.515798 171 292.515798 171 299.515798 180 299.515798 180 292.515798"></polygon>
                <rect id="Rectangle" fill="#3F3D56" fill-rule="nonzero" x="185" y="279.515798" width="9" height="7"></rect>
                <rect id="Rectangle" fill="#3F3D56" fill-rule="nonzero" x="185" y="292.515798" width="9" height="7"></rect>
                <polygon id="Path" fill="#3F3D56" fill-rule="nonzero" points="253.439894 264.662017 249 257.223361 290.440312 221.515798 397 221.515798 397 231.930364 358.519989 273.589188 314.119933 282.515798"></polygon>
                <polygon id="Path" fill="#CCCCCC" fill-rule="nonzero" points="415.67896 242.69088 415.67896 219.515798 401.624382 219.515798 401.624382 226.823568 397.2 221.828737 361.418437 257.378873 355.454749 263.303338 348 292.928452 361.418437 325.515798 430 325.515798 430 258.859711"></polygon>
                <rect id="Rectangle" fill="#F2F2F2" fill-rule="nonzero" x="249" y="257.515798" width="113" height="68"></rect>
                <rect id="Rectangle" fill="#3F3D56" fill-rule="nonzero" x="322" y="279.515798" width="24" height="21"></rect>
                <rect id="Rectangle" fill="#CCCCCC" fill-rule="nonzero" x="292" y="278.515798" width="21" height="47"></rect>
                <polygon id="Path" fill="#3F3D56" fill-rule="nonzero" points="268 285.515798 268 278.515798 259 278.515798 259 285.515798 267.249953 285.515798"></polygon>
                <polygon id="Path" fill="#3F3D56" fill-rule="nonzero" points="267.249953 291.515798 259 291.515798 259 298.515798 268 298.515798 268 291.515798"></polygon>
                <rect id="Rectangle" fill="#3F3D56" fill-rule="nonzero" x="274" y="278.515798" width="9" height="7"></rect>
                <rect id="Rectangle" fill="#3F3D56" fill-rule="nonzero" x="274" y="291.515798" width="9" height="7"></rect>
                <polygon id="Path" fill="#3F3D56" fill-rule="nonzero" points="394 286.515798 394 279.515798 385 279.515798 385 286.515798 393.249906 286.515798"></polygon>
                <polygon id="Path" fill="#3F3D56" fill-rule="nonzero" points="393.249906 292.515798 385 292.515798 385 299.515798 394 299.515798 394 292.515798"></polygon>
                <rect id="Rectangle" fill="#3F3D56" fill-rule="nonzero" x="400" y="279.515798" width="9" height="7"></rect>
                <rect id="Rectangle" fill="#3F3D56" fill-rule="nonzero" x="400" y="292.515798" width="9" height="7"></rect>
                <polygon id="Path" fill="#3F3D56" fill-rule="nonzero" points="461.439894 264.662017 457 257.223361 498.440312 221.515798 605 221.515798 605 231.930364 566.519989 273.589188 522.119933 282.515798"></polygon>
                <polygon id="Path" fill="#CCCCCC" fill-rule="nonzero" points="623.67896 242.69088 623.67896 219.515798 609.624382 219.515798 609.624382 226.823568 605.2 221.828737 569.418437 257.378873 563.454749 263.303338 556 292.928452 569.418437 325.515798 638 325.515798 638 258.859711"></polygon>
                <rect id="Rectangle" fill="#F2F2F2" fill-rule="nonzero" x="457" y="257.515798" width="113" height="68"></rect>
                <rect id="Rectangle" fill="#3F3D56" fill-rule="nonzero" x="530" y="279.515798" width="24" height="21"></rect>
                <rect id="Rectangle" fill="#CCCCCC" fill-rule="nonzero" x="500" y="278.515798" width="21" height="47"></rect>
                <polygon id="Path" fill="#3F3D56" fill-rule="nonzero" points="476 285.515798 476 278.515798 467 278.515798 467 285.515798 475.249953 285.515798"></polygon>
                <polygon id="Path" fill="#3F3D56" fill-rule="nonzero" points="475.249953 291.515798 467 291.515798 467 298.515798 476 298.515798 476 291.515798"></polygon>
                <rect id="Rectangle" fill="#3F3D56" fill-rule="nonzero" x="482" y="278.515798" width="9" height="7"></rect>
                <rect id="Rectangle" fill="#3F3D56" fill-rule="nonzero" x="482" y="291.515798" width="9" height="7"></rect>
                <polygon id="Path" fill="#3F3D56" fill-rule="nonzero" points="602 286.515798 602 279.515798 593 279.515798 593 286.515798 601.249906 286.515798"></polygon>
                <polygon id="Path" fill="#3F3D56" fill-rule="nonzero" points="601.249906 292.515798 593 292.515798 593 299.515798 602 299.515798 602 292.515798"></polygon>
                <rect id="Rectangle" fill="#3F3D56" fill-rule="nonzero" x="607" y="279.515798" width="9" height="7"></rect>
                <rect id="Rectangle" fill="#3F3D56" fill-rule="nonzero" x="607" y="292.515798" width="9" height="7"></rect>
                <rect id="Rectangle" fill="#3F3D56" fill-rule="nonzero" x="441" y="281.515798" width="1" height="44"></rect>
                <path d="M451.999649,287.465392 C452.071327,302.929364 441.129783,315.515798 441.129783,315.515798 C441.129783,315.515798 430.072029,303.030184 430.000351,287.566211 C429.928673,272.102238 440.870223,259.515798 440.870223,259.515798 C440.870223,259.515798 451.927977,272.001419 451.999649,287.465392 Z" id="Path" fill="#0F70EB" fill-rule="nonzero"></path>
                <rect id="Rectangle" fill="#3F3D56" fill-rule="nonzero" x="237" y="280.515798" width="1" height="44"></rect>
                <path d="M248.999649,286.465392 C249.071327,301.929364 238.129783,314.515798 238.129783,314.515798 C238.129783,314.515798 227.072029,302.030184 227.000351,286.566211 C226.928673,271.102238 237.870223,258.515798 237.870223,258.515798 C237.870223,258.515798 248.927977,271.001419 248.999649,286.465392 Z" id="Path" fill="#335EEA" fill-rule="nonzero"></path>
                <path d="M248.999649,286.465392 C249.071327,301.929364 238.129783,314.515798 238.129783,314.515798 C238.129783,314.515798 227.072029,302.030184 227.000351,286.566211 C226.928673,271.102238 237.870223,258.515798 237.870223,258.515798 C237.870223,258.515798 248.927977,271.001419 248.999649,286.465392 Z" id="Path" fill="#000000" fill-rule="nonzero" opacity="0.1"></path>
                <rect id="Rectangle" fill="#3F3D56" fill-rule="nonzero" x="223" y="280.515798" width="1" height="44"></rect>
                <path d="M233.999649,286.465392 C234.071327,301.929364 223.129783,314.515798 223.129783,314.515798 C223.129783,314.515798 212.072029,302.030184 212.000351,286.566211 C211.928673,271.102238 222.870223,258.515798 222.870223,258.515798 C222.870223,258.515798 233.927977,271.001419 233.999649,286.465392 Z" id="Path" fill="#0F70EB" fill-rule="nonzero"></path>
                <rect id="Rectangle" fill="#3F3D56" fill-rule="nonzero" x="19" y="324.515798" width="635" height="1"></rect>
                <path d="M162.809318,291.26945 C162.809318,291.26945 163.366423,291.928942 162.41187,293.204978 C161.457317,294.481014 162.228097,297.249911 164.041608,297.320428 C165.855118,297.390944 166.734563,298.175555 166.297348,299.20908 C165.860133,300.242605 165.334751,302.69843 167.309736,302.325021 C169.284721,301.951612 169.908907,302.763784 169.559254,303.388012 C169.209602,304.012241 170.439906,302.146617 170.439906,302.146617 C170.439906,302.146617 171.540461,303.840264 172.89126,302.654677 C174.242058,301.469091 174.779111,290.722013 172.025303,290.539862 C169.271494,290.357711 162.809318,291.26945 162.809318,291.26945 Z" id="Path" fill="#2F2E41" fill-rule="nonzero"></path>
                <polygon id="Path" fill="#FFB8B8" fill-rule="nonzero" points="177 342.140866 177.726757 346.515798 181 346.515798 179.908919 341.515798"></polygon>
                <path d="M181.002879,344.515798 C181.002879,344.515798 184.796109,347.892378 183.847803,348.199342 C182.899497,348.506305 179.422359,352.189816 178.790163,352.496817 C178.224723,352.771361 172.152014,354.645549 173.10032,352.496817 C173.797696,351.09952 174.89522,349.927155 176.261348,349.120237 L176.89355,345.436699 L181.002879,344.515798 Z" id="Path" fill="#F2F2F2" fill-rule="nonzero"></path>
                <path d="M181.002879,344.515798 C181.002879,344.515798 184.796109,347.892378 183.847803,348.199342 C182.899497,348.506305 179.422359,352.189816 178.790163,352.496817 C178.224723,352.771361 172.152014,354.645549 173.10032,352.496817 C173.797696,351.09952 174.89522,349.927155 176.261348,349.120237 L176.89355,345.436699 L181.002879,344.515798 Z" id="Path" fill="#000000" fill-rule="nonzero" opacity="0.1"></path>
                <polygon id="Path" fill="#FFB8B8" fill-rule="nonzero" points="181 339.140866 181.727387 343.515798 185 343.515798 183.908919 338.515798"></polygon>
                <path d="M169,327.346657 L173.17626,313.238362 C173.17626,313.238362 166.166063,306.727378 170.945743,304.774085 C175.725424,302.820793 177,312.587244 177,312.587244 L175.406777,329.515798 L169.033868,329.515798 L169,327.346657 Z" id="Path" fill="#FFB8B8" fill-rule="nonzero"></path>
                <path d="M178.388788,316.515798 C178.388788,316.515798 169.836023,327.045514 171.134111,328.610066 C172.432198,330.174617 174.74865,339.704037 174.74865,339.704037 C174.74865,339.704037 174.417732,343.515798 175.741419,343.515798 C177.065107,343.515798 180.374333,342.880507 180.374333,341.927566 C180.374333,340.974626 177.396036,328.904045 177.396036,328.904045 L186,318.104042 L178.388788,316.515798 Z" id="Path" fill="#0F70EB" fill-rule="nonzero"></path>
                <path d="M179.332344,316.954556 L187.591637,312.515798 C187.591637,312.515798 193.309609,315.369282 191.721254,317.905705 C190.132899,320.442128 182.82661,327.100253 182.82661,327.100253 C182.82661,327.100253 185.050266,337.880071 184.732599,338.197126 C184.414933,338.514181 180.920616,339.78239 179.967622,339.46534 C179.014628,339.148291 173.931989,326.783204 175.202645,326.149067 C176.4733,325.514929 180.602955,318.856842 180.602955,318.856842 L179.332344,316.954556 Z" id="Path" fill="#0F70EB" fill-rule="nonzero"></path>
                <path d="M156.330135,440.488776 C156.330135,440.488776 162.022684,444.056344 162.655187,444.056344 C163.28769,444.056344 171.826517,446.326614 168.031482,447.948232 C164.236448,449.56985 149.688824,447.299586 150.005078,446.326614 C150.321332,445.353642 150.005078,439.515798 150.637581,439.515798 C151.270084,439.515798 156.330135,440.488776 156.330135,440.488776 Z" id="Path" fill="#2F2E41" fill-rule="nonzero"></path>
                <path d="M162.330131,439.488771 C162.330131,439.488771 168.02268,443.056341 168.655184,443.056341 C169.287687,443.056341 177.826514,445.326612 174.031484,446.948232 C170.236455,448.569851 155.688824,446.299585 156.005078,445.326612 C156.321332,444.35364 156.005078,438.515798 156.637581,438.515798 C157.270084,438.515798 162.330131,439.488771 162.330131,439.488771 Z" id="Path" fill="#2F2E41" fill-rule="nonzero"></path>
                <path d="M156.251066,373.515798 C156.251066,373.515798 157.809024,382.281662 159.454761,385.835405 C161.100498,389.389147 159.125612,406.188657 158.138172,408.773198 C157.150732,411.357739 147.60547,442.049143 150.56779,442.372212 C153.53011,442.695281 159.454738,442.372212 159.454738,442.372212 L169,412.973073 L167.354286,373.558855 L156.251066,373.515798 Z" id="Path" fill="#575A88" fill-rule="nonzero"></path>
                <path d="M156.251066,372.515798 C156.251066,372.515798 157.809024,381.281662 159.454761,384.835405 C161.100498,388.389147 159.125612,405.188657 158.138172,407.773198 C157.150732,410.357739 147.60547,441.049143 150.56779,441.372212 C153.53011,441.695281 159.454738,441.372212 159.454738,441.372212 L169,411.973073 L167.354286,372.558855 L156.251066,372.515798 Z" id="Path" fill="#000000" fill-rule="nonzero" opacity="0.1"></path>
                <path d="M158.68855,371.72719 C158.68855,371.72719 160.000642,380.410878 162.952834,382.340611 C165.905026,384.270344 164.920977,386.200039 164.920977,386.200039 L163.608908,403.245849 C163.608908,403.245849 150.815966,434.121246 154.752275,437.980678 C158.688585,441.840111 162.296834,440.23201 163.936974,439.910389 C165.577114,439.588769 168.529323,432.834781 166.889194,430.905042 C165.249066,428.975303 170.169435,417.397055 171.481544,415.467344 C172.793652,413.537633 171.481544,410.964671 173.121661,410.321441 C174.761779,409.678212 178.370051,405.497158 178.370051,402.602592 C178.370051,399.708026 182.9624,368.832619 180.010174,366.902902 C177.057947,364.973186 158.134449,370.885675 158.134449,370.885675 L158.68855,371.72719 Z" id="Path" fill="#575A88" fill-rule="nonzero"></path>
                <circle id="Oval" fill="#FFB8B8" fill-rule="nonzero" cx="152" cy="319.515798" r="7"></circle>
                <circle id="Oval" fill="#FFB8B8" fill-rule="nonzero" cx="169" cy="294.515798" r="6"></circle>
                <path d="M156.893951,320.515798 C156.893951,320.515798 160.792796,327.360242 162.742224,327.360242 C164.691652,327.360242 154.944523,334.515798 154.944523,334.515798 C154.944523,334.515798 151.695483,325.493578 151.045678,325.182465 C150.395872,324.871353 156.893951,320.515798 156.893951,320.515798 Z" id="Path" fill="#FFB8B8" fill-rule="nonzero"></path>
                <path d="M158.304986,326.452512 C158.304986,326.452512 149.964766,329.357573 150.28554,330.325927 C150.606314,331.294281 148.040097,333.553775 148.040097,334.522134 C148.040097,335.490494 147.398544,344.205678 151.247877,351.306947 C155.097211,358.408216 161.19196,363.572777 158.304986,366.800625 C155.418012,370.028473 150.927098,375.515798 155.738764,375.515798 C160.550429,375.515798 168.24909,368.414535 175.306199,370.996799 C182.363307,373.579063 180.759417,363.89553 180.759417,363.89553 C180.759417,363.89553 181.721749,356.47148 179.797085,354.211986 C177.872421,351.952492 171.136108,335.813247 171.136108,333.876533 C171.136108,331.93982 164.720536,324.515798 163.116646,324.515798 C161.512755,324.515798 158.304986,326.452512 158.304986,326.452512 Z" id="Path" fill="#8985A8" fill-rule="nonzero"></path>
                <g id="Group" transform="translate(0.000000, 0.515798)"></g>
                <path d="M170,297.245748 C170,297.245748 172.478312,302.495613 172.608723,303.431086 C172.739134,304.366559 177,297.245748 177,297.245748 L172.130435,293.515798 L170,297.245748 Z" id="Path" fill="#FFB8B8" fill-rule="nonzero"></path>
                <path d="M170.714651,301.430085 L176.181718,295.515798 L182.613568,298.472939 C182.613568,298.472939 188.612105,311.94436 188.989553,312.930085 C189.367,313.91581 179.39764,318.515798 178.432864,318.515798 C177.468088,318.515798 170.714651,308.330085 170.714651,308.330085 C170.714651,308.330085 169.106687,303.401495 170.714651,301.430085 Z" id="Path" fill="#F2F2F2" fill-rule="nonzero"></path>
                <polygon id="Path" fill="#FFB8B8" fill-rule="nonzero" points="168 309.515798 168 315.515798 172 315.515798 170.684575 309.515798"></polygon>
                <path d="M170.476812,313.516051 C169.43787,313.500628 168.49893,314.193499 168.11968,315.255449 C167.858112,316.032033 167.946894,316.848199 169.189701,317.189287 C171.866521,317.923938 172.201125,317.189287 172.201125,317.189287 C172.201125,317.189287 176.847928,316.454642 175.862936,314.985346 C174.877944,313.516051 172.201125,313.516051 172.201125,313.516051 L170.476812,313.516051 Z" id="Path" fill="#FFB8B8" fill-rule="nonzero"></path>
                <path d="M185.002879,341.515798 C185.002879,341.515798 188.796109,344.89238 187.847803,345.199338 C186.899497,345.506297 183.422359,349.189847 182.790163,349.496816 C182.224723,349.771361 176.152014,351.645549 177.10032,349.496816 C177.797692,348.099518 178.895215,346.927153 180.261343,346.120234 L180.89355,342.436694 L185.002879,341.515798 Z" id="Path" fill="#F2F2F2" fill-rule="nonzero"></path>
                <path d="M149.683326,314.585807 C150.135529,314.330457 150.6696,314.012436 150.682515,313.507513 C150.658426,313.128383 150.40336,312.799098 150.033025,312.669034 C149.668465,312.547823 149.282527,312.497704 148.897676,312.521595 C148.750012,312.514328 148.602052,312.528459 148.458741,312.563516 C148.084504,312.674752 147.868914,313.04095 147.574152,313.289408 C147.106889,313.604813 146.570202,313.811702 146.006121,313.893873 C145.083827,314.124477 144.199342,314.477701 143.378138,314.943373 C143.215965,315.022392 143.073931,315.134993 142.962209,315.27311 C142.83301,315.527468 142.77539,315.810062 142.795116,316.092618 C142.720949,317.166807 142.052637,318.101849 141.553726,319.065097 C141.054815,320.028346 140.727046,321.228287 141.31263,322.145109 C141.545039,322.430386 141.761932,322.72709 141.962434,323.034026 C142.377445,323.867385 141.859468,324.893502 142.159322,325.771531 C142.293512,326.117165 142.508798,326.428228 142.788368,326.680424 C143.365326,327.24037 144.076205,327.655144 144.858499,327.888278 C145.605072,328.109808 146.531392,328.257439 146.823797,328.95552 C146.888624,329.271364 146.981227,329.581318 147.100605,329.882028 C147.370391,330.19194 147.760969,330.380784 148.180055,330.403941 C148.638317,330.504923 149.109905,330.537813 149.578481,330.501469 C150.052048,330.462024 150.48809,330.237097 150.784775,329.879218 C150.917229,329.6293 151.081289,329.39615 151.273208,329.185089 C151.748913,328.801956 152.471489,329.104578 153.082443,329.003055 C153.587827,328.911171 153.992189,328.545427 154.119325,328.065198 C154.136092,327.814627 154.207823,327.570334 154.329784,327.348448 C154.709192,326.880568 155.707521,327.21087 155.958019,326.668362 C156.12079,326.315839 155.780248,325.94343 155.450964,325.723919 C154.887174,325.406953 154.346368,325.05346 153.832279,324.665881 C153.312639,324.264542 153.051437,323.628678 153.145227,322.993335 C153.371306,322.075354 154.615053,321.569899 154.65626,320.627252 C154.620652,320.078763 154.3113,319.580954 153.826357,319.291769 C153.346997,319.011669 152.887274,318.70149 152.450162,318.363241 C152.155593,318.088447 151.933472,317.743603 151.61326,317.496884 C150.980955,317.116816 150.249471,316.917991 149.504268,316.923639 C149.108658,316.884511 147.530616,316.708398 147.592694,316.127684 C147.644253,315.645404 149.281777,314.812556 149.683326,314.585807 Z" id="Path" fill="#2F2E41" fill-rule="nonzero"></path>
                <path d="M171.606451,300.515798 C171.606451,300.515798 167.774194,301.849132 167.774194,303.515798 C167.774194,305.182469 166.032257,310.515798 167.774194,310.515798 C169.516132,310.515798 173,309.236273 173,309.236273 L171.606451,300.515798 Z" id="Path" fill="#F2F2F2" fill-rule="nonzero"></path>
                <path d="M170.438442,323.776092 C170.438442,323.776092 179.790522,320.578588 180.113003,320.578588 C180.435485,320.578588 184.950287,318.020582 184.627811,317.061331 L183.337874,309.067568 C183.337874,309.067568 178.178103,298.515798 181.725444,298.515798 C185.272785,298.515798 187.207696,306.829314 187.207696,306.829314 C187.207696,306.829314 194.947351,321.218087 190.755037,324.415596 C186.562722,327.613106 169.148511,333.368633 168.181055,332.40936 C167.2136,331.450087 170.438442,323.776092 170.438442,323.776092 Z" id="Path" fill="#FFB8B8" fill-rule="nonzero"></path>
                <path d="M179.356848,303.196147 L181.608802,305.360844 L178.6896,308.187939 C178.6896,308.187939 174.686131,306.524006 175.01975,307.522369 C175.353369,308.520732 177.355114,311.515798 178.6896,311.515798 C180.024085,311.515798 186.969517,307.189611 186.999842,305.858437 C187.030167,304.527263 182.693074,299.868287 181.692207,299.5355 C180.69134,299.202712 179.356848,303.196147 179.356848,303.196147 Z" id="Path" fill="#FFB8B8" fill-rule="nonzero"></path>
                <path d="M175,301.441787 C175,301.441787 179.605816,305.515798 180.232791,305.515798 C180.859767,305.515798 182,299.394709 182,299.394709 C182,299.394709 178.283814,296.968612 176.907154,297.630068 C175.530494,298.291525 175,301.441787 175,301.441787 Z" id="Path" fill="#F2F2F2" fill-rule="nonzero"></path>
                <path d="M158,328.182476 C158,328.182476 158,323.515798 167.767438,323.515798 L172,323.515798 L170.046508,334.515798 L163.534882,336.515798 L158,328.182476 Z" id="Path" fill="#8985A8" fill-rule="nonzero"></path>
                <path d="M179.096349,291.637062 C178.168209,291.632376 177.241072,291.572446 176.319417,291.45756 C175.595581,289.624247 174.673678,288.085953 173.676423,287.512441 C172.870276,286.864831 171.974684,286.349742 171.020483,285.984907 C168.917079,285.048335 165.415605,285.632503 165.210911,286.697651 C161.07198,288.77043 162.117885,292.410573 162.117885,292.410573 C162.760989,293.83535 164.203768,293.203898 165.427769,292.558671 C165.660375,293.614298 166.507374,294.398298 167.5356,294.509722 C169.55684,294.589483 170.537018,295.47674 170.049722,296.645522 C169.562427,297.814305 168.976863,300.591473 171.17807,300.169196 C173.379277,299.746918 174.074961,300.665384 173.685243,301.371292 C173.295526,302.0772 174.666773,299.967454 174.666773,299.967454 C174.666773,299.967454 175.893389,301.88273 177.398913,300.541992 C177.551148,300.388301 177.659724,300.193364 177.712567,299.97886 C178.185115,300.271127 178.742887,300.373489 179.282072,300.266895 C181.085398,299.421245 179.965449,297.435498 179.965449,297.435498 C179.965449,297.435498 182.37291,297.048422 181.597186,297.112589 C180.821461,297.176757 180.330724,296.122879 181.643318,294.22335 C182.955912,292.323822 180.312629,291.680172 179.096349,291.637062 Z" id="Path" fill="#2F2E41" fill-rule="nonzero"></path>
                <polygon id="Rectangle" fill="#335EEA" fill-rule="nonzero" transform="translate(166.296975, 291.462418) rotate(18.406790) translate(-166.296975, -291.462418) " points="165.813658 290.012462 166.780293 290.012462 166.780293 292.912374 165.813658 292.912374"></polygon>
                <rect id="Rectangle" fill="#3F3D56" fill-rule="nonzero" x="75" y="447.515798" width="160" height="1"></rect>
                <rect id="Rectangle" fill="#3F3D56" fill-rule="nonzero" x="420" y="395.515798" width="160" height="1"></rect>
                <path d="M538.435826,294.857232 L547.370317,293.116128 C547.370317,293.116128 549.549462,285.716452 552.164443,286.587001 C554.779424,287.45755 550.421129,294.857232 550.421129,294.857232 L538,300.515798 L538.435826,294.857232 Z" id="Path" fill="#A0616A" fill-rule="nonzero"></path>
                <path d="M483.335633,302.515798 L479.33761,307.742635 C479.33761,307.742635 473.562683,307.515378 475.339587,310.696935 C477.11649,313.878492 481.114508,312.060453 481.336624,311.378691 C481.558741,310.696929 488,304.788336 488,304.788336 L483.335633,302.515798 Z" id="Path" fill="#A0616A" fill-rule="nonzero"></path>
                <path d="M500,296.572899 L503.252841,294.689894 C503.252841,294.689894 517.131617,293.513011 522.336157,297.279033 C527.540697,301.045056 500.433714,301.515798 500.433714,301.515798 L500,296.572899 Z" id="Path" fill="#335EEA" fill-rule="nonzero"></path>
                <path d="M505.566185,293.515798 C505.566185,293.515798 503.953885,289.182377 506.170797,288.726225 C507.435159,288.445656 508.735638,288.445656 510,288.726225 L507.581557,291.006972 L505.566185,293.515798 Z" id="Path" fill="#3F3D56" fill-rule="nonzero"></path>
                <path d="M505.566185,293.515798 C505.566185,293.515798 503.953885,289.182377 506.170797,288.726225 C507.435159,288.445656 508.735638,288.445656 510,288.726225 L507.581557,291.006972 L505.566185,293.515798 Z" id="Path" fill="#000000" fill-rule="nonzero" opacity="0.1"></path>
                <path d="M493.827548,318.955461 L487.428174,318.515798 L488.531513,320.49427 C488.531513,320.49427 479.704785,323.132228 482.573472,330.606453 C484.588193,335.637562 487.024134,340.490939 489.855534,345.115259 L492.724221,350.611013 C492.724221,350.611013 498.682261,351.490332 498.902928,349.731688 C499.123594,347.973044 498.902928,347.093731 497.79959,346.214412 C496.787069,345.305624 496.156533,344.049343 496.034241,342.69713 C496.034241,341.817811 496.254913,340.938487 495.592908,340.49883 C494.930903,340.059173 494.710236,339.399677 494.710236,338.080696 C494.710236,336.761714 492.282882,331.925451 492.282882,331.925451 C492.282882,331.925451 500.006272,331.705623 502.43362,333.684095 C504.860968,335.662567 512.805024,343.136781 512.805024,343.136781 C513.244406,343.594826 513.61593,344.112987 513.908362,344.675597 C514.349701,345.554916 514.349701,345.994572 515.232373,346.434235 C516.115044,346.873897 515.453039,348.632535 515.232373,348.852369 C515.011706,349.072203 512.805013,357.865359 512.805013,357.865359 C512.805013,357.865359 510.377659,362.042132 513.02568,362.26196 C515.6737,362.481789 518.101048,362.701622 518.321715,362.26196 C518.566953,361.65259 518.862177,361.064387 519.204392,360.503322 C519.866392,359.404169 519.204392,356.98604 519.204392,356.98604 C519.204392,356.98604 525.603766,348.85233 523.61775,343.796238 C521.631735,338.740147 517.439043,327.308989 517.439043,327.308989 L511.03967,324.671032 L499.344255,320.494259 L493.827548,318.955461 Z" id="Path" fill="#2F2E41" fill-rule="nonzero"></path>
                <path d="M492.908597,348.712534 C492.908597,348.712534 491.582143,353.803049 491.13999,354.024374 C490.697837,354.245699 485.834179,358.450908 489.150314,359.114889 C492.46645,359.778869 494.898273,359.557544 495.5615,358.893564 C496.224727,358.229583 496.003653,357.565602 497.109028,357.344277 C498.214403,357.122952 500.20409,356.458966 499.98301,354.90968 C499.761931,353.360393 498.656562,349.15519 497.993334,348.712534 C497.330107,348.269879 492.908597,348.712534 492.908597,348.712534 Z" id="Path" fill="#2F2E41" fill-rule="nonzero"></path>
                <path d="M512.23786,360.515798 C512.23786,360.515798 510.216789,362.050135 511.339603,364.899619 C512.462416,367.749102 514.034364,370.817775 514.034364,370.817775 C514.034364,370.817775 515.830868,376.297553 518.750191,375.420785 C519.81913,375.050797 520.605733,374.153729 520.815226,373.065753 C521.232607,371.494683 520.935365,369.824234 519.999683,368.482547 L518.301068,365.995576 L516.504558,361.392561 L512.23786,360.515798 Z" id="Path" fill="#2F2E41" fill-rule="nonzero"></path>
                <path d="M507.102338,295.549544 C507.102338,295.549544 504.560152,295.33863 504.136452,295.971378 C503.712752,296.604127 501.806109,305.040757 504.136452,305.884419 C506.466796,306.728082 513.457825,308.204498 514.517057,307.149916 C515.576289,306.095334 516,296.815041 516,296.815041 L507.102338,295.549544 Z" id="Path" fill="#A0616A" fill-rule="nonzero"></path>
                <path d="M507.102338,295.549544 C507.102338,295.549544 504.560152,295.33863 504.136452,295.971378 C503.712752,296.604127 501.806109,305.040757 504.136452,305.884419 C506.466796,306.728082 513.457825,308.204498 514.517057,307.149916 C515.576289,306.095334 516,296.815041 516,296.815041 L507.102338,295.549544 Z" id="Path" fill="#000000" fill-rule="nonzero" opacity="0.1"></path>
                <path d="M503.003114,303.254932 C503.003114,303.254932 506.075753,306.29841 508.051023,305.863625 C510.026293,305.42884 514.63525,303.472316 515.074196,302.602758 C515.513141,301.733199 521,301.515798 521,301.515798 L515.074196,317.82015 L519.244208,331.515798 C519.244208,331.515798 521.658429,328.689711 515.074196,328.472321 C508.489962,328.254931 499.710998,324.994059 498.174678,320.646232 C498.174678,320.646232 488.517795,319.341889 488.078867,319.124494 C487.639939,318.907099 489.176258,317.602783 489.176258,317.602783 L495.541013,315.863654 L500.149971,309.994089 L503.003114,303.254932 Z" id="Path" fill="#F2F2F2" fill-rule="nonzero"></path>
                <path d="M504.51005,296.064296 C504.51005,296.064296 505.612437,294.524902 504.51005,294.524902 C502.743356,294.488369 500.976098,294.561817 499.218574,294.744819 C498.116187,294.96473 493.927104,293.865169 493.486152,295.184641 C493.045199,296.504113 493.045194,304.640889 493.927104,305.300628 C494.809015,305.960367 495.249973,305.960367 494.147586,307.279844 C493.045199,308.599322 490.399461,312.997571 491.06089,314.536976 C491.722319,316.076382 484.005599,316.516193 485.107986,318.275498 C485.715569,319.296021 486.78703,319.95369 487.9742,320.034797 C487.9742,320.034797 488.415158,316.516193 491.06089,318.275498 C493.706622,320.034803 497.234277,324.433052 500.100491,321.574186 C502.966705,318.71532 504.069092,316.07637 504.289568,312.337855 C504.520369,309.545193 504.372044,306.734234 503.848616,303.981167 C503.407658,301.782023 504.51005,296.064296 504.51005,296.064296 Z" id="Path" fill="#0F70EB" fill-rule="nonzero"></path>
                <path d="M516.112914,300.399919 C516.112914,300.399919 517.894892,301.930759 516.112914,305.648515 C514.330935,309.36627 509.65323,318.113931 513.43994,323.799912 C517.226649,329.485893 518.785887,331.016744 517.894892,332.110188 C517.353037,332.803045 517.041912,333.643061 517.003903,334.515798 L519.454131,333.641033 C519.722975,331.852654 520.170633,330.094631 520.790618,328.392438 C521.681607,326.205523 519.008639,319.644777 519.008639,319.644777 L519.899628,311.115811 C519.899628,311.115811 523.463592,305.64852 523.909084,305.42983 C524.354575,305.21114 523.018094,295.807387 523.018094,295.807387 C523.018094,295.807387 520.790618,295.151312 519.676882,295.807387 C518.563147,296.463463 516.112914,300.399919 516.112914,300.399919 Z" id="Path" fill="#0F70EB" fill-rule="nonzero"></path>
                <path d="M495.498634,295.515798 L494.211818,295.515798 L485.418359,300.204328 C485.418359,300.204328 484.774935,297.301903 484.345983,297.971694 C483.917032,298.641485 484.13151,300.427596 483.059134,300.874119 C481.986758,301.320642 481.343339,301.990433 483.059134,302.883486 C484.774929,303.776538 484.989408,303.106753 484.989408,304.669596 C484.989408,306.232439 486.276257,306.455701 487.348633,306.009178 C488.421009,305.562654 488.635482,305.339387 489.707858,305.78591 C490.780233,306.232434 490.136809,306.90223 491.638131,306.232439 C493.139453,305.562649 497,305.78591 497,305.78591 L495.498634,295.515798 Z" id="Path" fill="#0F70EB" fill-rule="nonzero"></path>
                <path d="M522,296.616692 L523.496982,296.193786 C523.496982,296.193786 527.987928,296.616692 529.057204,296.616692 C530.12648,296.616692 531.19575,296.405236 531.837314,296.405236 C532.478879,296.405236 535.686696,295.982335 536.114407,295.559429 C536.542119,295.136523 538.466812,294.079266 538.68066,294.713623 C538.894507,295.347979 541.246918,299.365573 539.108371,301.268632 C536.969825,303.17169 536.542113,302.325894 535.258984,303.171701 C533.975855,304.017508 523.710835,305.709121 523.49696,305.497676 C523.283085,305.286231 522,296.616692 522,296.616692 Z" id="Path" fill="#0F70EB" fill-rule="nonzero"></path>
                <circle id="Oval" fill="#A0616A" fill-rule="nonzero" cx="512.5" cy="298.015798" r="6.5"></circle>
                <path d="M507.971155,298.467763 C508.044746,298.611596 508.090228,298.76866 508.105071,298.930212 C508.282753,299.70149 508.951122,300.251019 509.727383,300.264066 C509.665004,300.550865 509.725127,300.851203 509.892731,301.090053 C510.060335,301.328904 510.319592,301.483709 510.605738,301.515798 C511.043499,300.943478 511.370019,300.291031 511.567718,299.593586 C511.616303,299.31968 511.727685,299.061387 511.892767,298.839803 C512.151553,298.618298 512.476677,298.493583 512.814359,298.486286 C514.537289,298.259757 516.270908,298.127934 518.007709,298.091389 C518.243806,298.108682 518.480018,298.059403 518.690525,297.948939 C519.178456,297.628 519.015657,296.854131 518.707468,296.352106 C518.100152,295.370397 517.176837,294.635131 516.0961,294.272587 C515.309587,294.056514 514.504069,293.920318 513.691298,293.865987 C512.614734,293.690256 511.529491,293.575257 510.440514,293.521514 C509.343342,293.470107 508.257468,293.766483 507.33192,294.369967 C506.682968,294.836711 505.617941,296.144746 506.139034,296.970163 C506.222477,297.102311 506.486008,297.167472 506.598131,297.302212 C506.750708,297.485527 506.751399,297.762645 506.924733,297.929049 C507.21408,298.206805 507.738761,298.118558 507.971155,298.467763 Z" id="Path" fill="#2F2E41" fill-rule="nonzero"></path>
                <path d="M512.736235,287.515798 C512.736235,287.515798 505.392514,290.098984 506.040491,293.758493 C506.688467,297.418002 508.632389,301.723308 512.736235,301.508039 C516.840082,301.29277 519,296.840852 519,296.840852 L517.920038,290.74478 C517.920038,290.74478 513.816192,287.515798 512.736235,287.515798 Z" id="Path" fill="#3F3D56" fill-rule="nonzero"></path>
                <path d="M512,300.515798 C512,300.515798 514.660564,297.188008 516,299.117598 C516,299.117598 515.939058,299.022351 512,300.515798 Z" id="Path" fill="#2F2E41" fill-rule="nonzero"></path>
                <path d="M516.992922,381.515798 C513.091973,381.515798 508.265518,380.222752 503.562111,375.54926 C492.047978,364.107374 481.109128,362.959774 481,362.949572 L481.04059,362.515798 C481.151311,362.526221 492.245301,363.689542 503.868982,375.240086 C509.84175,381.175366 516.006651,381.538975 520.126487,380.798368 C522.847741,380.303959 525.439457,379.25885 527.742857,377.727068 L528,378.078338 C525.647737,379.645444 523.000602,380.715783 520.220607,381.22385 C519.15555,381.417164 518.07536,381.514869 516.992922,381.515798 Z" id="Path" fill="#2F2E41" fill-rule="nonzero"></path>
                <circle id="Oval" fill="#2F2E41" fill-rule="nonzero" cx="486.5" cy="369.015798" r="2.5"></circle>
                <circle id="Oval" fill="#2F2E41" fill-rule="nonzero" cx="505.5" cy="382.015798" r="2.5"></circle>
            </g>
        </g>
    </g>
</svg>