<?xml version="1.0" encoding="UTF-8"?>
<svg width="570px" height="399px" viewBox="0 0 570 399" version="1.1" xmlns="http://www.w3.org/2000/svg" xmlns:xlink="http://www.w3.org/1999/xlink">
    <!-- Generator: Sketch 61 (89581) - https://sketch.com -->
    <title>undraw_key_points_ig28</title>
    <desc>Created with Sketch.</desc>
    <g id="Pages" stroke="none" stroke-width="1" fill="none" fill-rule="evenodd">
        <g id="11---About---1" transform="translate(-70.000000, -620.000000)" fill-rule="nonzero">
            <g id="undraw_key_points_ig28" transform="translate(70.000000, 620.000000)">
                <ellipse id="Oval" fill="#2F2E41" cx="449" cy="45.5" rx="25" ry="27.5"></ellipse>
                <path d="M439.502911,69 C439.502911,69 439.941331,84.8569446 430.296151,89.6620395 C420.65097,94.4671343 468,93.9866547 468,93.9866547 C468,93.9866547 453.970655,75.2466652 457.916405,69 L439.502911,69 Z" id="Path" fill="#FFB8B8"></path>
                <path d="M439.502911,69 C439.502911,69 439.941331,84.8569446 430.296151,89.6620395 C420.65097,94.4671343 468,93.9866547 468,93.9866547 C468,93.9866547 453.970655,75.2466652 457.916405,69 L439.502911,69 Z" id="Path" fill="#000000" opacity="0.1"></path>
                <ellipse id="Oval" fill="#FFB8B8" cx="449" cy="59" rx="17" ry="19"></ellipse>
                <path d="M446.895769,86.8022403 L432.239503,83.200572 L423.708243,93.0451264 L414.083228,94.4857961 L426.770743,151.632245 L426.333246,166.038912 C426.333246,166.038912 412.333226,177.564252 413.208232,230.868929 C414.083239,284.173607 406.208225,389.822511 415.833235,390.782961 C425.458245,391.743412 445.58327,396.545628 446.895791,392.223625 C448.208311,387.901622 450.395794,217.422707 450.395794,217.422707 C450.395794,217.422707 449.958291,388.381847 456.5208,390.302736 C463.083309,392.223625 483.20833,396.065403 485.833332,389.822511 C488.458335,383.579619 485.833332,220.784259 485.833332,220.784259 C485.833332,220.784259 485.395834,178.524697 469.645813,166.038906 L467.895812,154.993792 L481.458328,94.4857842 L470.520792,94.4857842 L463.958289,82 L450.395772,87.2824476 L446.895769,86.8022403 Z" id="Path" fill="#2F2E41"></path>
                <path d="M410.330794,152 L391.711884,186.736829 C391.711884,186.736829 378.094786,202.188303 384.909311,206.456283 C391.723835,210.724264 398.968858,188.464366 398.968858,188.464366 L419,159.297766 L410.330794,152 Z" id="Path" fill="#FFB8B8"></path>
                <path d="M487.490127,152 L502.785325,189.069305 C502.785325,189.069305 514.976001,206.211381 507.664358,209.65172 C500.352714,213.09206 495.283289,189.911128 495.283289,189.911128 L478,158.247719 L487.490127,152 Z" id="Path" fill="#FFB8B8"></path>
                <path d="M419.519998,97.3589335 L413.799996,94 C413.799996,94 403.68,112.234232 405.44,142.944509 C405.44,142.944509 403.68,159.259343 407.2,160.219039 C410.719999,161.178735 420.839995,163.098127 421.279998,161.178735 C421.720001,159.259343 427,123.75058 427,123.75058 L419.519998,97.3589335 Z" id="Path" fill="#2F2E41"></path>
                <path d="M476.264013,96.4071315 L481.528026,94 C485.364928,99.0833136 487.79989,105.263063 488.546709,111.812887 C489.862715,122.885758 496.004064,158.511532 491.178716,159.47439 C486.353368,160.437249 474.948007,162.362966 474.948007,159.47439 C474.948007,156.585814 471,122.885752 471,122.885752 L476.264013,96.4071315 Z" id="Path" fill="#2F2E41"></path>
                <polygon id="Path" fill="#2F2E41" points="465.385702 42.4515931 452.490994 35 434.684123 38.0484069 431 56 440.17115 55.6109069 442.732762 49.0153186 442.732762 55.5018382 446.964532 55.3223039 449.420614 44.8229167 450.955804 56 466 55.661152"></polygon>
                <ellipse id="Oval" fill="#2F2E41" cx="450" cy="14" rx="10" ry="11"></ellipse>
                <path d="M437.16289,11 C437.163213,5.57121487 440.915752,0.95413332 446,0.126925599 C441.943703,-0.528142649 437.900642,1.38932525 435.671704,5.02523799 C433.442765,8.66115073 433.442765,13.3388493 435.671704,16.974762 C437.900642,20.6106748 441.943703,22.5281426 446,21.8730744 C440.91576,21.0458603 437.163226,16.4287897 437.16289,11 L437.16289,11 Z" id="Path" fill="#2F2E41"></path>
                <ellipse id="Oval" fill="#0F70EB" cx="272.5" cy="348" rx="4.5" ry="3"></ellipse>
                <path d="M273,348 C273,348 293.529791,387.324323 292.989521,393" id="Path" fill="#0F70EB"></path>
                <path d="M285.926723,350 L285.926723,372.836087 C281.629978,366.315031 273.059818,359.600321 257,354.149579 L285.926723,397.669412 L285.926723,398 C285.926723,398 285.981364,397.96773 286.08309,397.904681 L286.132357,397.978793 C286.132357,397.978793 286.173663,397.91835 286.247506,397.801494 C289.617682,395.663261 317.882903,376.383534 285.926723,350 Z" id="Path" fill="#3F3D56"></path>
                <rect id="Rectangle" fill="#3F3D56" x="270" y="398" width="300" height="1"></rect>
                <path d="M348,398 L337,398 L337,386 L348,386 L348,398 Z M337.846154,397.076923 L347.153846,397.076923 L347.153846,386.923065 L337.846154,386.923065 L337.846154,397.076923 Z" id="Shape" fill="#3F3D56"></path>
                <ellipse id="Oval" fill="#0F70EB" cx="549.5" cy="380" rx="5.5" ry="6"></ellipse>
                <path d="M549,397 C540.163444,397 533,389.164983 533,379.5 C533,369.835017 540.163444,362 549,362 C557.836556,362 565,369.835017 565,379.5 C564.990115,389.160501 557.832458,396.989188 549,397 L549,397 Z M549,363.346177 C540.843184,363.346177 534.230779,370.578495 534.230779,379.500012 C534.230779,388.421529 540.843184,395.653848 549,395.653848 C557.156816,395.653848 563.769221,388.421529 563.769221,379.500012 C563.759897,370.582723 557.15295,363.356375 549,363.346177 L549,363.346177 Z" id="Shape" fill="#2F2E41"></path>
                <rect id="Rectangle" fill="#0F70EB" x="20" y="24" width="369" height="241"></rect>
                <polygon id="Path" fill="#000000" opacity="0.1" points="250 24 20 197 20 155.562946 194.912243 24"></polygon>
                <polygon id="Path" fill="#000000" opacity="0.1" points="361 24 361 28.1905224 45.5475884 265 20 265 20 242.734478 311.374084 24"></polygon>
                <rect id="Rectangle" fill="#3F3D56" x="51" y="222" width="1" height="43"></rect>
                <ellipse id="Oval" fill="#3F3D56" cx="51.5" cy="222" rx="13.5" ry="15"></ellipse>
                <rect id="Rectangle" fill="#3F3D56" x="127" y="186" width="1" height="79"></rect>
                <ellipse id="Oval" fill="#3F3D56" cx="127.5" cy="188" rx="13.5" ry="15"></ellipse>
                <rect id="Rectangle" fill="#3F3D56" x="204" y="119" width="1" height="146"></rect>
                <ellipse id="Oval" fill="#3F3D56" cx="204.5" cy="119" rx="13.5" ry="15"></ellipse>
                <rect id="Rectangle" fill="#3F3D56" x="280" y="163" width="1" height="102"></rect>
                <ellipse id="Oval" fill="#3F3D56" cx="280.5" cy="163" rx="13.5" ry="15"></ellipse>
                <rect id="Rectangle" fill="#3F3D56" x="356" y="76" width="1" height="189"></rect>
                <ellipse id="Oval" fill="#3F3D56" cx="356.5" cy="76" rx="13.5" ry="15"></ellipse>
                <rect id="Rectangle" fill="#3F3D56" x="20" y="222" width="3" height="1"></rect>
                <path d="M43,226 L37.999828,226 L37.999828,222 L43,222 L43,226 Z M32.9999113,226 L28,226 L28,222 L32.9999113,222 L32.9999113,226 Z" id="Shape" fill="#3F3D56"></path>
                <rect id="Rectangle" fill="#3F3D56" x="49" y="222" width="3" height="1"></rect>
                <rect id="Rectangle" fill="#3F3D56" x="20" y="187" width="3" height="1"></rect>
                <path d="M116,191 L109.384636,191 L109.384636,187 L116,187 L116,191 Z M102.769273,191 L96.1539091,191 L96.1539091,187 L102.769273,187 L102.769273,191 Z M89.5385454,191 L82.9231818,191 L82.9231818,187 L89.5385454,187 L89.5385454,191 Z M76.307551,191 L69.6921873,191 L69.6921873,187 L76.307551,187 L76.307551,191 Z M63.0768182,191 L56.4614546,191 L56.4614546,187 L63.0768182,187 L63.0768182,191 Z M49.8460909,191 L43.2307273,191 L43.2307273,187 L49.8460909,187 L49.8460909,191 Z M36.6153636,191 L30,191 L30,187 L36.6153636,187 L36.6153636,191 Z" id="Shape" fill="#3F3D56"></path>
                <rect id="Rectangle" fill="#3F3D56" x="123" y="187" width="3" height="1"></rect>
                <rect id="Rectangle" fill="#3F3D56" x="20" y="163" width="3" height="1"></rect>
                <path d="M262,166 L255.371414,166 L255.371414,162 L262,162 L262,166 Z M248.742889,166 L242.114304,166 L242.114304,162 L248.742889,162 L248.742889,166 Z M235.485779,166 L228.857193,166 L228.857193,162 L235.485779,162 L235.485779,166 Z M222.228399,166 L215.599813,166 L215.599813,162 L222.228399,162 L222.228399,166 Z M208.971288,166 L202.342725,166 L202.342725,162 L208.971288,162 L208.971288,166 Z M195.714178,166 L189.085597,166 L189.085597,162 L195.714178,162 L195.714178,166 Z M182.457067,166 L175.828487,166 L175.828487,162 L182.457067,162 L182.457067,166 Z M169.199956,166 L162.571376,166 L162.571376,162 L169.199956,162 L169.199956,166 Z M155.942845,166 L149.314265,166 L149.314265,162 L155.942845,162 L155.942845,166 Z M142.685735,166 L136.057155,166 L136.057155,162 L142.685735,162 L142.685735,166 Z M129.428624,166 L122.800044,166 L122.800044,162 L129.428624,162 L129.428624,166 Z M116.171513,166 L109.542933,166 L109.542933,162 L116.171513,162 L116.171513,166 Z M102.914403,166 L96.2855536,166 L96.2855536,162 L102.914403,162 L102.914403,166 Z M89.6570284,166 L83.0284429,166 L83.0284429,162 L89.6570284,162 L89.6570284,166 Z M76.3999177,166 L69.7713322,166 L69.7713322,162 L76.3999177,162 L76.3999177,166 Z M63.142807,166 L56.5142214,166 L56.5142214,162 L63.142807,162 L63.142807,166 Z M49.8856963,166 L43.2571107,166 L43.2571107,162 L49.8856963,162 L49.8856963,166 Z M36.6285855,166 L30,166 L30,162 L36.6285855,162 L36.6285855,166 Z" id="Shape" fill="#3F3D56"></path>
                <rect id="Rectangle" fill="#3F3D56" x="268" y="163" width="3" height="1"></rect>
                <rect id="Rectangle" fill="#3F3D56" x="20" y="119" width="3" height="1"></rect>
                <path d="M186,123 L179.217463,123 L179.217463,119 L186,119 L186,123 Z M172.434921,123 L165.652115,123 L165.652115,119 L172.434921,119 L172.434921,123 Z M158.869578,123 L152.087036,123 L152.087036,119 L158.869578,119 L158.869578,123 Z M145.30451,123 L138.521693,123 L138.521693,119 L145.30451,119 L145.30451,123 Z M131.739156,123 L124.956614,123 L124.956614,119 L131.739156,119 L131.739156,123 Z M118.174077,123 L111.391271,123 L111.391271,119 L118.174077,119 L118.174077,123 Z M104.608751,123 L97.8262139,123 L97.8262139,119 L104.608751,119 L104.608751,123 Z M91.0433862,123 L84.2608493,123 L84.2608493,119 L91.0433862,119 L91.0433862,123 Z M77.4783069,123 L70.6957591,123 L70.6957591,119 L77.4783069,119 L77.4783069,123 Z M63.9129643,123 L57.1304219,123 L57.1304219,119 L63.9129643,119 L63.9129643,123 Z M50.347885,123 L43.5653481,123 L43.5653481,119 L50.347885,119 L50.347885,123 Z M36.7825424,123 L30,123 L30,119 L36.7825424,119 L36.7825424,123 Z" id="Shape" fill="#3F3D56"></path>
                <rect id="Rectangle" fill="#3F3D56" x="193" y="119" width="3" height="1"></rect>
                <polygon id="Rectangle" fill="#3F3D56" transform="translate(21.374986, 77.366094) rotate(-0.195830) translate(-21.374986, -77.366094) " points="19.7309195 76.7675152 23.0194011 76.7664688 23.0190523 77.9646718 19.7305707 77.9657182"></polygon>
                <path d="M29.0037544,80 L29,77.9404162 L35.4898296,77.9006972 L35.493584,79.9602809 L29.0037544,80 Z M41.9831611,79.9210562 L41.9794123,77.8614724 L48.4692145,77.8217945 L48.4729633,79.8813783 L41.9831611,79.9210562 Z M54.9625679,79.8416077 L54.9588191,77.782024 L61.4486487,77.7423049 L61.4523976,79.8018886 L54.9625679,79.8416077 Z M67.9422272,79.7626639 L67.9384783,77.7030801 L74.428039,77.663361 L74.4317934,79.7229448 L67.9422272,79.7626639 Z M80.921634,79.6832154 L80.9178796,77.6236317 L87.4074403,77.5839126 L87.4111947,79.6434963 L80.921634,79.6832154 Z M93.9010408,79.6042716 L93.8972864,77.5446878 L100.387116,77.5049687 L100.39087,79.5645525 L93.9010408,79.6042716 Z M106.880448,79.5248231 L106.876699,77.4652394 L113.366528,77.4255203 L113.370277,79.4851041 L106.880448,79.5248231 Z M119.859854,79.4458793 L119.8561,77.3862955 L126.34593,77.3465765 L126.349684,79.4061602 L119.859854,79.4458793 Z M132.839261,79.3664411 L132.835507,77.3068574 L139.325336,77.267128 L139.329091,79.3267118 L132.839261,79.3664411 Z M145.81892,79.2874973 L145.815166,77.2279135 L152.304732,77.1881842 L152.308481,79.2477679 L145.81892,79.2874973 Z M158.798327,79.2080489 L158.794578,77.1484651 L165.284139,77.1087357 L165.287888,79.1683195 L158.798327,79.2080489 Z M171.777734,79.129105 L171.773985,77.0695212 L178.263815,77.0297919 L178.267564,79.0893756 L171.777734,79.129105 Z M184.757141,79.0496566 L184.753386,76.9900728 L191.243216,76.9503434 L191.24697,79.0099272 L184.757141,79.0496566 Z M197.736548,78.9707127 L197.732793,76.911129 L204.222623,76.8713996 L204.226377,78.9309833 L197.736548,78.9707127 Z M210.716207,78.8912643 L210.712452,76.8316805 L217.202019,76.7919614 L217.205767,78.8515452 L210.716207,78.8912643 Z M223.695614,78.8123204 L223.691865,76.7527367 L230.181425,76.7130176 L230.18518,78.7726014 L223.695614,78.8123204 Z M236.67502,78.732872 L236.671266,76.6732882 L243.160827,76.6335692 L243.164581,78.6931529 L236.67502,78.732872 Z M249.654427,78.6539281 L249.650673,76.5943444 L256.140502,76.5546253 L256.144257,78.6142091 L249.654427,78.6539281 Z M262.633549,78.5744797 L262.630332,76.5148959 L269.119898,76.4751769 L269.123115,78.5347606 L262.633549,78.5744797 Z M275.613208,78.4955359 L275.609991,76.4359521 L282.099558,76.396233 L282.102774,78.4558168 L275.613208,78.4955359 Z M288.592335,78.4160874 L288.589118,76.3565037 L295.079217,76.3167846 L295.082433,78.3763683 L288.592335,78.4160874 Z M301.571994,78.3371436 L301.568777,76.2775598 L308.058338,76.2378407 L308.061555,78.2974245 L301.571994,78.3371436 Z M314.551115,78.2577054 L314.547899,76.1981217 L321.037997,76.1583923 L321.041214,78.217976 L314.551115,78.2577054 Z M327.530775,78.1787616 L327.527564,76.1191778 L334.017124,76.0794484 L334.020341,78.1390322 L327.530775,78.1787616 Z M340.510439,78.0993131 L340.507223,76.0397294 L346.996784,76 L347,78.0595838 L340.510439,78.0993131 Z" id="Shape" fill="#3F3D56"></path>
                <polygon id="Rectangle" fill="#3F3D56" transform="translate(355.153849, 76.179585) rotate(-0.167860) translate(-355.153849, -76.179585) " points="353.509758 75.5809313 356.798238 75.5800344 356.797939 76.7782378 353.509459 76.7791346"></polygon>
                <rect id="Rectangle" fill="#3F3D56" x="0" y="71" width="11" height="12"></rect>
                <rect id="Rectangle" fill="#3F3D56" x="0" y="113" width="11" height="12"></rect>
                <rect id="Rectangle" fill="#3F3D56" x="0" y="157" width="11" height="12"></rect>
                <rect id="Rectangle" fill="#3F3D56" x="0" y="182" width="11" height="12"></rect>
                <rect id="Rectangle" fill="#3F3D56" x="0" y="216" width="11" height="12"></rect>
                <polygon id="Rectangle" fill="#0F70EB" transform="translate(529.052739, 193.749081) rotate(104.722595) translate(-529.052739, -193.749081) " points="513.88787 179.739433 544.869741 179.087299 544.217607 207.758729 513.235736 208.410863"></polygon>
                <path d="M506.419181,206.46929 C505.153645,202.852014 506.850201,198.814612 510.208543,197.451501 C513.566886,196.08839 517.315281,197.915751 518.580818,201.533027 C519.846355,205.150303 518.149802,209.187705 514.79146,210.550818 C511.43326,211.909151 507.687957,210.083297 506.419181,206.46929 Z M517.567351,201.944382 C516.512738,198.929985 513.389075,197.407182 510.590456,198.543107 C507.791836,199.679033 506.378039,203.043534 507.432652,206.057932 C508.487265,209.07233 511.610927,210.595132 514.409547,209.459207 C517.205701,208.32045 518.618359,204.958652 517.567345,201.944382 L517.567351,201.944382 Z" id="Shape" fill="#3F3D56"></path>
                <ellipse id="Oval" fill="#2F2E41" cx="428.5" cy="392.5" rx="9.5" ry="5.5"></ellipse>
                <ellipse id="Oval" fill="#2F2E41" cx="471.5" cy="392.5" rx="9.5" ry="5.5"></ellipse>
                <path d="M301.5,134 C297.910149,134 295,130.865993 295,127 C295,123.134007 297.910149,120 301.5,120 C305.089851,120 308,123.134007 308,127 C307.995896,130.864161 305.088149,133.99558 301.5,134 L301.5,134 Z M301.5,121.166667 C298.508458,121.166667 296.083333,123.778339 296.083333,127 C296.083333,130.221661 298.508458,132.833333 301.5,132.833333 C304.491542,132.833333 306.916667,130.221661 306.916667,127 C306.913341,123.779824 304.490164,121.170248 301.5,121.166667 Z" id="Shape" fill="#FFFFFF"></path>
                <path d="M155.5,243 C151.910149,243 149,239.865993 149,236 C149,232.134007 151.910149,229 155.5,229 C159.089851,229 162,232.134007 162,236 C161.995896,239.864161 159.088149,242.99558 155.5,243 L155.5,243 Z M155.5,230.166667 C152.508458,230.166667 150.083333,232.778339 150.083333,236 C150.083333,239.221661 152.508458,241.833333 155.5,241.833333 C158.491542,241.833333 160.916667,239.221661 160.916667,236 C160.913341,232.779824 158.490164,230.170248 155.5,230.166667 L155.5,230.166667 Z" id="Shape" fill="#FFFFFF"></path>
                <path d="M90.5,68 C86.9101491,68 84,64.8659932 84,61 C84,57.1340068 86.9101491,54 90.5,54 C94.0898509,54 97,57.1340068 97,61 C96.9958956,64.8641609 94.0881494,67.9955799 90.5,68 L90.5,68 Z M90.5,55.1666667 C87.5084576,55.1666667 85.0833333,57.778339 85.0833333,61 C85.0833333,64.221661 87.5084576,66.8333333 90.5,66.8333333 C93.4915424,66.8333333 95.9166667,64.221661 95.9166667,61 C95.9133412,57.7798235 93.4901638,55.170248 90.5,55.1666667 Z" id="Shape" fill="#FFFFFF"></path>
            </g>
        </g>
    </g>
</svg>