<?xml version="1.0" encoding="UTF-8"?>
<svg width="458px" height="318px" viewBox="0 0 458 318" version="1.1" xmlns="http://www.w3.org/2000/svg" xmlns:xlink="http://www.w3.org/1999/xlink">
    <!-- Generator: Sketch 61 (89581) - https://sketch.com -->
    <title>undraw_career_progress_ivdb</title>
    <desc>Created with Sketch.</desc>
    <g id="Pages" stroke="none" stroke-width="1" fill="none" fill-rule="evenodd">
        <g id="17---Careers" transform="translate(-752.000000, -146.000000)" fill-rule="nonzero">
            <g id="undraw_career_progress_ivdb" transform="translate(752.000000, 146.000000)">
                <rect id="Rectangle" fill="#335EEA" opacity="0.1" x="65" y="128" width="55" height="17" rx="7.43"></rect>
                <rect id="Rectangle" fill="#335EEA" opacity="0.1" x="122" y="143" width="55" height="17" rx="7.43"></rect>
                <rect id="Rectangle" fill="#335EEA" opacity="0.1" x="179" y="160" width="55" height="17" rx="7.43"></rect>
                <rect id="Rectangle" fill="#335EEA" opacity="0.1" x="65" y="102" width="55" height="17" rx="7.43"></rect>
                <rect id="Rectangle" fill="#335EEA" opacity="0.1" x="122" y="119" width="55" height="17" rx="7.43"></rect>
                <rect id="Rectangle" fill="#335EEA" opacity="0.1" x="179" y="135" width="55" height="17" rx="7.43"></rect>
                <rect id="Rectangle" fill="#335EEA" opacity="0.1" x="243" y="128" width="55" height="17" rx="7.43"></rect>
                <rect id="Rectangle" fill="#335EEA" opacity="0.1" x="300" y="143" width="55" height="17" rx="7.43"></rect>
                <rect id="Rectangle" fill="#335EEA" opacity="0.1" x="358" y="160" width="55" height="17" rx="7.43"></rect>
                <rect id="Rectangle" fill="#335EEA" opacity="0.1" x="243" y="102" width="55" height="17" rx="7.43"></rect>
                <rect id="Rectangle" fill="#335EEA" opacity="0.1" x="300" y="119" width="55" height="17" rx="7.43"></rect>
                <rect id="Rectangle" fill="#335EEA" opacity="0.1" x="358" y="135" width="55" height="17" rx="7.43"></rect>
                <rect id="Rectangle" fill="#335EEA" opacity="0.1" x="65" y="69" width="55" height="17" rx="7.43"></rect>
                <rect id="Rectangle" fill="#335EEA" opacity="0.1" x="122" y="86" width="55" height="17" rx="7.43"></rect>
                <rect id="Rectangle" fill="#335EEA" opacity="0.1" x="179" y="102" width="55" height="17" rx="7.43"></rect>
                <rect id="Rectangle" fill="#335EEA" opacity="0.1" x="65" y="44" width="55" height="17" rx="7.43"></rect>
                <rect id="Rectangle" fill="#335EEA" opacity="0.1" x="122" y="61" width="55" height="17" rx="7.43"></rect>
                <rect id="Rectangle" fill="#335EEA" opacity="0.1" x="179" y="77" width="55" height="17" rx="7.43"></rect>
                <rect id="Rectangle" fill="#335EEA" opacity="0.1" x="243" y="69" width="55" height="17" rx="7.43"></rect>
                <rect id="Rectangle" fill="#335EEA" opacity="0.1" x="300" y="86" width="55" height="17" rx="7.43"></rect>
                <rect id="Rectangle" fill="#335EEA" opacity="0.1" x="358" y="102" width="55" height="17" rx="7.43"></rect>
                <rect id="Rectangle" fill="#335EEA" opacity="0.1" x="243" y="44" width="55" height="17" rx="7.43"></rect>
                <rect id="Rectangle" fill="#335EEA" opacity="0.1" x="300" y="61" width="55" height="17" rx="7.43"></rect>
                <rect id="Rectangle" fill="#335EEA" opacity="0.1" x="358" y="77" width="55" height="17" rx="7.43"></rect>
                <ellipse id="Oval" fill="#335EEA" opacity="0.1" cx="229" cy="276.5" rx="229" ry="41.5"></ellipse>
                <polygon id="Path" fill="#3F3D56" points="101.240385 134.20885 82 252 169 242.810619 165.235577 232.785841 97.2668269 238.424779 113.161058 134"></polygon>
                <polygon id="Path" fill="#3F3D56" points="78 0.419354839 195.119114 0 229 257.064516 111.462604 273"></polygon>
                <polygon id="Path" fill="#FFFFFF" points="91 10 185.104918 10 218 248.604651 120.980328 262"></polygon>
                <path d="M180.243681,237.81982 C180.826038,238.985659 181.260755,240.245794 182.019459,241.295906 C184.234055,244.390523 188.437687,244.874861 191.591436,246.893648 C191.749236,246.977384 191.879274,247.10881 191.964637,247.270831 C192.108175,247.626584 191.788289,247.999481 191.480707,248.222362 C189.089763,249.975407 185.952418,250.013982 183.028331,249.992551 C182.045644,250.029087 181.062607,249.931103 180.104243,249.701092 C178.558127,249.272474 177.23347,248.145211 175.70786,247.68659 C174.916788,247.480089 174.107177,247.360853 173.292309,247.330838 L170.089347,247.103671 C169.236625,247.090803 168.392151,246.92704 167.591774,246.619333 C166.781138,246.295165 166.186487,245.558769 166.01695,244.669124 C165.926726,243.95762 166.217904,243.267546 166.390151,242.573186 C166.800261,240.927295 166.673127,238.938511 167.899357,237.815534 C168.404642,237.411199 168.983891,237.119446 169.601315,236.958299 C171.830298,236.173258 174.105737,235.540428 176.413249,235.063811 C178.312061,234.673769 179.402954,236.131068 180.243681,237.81982 Z" id="Path" fill="#3F3D56"></path>
                <path d="M142.957994,247.348282 C143.039487,248.242965 143.063934,249.267859 142.436444,249.893717 C142.045737,250.228197 141.573691,250.446085 141.071448,250.523775 C138.060307,251.246242 134.702824,251.296647 132.082847,249.608091 C131.810243,249.447582 131.56966,249.235206 131.373864,248.982233 C131.155408,248.637612 131.031505,248.238464 131.015298,247.827126 C130.921582,246.638416 131.276073,245.466508 131.597968,244.319802 C132.359666,241.598911 132.938278,238.827069 133.329679,236.024035 C133.362276,235.793013 141.018478,237.284151 141.527804,238.065423 C142.167519,239.031513 142.171594,241.350127 142.342727,242.501034 C142.600786,244.108382 142.805875,245.724132 142.957994,247.348282 Z" id="Path" fill="#3F3D56"></path>
                <path d="M172.215418,138.566375 L174.322431,158.04502 C174.743834,162.025385 175.186307,166.026698 174.895539,170.019632 C174.558417,174.628475 173.260497,179.237317 173.80832,183.804262 C174.023235,185.580761 174.512062,187.323741 174.583701,189.11281 C174.597063,190.302513 174.536547,191.491901 174.402498,192.674189 C173.450128,204.493776 176.463156,216.221185 178.148767,227.956975 C178.419831,229.404554 178.479441,230.883442 178.325756,232.347945 C178.106626,233.835344 177.668368,235.787818 179,236.491714 L166.492771,241 C164.895655,239.009818 165.953376,235.913514 165.649966,233.38703 C165.37184,231.111937 164.11606,229.084047 163.44603,226.892751 C162.83921,224.923519 162.71279,222.849539 162.51473,220.804889 C161.423298,209.672439 158.073147,198.829089 157.289338,187.6715 C157.264152,186.59397 157.122878,185.522229 156.867936,184.474639 C156.446533,183.087796 155.603728,181.876927 154.98848,180.573882 C154.044538,178.617219 153.580995,176.472012 153.125881,174.351944 L150.449974,161.887119 C147.74457,165.892623 147.854134,171.104805 147.318953,175.906381 C146.568856,182.610152 144.891674,189.200797 143.52633,195.820772 C143.209132,197.245141 142.971379,198.685857 142.814159,200.136324 C142.460181,204.020322 143.163923,207.942028 142.788875,211.821836 C142.367472,216.317552 140.466947,220.704332 140.926276,225.200049 C141.179117,227.688824 142.139915,230.043524 142.788875,232.456881 C143.437835,234.870239 143.758101,237.518229 142.767805,239.81846 C139.306671,238.554991 135.58859,238.146637 131.933544,238.628541 C127.917577,234.54343 127.205407,228.845225 126.931495,223.12607 C126.657584,217.406915 127.319186,211.67938 126.602801,206.014694 C126.3921,204.338751 126.063406,202.704707 126.008624,201.032954 C125.831635,195.674127 128.423261,190.658868 129.712752,185.450875 C130.873192,180.76256 130.983961,175.878068 130.037232,171.142514 C129.405129,168.01269 128.31791,164.975044 127.930219,161.803322 C127.403466,157.357884 128.29684,152.878927 129.194427,148.487957 C129.797033,145.525728 130.395425,142.563499 131.078097,139.618029 C131.811337,136.454687 132.683641,133.224307 134.643163,130.634976 C137.778398,126.491207 143.345126,124.65186 148.549448,125.054086 C153.753771,125.456312 158.612542,127.811012 162.910849,130.743912 C166.29854,132.994979 169.419825,135.619081 172.215418,138.566375 Z" id="Path" fill="#192534"></path>
                <path d="M158.255927,63.6042016 C158.028034,63.985875 157.86962,64.4080977 157.788636,64.8496808 C157.68705,65.7181272 158.194976,66.5145561 158.601317,67.2728581 C159.121925,68.2471055 159.521973,69.2862272 159.791894,70.3653746 C159.985313,71.0332848 160.044789,71.7355538 159.966621,72.4284644 C159.867465,72.9488956 159.689133,73.4494512 159.438378,73.9111778 C158.654141,75.4870903 157.492007,76.9443858 155.911342,77.601016 C154.687243,78.0709397 153.352323,78.1272609 152.095805,77.7619963 C150.847706,77.3936483 149.667807,76.8093822 148.605339,76.0335761 C147.709844,75.4419037 146.904469,74.7136384 146.216057,73.8730509 C145.558776,72.9538778 145.005216,71.9588473 144.566314,70.9076241 C143.721126,69.0648232 142.863747,67.0949325 143.018157,65.074206 C143.026216,64.8909771 143.059047,64.7098519 143.115679,64.5361928 C143.247628,64.2223878 143.43199,63.9355108 143.660175,63.688928 C145.393812,61.5471394 146.282657,58.7989261 146.146979,56 L152.067361,57.4022232 C153.371714,57.7114749 154.676067,58.0207265 155.964167,58.406232 C157.020652,58.7239563 158.646014,59.164534 159.33273,60.1473612 C160.019445,61.1301883 158.723219,62.7061009 158.255927,63.6042016 Z" id="Path" fill="#FBBEBE"></path>
                <circle id="Oval" fill="#FBBEBE" cx="155" cy="52" r="11"></circle>
                <path d="M153.433562,73.3563473 C153.9061,72.3286152 154.92712,71.6784174 155.859539,71.0324143 C156.791958,70.3864113 157.737034,69.5600308 157.918455,68.4400125 C157.929597,68.1866677 157.992774,67.9382709 158.104095,67.710113 C158.462718,67.1731754 159.314974,67.4416442 159.825484,67.8359577 C161.065897,68.7965726 161.909715,70.1598907 162.732438,71.4896502 C163.796757,73.106738 164.707772,74.8185818 165.453751,76.6031418 C166.639315,79.7115071 166.782764,83.1051205 166.913556,86.423227 C167.031691,89.443501 167.145606,92.509918 166.407265,95.4379058 C165.943165,97.2920185 165.141538,99.0915983 165.095128,101.000244 C164.955898,107.934289 162.53414,114.562113 162.365377,121.496158 C162.352714,123.501184 162.454134,125.505317 162.669151,127.498953 L163.065746,132 C156.931188,131.650431 150.813507,131.114892 144.712702,130.393382 C144.5355,128.321139 143.940608,126.311817 143.396345,124.306691 C141.167744,116.109113 139.739301,107.71699 139.130845,99.2468069 C138.805975,94.7499545 138.472667,90.2698815 137.970595,85.7898085 C137.519152,81.7166335 136.633143,77.6182895 137.164749,73.5535041 C137.442968,71.7059189 138.027511,69.9170158 138.894576,68.259635 C139.168647,67.5993477 139.639891,67.0385714 140.244685,66.6530171 C140.54685,66.5078398 140.867712,66.4047947 141.198199,66.3467949 C142.154698,66.1541413 143.125587,66.0404934 144.100934,66.0070141 C144.339338,65.9870517 144.579412,66.0097843 144.809741,66.0741313 C145.220812,66.277876 145.55833,66.6031958 145.775912,67.0053824 C147.655717,69.8152706 150.316076,72.0216716 153.433562,73.3563473 Z" id="Path" fill="#F2F2F2"></path>
                <path d="M148,72.8580647 C148.779515,73.9586023 150.430746,74.2192559 151.151588,75.3404802 C151.394424,75.8090959 151.578776,76.305065 151.700601,76.8175174 C152.14065,78.2035327 153.02913,79.4075043 153.569761,80.7604207 C154.349276,82.7049795 154.370231,84.8564063 154.378613,86.9457726 C154.455246,88.6100399 154.325766,90.2773189 153.993046,91.9106036 C153.74159,92.9325313 153.330877,93.9048107 153.02913,94.9143263 C152.516661,96.6310774 152.326338,98.4258385 152.467543,100.210146 C152.46761,100.595596 152.571769,100.974059 152.769291,101.306546 C153.053539,101.638817 153.424612,101.887806 153.842172,102.026447 C155.070118,102.560166 156.356737,103.106297 157.697838,102.982177 C157.972934,102.973621 158.239504,102.885901 158.46478,102.729798 C158.620166,102.59003 158.748042,102.42311 158.841965,102.237452 L159.680153,100.839025 C160.438714,99.5605807 161.230802,98.1290544 160.937436,96.6685666 C160.724381,95.9147355 160.404075,95.1945552 159.986092,94.5295519 C159.45044,93.4502642 158.993854,92.3344545 158.619845,91.1907031 C157.282935,87.3967448 155.929261,83.5490008 155.627513,79.5440371 C155.450054,78.0198618 155.621929,76.4758002 156.130426,75.0260409 C156.52406,74.1337842 157.018962,73.2884951 157.605638,72.5063892 C157.333975,72.146491 156.865129,71.9900109 156.427983,72.1133401 C156.006402,72.2419344 155.598068,72.4095523 155.208419,72.6139605 C153.976282,73.1269931 152.610035,72.9408119 151.365326,72.5891364 C150.879177,72.4484662 150.108043,71.9685325 149.605131,72.0016314 C149.433302,72.0223182 148.029337,72.907713 148,72.8580647 Z" id="Path" fill="#335EEA"></path>
                <path d="M158.17155,72.6884532 C157.920875,72.4793028 157.532329,72.2875817 157.310899,72.5315904 C157.236523,72.6373798 157.1826,72.7572556 157.152138,72.8845316 C156.934887,73.4945534 156.295665,73.795207 155.714935,74.0305011 C155.134205,74.2657952 154.507517,74.3965142 154.156572,73.9477124 C153.929258,73.5891179 153.951243,73.1181809 154.210885,72.7843137 C154.467871,72.4614061 154.777639,72.1884951 155.125849,71.9782135 C157.047609,70.5635019 158.356734,68.4152956 158.768992,66 C159.307903,66.4467176 159.664658,67.0896707 159.767514,67.7995643 C159.905386,68.4923747 159.922097,69.2069717 160.059969,69.8997821 C160.264687,70.8932462 160.72008,71.8213508 160.824527,72.8278867 C160.87884,73.3638344 160.824527,73.9041394 160.824527,74.4400871 C160.843297,74.9640856 160.901973,75.4856992 161,76 C160.022367,74.91939 159.333011,73.6514161 158.17155,72.6884532 Z" id="Path" fill="#F2F2F2"></path>
                <path d="M149.71004,70.9340629 C149.27404,70.5192385 148.83804,70.1262469 148.40204,69.7026894 C146.488828,67.8324835 145.04417,65.5357992 144.18592,63 C143.62784,63.4366573 143.01308,64.0130449 143,64.7466291 C143.049715,65.265721 143.249746,65.7589649 143.57552,66.1657653 C145.224262,68.7661787 146.312776,71.6826777 146.7714,74.7286147 C147.250428,73.9791541 148.084903,73.5339815 148.9732,73.5540066 C149.66208,73.5540066 152.753319,75.3879672 152.975679,74.9251105 C153.302679,74.2002594 150.233239,71.4274856 149.71004,70.9340629 Z" id="Path" fill="#F2F2F2"></path>
                <path d="M159.021681,66.4048098 C162.992761,70.3264925 167.853992,73.2461826 173.197534,74.9189283 C173.72875,75.0338448 174.221439,75.2818357 174.628628,75.6392571 C174.932806,76.016158 175.137395,76.4623875 175.223862,76.937524 C176.253912,80.9328359 176.600077,85.0663504 176.94202,89.1747372 C177.031555,89.854212 177.017323,90.543195 176.899805,91.2184607 C176.650735,92.3157056 175.865533,93.2035527 175.092995,94.0285804 C172.669845,96.6041746 169.904751,99.2970315 169.495264,102.798164 C169.464027,103.473118 169.383608,104.144945 169.254638,104.808384 C169.043562,105.587344 168.574973,106.274169 168.28791,107.03219 C166.877924,110.76366 170.065169,115.282467 168.123271,118.758472 C169.174468,120.762031 169.895619,122.919598 170.259359,125.149296 C170.324511,125.994579 170.519547,126.825012 170.837706,127.611815 C171.416054,128.809571 172.606522,129.57178 173.543699,130.543386 C176.401666,133.449829 176.752051,137.89744 176.920912,141.955571 C177.02645,144.242196 176.992678,146.868046 175.232305,148.367335 C174.21492,149.242618 172.826041,149.527399 171.496263,149.745173 C169.727447,150.03833 167.802436,150.247728 166.236253,149.380821 C165.11333,148.761003 164.349235,147.676322 163.618913,146.629332 C162.234255,144.631676 160.845376,142.638208 159.532484,140.590297 C157.455498,137.361381 155.496714,133.67179 156.09617,129.885876 C155.927309,133.759737 155.104113,137.662914 153.187544,141.038408 C151.270976,144.413903 148.185047,147.232398 144.440562,148.346395 C140.696076,149.460392 136.318363,148.673056 133.527941,145.959259 C132.617005,145.028894 131.8348,143.982509 131.201885,142.847606 C129.613495,140.149111 128.454415,137.223592 127.76557,134.174345 C127.584045,133.382821 127.448956,132.499162 127.850001,131.791397 C128.039969,131.456361 128.331253,131.192519 128.529665,130.861671 C129.196664,129.73511 128.554994,128.315392 127.909102,127.167892 C126.925488,127.260027 126.220495,126.112526 126.309147,125.132544 C126.397799,124.152562 126.988811,123.302406 127.406741,122.410371 C128.630981,119.780334 128.360804,116.718937 127.769792,113.883689 C127.178779,111.048442 126.296482,108.229946 126.364027,105.336067 C126.435792,102.27467 124.215275,99.5189933 122.522446,96.960151 C121.576827,95.5194935 120.475011,94.1793469 119.651815,92.6674941 C117.935527,89.4859621 117.538692,85.7655274 118.545777,82.2981102 C119.136921,80.5176266 119.912179,78.8026001 120.859169,77.1804256 L122.252269,74.5880796 C122.778312,73.3318574 123.875486,72.398898 125.207331,72.0753049 L134.845054,68.3061427 C136.077401,67.8885585 137.247431,67.3081939 138.323584,66.580704 C139.501387,65.7012329 140.379462,64.4867251 141.502386,63.5486225 C141.83293,63.2041465 142.289475,63.0063734 142.768841,63 C143.672246,63.0795712 143.993081,64.2103198 144.085954,65.093979 C144.29703,67.0706951 145.774561,68.7458783 146.276921,70.668151 C148.995578,81.2846244 154.749506,91.0760701 156.328353,101.914505 C158.10139,97.6888557 159.874427,93.4548302 162.145603,89.4762701 C162.503876,88.9050899 162.805034,88.3005478 163.044786,87.6712603 C163.31741,86.7635556 163.419017,85.8137684 163.344514,84.8695164 C163.230533,82.1431558 162.500211,79.4796145 161.778331,76.845389 C160.841155,73.260497 159.996851,69.9561982 159.021681,66.4048098 Z" id="Path" fill="#3F3D56"></path>
                <path d="M177.032123,99.5847773 C177.216648,101.344666 177.396979,103.108686 177.728286,104.847919 C178.114111,106.85981 178.701236,108.826259 179.284167,110.792707 C179.568849,111.898079 179.976723,112.969057 180.500355,113.986121 C180.690191,114.281373 180.840987,114.59929 180.949087,114.932164 C181.15458,115.758403 180.68488,116.584642 180.48358,117.410881 C179.87968,119.889597 181.691381,122.645104 180.55068,124.929654 C180.206793,125.623695 179.607086,126.197931 179.380624,126.941546 C179.116417,127.796703 179.380624,128.709697 179.519018,129.593773 C179.875486,132.072489 179.015767,134.592518 178.16863,136.976217 L176.725979,141 C175.409141,138.587383 174.079722,136.149978 172.259634,134.08025 C171.609603,133.336635 170.900859,132.646725 170.301152,131.861798 C169.406953,130.628316 168.700531,129.272734 168.204277,127.838015 C166.92396,124.429123 166.192408,120.844044 166.036107,117.212583 C165.932031,116.180172 166.053579,115.137776 166.392576,114.1555 C166.670128,113.587358 166.980991,113.035601 167.323589,112.503022 C168.447514,110.507655 168.678171,108.144612 168.657202,105.864193 C168.636233,103.583773 168.388802,101.295092 168.657202,99.0270661 C168.876204,97.1333998 169.444712,95.2951097 170.334702,93.602808 C170.859681,92.5069413 171.639918,91.5486697 172.611909,90.8059894 C173.337294,90.2710208 174.222102,89.9877477 175.12816,90 C176.499517,90.0788992 176.184985,91.2397648 176.30241,92.3593185 L177.032123,99.5847773 Z" id="Path" fill="#3F3D56"></path>
                <path d="M115.588806,93.8458453 C114.729195,96.3334037 113.95386,98.8430738 113.2628,101.374855 C112.588595,103.862414 111.986024,106.363792 111.455088,108.87899 C111.18237,109.984892 111.029818,111.116167 111,112.253778 C111.053913,113.578243 111.284846,114.889958 111.686846,116.155099 C114.40052,125.777804 119.347498,134.654241 124.918114,143 C126.509916,141.046738 128.400589,139.348754 130.522441,137.96684 C130.696072,137.86567 130.840993,137.723082 130.943819,137.552247 C131.05199,137.225589 131.002315,136.86819 130.808978,136.582099 C129.270949,133.480943 126.835384,130.748775 126.068476,127.378133 C125.748229,125.976808 125.735588,124.517441 125.373203,123.124408 C124.905473,121.320928 123.860456,119.670848 123.62027,117.821763 C123.36323,115.80684 124.041648,113.609497 123.080906,111.822601 C125.040314,111.072187 126.173821,109.086287 127.003935,107.183304 C127.890915,105.236452 128.525163,103.187442 128.891709,101.08464 C129.468703,97.0532757 128.666739,92.9475852 126.612054,89.4138454 C125.608482,87.6511089 124.320554,86.0604693 122.798583,84.704068 C122.297143,84.2604535 121.113071,82.9876527 120.384087,83 C119.410704,83.0208202 119.098885,84.5713983 118.820775,85.2679146 C117.695696,88.1120231 116.583258,90.9602775 115.588806,93.8458453 Z" id="Path" fill="#3F3D56"></path>
                <path d="M132.763388,140.312862 C132.887516,140.41311 133.028193,140.54981 132.995093,140.713851 C132.961992,140.877892 132.842002,140.918902 132.734425,140.987253 C132.175075,141.424265 131.75748,142.04704 131.542803,142.764362 C130.855233,144.470963 130.25571,146.218957 129.747095,148 C128.821188,146.472271 127.732111,145.072467 126.503234,143.830628 C125.559867,142.873723 124.504784,141.966941 124,140.672841 C124,140.636387 126.16809,138.872948 126.366694,138.681567 C126.974918,138.08464 127.74037,136.430562 128.369281,136.066026 C129.080945,135.655924 129.759507,137.264436 130.30153,137.911486 C131.04718,138.800582 131.871927,139.605068 132.763388,140.312862 Z" id="Path" fill="#FBBEBE"></path>
                <path d="M167.222364,49.8519474 C167.193308,49.3055466 167.122744,48.7007517 166.707658,48.3462168 C166.343329,48.0929518 165.904468,47.9709444 165.462401,48.0000239 C163.042452,47.9207749 160.539485,48.3295328 158.256514,47.512017 C156.753904,46.9739581 155.47129,45.9395503 154.006037,45.2972165 C152.540785,44.6548826 150.664598,44.4838717 149.481604,45.5641604 C148.585019,46.3983602 148.340118,47.6788569 148.028804,48.8592497 C147.343394,51.4644843 146.123197,53.8968288 144.446615,56 C143.321733,55.6496361 142.516467,54.6402543 141.997609,53.5808206 C140.233495,49.9687354 141.101024,45.6559224 142.354583,41.8269453 C142.769669,40.5422776 143.230414,39.2701229 143.691159,38.0021392 L144.703968,35.1992278 C146.033293,35.0680429 147.26828,34.4505216 148.174084,33.4640923 L148.609924,34.527697 C149.735552,34.4870085 150.821862,34.1013163 151.723066,33.4223823 C152.071738,34.0814001 152.968323,34.2565821 153.694723,34.0438611 C154.421123,33.8311402 155.047902,33.4223823 155.770151,33.2096613 C157.700299,32.5840115 159.759124,33.5475122 161.784742,33.6559582 C162.641922,33.6349899 163.499604,33.6600516 164.354122,33.7310362 C166.745016,34.1189391 168.434414,36.3796206 169.164965,38.698696 C169.650615,40.2419657 170.053248,42.1397702 171.568311,42.6861711 C171.601518,43.270111 170.572105,43.3827279 170.484937,43.9374708 C170.474681,44.1224207 170.517931,44.3063991 170.609463,44.4671877 L172,47.466136 C171.335279,47.6338184 170.635937,47.598972 169.990985,47.366032 C169.364206,48.8467367 167.284627,50.9822882 167.222364,49.8519474 Z" id="Path" fill="#192534"></path>
                <path d="M237.819435,56.4667764 C238.493488,58.8187004 239.024097,61.215817 239.407849,63.6427117 C239.693763,65.4613588 239.860547,67.4816012 238.895585,69 C242.572763,63.025058 246.412754,56.869967 252,53.0139205 C249.699028,50.3191193 248.56588,46.6955879 248.882738,43.0456755 C248.914506,42.6853775 244.296192,44.5683636 243.94277,44.7828267 C242.322588,45.7564891 240.837421,46.966061 239.256949,48.0083517 C238.438916,48.5445094 235.031768,49.814131 235,50.5819089 C235,51.075174 236.354123,52.5849943 236.608269,53.103995 C237.106912,54.1822871 237.512354,55.3079885 237.819435,56.4667764 L237.819435,56.4667764 Z" id="Path" fill="#FBBEBE"></path>
                <path d="M256.406983,276.195686 C254.450663,274.824011 251.896098,274.631357 249.754525,275.693988 C247.852023,276.672299 246.571089,278.5244 244.840778,279.778644 C241.867331,281.927583 237.940533,282.098997 234.458912,283.261263 C233.534959,283.570644 232.55221,284.030533 232.16163,284.933589 C231.897048,285.70065 231.959265,286.542076 232.333821,287.262303 C232.915836,288.553711 233.93574,289.600088 235.214873,290.218139 C236.777192,290.962324 238.5747,290.995771 240.305011,291.016675 L255.340237,291.192269 C259.96,291.24662 264.609161,291.30097 269.199525,291.873742 C270.270469,292.007528 271.42961,292.153857 272.374561,291.631255 C273.911682,290.795092 274.088073,288.679599 273.970479,286.9362 C273.660938,282.519029 272.669348,278.175739 271.03063,274.05929 C270.85004,273.603581 270.610652,273.08516 270.102478,273.001543 C269.741876,272.985279 269.387327,273.097985 269.102929,273.319285 C264.861148,275.827774 259.489624,277.245071 254.979056,275.238279" id="Path" fill="#FFFFFF"></path>
                <path d="M263.835489,180.965933 C262.169528,190.620928 263.256568,200.541923 265.130774,210.155356 C265.475838,212.069484 265.930558,213.962301 266.492697,215.824496 C267.163246,217.94419 268.06703,219.980758 268.69593,222.11292 C270.295253,227.516059 270.070348,233.293263 269.832948,238.933309 L268.741744,264.598223 C268.650116,266.751166 268.566818,268.953985 269.216543,271.007178 C269.478932,271.83843 269.799629,272.877495 269.13741,273.438591 C268.878303,273.624245 268.575653,273.740187 268.258615,273.775248 C265.278437,274.323241 262.200227,273.862468 259.51232,272.466026 L259.216612,246.539267 C259.124984,238.546777 259.029192,230.521036 257.796381,222.628296 C256.817629,216.352341 255.118348,210.159512 255.005896,203.808745 C254.889279,197.158727 256.52192,190.59599 258.187881,184.149629 C258.546063,182.76975 259.853842,181.759779 260.928387,180.82462 C261.303391,180.455598 261.759858,180.179439 262.261156,180.018305 C262.760944,179.881148 263.527286,180.54615 263.835489,180.965933 Z" id="Path" fill="#3F3D56"></path>
                <path d="M263.835489,180.965933 C262.169528,190.620928 263.256568,200.541923 265.130774,210.155356 C265.475838,212.069484 265.930558,213.962301 266.492697,215.824496 C267.163246,217.94419 268.06703,219.980758 268.69593,222.11292 C270.295253,227.516059 270.070348,233.293263 269.832948,238.933309 L268.741744,264.598223 C268.650116,266.751166 268.566818,268.953985 269.216543,271.007178 C269.478932,271.83843 269.799629,272.877495 269.13741,273.438591 C268.878303,273.624245 268.575653,273.740187 268.258615,273.775248 C265.278437,274.323241 262.200227,273.862468 259.51232,272.466026 L259.216612,246.539267 C259.124984,238.546777 259.029192,230.521036 257.796381,222.628296 C256.817629,216.352341 255.118348,210.159512 255.005896,203.808745 C254.889279,197.158727 256.52192,190.59599 258.187881,184.149629 C258.546063,182.76975 259.853842,181.759779 260.928387,180.82462 C261.303391,180.455598 261.759858,180.179439 262.261156,180.018305 C262.760944,179.881148 263.527286,180.54615 263.835489,180.965933 Z" id="Path" fill="#000000" opacity="0.1"></path>
                <path d="M231.167808,149.091396 C230.545287,151.643591 231.866042,154.287984 231.718824,156.911422 C231.6347,158.499734 231.007972,160.083855 231.298201,161.642831 C231.588431,163.201808 232.707287,164.375231 233.304571,165.804292 C233.740159,166.997757 233.970528,168.255889 233.98598,169.525719 C234.158435,172.660435 234.01963,175.811914 233.901855,178.934057 C233.704163,184.172552 233.556945,189.440383 234.250972,194.63278 C234.855321,199.131207 236.082599,203.524457 237.89777,207.687111 C238.447946,208.819474 238.902391,209.995575 239.256381,211.203189 C239.488798,212.328399 239.64339,213.468183 239.719066,214.614497 C240.118857,218.342632 241.123176,221.981431 242.692868,225.389034 C243.765456,227.723308 245.637226,229.579831 246.230304,232.056591 C246.793938,234.428582 246.415378,236.930487 246.823382,239.331814 C247.122024,241.112902 247.849701,242.797602 248.253499,244.557737 C248.779277,246.833339 248.766658,249.192757 249.031651,251.514459 C249.788771,258.219733 252.846698,264.925007 251.021196,271.429123 C250.655254,272.736651 250.087413,274.065134 250.343993,275.397807 C250.47018,276.051571 250.789853,276.696954 250.646841,277.346527 C250.529067,277.899712 250.100032,278.327173 249.881308,278.851023 C249.460686,279.831669 249.906546,280.996711 250.655254,281.755245 C251.453889,282.462349 252.382301,283.008814 253.389301,283.364511 C256.489289,284.684611 259.69864,286.025666 263.063621,285.996331 C263.472091,286.018016 263.879931,285.943352 264.253983,285.778409 C264.859679,285.4641 265.158321,284.781 265.414901,284.15238 L267.139454,279.902913 C267.349765,279.387445 267.560076,278.78397 267.269847,278.306219 C267.067732,278.044236 266.823229,277.817626 266.546376,277.635692 C265.154115,276.46646 265.469582,274.283055 265.83973,272.527111 C266.785249,268.017139 267.309063,263.429538 267.404446,258.823207 C267.58952,249.636982 266.071072,240.505237 264.556831,231.440544 C264.031053,228.293256 263.501068,225.125014 262.453718,222.107641 C261.406368,219.090267 259.862683,216.186046 260.115056,213.05133 C260.384255,209.665167 259.500947,206.115562 260.115056,202.775497 C260.729165,199.435433 261.700804,196.166612 262.327531,192.830738 C263.139333,188.501645 263.341232,184.088737 263.589399,179.696782 C263.694555,177.903121 263.829154,176.050789 264.670399,174.458287 C265.162528,173.52793 265.877586,172.731679 266.428602,171.830657 C267.850306,169.488002 268.077442,166.58378 269.436053,164.203408 C270.079606,163.076084 270.96712,162.082865 271.438217,160.875916 C271.768998,159.923888 271.94231,158.924631 271.951376,157.917214 C272.084692,155.388017 271.943668,152.851872 271.530754,150.352826 C264.370471,146.722662 256.429622,144.887144 248.39651,145.00537 C245.321759,145.05566 242.213358,145.365779 239.327887,146.42605 C236.577015,147.444414 234.070104,148.873475 231.167808,149.091396 Z" id="Path" fill="#3F3D56"></path>
                <path d="M248.682877,283.424723 C247.432465,284.963239 247.517527,287.161721 246.717943,288.973472 C245.748236,291.171954 243.587659,292.580159 241.537663,293.862257 L228.778352,301.849093 C228.080843,302.269453 227.332297,302.786496 227.077111,303.568365 C226.95586,304.06746 226.977954,304.590098 227.140907,305.077457 C227.759777,307.22086 229.439139,308.906015 231.59816,309.550085 C232.727363,309.81595 233.887145,309.933264 235.047427,309.898984 L240.784864,309.974649 C242.532708,310.042188 244.283219,309.974726 246.020434,309.772876 C247.611095,309.545882 249.159225,309.096097 250.74138,308.810252 C253.620731,308.293209 256.580891,308.339449 259.464495,307.839221 C261.23024,307.496109 262.974158,307.051168 264.687306,306.50668 C266.771327,305.888751 268.893626,305.245601 270.679929,304.022354 C271.171694,303.72656 271.57071,303.301629 271.83252,302.794903 C272.134491,302.101309 271.96862,301.306829 271.798496,300.571199 L269.059497,288.675017 C268.904936,287.684368 268.539645,286.737357 267.987715,285.896438 C267.379521,285.097755 266.286473,284.568101 265.338031,284.908593 C264.946663,285.084791 264.577059,285.304819 264.236477,285.564354 C262.832953,286.476535 261.03389,286.627864 259.37518,286.34202 C258.303398,286.152858 256.887114,285.862809 256.023734,285.160809 C255.368756,284.626952 255.173114,283.798843 254.615957,283.193525 C253.826002,282.391686 252.728785,281.958978 251.597318,282.003069 C250.46585,282.047159 249.406508,282.563903 248.682877,283.424723 Z" id="Path" fill="#FFFFFF"></path>
                <circle id="Oval" fill="#FBBEBE" cx="241" cy="40" r="15"></circle>
                <path d="M229.47412,40.3114278 C230.931032,39.5094525 230.931032,37.198606 232.421629,36.4297018 C233.912227,35.6607976 235.604939,36.9960452 236.560774,38.3436945 C237.953976,40.3173552 238.921217,42.5499485 239.403015,44.9041835 C239.537759,45.5738743 239.664081,46.3055734 240.177789,46.7727034 C240.691498,47.2398333 241.365214,47.2977079 242.022088,47.3638502 C243.944987,47.5512533 245.870693,47.7221209 247.799206,47.8764529 C249.946677,48.0459426 252.212048,48.1823611 254.161615,47.2770384 C254.931012,46.9393217 255.591971,46.4019085 256.073285,45.7226944 C256.459124,45.0705047 256.734979,44.3613423 256.890166,43.6226765 C257.89653,39.8649673 258.911316,36.0617853 258.99553,32.1759254 C259.029216,30.5719747 258.886051,28.9101495 258.098645,27.5046257 C257.639676,26.677847 256.96596,25.9585495 256.776477,25.0490929 C256.586994,24.1396363 257.19755,22.9821462 258.157595,23.0813596 C257.289794,23.1163958 256.4254,22.9551576 255.631159,22.6100957 C254.869017,22.1967064 254.30478,21.3079193 254.574266,20.4976762 C252.435217,20.7663792 250.877248,18.6911647 249.2098,17.3476493 C248.938666,17.0837428 248.572605,16.9352381 248.190804,16.9342599 C247.897838,17.0060048 247.614992,17.1129135 247.348658,17.2525697 C246.506513,17.5419423 245.626471,16.9921344 244.763272,16.7523686 C242.447371,16.115749 239.504073,17.6535574 237.786096,16 C237.950315,17.0541428 236.632357,17.7610386 235.545989,17.7403692 C234.459622,17.7196997 233.339568,17.3269798 232.312151,17.6824947 C232.613469,18.2234807 232.653047,18.868287 232.420078,19.440881 C232.187109,20.013475 231.705923,20.4540624 231.107882,20.6423624 L231.61738,21.7337103 C230.546543,21.9438756 229.689791,22.7321246 229.406749,23.7675859 C228.846722,25.93788 228.985676,29.0217646 229.120419,31.2540671 C229.187791,32.2337999 230.160469,39.9435113 229.47412,40.3114278 Z" id="Path" fill="#192534"></path>
                <path d="M242.133138,58.9898244 C234.392687,67.5036604 232.422391,79.4881046 230.771947,90.7717529 L228.341062,107.432341 C227.709885,111.753916 227.061649,116.075491 226.511501,120.40958 C226.127677,123.375448 225.769441,126.387202 226.187383,129.348899 C226.515766,131.684885 227.313267,133.937443 227.978562,136.18583 C229.709672,142.083081 230.571304,148.191836 230.537388,154.327267 C231.053418,152.842247 232.840332,152.241565 234.409746,151.907853 C247.578276,149.113207 261.317199,150.548326 273.585382,156 C275.739061,150.097463 275.333913,143.640129 275.935237,137.399709 C276.78818,128.502104 279.726565,119.879811 280.596567,110.998892 C280.91642,107.690968 280.954802,104.366359 280.98892,101.04175 C281.014508,98.6014785 281.040096,96.1361786 280.519802,93.745964 C279.939801,91.1012938 278.715829,88.6359939 277.44921,86.2374365 C273.947847,79.5699415 270.057706,73.1047341 265.798019,66.8737783 C263.654291,63.7368824 261.418161,60.6625575 259.089629,57.6508037 C257.909725,56.1240698 256.705655,54.6140215 255.477418,53.1206588 C254.287564,51.6731815 253.771534,50.4175889 251.882267,51.2852409 C248.312704,52.9204314 244.730347,56.1324126 242.133138,58.9898244 Z" id="Path" fill="#335EEA"></path>
                <path d="M246.801822,130.080086 C244.940929,130.147422 243.077614,130.088416 241.224701,129.903476 C239.850384,129.768916 238.446648,129.567076 237.105953,129.903476 C236.522995,130.050354 235.977431,130.318265 235.504685,130.68981 C235.146731,131.008671 235.011414,131.509316 235.159961,131.96522 C235.308508,132.421124 235.712735,132.745786 236.189742,132.792308 L237.627101,132.918458 C238.53911,132.998353 239.488943,133.090863 240.199217,133.759457 C240.490893,134.022173 240.676286,134.382683 240.720365,134.772861 C240.808624,135.752625 239.959657,136.286659 239.19895,136.694544 C238.11749,137.202611 237.117506,137.868669 236.23177,138.670891 C235.53818,139.341311 235.102285,140.234394 235.000349,141.193889 C234.993776,141.36796 235.080483,141.532327 235.227831,141.625118 C235.375179,141.717909 235.560801,141.725038 235.714825,141.643823 C237.395947,140.802824 238.492879,138.309262 240.33791,138.725556 C238.659674,139.257245 237.222259,140.363411 236.278001,141.849868 C235.798429,142.580587 235.884289,143.545389 236.485351,144.17984 C237.086413,144.814291 238.044738,144.951679 238.799683,144.51163 C239.072846,144.351615 239.336651,144.176121 239.58981,143.986006 C240.839859,142.973558 241.95937,141.809676 242.922634,140.521089 C241.577737,143.359461 240.216028,146.681408 241.76266,149.50296 C241.920178,149.820061 242.249634,150.014541 242.603221,149.999149 C243.090746,149.948689 243.233641,149.490345 243.313495,149.086665 C243.565663,147.787321 243.628705,146.416493 244.267531,145.260119 C245.746918,142.577332 249.394952,142.316622 252.173005,141.008869 C255.505828,139.461431 257.787951,136.131074 258.708365,132.573648 C259.030417,131.536181 259.086778,130.434384 258.872274,129.369442 C258.254462,126.976799 255.304094,126.425945 253.408629,127.582319 C251.084479,129.058272 249.735379,129.987576 246.801822,130.080086 Z" id="Path" fill="#FBBEBE"></path>
                <path d="M243.263803,83.2817554 C246.174752,87.8282702 251.227327,90.3896277 255.560483,93.5818615 C256.617674,94.2782128 257.539502,95.164917 258.280141,96.197895 C259.373826,97.9054667 259.52769,100.075681 259.303131,102.086073 C259.020354,104.739959 258.176178,107.292905 257.34032,109.824822 L255.523056,115.313445 C254.371152,118.795882 253.181822,122.349818 250.990293,125.277084 C250.428896,126.021518 249.776012,126.816422 249.800963,127.750119 C249.849396,128.28952 250.032556,128.807629 250.33325,129.25581 C251.750341,131.594372 254.044672,133.25162 256.691594,133.848589 C257.476143,134.05047 258.298183,134.05047 259.082731,133.848589 C260.205526,133.512122 261.049701,132.586837 261.831498,131.712022 C265.574147,127.535621 269.316796,123.300338 272.01982,118.400533 C274.660466,113.618491 276.240696,108.306513 277.69617,103.045005 C278.295559,101.108056 278.713253,99.1183195 278.94372,97.102151 C279.251448,93.3168935 278.270043,89.5316361 276.664862,86.1122868 C275.059682,82.6929376 272.851519,79.5974381 270.576821,76.5902614 C268.429979,73.636488 266.044521,70.8679591 263.444996,68.3131651 C258.92055,64.0358241 253.385588,61.5207308 247.330814,63.9475015 C243.055878,65.6634848 241.454856,69.2426561 241.072274,73.8270234 C240.748378,77.1370282 241.519127,80.462208 243.263803,83.2817554 Z" id="Path" fill="#000000" opacity="0.1"></path>
                <path d="M245.280964,82.2512414 C248.19153,86.8008688 253.2476,89.36398 257.576028,92.5583993 C258.6296,93.2620388 259.547,94.1549793 260.282855,95.1930586 C261.376397,96.9017994 261.530241,99.0692907 261.305711,101.085268 C261.018813,103.740971 260.178906,106.295665 259.339,108.829315 L257.521975,114.300652 C256.370222,117.785473 255.181048,121.337634 252.989807,124.271113 C252.432642,125.016056 251.779843,125.807296 251.804791,126.74584 C251.850616,127.284889 252.034012,127.802639 252.337009,128.248354 C253.751771,130.589528 256.044411,132.24951 258.690359,132.848486 C259.476212,133.050505 260.299487,133.050505 261.08534,132.848486 C262.207987,132.515997 263.047893,131.58587 263.833746,130.714664 C267.575903,126.531196 271.31806,122.297222 274.020729,117.394062 C276.661028,112.608746 278.24105,107.293132 279.696334,102.023813 C280.297267,100.087403 280.714942,98.097544 280.943719,96.0810988 C281.251408,92.2932498 280.270131,88.5054009 278.669319,85.0795019 C277.068508,81.653603 274.856477,78.560193 272.582077,75.5509574 C270.428109,72.6106 268.037444,69.8557102 265.434558,67.3144903 C260.914864,63.0384297 255.38063,60.5174058 249.326651,62.9500465 C245.048119,64.6672047 243.451465,68.2446176 243.064775,72.8363323 C242.759576,76.1360001 243.53858,79.4453991 245.280964,82.2512414 L245.280964,82.2512414 Z" id="Path" fill="#335EEA"></path>
                <path d="M338,232.521208 C338.003111,233.627261 337.889966,234.730553 337.662385,235.812691 C337.620191,236.016288 337.573778,236.236851 337.527364,236.410757 C336.32906,241.241941 332.949337,244.775195 328.915609,245 C328.780589,245 328.645569,245 328.493671,245 C324.227877,245 320.620307,241.301323 319.430442,236.20716 C319.396687,236.071429 319.367151,235.935697 319.337615,235.783 C319.110034,234.700861 318.996889,233.59757 319,232.491517 C319,225.590431 323.248981,220 328.493671,220 C333.738361,220 338,225.632847 338,232.521208 Z" id="Path" fill="#3F3D56"></path>
                <path d="M338,231.644876 C338.003114,232.763748 337.889868,233.879827 337.662084,234.974508 C337.619853,235.180464 337.573399,235.403584 337.526944,235.579505 C337.383358,235.579505 337.243994,235.579505 337.104631,235.579505 C336.058824,235.52229 335.019326,235.378792 333.996406,235.150429 C333.090085,235.435042 332.164029,235.650184 331.226032,235.794043 C330.506847,235.904042 329.782137,235.972803 329.055342,236 L328.320517,236 C327.450485,236 326.581413,235.941318 325.719068,235.824079 C324.324602,235.634868 322.955016,235.289507 321.635299,234.794296 C320.912821,235.038676 320.176702,235.239264 319.430825,235.395002 C319.39704,235.257698 319.367478,235.120394 319.337916,234.965926 C319.110132,233.871246 318.996886,232.755167 319,231.636295 C319,224.655225 323.252759,219 328.502112,219 C333.751464,219 338,224.676678 338,231.644876 Z" id="Path" fill="#000000" opacity="0.1"></path>
                <path d="M358,209.200457 C358.003761,206.1548 357.295395,203.151099 355.932149,200.433148 L344.767086,203.934116 L354.569218,198.123274 C351.238621,193.274798 345.906051,190.211331 340.070671,189.794118 C339.612145,189.092693 339.108955,188.422002 338.564273,187.786272 L322.529792,192.818648 L335.682286,185.02123 C330.57272,181.067871 323.843433,179.945298 317.743013,182.028619 C311.642593,184.111939 306.975471,189.126436 305.301163,195.396518 L319.035962,211.33592 L304.136553,200.471433 C296.335854,206.049157 293.763264,216.544805 298.089198,225.143424 C302.415132,233.742042 312.334859,237.85023 321.407378,234.80049 C325.377976,236.271939 329.717149,236.392954 333.762368,235.145057 C339.474404,236.412416 345.448439,235.002566 350.008969,231.31092 C354.5695,227.619273 357.225401,222.043385 357.231786,216.147093 C357.231786,215.721702 357.231786,215.296311 357.18959,214.87092 C357.736368,213.031568 358.009395,211.120605 358,209.200457 L358,209.200457 Z" id="Path" fill="#335EEA"></path>
                <path d="M357,213.361902 C351.170075,212.262127 345.191747,212.186242 339.335536,213.137679 C332.706147,214.229727 325.930736,216.62974 319.447369,214.877481 C315.642458,213.847718 312.354882,211.464314 308.637585,210.139739 C305.051016,208.89439 301.187498,208.664397 297.477348,209.475375 C294.589878,216.350393 296.006653,224.270627 301.100756,229.731403 C306.19486,235.192178 314.025914,237.185429 321.128705,234.82915 C325.05456,236.265442 329.344836,236.383565 333.344471,235.165484 C338.992139,236.402562 344.898854,235.026398 349.407994,231.422955 C353.917133,227.819512 356.543105,222.376848 356.549418,216.621436 C356.549418,216.206209 356.549418,215.790981 356.507698,215.375754 C356.708952,214.71401 356.873303,214.0417 357,213.361902 Z" id="Path" fill="#000000" opacity="0.1"></path>
            </g>
        </g>
    </g>
</svg>