<?xml version="1.0" encoding="UTF-8"?>
<svg width="353px" height="304px" viewBox="0 0 353 304" version="1.1" xmlns="http://www.w3.org/2000/svg" xmlns:xlink="http://www.w3.org/1999/xlink">
    <!-- Generator: Sketch 61 (89581) - https://sketch.com -->
    <title>undraw_Taken_if77</title>
    <desc>Created with Sketch.</desc>
    <defs>
        <linearGradient x1="50%" y1="100.004407%" x2="50%" y2="-3.13124773e-15%" id="linearGradient-1">
            <stop stop-color="#808080" stop-opacity="0.25" offset="0%"></stop>
            <stop stop-color="#808080" stop-opacity="0.12" offset="54%"></stop>
            <stop stop-color="#808080" stop-opacity="0.1" offset="100%"></stop>
        </linearGradient>
        <linearGradient x1="36.8835867%" y1="103.528257%" x2="64.0456762%" y2="4.65100432%" id="linearGradient-2">
            <stop stop-color="#808080" stop-opacity="0.25" offset="0%"></stop>
            <stop stop-color="#808080" stop-opacity="0.12" offset="54%"></stop>
            <stop stop-color="#808080" stop-opacity="0.1" offset="100%"></stop>
        </linearGradient>
        <linearGradient x1="36.9621375%" y1="102.990254%" x2="64.124227%" y2="4.11300106%" id="linearGradient-3">
            <stop stop-color="#808080" stop-opacity="0.25" offset="0%"></stop>
            <stop stop-color="#808080" stop-opacity="0.12" offset="54%"></stop>
            <stop stop-color="#808080" stop-opacity="0.1" offset="100%"></stop>
        </linearGradient>
        <linearGradient x1="50%" y1="100%" x2="50%" y2="-9.17895279e-15%" id="linearGradient-4">
            <stop stop-color="#808080" stop-opacity="0.25" offset="0%"></stop>
            <stop stop-color="#808080" stop-opacity="0.12" offset="54%"></stop>
            <stop stop-color="#808080" stop-opacity="0.1" offset="100%"></stop>
        </linearGradient>
    </defs>
    <g id="Pages" stroke="none" stroke-width="1" fill="none" fill-rule="evenodd">
        <g id="33---Error-404" transform="translate(-464.000000, -153.000000)" fill-rule="nonzero">
            <g id="undraw_Taken_if77" transform="translate(464.000000, 153.000000)">
                <g id="Group" opacity="0.8" transform="translate(120.625860, 8.000000)" fill="url(#linearGradient-1)">
                    <ellipse id="Oval" cx="61.5" cy="47.6291667" rx="61.2740816" ry="47.275"></ellipse>
                </g>
                <ellipse id="Oval" fill="#0F70EB" cx="181.62586" cy="55.5" rx="60" ry="46.5"></ellipse>
                <path d="M131.131695,60.8850109 C131.131695,35.1524982 157.872331,14.2918175 190.861208,14.2918175 C201.103278,14.2350549 211.243241,16.3425793 220.62586,20.4782042 C210.127313,13.3384504 196.392028,9 181.359544,9 C148.370667,9 121.62586,29.8606807 121.62586,55.5931933 C121.62586,72.8713975 133.684381,87.9530775 151.599064,96 C139.0567,87.4574946 131.131695,74.8957277 131.131695,60.8850109 Z" id="Path" fill="#FFFFFF" opacity="0.1"></path>
                <polygon id="Path" fill="#335EEA" opacity="0.2" points="181.62586 74 248.12586 189.002091 314.62586 304 181.62586 304 48.6258597 304 115.12586 189.002091"></polygon>
                <g id="Group" opacity="0.3" transform="translate(143.625860, 187.000000)" fill="url(#linearGradient-2)">
                    <path d="M54.1301379,49.952514 L59.3172414,34.6215084 C62.9793391,23.6603245 59.0174002,11.6029943 49.5572414,4.91899441 L49.5993103,4.89385475 C47.5590148,3.46325415 45.3216006,2.33423672 42.9566207,1.54189944 L42.9566207,1.54189944 L42.8851034,1.51675978 L42.8051724,1.49162011 L42.8051724,1.49162011 C40.5095654,0.718320246 38.1163277,0.269809726 35.6955172,0.159217877 C34.8392823,0.115211071 33.9813384,0.115211071 33.1251034,0.159217877 C31.6394492,0.236662245 30.1631091,0.4399098 28.712069,0.766759777 C28.2913793,0.858938547 27.8706897,0.963687151 27.4878621,1.07681564 C27.1050345,1.18994413 26.675931,1.31145251 26.2762759,1.44134078 C25.4769655,1.70530726 24.6902759,2.0027933 23.9204138,2.34217877 C23.5333793,2.50977654 23.1505517,2.68575419 22.7761379,2.87430168 C21.6439808,3.43104457 20.5542845,4.06962418 19.5157931,4.7849162 C19.1666207,5.02374302 18.8258621,5.27094972 18.4893103,5.52234637 C14.3309829,8.67189555 11.2180775,12.9925499 9.55386207,17.924581 L1.40089655,42.0796089 C0.117745265,45.8678185 -0.268130195,49.9003157 0.273448276,53.8617318 C0.357586207,54.4692737 0.462758621,55.0726257 0.584758621,55.6717877 C0.706758621,56.2709497 0.858206897,56.8617318 1.00544828,57.448324 C1.11903448,57.8379888 1.23682759,58.2276536 1.36724138,58.6131285 C1.56075862,59.1871508 1.78793103,59.7611732 2.00248276,60.3226257 C2.15813793,60.6955307 2.3222069,61.0684358 2.49468966,61.4371508 C2.83544828,62.1703911 3.21406897,62.8868715 3.62213793,63.5865922 C4.0302069,64.2863128 4.46351724,64.9692737 4.95151724,65.6312849 C5.30489655,66.1256983 5.67931034,66.6117318 6.06634483,67.0810056 C6.588,67.7094972 7.13489655,68.3379888 7.71544828,68.8952514 C10.2281719,71.4183394 13.2353796,73.3993773 16.549931,74.7150838 L16.549931,74.7150838 L16.549931,74.7150838 L16.6929655,74.773743 C16.8709564,74.4592736 17.0676277,74.1556615 17.281931,73.8645251 C18.544,72.1424581 20.74,70.9315642 22.8308276,71.3840782 C22.9822759,71.4175978 23.1337241,71.4636872 23.2851724,71.5097765 C24.3453103,71.8826816 25.3886207,72.5488827 26.4108966,72.8756983 C27.1635427,73.2125209 28.0269919,73.2017904 28.7709655,72.8463687 C30.8155172,71.7611732 30.0582759,68.3379888 31.8125517,66.8379888 C31.8942237,66.7687874 31.9799119,66.7044304 32.0691724,66.6452514 C32.0443602,66.6148407 32.0218609,66.5826283 32.0018621,66.5488827 C33.3564828,65.7108939 35.2327586,66.2681564 36.7935172,66.8086592 C38.4762759,67.3994413 40.6722759,67.797486 41.8417931,66.4273743 C42.6326897,65.4888268 42.5737931,64.0600559 43.3268276,63.075419 C44.2018621,61.9441341 45.8509655,61.8184358 47.2771034,62.0195531 L47.3486207,62.0405028 C50.0831034,63.1634078 53.07,61.2988827 52.8596552,58.3617318 C52.6114483,54.4441341 53.8482759,50.7527933 54.1301379,49.952514 Z" id="Path"></path>
                </g>
                <path d="M161.023531,259.119169 C162.241205,257.441395 164.330432,256.266953 166.332086,256.724146 C168.333741,257.18134 170.231142,259.098197 172.011781,258.137671 C174.447127,256.829007 172.7207,252.017991 176.673968,251.661464 C177.497776,251.606701 178.322682,251.750499 179.080124,252.080907 C180.748169,252.7646 183.35866,253.536376 184.643055,251.997018 C185.397846,251.09102 185.343634,249.711051 186.065064,248.771498 C186.899087,247.680945 188.4879,247.542529 189.843187,247.75225 L189.909909,247.773222 C192.52457,248.859581 195.385268,247.055974 195.180933,244.220536 C194.918216,240.445545 196.110868,236.888664 196.369415,236.116888 L201.32351,221.306339 C205.710335,208.088686 198.657171,193.789501 185.53963,189.306995 L185.53963,189.306995 C172.399942,184.900418 158.189007,191.995789 153.734173,205.187126 L145.92355,228.478822 C141.709475,241.195174 148.074379,255.012299 160.443886,260 C160.6198,259.695235 160.813348,259.401119 161.023531,259.119169 L161.023531,259.119169 Z" id="Path" fill="#FFFFFF"></path>
                <circle id="Oval" fill="#000000" opacity="0.2" cx="170.12586" cy="203.5" r="2.5"></circle>
                <circle id="Oval" fill="#000000" opacity="0.2" cx="186.12586" cy="208.5" r="2.5"></circle>
                <ellipse id="Oval" fill="#E0E0E0" transform="translate(174.778158, 216.206976) rotate(-71.400000) translate(-174.778158, -216.206976) " cx="174.778158" cy="216.206976" rx="4.08121045" ry="2.72220083"></ellipse>
                <circle id="Oval" fill="#FFFFFF" cx="231.62586" cy="204" r="4"></circle>
                <circle id="Oval" fill="#FFFFFF" cx="244.62586" cy="197" r="2"></circle>
                <g id="Group" opacity="0.5" transform="translate(148.625860, 23.000000)">
                    <g opacity="0.3" fill="url(#linearGradient-3)" id="Path">
                        <path d="M54.1301379,49.952514 L59.3172414,34.6215084 C62.9793391,23.6603245 59.0174002,11.6029943 49.5572414,4.91899441 L49.5993103,4.89385475 C47.5590148,3.46325415 45.3216006,2.33423672 42.9566207,1.54189944 L42.9566207,1.54189944 L42.8851034,1.51675978 L42.8051724,1.49162011 L42.8051724,1.49162011 C40.5095654,0.718320246 38.1163277,0.269809726 35.6955172,0.159217877 C34.8392823,0.115211071 33.9813384,0.115211071 33.1251034,0.159217877 C31.6394492,0.236662245 30.1631091,0.4399098 28.712069,0.766759777 C28.2913793,0.858938547 27.8706897,0.963687151 27.4878621,1.07681564 C27.1050345,1.18994413 26.675931,1.31145251 26.2762759,1.44134078 C25.4769655,1.70530726 24.6902759,2.0027933 23.9204138,2.34217877 C23.5333793,2.50977654 23.1505517,2.68575419 22.7761379,2.87430168 C21.6439808,3.43104457 20.5542845,4.06962418 19.5157931,4.7849162 C19.1666207,5.02374302 18.8258621,5.27094972 18.4893103,5.52234637 C14.3309829,8.67189555 11.2180775,12.9925499 9.55386207,17.924581 L1.40089655,42.0796089 C0.117745265,45.8678185 -0.268130195,49.9003157 0.273448276,53.8617318 C0.357586207,54.4692737 0.462758621,55.0726257 0.584758621,55.6717877 C0.706758621,56.2709497 0.858206897,56.8617318 1.00544828,57.448324 C1.11903448,57.8379888 1.23682759,58.2276536 1.36724138,58.6131285 C1.56075862,59.1871508 1.78793103,59.7611732 2.00248276,60.3226257 C2.15813793,60.6955307 2.3222069,61.0684358 2.49468966,61.4371508 C2.83544828,62.1703911 3.21406897,62.8868715 3.62213793,63.5865922 C4.0302069,64.2863128 4.46351724,64.9692737 4.95151724,65.6312849 C5.30489655,66.1256983 5.67931034,66.6117318 6.06634483,67.0810056 C6.588,67.7094972 7.13489655,68.3170391 7.71544828,68.8952514 C10.2281719,71.4183394 13.2353796,73.3993773 16.549931,74.7150838 L16.549931,74.7150838 L16.549931,74.7150838 L16.6929655,74.773743 C16.8709564,74.4592736 17.0676277,74.1556615 17.281931,73.8645251 C18.544,72.1424581 20.74,70.9315642 22.8308276,71.3840782 C22.9822759,71.4175978 23.1337241,71.4636872 23.2851724,71.5097765 C24.3453103,71.8826816 25.3886207,72.5488827 26.4108966,72.8756983 C27.1635427,73.2125209 28.0269919,73.2017904 28.7709655,72.8463687 C30.8155172,71.7611732 30.0582759,68.3379888 31.8125517,66.8379888 C31.8942237,66.7687874 31.9799119,66.7044304 32.0691724,66.6452514 C32.0443602,66.6148407 32.0218609,66.5826283 32.0018621,66.5488827 C33.3564828,65.7108939 35.2327586,66.2681564 36.7935172,66.8086592 C38.4762759,67.3994413 40.6722759,67.797486 41.8417931,66.4273743 C42.6326897,65.4888268 42.5737931,64.0600559 43.3268276,63.075419 C44.2018621,61.9441341 45.8509655,61.8184358 47.2771034,62.0195531 L47.3486207,62.0195531 C50.0831034,63.1424581 53.07,61.277933 52.8596552,58.3407821 C52.6114483,54.4441341 53.8482759,50.7527933 54.1301379,49.952514 Z"></path>
                    </g>
                    <path d="M17.7573103,72.5740223 C18.9857241,70.8980447 21.0933793,69.7248603 23.1126897,70.1815642 C25.132,70.6382682 27.0461379,72.5530726 28.8424828,71.5935754 C31.2993103,70.2863128 29.5576552,65.4804469 33.5457931,65.1243017 C34.3768679,65.0695973 35.20905,65.2132418 35.9731724,65.5432961 C37.655931,66.226257 40.2894483,66.9972067 41.5851724,65.4594972 C42.3466207,64.5544693 42.291931,63.1759777 43.0197241,62.2374302 C43.8611034,61.1480447 45.463931,61.0097765 46.8311724,61.2192737 L46.8984828,61.2402235 C49.5362069,62.325419 52.4221379,60.523743 52.216,57.6913408 C51.9509655,53.9203911 53.1541379,50.3673184 53.4149655,49.5963687 L58.4127586,34.801676 C62.8382781,21.5981751 55.7229004,7.31429847 42.4896552,2.83659218 L42.4896552,2.83659218 C29.2340678,-1.56526697 14.8977836,5.52250708 10.4036552,18.6997207 L2.52413793,41.9664804 C-1.72710794,54.6692176 4.69393903,68.4715494 17.1725517,73.4539106 C17.3500176,73.1494717 17.545273,72.8556704 17.7573103,72.5740223 Z" id="Path" fill="#FFFFFF"></path>
                    <ellipse id="Oval" fill="#000000" opacity="0.2" cx="27.0713793" cy="16.3743017" rx="2.73868966" ry="2.72765363"></ellipse>
                    <ellipse id="Oval" fill="#000000" opacity="0.2" cx="42.6453103" cy="21.5907821" rx="2.73868966" ry="2.72765363"></ellipse>
                </g>
                <path d="M239.066449,41 C239.84647,44.0148396 240.239833,47.1166566 240.237065,50.2307692 C240.237065,75.9384615 213.33808,96.779021 180.153855,96.779021 C152.994734,96.7622378 130.04815,82.806993 122.62586,63.6573427 C128.139082,84.9594406 152.415719,101 181.538454,101 C214.722679,101 241.62586,80.1594406 241.62586,54.4517483 C241.617311,49.847622 240.749304,45.2855553 239.066449,41 L239.066449,41 Z" id="Path" fill="#000000" opacity="0.1"></path>
                <g id="Group" opacity="0.8" transform="translate(57.625860, 43.000000)" fill="url(#linearGradient-4)">
                    <ellipse id="Oval" cx="124" cy="32.3666667" rx="123.657643" ry="32.2541667"></ellipse>
                </g>
                <path d="M181.62586,44 C115.353951,44 61.6258597,57.8767032 61.6258597,75 L301.62586,75 C301.62586,57.8767032 247.897768,44 181.62586,44 Z" id="Path" fill="#FFFFFF"></path>
                <path d="M181.62586,107 C247.897768,107 301.62586,93.1214429 301.62586,76 L61.6258597,76 C61.6258597,93.1214429 115.353951,107 181.62586,107 Z" id="Path" fill="#FFFFFF"></path>
                <path d="M181.62586,107 C247.897768,107 301.62586,93.1214429 301.62586,76 L61.6258597,76 C61.6258597,93.1214429 115.353951,107 181.62586,107 Z" id="Path" fill="#000000" opacity="0.05"></path>
                <rect id="Rectangle" fill="#000000" opacity="0.05" x="124.62586" y="68" width="114" height="16" rx="8"></rect>
                <path d="M57.1334961,24.0490379 C56.3670325,23.7148359 55.9721921,22.8603712 56.2147017,22.0606968 C56.2335157,22.0010335 56.2455434,21.9394425 56.2505571,21.8770887 L56.2505571,21.8770887 C56.2740499,21.5131281 56.0552884,21.1770357 55.7127955,21.0509032 C55.3703026,20.9247708 54.9855692,21.0386095 54.7670403,21.3307427 L54.7670403,21.3307427 C54.7311525,21.3809199 54.7010805,21.435005 54.6774018,21.4919595 C54.3444777,22.2593111 53.4879076,22.654475 52.6874276,22.4099999 C52.6275942,22.3916816 52.5660053,22.3796741 52.5036687,22.374174 L52.5036687,22.374174 C52.1394092,22.3507005 51.8030408,22.5692825 51.6768047,22.9114943 C51.5505687,23.2537062 51.6645009,23.6381238 51.956874,23.8564734 L51.956874,23.8564734 C52.0063802,23.8946318 52.060612,23.9262411 52.1182233,23.9505165 C52.8846869,24.2847185 53.2795273,25.1391833 53.0370177,25.9388577 C53.0186331,25.9971003 53.0066113,26.05716 53.0011623,26.1179876 L53.0011623,26.1179876 C52.9754171,26.4828146 53.1934268,26.820941 53.5365362,26.9483362 C53.8796457,27.0757315 54.265739,26.9619063 54.4846791,26.6688118 L54.4846791,26.6688118 C54.5215103,26.6176269 54.5516345,26.561943 54.5743176,26.5031167 C54.9153317,25.7445208 55.7697145,25.3599795 56.5642918,25.6074675 C56.6241252,25.6257859 56.685714,25.6377933 56.7480507,25.6432935 L56.7480507,25.6432935 C57.1123102,25.666767 57.4486786,25.448185 57.5749147,25.1059732 C57.7011507,24.7637613 57.5872185,24.3793437 57.2948454,24.1609941 L57.2948454,24.1609941 C57.2463864,24.1165446 57.1921067,24.0788812 57.1334961,24.0490379 Z" id="Path" fill="#4D8AF0" opacity="0.5"></path>
                <path d="M270.13165,152.049038 C269.371105,151.706791 268.98543,150.854491 269.231905,150.060697 C269.25079,150.001033 269.262862,149.939442 269.267895,149.877089 L269.267895,149.877089 C269.291476,149.513128 269.071894,149.177036 268.728117,149.050903 C268.38434,148.924771 267.998165,149.03861 267.778816,149.330743 L267.778816,149.330743 C267.742794,149.38092 267.712609,149.435005 267.688842,149.49196 C267.35467,150.259311 266.494888,150.654475 265.691407,150.41 C265.63135,150.391682 265.56953,150.379674 265.50696,150.374174 L265.50696,150.374174 C265.141334,150.3507 264.803705,150.569282 264.676996,150.911494 C264.550286,151.253706 264.664646,151.638124 264.958115,151.856473 L264.958115,151.856473 C265.007807,151.894632 265.062242,151.926241 265.120069,151.950517 C265.880615,152.292763 266.266289,153.145063 266.019814,153.938858 C266.001361,153.9971 265.989294,154.05716 265.983825,154.117988 L265.983825,154.117988 C265.957983,154.482815 266.17681,154.820941 266.521206,154.948336 C266.865601,155.075731 267.253142,154.961906 267.472903,154.668812 L267.472903,154.668812 C267.509872,154.617627 267.540109,154.561943 267.562878,154.503117 C267.90517,153.744521 268.762756,153.359979 269.560312,153.607468 C269.62037,153.625786 269.682189,153.637793 269.74476,153.643293 L269.74476,153.643293 C270.110385,153.666767 270.448014,153.448185 270.574724,153.105973 C270.701433,152.763761 270.587074,152.379344 270.293604,152.160994 L270.293604,152.160994 C270.244964,152.116545 270.190481,152.078881 270.13165,152.049038 L270.13165,152.049038 Z" id="Path" fill="#4D8AF0" opacity="0.5"></path>
                <path d="M35.1334961,211.049038 C34.3670325,210.714836 33.9721921,209.860371 34.2147017,209.060697 C34.2335157,209.001033 34.2455434,208.939442 34.2505571,208.877089 L34.2505571,208.877089 C34.2740499,208.513128 34.0552884,208.177036 33.7127955,208.050903 C33.3703026,207.924771 32.9855692,208.03861 32.7670403,208.330743 L32.7670403,208.330743 C32.7311525,208.38092 32.7010805,208.435005 32.6774018,208.49196 C32.3444777,209.259311 31.4879076,209.654475 30.6874276,209.41 C30.6275942,209.391682 30.5660053,209.379674 30.5036687,209.374174 L30.5036687,209.374174 C30.1394092,209.3507 29.8030408,209.569282 29.6768047,209.911494 C29.5505687,210.253706 29.6645009,210.638124 29.956874,210.856473 L29.956874,210.856473 C30.0063802,210.894632 30.060612,210.926241 30.1182233,210.950517 C30.8846869,211.284719 31.2795273,212.139183 31.0370177,212.938858 C31.0186331,212.9971 31.0066113,213.05716 31.0011623,213.117988 L31.0011623,213.117988 C30.9754171,213.482815 31.1934268,213.820941 31.5365362,213.948336 C31.8796457,214.075731 32.265739,213.961906 32.4846791,213.668812 L32.4846791,213.668812 C32.5215103,213.617627 32.5516345,213.561943 32.5743176,213.503117 C32.9153317,212.744521 33.7697145,212.359979 34.5642918,212.607468 C34.6241252,212.625786 34.685714,212.637793 34.7480507,212.643293 L34.7480507,212.643293 C35.1123102,212.666767 35.4486786,212.448185 35.5749147,212.105973 C35.7011507,211.763761 35.5872185,211.379344 35.2948454,211.160994 L35.2948454,211.160994 C35.2463864,211.116545 35.1921067,211.078881 35.1334961,211.049038 Z" id="Path" fill="#4D8AF0" opacity="0.5"></path>
                <path d="M12.1110865,73.0490379 C11.3533817,72.706791 10.9691476,71.8544913 11.2147017,71.0606968 C11.2335157,71.0010335 11.2455434,70.9394425 11.2505571,70.8770887 L11.2505571,70.8770887 C11.2740499,70.5131281 11.0552884,70.1770357 10.7127955,70.0509032 C10.3703026,69.9247708 9.98556923,70.0386095 9.7670403,70.3307427 L9.7670403,70.3307427 C9.73115249,70.3809199 9.70108053,70.435005 9.67740182,70.4919595 C9.34447774,71.2593111 8.48790761,71.654475 7.68742761,71.4099999 C7.62759416,71.3916816 7.56600535,71.3796741 7.50366873,71.374174 L7.50366873,71.374174 C7.13940919,71.3507005 6.80304079,71.5692825 6.67680474,71.9114943 C6.55056869,72.2537062 6.66450092,72.6381238 6.95687402,72.8564734 L6.95687402,72.8564734 C7.00638024,72.8946318 7.06061201,72.9262411 7.11822328,72.9505165 C7.88468691,73.2847185 8.27952729,74.1391833 8.03701768,74.9388577 C8.01863306,74.9971003 8.00661126,75.05716 8.00116228,75.1179876 L8.00116228,75.1179876 C7.97541711,75.4828146 8.19342677,75.820941 8.53653623,75.9483362 C8.87964569,76.0757315 9.26573901,75.9619063 9.48467909,75.6688118 L9.48467909,75.6688118 C9.52151032,75.6176269 9.55163449,75.561943 9.57431757,75.5031167 C9.91533168,74.7445208 10.7697145,74.3599795 11.5642918,74.6074675 C11.6241252,74.6257859 11.685714,74.6377933 11.7480507,74.6432935 L11.7480507,74.6432935 C12.1123102,74.666767 12.4486786,74.448185 12.5749147,74.1059732 C12.7011507,73.7637613 12.5872185,73.3793437 12.2948454,73.1609941 L12.2948454,73.1609941 C12.2394989,73.1147612 12.1775657,73.0770281 12.1110865,73.0490379 Z" id="Path" fill="#4D8AF0" opacity="0.5"></path>
                <path d="M266.132981,3.02453968 C265.388045,2.6850426 265.010286,1.83959094 265.251702,1.05217433 C265.270199,0.992990441 265.282024,0.931894285 265.286953,0.870041491 L265.286953,0.870041491 C265.31005,0.509005207 265.094975,0.175613259 264.758254,0.0504942442 C264.421533,-0.0746247709 264.043283,0.0382992909 263.828437,0.328085244 L263.828437,0.328085244 C263.793154,0.377859319 263.763589,0.431509869 263.740309,0.488006759 C263.405042,1.24050757 262.565057,1.62195917 261.783871,1.37645962 C261.725045,1.35828845 261.664495,1.34637746 261.603208,1.34092151 L261.603208,1.34092151 C261.210683,1.25790962 260.816938,1.47670184 260.676959,1.85561017 C260.53698,2.2345185 260.692836,2.65966723 261.043597,2.85573364 L261.043597,2.85573364 C261.092268,2.89358549 261.145586,2.92494075 261.202227,2.94902119 C261.947162,3.28851828 262.324921,4.13396993 262.083505,4.92138655 C262.065431,4.97916116 262.053611,5.03873827 262.048254,5.09907712 L262.048254,5.09907712 C262.009912,5.47563939 262.233055,5.82947509 262.587557,5.95424364 C262.942059,6.0790122 263.335158,5.94206541 263.537615,5.62326431 L263.537615,5.62326431 C263.573826,5.57249069 263.603442,5.51725412 263.625743,5.45890053 C263.96101,4.70639972 264.800995,4.32494812 265.582182,4.57044767 C265.641007,4.58861884 265.701558,4.60052983 265.762844,4.60598578 L265.762844,4.60598578 C266.120965,4.62927067 266.451665,4.41244492 266.575773,4.07298268 C266.699882,3.73352043 266.58787,3.3521915 266.300424,3.13559629 L266.300424,3.13559629 C266.250068,3.09082279 266.193698,3.05343548 266.132981,3.02453968 L266.132981,3.02453968 Z" id="Path" fill="#4D8AF0" opacity="0.5"></path>
                <g id="Group" opacity="0.5" transform="translate(43.625860, 107.000000)" fill="#47E6B1">
                    <rect id="Rectangle" x="2.88235294" y="0.377777778" width="1.23529412" height="7.55555556"></rect>
                    <polygon id="Rectangle" transform="translate(3.500000, 4.155556) rotate(90.000000) translate(-3.500000, -4.155556) " points="2.83333333 0.655555556 4.16666667 0.655555556 4.16666667 7.65555556 2.83333333 7.65555556"></polygon>
                </g>
                <g id="Group" opacity="0.5" transform="translate(345.625860, 74.000000)" fill="#47E6B1">
                    <rect id="Rectangle" x="2.88235294" y="0.377777778" width="1.23529412" height="7.55555556"></rect>
                    <polygon id="Rectangle" transform="translate(3.500000, 4.155556) rotate(90.000000) translate(-3.500000, -4.155556) " points="2.83333333 0.655555556 4.16666667 0.655555556 4.16666667 7.65555556 2.83333333 7.65555556"></polygon>
                </g>
                <g id="Group" opacity="0.5" transform="translate(303.625860, 190.000000)" fill="#47E6B1">
                    <rect id="Rectangle" x="2.88235294" y="0.377777778" width="1.23529412" height="7.55555556"></rect>
                    <polygon id="Rectangle" transform="translate(3.500000, 4.155556) rotate(90.000000) translate(-3.500000, -4.155556) " points="2.83333333 0.655555556 4.16666667 0.655555556 4.16666667 7.65555556 2.83333333 7.65555556"></polygon>
                </g>
                <circle id="Oval" fill="#F55F44" opacity="0.5" cx="303.12586" cy="34.5" r="2.5"></circle>
                <circle id="Oval" fill="#F55F44" opacity="0.5" cx="3.1258597" cy="5.5" r="2.5"></circle>
                <circle id="Oval" fill="#F55F44" opacity="0.5" cx="79.1258597" cy="149.5" r="2.5"></circle>
                <ellipse id="Oval" fill="#000000" opacity="0.05" cx="98.6258597" cy="65" rx="14" ry="3"></ellipse>
                <ellipse id="Oval" fill="#000000" opacity="0.05" cx="98.6258597" cy="87" rx="14" ry="3"></ellipse>
                <ellipse id="Oval" fill="#000000" opacity="0.05" cx="260.62586" cy="65" rx="14" ry="3"></ellipse>
                <ellipse id="Oval" fill="#000000" opacity="0.05" cx="260.62586" cy="87" rx="14" ry="3"></ellipse>
                <ellipse id="Oval" fill="#000000" opacity="0.05" cx="181.62586" cy="52" rx="14" ry="3"></ellipse>
                <ellipse id="Oval" fill="#000000" opacity="0.05" cx="191.62586" cy="22" rx="14" ry="3"></ellipse>
                <ellipse id="Oval" fill="#000000" opacity="0.05" cx="164.62586" cy="34" rx="14" ry="3"></ellipse>
                <ellipse id="Oval" fill="#000000" opacity="0.05" cx="217.62586" cy="39" rx="14" ry="3"></ellipse>
                <ellipse id="Oval" fill="#000000" opacity="0.05" cx="181.62586" cy="96" rx="14" ry="3"></ellipse>
            </g>
        </g>
    </g>
</svg>