<?xml version="1.0" encoding="UTF-8"?>
<svg width="503px" height="316px" viewBox="0 0 503 316" version="1.1" xmlns="http://www.w3.org/2000/svg" xmlns:xlink="http://www.w3.org/1999/xlink">
    <!-- Generator: Sketch 61 (89581) - https://sketch.com -->
    <title>undraw_domain_names_rdql</title>
    <desc>Created with Sketch.</desc>
    <g id="Home" stroke="none" stroke-width="1" fill="none" fill-rule="evenodd">
        <g id="45---Domain" transform="translate(-707.000000, -1463.000000)">
            <g id="undraw_domain_names_rdql" transform="translate(654.000000, 1394.000000)">
                <rect id="Rectangle" fill="#F2F2F2" fill-rule="nonzero" x="119" y="81" width="382" height="267" rx="30.99485"></rect>
                <rect id="Rectangle" fill="#FFFFFF" fill-rule="nonzero" x="185" y="137" width="264" height="22" rx="11"></rect>
                <rect id="Rectangle" stroke="#3F3D56" x="131" y="70" width="382" height="267" rx="30.99485"></rect>
                <line x1="131" y1="90.5" x2="513" y2="90.5" id="Path" stroke="#3F3D56"></line>
                <circle id="Oval" fill="#0F70EB" fill-rule="nonzero" cx="144.5" cy="81.5" r="5.5"></circle>
                <circle id="Oval" fill="#0F70EB" fill-rule="nonzero" cx="159.5" cy="81.5" r="5.5"></circle>
                <circle id="Oval" fill="#0F70EB" fill-rule="nonzero" cx="174.5" cy="82.5" r="5.5"></circle>
                <circle id="Oval" stroke="#3F3D56" cx="145.5" cy="79.5" r="5.5"></circle>
                <circle id="Oval" stroke="#3F3D56" cx="160.5" cy="80.5" r="5.5"></circle>
                <circle id="Oval" stroke="#3F3D56" cx="175.5" cy="80.5" r="5.5"></circle>
                <rect id="Rectangle" stroke="#3F3D56" x="190" y="133" width="264" height="22" rx="11"></rect>
                <circle id="Oval" stroke="#3F3D56" cx="438.5" cy="140.5" r="3.5"></circle>
                <line x1="441" y1="144" x2="447" y2="150" id="Path" stroke="#3F3D56"></line>
                <rect id="Rectangle" fill="#0F70EB" fill-rule="nonzero" x="197" y="143" width="47" height="8" rx="4"></rect>
                <rect id="Rectangle" stroke="#3F3D56" x="198" y="141" width="47" height="8" rx="4"></rect>
                <rect id="Rectangle" fill="#0F70EB" fill-rule="nonzero" x="180" y="190" width="47" height="8" rx="4"></rect>
                <rect id="Rectangle" fill="#FFFFFF" fill-rule="nonzero" x="180" y="215" width="47" height="8" rx="4"></rect>
                <rect id="Rectangle" fill="#FFFFFF" fill-rule="nonzero" x="180" y="239" width="47" height="8" rx="4"></rect>
                <rect id="Rectangle" fill="#FFFFFF" fill-rule="nonzero" x="180" y="264" width="47" height="8" rx="4"></rect>
                <rect id="Rectangle" fill="#FFFFFF" fill-rule="nonzero" x="180" y="289" width="47" height="8" rx="4"></rect>
                <rect id="Rectangle" stroke="#3F3D56" x="182" y="187" width="47" height="8" rx="4"></rect>
                <rect id="Rectangle" stroke="#3F3D56" x="182" y="212" width="47" height="8" rx="4"></rect>
                <rect id="Rectangle" stroke="#3F3D56" x="182" y="237" width="47" height="8" rx="4"></rect>
                <rect id="Rectangle" stroke="#3F3D56" x="182" y="262" width="47" height="8" rx="4"></rect>
                <rect id="Rectangle" stroke="#3F3D56" x="182" y="287" width="47" height="8" rx="4"></rect>
                <rect id="Rectangle" fill="#00C9A7" fill-rule="nonzero" x="435" y="190" width="25" height="8" rx="4"></rect>
                <rect id="Rectangle" fill="#FFFFFF" fill-rule="nonzero" x="435" y="214" width="25" height="8" rx="4"></rect>
                <rect id="Rectangle" fill="#FFFFFF" fill-rule="nonzero" x="435" y="239" width="25" height="8" rx="4"></rect>
                <rect id="Rectangle" fill="#FFFFFF" fill-rule="nonzero" x="435" y="264" width="25" height="8" rx="4"></rect>
                <rect id="Rectangle" fill="#FFFFFF" fill-rule="nonzero" x="435" y="289" width="25" height="8" rx="4"></rect>
                <rect id="Rectangle" stroke="#3F3D56" x="437" y="187" width="25" height="8" rx="4"></rect>
                <rect id="Rectangle" stroke="#3F3D56" x="437" y="212" width="25" height="8" rx="4"></rect>
                <rect id="Rectangle" stroke="#3F3D56" x="437" y="237" width="25" height="8" rx="4"></rect>
                <rect id="Rectangle" stroke="#3F3D56" x="437" y="262" width="25" height="8" rx="4"></rect>
                <rect id="Rectangle" stroke="#3F3D56" x="437" y="287" width="25" height="8" rx="4"></rect>
                <rect id="Rectangle" fill="#2F2E41" fill-rule="nonzero" x="132" y="230" width="24" height="32"></rect>
                <path d="M112.260711,366 C112.260711,366 118.979836,366 121.011195,368.186437 C123.042553,370.372873 122.261265,375.526637 124.448886,376.307491 C126.636508,377.088346 131.63679,383.335325 127.261543,384.116195 C124.208263,384.661114 118.111051,384.901836 114.705302,384.997541 C113.213086,385.038552 111.75213,384.565549 110.567405,383.657845 C109.758185,383.035508 108.914993,382.45859 108.041726,381.929759 C105.697842,380.524192 108.041726,371.153743 108.041726,371.153743 L112.260711,366 Z" id="Path" fill="#575A89" fill-rule="nonzero"></path>
                <path d="M112.260711,366 C112.260711,366 118.979836,366 121.011195,368.186437 C123.042553,370.372873 122.261265,375.526637 124.448886,376.307491 C126.636508,377.088346 131.63679,383.335325 127.261543,384.116195 C124.208263,384.661114 118.111051,384.901836 114.705302,384.997541 C113.213086,385.038552 111.75213,384.565549 110.567405,383.657845 C109.758185,383.035508 108.914993,382.45859 108.041726,381.929759 C105.697842,380.524192 108.041726,371.153743 108.041726,371.153743 L112.260711,366 Z" id="Path" fill="#000000" fill-rule="nonzero" opacity="0.1"></path>
                <path d="M138.472667,304.504956 C138.472667,306.220305 137.073954,314.485157 137.073954,314.485157 L122.620579,370 C122.620579,370 112.052518,367.349014 111.120049,367.504954 C110.924225,367.537696 110.981727,366.628567 111.193088,365.161159 C111.636029,362.08914 112.758103,356.575064 113.670353,352.140124 C114.405471,348.565977 115.005346,345.691984 115.005346,345.36139 C115.005346,344.977781 115.345691,338.538991 115.746673,331.074104 C116.321692,320.332916 117.025726,307.467816 117.025726,307.467816 L114.694538,273.472773 L115.316189,260.06188 L119.04609,244 L143.756698,250.705447 L144.923846,258.613187 L145,259.126238 C145,259.126238 142.666197,295.296913 141.422885,296.3885 C140.179573,297.480086 138.472667,302.789612 138.472667,304.504956 Z" id="Path" fill="#3F3D56" fill-rule="nonzero"></path>
                <path d="M108.50453,358.007714 C108.50453,358.007714 99.1465021,357.851502 98.2107014,358.944999 C97.5719278,359.691424 94.0262288,367.134305 91.8398076,371.783783 C89.9901817,375.654469 91.2824429,380.298617 94.8642815,382.653184 C96.556786,383.720985 98.5638072,384.174919 100.550206,383.939184 C108.972428,383.158116 108.50453,377.846854 108.50453,377.846854 L111,369.723741 L110.376131,359.101207 L108.50453,358.007714 Z" id="Path" fill="#575A89" fill-rule="nonzero"></path>
                <path d="M112,365.835329 C112.357605,362.807123 113.263502,357.371688 114,353 C113.711428,358.186393 112.642425,366.258068 112.317443,365.993665 C112.215212,365.930686 112.109065,365.877741 112,365.835329 Z" id="Path" fill="#000000" fill-rule="nonzero" opacity="0.1"></path>
                <path d="M123.020145,296.351448 C123.174377,297.286293 121.477804,300.090834 120.398171,303.518608 C119.318538,306.946381 116.388093,328.447868 116.388093,328.447868 C116.388093,328.447868 116.25082,329.437244 116.044153,331 C116.614811,320.267953 117.313504,307.413802 117.313504,307.413802 L115,273.44769 L115.616935,260.04821 L119.318543,244 L143.841705,250.69974 L145,258.60075 L121.323581,249.453276 C121.323581,249.453276 120.860879,257.866901 120.860879,259.58079 C120.860879,261.294679 122.865907,295.416597 123.020145,296.351448 Z" id="Path" fill="#000000" fill-rule="nonzero" opacity="0.1"></path>
                <path d="M96.7134316,228 C96.7134316,228 89.2120738,237.990485 91.3999687,248.917572 C93.5878637,259.844658 96.4008723,287.318471 98.4324901,289.972209 C100.464108,292.625947 98.4324901,297.621172 98.4324901,297.621172 C98.4324901,297.621172 94.8380909,344.763761 95.1506603,346.324773 C95.4632298,347.885784 96.0883332,355.222547 96.8697239,356.471358 C97.6511146,357.72017 97.1822782,361.778804 97.1822782,361.778804 C97.1822782,361.778804 109.997099,365.681333 110.46593,365.993538 C110.934762,366.305744 112.653825,355.222547 112.653825,350.539512 C112.653825,345.856477 114.998002,329.153635 114.998002,329.153635 C114.998002,329.153635 117.967288,307.611658 119.061238,304.177429 C120.155188,300.743201 121.874247,297.933378 121.717964,296.996772 C121.561682,296.060166 119.530069,261.873985 119.530069,260.156868 C119.530069,258.439752 119.998906,250.010283 119.998906,250.010283 L145.405808,259.714895 C145.405808,259.714895 151.057492,233.390102 148.186738,230.773104 C145.315983,228.156105 96.7134316,228 96.7134316,228 Z" id="Path" fill="#3F3D56" fill-rule="nonzero"></path>
                <ellipse id="Oval" fill="#2F2E41" fill-rule="nonzero" cx="117.5" cy="130.5" rx="19.5" ry="7.5"></ellipse>
                <path d="M106.253725,106.606153 C103.876174,108.673242 102.144392,111.395376 101.269462,114.440758 C100.940119,115.61229 100.786072,116.978947 101.565877,117.935669 C101.860421,118.211866 102.11726,118.526546 102.329608,118.871398 C102.457343,119.380392 102.463998,119.912766 102.34903,120.424865 C102.373665,121.407219 102.63233,122.369044 103.10305,123.228627 L105.690777,129 C105.97719,128.496538 105.980767,127.878406 106.276182,127.37973 C106.849422,126.412075 108.220883,126.271227 109.383258,126.243662 L113.008852,126.157683 C113.986032,126.2069 114.961857,126.036546 115.866214,125.658862 C116.920385,125.117325 117.554052,124.062977 118.401055,123.254489 C119.496361,122.227601 120.903172,121.606255 122.392227,121.49171 C121.873755,122.282733 121.241506,122.991064 120.516367,123.593307 C122.552993,123.382243 124.438535,122.410172 125.804204,120.867218 L125.809898,122.571119 C126.412796,122.799902 126.929446,121.892281 127.573482,121.965572 C128.337764,122.052548 128.195509,123.126934 128.157672,123.862286 C128.177234,125.261896 129.272483,126.403159 130.65483,126.464356 C131.447708,123.035163 132.245516,119.541377 131.92894,116.042388 C131.612364,112.543399 130.001502,108.974082 126.915347,107.071581 C125.659433,106.336058 124.288868,105.822278 122.862432,105.552276 C119.939055,104.935001 116.913333,104.977789 113.919977,105.02353 C112.206059,104.978473 110.493206,105.147885 108.820372,105.527916 C107.171728,105.976794 105.593727,106.902058 104.757654,108.333469" id="Path" fill="#3F3D56" fill-rule="nonzero"></path>
                <path d="M109.02449,127.631754 C109.02449,127.631754 108.238662,134.123978 107.138505,134.123978 C106.038347,134.123978 111.853474,144.733223 111.853474,144.733223 L127.570055,146 L137,139.982819 L132.442195,132.223818 C132.442195,132.223818 125.055386,130.957042 125.998394,126.681674 C126.941402,122.406307 109.02449,127.631754 109.02449,127.631754 Z" id="Path" fill="#FBBEBE" fill-rule="nonzero"></path>
                <path d="M109.02449,127.631754 C109.02449,127.631754 108.238662,134.123978 107.138505,134.123978 C106.038347,134.123978 111.853474,144.733223 111.853474,144.733223 L127.570055,146 L137,139.982819 L132.442195,132.223818 C132.442195,132.223818 125.055386,130.957042 125.998394,126.681674 C126.941402,122.406307 109.02449,127.631754 109.02449,127.631754 Z" id="Path" fill="#000000" fill-rule="nonzero" opacity="0.1"></path>
                <circle id="Oval" fill="#FBBEBE" fill-rule="nonzero" cx="117.5" cy="120.5" r="13.5"></circle>
                <path d="M119.634889,141.990725 C119.634889,141.990725 128.959145,142.459042 131.911824,132 C131.911824,132 141.080673,133.873258 141.857694,138.244204 C142.634714,142.615151 153.979216,227.536321 150.249522,231.282841 C146.519827,235.029362 108.601188,231.282841 100.20936,231.282841 C91.8175315,231.282841 87,233 87,233 L98.3445072,179.768158 L99.5877421,143.395671 L101.763401,133.717154 C101.763401,133.717154 108.171297,131.783288 108.930156,133.530743 C109.689014,135.278198 111.864678,143.707878 119.634889,141.990725 Z" id="Path" fill="#575A89" fill-rule="nonzero"></path>
                <path d="M109.443985,131.694924 C109.443985,131.694924 105.516835,130.131345 102.673441,131.694924 C99.8300466,133.258503 91.6157943,132.633067 90.5100276,134.352997 C89.4042609,136.072927 79.7683114,145.767096 80.0842521,147.017973 C80.4001927,148.268849 87.8246037,174.693244 89.2463008,175.631392 C90.6679979,176.56954 87.3507029,231.60737 83.0856115,238.174382 C78.8205202,244.741394 78.030689,264.286084 80.0842521,267.100519 C82.1378152,269.914953 80.4001825,265.380584 84.6652739,263.660654 C88.9303653,261.940724 93.0374914,251.621129 93.0374914,251.621129 C93.0374914,251.621129 95.7229205,221.600492 97.460548,215.033475 C99.1981756,208.466458 114.047018,185.1692 112.941251,170.315236 C111.835485,155.461271 103.937168,140.607312 105.6748,138.574664 C107.412433,136.542016 110.843676,134.040284 109.443985,131.694924 Z" id="Path" fill="#2F2E41" fill-rule="nonzero"></path>
                <path d="M129.345222,131.242639 C129.345222,131.242639 135.752737,128.202612 139.707976,131.632409 C143.663214,135.062206 159.32605,140.518644 159.16783,143.948421 C159.009611,147.378198 147.934901,173.257421 147.934901,173.257421 C147.934901,173.257421 148.409528,194.615577 150.624476,200.695637 C152.839425,206.775697 167.078384,257.131031 161.857432,260.716706 C156.636479,264.302381 150.308084,266.17317 146.036407,266.952664 C141.76473,267.732158 146.35283,258.69002 146.827458,254.168953 C147.302085,249.647886 153.155869,233.434393 145.245356,223.768659 C137.334844,214.102924 123.095921,184.793924 124.045175,168.736334 C124.99443,152.678744 126.734751,147.689979 126.734751,147.689979 C126.734751,147.689979 131.876588,132.333934 129.345222,131.242639 Z" id="Path" fill="#2F2E41" fill-rule="nonzero"></path>
                <path d="M83.1828701,146 L80.4543522,146 C80.4543522,146 78.0700604,156.670106 75.4361764,158.216497 C72.8022924,159.762887 71.4078838,161.927835 71.4078838,163.164949 C71.4078838,164.402064 69.5486707,166.103093 67.8443958,167.804126 C66.1401208,169.50516 62.5766278,173.371136 63.0414323,175.690722 C63.5062368,178.010308 62.7315609,191 66.7598535,191 C70.7881461,191 79.1545976,189.762891 80.3940731,187.907219 C81.6335485,186.051547 90,172.752579 90,172.752579 L83.1828701,146 Z" id="Path" fill="#2F2E41" fill-rule="nonzero"></path>
                <g id="Group"></g>
                <path d="M106.914781,100.606139 C104.666589,102.71369 103.049682,105.430536 102.252079,108.440749 C101.943982,109.612281 101.799873,110.978939 102.529371,111.935662 C102.806659,112.214152 103.046877,112.528766 103.243829,112.871391 C103.363335,113.381318 103.369545,113.91215 103.262003,114.424854 C103.283847,115.402375 103.525187,116.361674 103.967375,117.228623 L106.388159,123 C106.656096,122.496538 106.659438,121.878406 106.935797,121.379729 C107.472056,120.412068 108.755032,120.271226 109.842407,120.24366 L113.234092,120.157681 C114.150922,120.206386 115.066213,120.035581 115.907114,119.65886 C116.893276,119.117322 117.486061,118.062974 118.278424,117.254485 C119.282344,116.237406 120.603906,115.613458 122.012106,115.491705 C121.531857,116.277002 120.94049,116.985222 120.257261,117.593303 C122.187497,117.3684 123.958937,116.392172 125.203959,114.867213 L125.209285,116.571115 C125.773285,116.799898 126.256582,115.892302 126.859065,115.965568 C127.574038,116.052543 127.440955,117.126931 127.405567,117.862283 C127.390514,119.224174 128.413324,120.363457 129.74162,120.464354 C130.483345,117.035154 131.229683,113.541371 130.93352,110.04238 C130.637358,106.543388 129.13045,102.974084 126.243381,101.071582 C125.077477,100.339664 123.793739,99.8252444 122.451942,99.5522759 C119.717175,98.9350006 116.886648,98.977789 114.08643,99.0235301 C112.481529,98.9786356 110.877765,99.1481974 109.3158,99.5279161 C107.739278,99.9197933 106.375214,100.926725 105.515189,102.333471" id="Path" fill="#3F3D56" fill-rule="nonzero"></path>
                <rect id="Rectangle" fill="#0F70EB" fill-rule="nonzero" x="87" y="139" width="47" height="8" rx="4"></rect>
                <rect id="Rectangle" stroke="#F2F2F2" x="88" y="136" width="47" height="8" rx="4"></rect>
                <path d="M77,162.14246 C77,162.14246 83.563387,154.701756 82.6028885,152.327086 C81.6423901,149.952416 84.6839771,132.379714 90.2868501,134.121128 C95.8897231,135.862543 93.4884977,153.435255 93.4884977,153.435255 L84.8440429,168 L80.3617342,166.416876 L77,162.14246 Z" id="Path" fill="#FBBEBE" fill-rule="nonzero"></path>
                <path d="M78.8576671,158 L67.0249536,172.611397 C67.0249536,172.611397 61.3391002,188 69.0227001,188 C76.7063,188 82.6994645,177.896372 82.6994645,177.896372 L89,162.507774 C89,162.507774 84.5435205,168.880829 81.1627446,165.46114 C79.1842952,163.535992 78.3149529,160.722081 78.8576671,158 Z" id="Path" fill="#2F2E41" fill-rule="nonzero"></path>
                <rect id="Rectangle" fill="#57B894" fill-rule="nonzero" x="118" y="236" width="25" height="8" rx="4"></rect>
                <rect id="Rectangle" stroke="#F2F2F2" x="120" y="234" width="25" height="8" rx="4"></rect>
                <path d="M139.5723,226 C139.5723,226 128.319392,242.206154 135.262434,245.517619 C142.205475,248.829085 151,234.006341 151,234.006341 L139.5723,226 Z" id="Path" fill="#FBBEBE" fill-rule="nonzero"></path>
                <path d="M152.173703,142 L158.496069,144.342994 C158.496069,144.342994 162.289487,162.93076 163.553962,167.30435 C164.818436,171.677941 166.557084,208.853474 162.289487,216.351045 C158.02189,223.848617 149.802812,239 149.802812,239 C149.802812,239 142.215976,227.909821 137,228.690818 C137,228.690818 144.27072,222.44283 145.377136,219.16264 C146.483553,215.88245 149.802791,206.510444 149.960854,201.199653 C150.118918,195.888861 149.448127,175.206277 145.673981,171.567698 C141.899834,167.929119 152.173703,142 152.173703,142 Z" id="Path" fill="#2F2E41" fill-rule="nonzero"></path>
                <line x1="53" y1="384.5" x2="181" y2="384.5" id="Path" stroke="#3F3D56"></line>
                <path d="M460,303 C460,332.847656 478.785155,357 502,357" id="Path" fill="#46455B" fill-rule="nonzero"></path>
                <path d="M502,357 C502,326.599611 523.021488,302 549,302" id="Path" fill="#0F70EB" fill-rule="nonzero"></path>
                <path d="M475,305 C475,333.189459 487.076174,356 502,356" id="Path" fill="#0F70EB" fill-rule="nonzero"></path>
                <path d="M502,357 C502,318.308592 526.152344,287 556,287" id="Path" fill="#46455B" fill-rule="nonzero"></path>
                <path d="M493,357.14575 C493,357.14575 498.912398,356.966445 500.694245,355.717089 C502.476091,354.467733 509.789003,352.975927 510.231037,354.979625 C510.67307,356.983323 519.116267,364.945105 512.441205,364.998119 C505.766142,365.051133 496.931318,363.97433 495.1529,362.907648 C493.374481,361.840967 493,357.14575 493,357.14575 Z" id="Path" fill="#A8A8A8" fill-rule="nonzero"></path>
                <path d="M512.561688,364.288341 C505.886152,364.342302 497.05072,363.246568 495.272178,362.161133 C493.917721,361.334521 493.377986,358.368438 493.197392,357 C493.072326,357.005384 493,357.007708 493,357.007708 C493,357.007708 493.374503,361.785448 495.153045,362.870877 C496.931588,363.956307 505.76705,365.052046 512.44256,364.998085 C514.369522,364.982518 515.035129,364.295635 514.998583,363.278304 C514.730881,363.892951 513.995957,364.276754 512.561688,364.288341 Z" id="Path" fill="#000000" fill-rule="nonzero" opacity="0.2"></path>
                <line x1="460" y1="365.5" x2="549" y2="365.5" id="Path" stroke="#3F3D56"></line>
            </g>
        </g>
    </g>
</svg>