<?xml version="1.0" encoding="UTF-8"?>
<svg width="555px" height="368px" viewBox="0 0 555 368" version="1.1" xmlns="http://www.w3.org/2000/svg" xmlns:xlink="http://www.w3.org/1999/xlink">
    <!-- Generator: Sketch 61 (89581) - https://sketch.com -->
    <title>undraw_Mobile_application_mr4r</title>
    <desc>Created with Sketch.</desc>
    <g id="Home" stroke="none" stroke-width="1" fill="none" fill-rule="evenodd">
        <g id="04---Start-up" transform="translate(-70.000000, -1396.000000)" fill-rule="nonzero">
            <g id="undraw_Mobile_application_mr4r" transform="translate(70.000000, 1396.000000)">
                <path d="M406,367.528409 C390.666035,365.131065 375.922627,363.091939 361.769776,361.411031 L367.219745,350.525494 C365.328025,349.895756 357.130573,356.193132 357.130573,356.193132 L364.066879,324.706252 C354.60828,325.965727 350.194268,358.082345 350.194268,358.082345 L339.474522,347.376806 L344.75138,359.497447 C301.442802,354.952839 264.071563,353.534581 232.657016,353.859866 L237.321656,344.542986 C235.429936,343.913249 227.232484,350.210625 227.232484,350.210625 L234.16879,318.723744 C224.710191,319.98322 220.296178,352.099838 220.296178,352.099838 L209.576433,341.394298 L215.165456,354.232041 C193.646714,354.85645 172.174238,356.583333 150.832746,359.405877 C155.487342,344.92457 171.742038,331.003615 171.742038,331.003615 C159.243723,334.886817 152.741517,341.213173 149.376046,347.077416 C148.695283,317.326223 153.278245,287.688551 162.914013,259.528409 C162.914013,259.528409 137.691083,316.204794 141.474522,353.98905 L141.954571,360.700844 C120.011013,364.119545 109,367.528409 109,367.528409 L406,367.528409 Z" id="Path" fill="#3F3D56"></path>
                <path d="M463.5,289.528409 C459.357864,289.528409 456,286.170545 456,282.028409 C456,277.886273 459.357864,274.528409 463.5,274.528409 C467.642136,274.528409 471,277.886273 471,282.028409 C470.995264,286.168581 467.640172,289.523673 463.5,289.528409 L463.5,289.528409 Z M463.5,275.778409 C460.04822,275.778409 457.25,278.576629 457.25,282.028409 C457.25,285.480189 460.04822,288.278409 463.5,288.278409 C466.95178,288.278409 469.75,285.480189 469.75,282.028409 C469.746163,278.57822 466.950189,275.782246 463.5,275.778409 Z" id="Shape" fill="#3F3D56"></path>
                <path d="M524,366.528409 L512,366.528409 L512,354.528409 L524,354.528409 L524,366.528409 Z M512.923077,365.605332 L523.076923,365.605332 L523.076923,355.451516 L512.923077,355.451516 L512.923077,365.605332 Z" id="Shape" fill="#3F3D56"></path>
                <path d="M102.68675,367.528409 L94,358.215176 L103.313256,349.528409 L112,358.841642 L102.68675,367.528409 Z M95.384599,358.263335 L102.734922,366.143766 L110.615356,358.793451 L103.265052,350.91302 L95.384599,358.263335 Z" id="Shape" fill="#3F3D56"></path>
                <rect id="Rectangle" fill="#3F3D56" x="14" y="366.528409" width="541" height="1"></rect>
                <path d="M349,84.9967482 L349,126.473128 C348.997874,127.270911 348.353014,127.917113 347.556887,127.919244 L346.529763,127.919244 L346.529763,343.984153 C346.529067,356.43473 336.457002,366.528409 324.032283,366.528409 L189.306074,366.528409 C183.340134,366.528409 177.618797,364.152265 173.400827,359.92434 C169.182857,355.696415 166.81381,349.96251 166.814903,343.984153 L166.814903,135.497145 L166.07129,135.497145 C165.509577,135.497986 165.053036,135.043319 165.050398,134.480443 L165.050398,110.875281 C165.050349,110.603945 165.157892,110.343709 165.349357,110.151845 C165.540822,109.959982 165.800518,109.852216 166.07129,109.852264 L166.814903,109.852264 L166.814903,100.96086 L166.064969,100.96086 C165.47527,100.958587 165,100.478254 165,99.8873242 L165,76.6042226 C165,76.0154496 165.477419,75.5385217 166.064969,75.5370015 L166.814884,75.5370015 L166.814884,63.3997297 L166.052366,63.3997297 C165.801562,63.4000655 165.560934,63.3003753 165.383589,63.122661 C165.206243,62.9449466 165.10676,62.7038179 165.107095,62.452492 L165.107095,49.7468776 C165.105912,49.2222181 165.528799,48.7956256 166.052366,48.7933251 L166.814884,48.7933251 L166.814884,23.0663504 C166.815357,10.6191708 176.884726,0.528409091 189.306055,0.528409091 L324.032258,0.528409091 C336.454818,0.528409091 346.526289,10.6179374 346.529737,23.0663504 L346.529737,83.5506321 L347.556887,83.5506321 C348.353021,83.5527453 348.997891,84.1989573 349,84.9967482 Z" id="Path" fill="#3F3D56"></path>
                <rect id="Rectangle" fill="#E6E8EC" x="240" y="12.5284091" width="25" height="5" rx="2.5"></rect>
                <circle id="Oval" fill="#E6E8EC" cx="271" cy="15.5284091" r="3"></circle>
                <path d="M336,27.7933988 L336,345.269702 C336.004095,349.447658 334.16399,353.416046 330.968267,356.12117 C328.378017,358.320803 325.085796,359.528409 321.68233,359.528409 L192.317663,359.528409 C190.015939,359.531897 187.747484,358.980915 185.705621,357.9224 C185.225926,357.677655 184.76152,357.404243 184.314943,357.103659 C180.366864,354.449723 178,350.014828 178,345.269702 L178,27.7933988 C178,24.0100373 179.508242,20.3815845 182.193361,17.7063439 C184.87848,15.0311033 188.520331,13.5284091 192.317663,13.5284091 L211.679694,13.5284091 L211.679694,16.0035271 C211.679747,22.4905238 216.957902,27.7492605 223.468852,27.7493127 L289.260567,27.7493127 C295.771526,27.7492814 301.049693,22.4905324 301.049725,16.0035271 L301.049725,13.5284091 L321.68233,13.5284091 C325.479989,13.5284091 329.12246,15.0296989 331.80781,17.70517 C334.493161,20.380641 336,24.0097115 336,27.7933988 Z" id="Path" fill="#0F70EB"></path>
                <path d="M336,300.734431 L336,346.248484 C336.004095,350.432658 334.16399,354.40695 330.968267,357.1161 C328.378017,359.319006 325.085796,360.528409 321.68233,360.528409 L192.317663,360.528409 C190.015939,360.531903 187.747484,359.9801 185.705621,358.920011 C185.225926,358.674901 184.76152,358.401082 184.314943,358.100051 C180.366864,355.442166 178,351.000672 178,346.248484 L178,300.753353 C222.923429,260.460663 291.066872,260.452502 336,300.734431 Z" id="Path" fill="#FFFFFF" opacity="0.3"></path>
                <path d="M328,358.909931 C325.96567,359.978897 323.701109,360.534478 321.403254,360.528409 L192.584157,360.528409 C190.29214,360.531864 188.033252,359.980936 186,358.922526 C197.925294,330.229132 225.934619,311.531164 256.995801,311.528409 C288.056982,311.525654 316.069621,330.218654 328,358.909931 L328,358.909931 Z" id="Path" fill="#FFFFFF" opacity="0.3"></path>
                <path d="M300,359.537504 C298.767944,360.191972 297.396452,360.532124 296.004796,360.528409 L217.987575,360.528409 C216.599454,360.530518 215.231399,360.193208 214,359.545194 C221.222372,341.977817 238.185767,330.530091 256.997464,330.528409 C275.809161,330.526727 292.774557,341.971419 300,359.537504 L300,359.537504 Z" id="Path" fill="#FFFFFF" opacity="0.3"></path>
                <path d="M289.834181,136.528409 C276.899862,136.528409 262.705121,134.06139 251.62375,125.736819 C236.195357,114.146819 217.186893,114.765268 203.957853,117.325656 C195.170569,119.04057 186.641494,121.886147 178.582683,125.791641 L178,124.672452 C186.157209,120.716162 194.790676,117.832374 203.685895,116.09274 C217.174897,113.477807 236.572837,112.85289 252.379944,124.727306 C281.99231,146.972689 335.016765,126.993104 335.548375,126.789422 L336,127.967768 C326.056529,131.517775 315.772334,134.025425 305.312411,135.450487 C300.1824,136.151504 295.011685,136.511599 289.834181,136.528409 Z" id="Path" fill="#FFFFFF"></path>
                <path d="M178,125.244773 C178,125.244773 221.608,114.698318 251.944,129.138305 C282.28,143.578292 336,129.031132 336,129.031132" id="Path" fill="#FFFFFF" opacity="0.3"></path>
                <path d="M219.327795,141.528409 C214.076101,141.504822 208.838551,140.980983 203.685895,139.963966 C194.790676,138.224339 186.157209,135.340571 178,131.38431 L178.582683,130.26513 C186.641493,134.170596 195.170568,137.01615 203.957853,138.731047 C217.186282,141.291105 236.195048,141.909858 251.62375,130.319958 C267.417014,118.455804 289.538841,118.489087 305.312411,120.606343 C315.772333,122.031393 326.056528,124.539021 336,128.088995 L335.548375,129.267338 C335.016154,129.063039 281.992908,109.083306 252.379944,131.329438 C242.014185,139.116566 230.10306,141.528409 219.327795,141.528409 Z" id="Path" fill="#FFFFFF" opacity="0.3"></path>
                <path d="M219.515325,136.528409 C197.680705,136.528409 178.290863,128.487555 178,128.364638 L178.480214,127.16769 C178.91179,127.350331 222.035856,145.222397 251.673632,127.209404 C281.823945,108.882635 335.461912,125.241465 336,125.408924 L335.634298,126.647581 C335.101758,126.482005 281.988942,110.287184 252.315767,128.322931 C242.189367,134.47796 230.540193,136.528409 219.515325,136.528409 Z" id="Path" fill="#FFFFFF" opacity="0.3"></path>
                <path d="M178,127.21239 C178,127.21239 221.610402,141.423433 251.95247,127.21239 C282.294539,113.001348 336,125.869615 336,125.869615" id="Path" fill="#FFFFFF" opacity="0.3"></path>
                <path d="M347,165.528409 L347,184.041219 C347,184.041219 348.492542,204.775576 356.701492,215.142752 C356.701492,215.142752 370.134321,234.02582 372,229.953003 L369.702244,216.544263 L361.925378,209.218652 L357.820896,186.26276 L356.701492,165.528409 L347,165.528409 Z" id="Path" fill="#FFB8B8"></path>
                <polygon id="Path" fill="#FFB8B8" points="428 331.528409 428 345.403208 417 349.528409 417 333.403208"></polygon>
                <polygon id="Path" fill="#FFB8B8" points="405.353057 330.528409 413 347.107124 402.294542 351.528409 400 335.318082"></polygon>
                <path d="M424.541507,203.739107 C424.541507,203.739107 439.289618,336.905626 433.759074,337.274511 C428.22853,337.643396 417.536154,344.65216 417.536154,339.856687 C417.536154,335.061214 409.055986,272.720103 409.055986,272.720103 L400.944529,240.627336 L400.944529,284.89322 L409.424691,335.06122 C409.424691,335.06122 401.313228,345.758803 395.413985,339.487808 L382.878088,290.426457 C382.878088,290.426457 366.286443,215.912224 367.023873,210.010108 C367.023873,210.010108 405.000257,177.548462 424.541507,203.739107 Z" id="Path" fill="#2F2E41"></path>
                <path d="M421.449617,347.03677 C421.449617,347.03677 424.35608,340.891058 430.895615,344.867709 L436.345232,351.374898 C436.345232,351.374898 450.3953,362.953007 440.425547,365.433117 C430.149653,367.989385 423.99277,365.269889 423.99277,365.269889 C423.99277,365.269889 422.176231,364.185361 420.723002,364.185361 C419.269774,364.185361 416,361.654787 416,360.931761 C416,360.208734 417.089925,347.398284 417.089925,347.398284 C417.932183,346.990018 418.93939,347.133192 419.633078,347.759791 C420.723002,348.844324 421.449617,347.03677 421.449617,347.03677 Z" id="Path" fill="#2F2E41"></path>
                <path d="M399.600766,343.790451 C399.600766,343.790451 406.477661,338.238396 409.735137,344.530724 C409.735137,344.530724 411.786151,345.270997 412.027437,344.530724 C412.268723,343.790451 414.078452,343.420311 414.078452,347.491815 C414.078452,351.563319 416.043869,361.71837 414.234159,362.088503 C412.424449,362.458637 410.614745,363.569055 410.976683,365.049601 C411.338622,366.530147 409.011266,366.738933 400.686605,366.3688 C392.361944,365.998667 392,362.66743 392,362.66743 C392,362.66743 392,357.855653 394.171648,355.264695 C396.343297,352.673737 399.600766,343.790451 399.600766,343.790451 Z" id="Path" fill="#2F2E41"></path>
                <path d="M385.634116,103.528409 C385.634116,103.528409 383.768437,117.298508 395.708776,122.136646 C407.649114,126.974784 369.216117,142.977874 365.484784,133.673753 C361.753452,124.369631 366.231061,121.392317 366.231061,121.392317 C366.231061,121.392317 369.962413,117.670669 366.604193,107.622225 L385.634116,103.528409 Z" id="Path" fill="#FFB8B8"></path>
                <circle id="Oval" fill="#FFB8B8" cx="374" cy="96.5284091" r="16"></circle>
                <path d="M393.168485,125.528409 C393.168485,125.528409 382.076432,131.504311 371.354123,127.022389 C360.631814,122.540468 361.001539,141.962148 361.001539,141.962148 L366.547565,156.528409 L405,152.793468 L402.411856,130.383834 L393.168485,125.528409 Z" id="Path" fill="#F2F2F2"></path>
                <path d="M387.895953,113.528409 C391.858068,114.370397 395.223064,116.970919 397.041126,120.595944 L414.66684,126.112602 L419.073269,132.364821 L413.932437,177.601455 C413.932437,177.601455 423.479698,186.79589 423.479698,191.944781 C423.479698,197.093672 435.23017,214.746981 429.354934,212.540319 C423.479698,210.333657 412.830828,202.610324 412.830828,202.610324 C412.830828,202.610324 386.025057,203.713658 377.579405,211.069211 C369.133752,218.424764 365.828926,216.218096 365.828926,216.218096 C365.828926,216.218096 357.016069,177.969235 356.64887,172.08479 C356.281671,166.200345 346,130.893713 346,130.893713 L364.360119,120.595944 L369.036544,115.2816 L381.985833,136.042598 L393.736287,121.699278 C393.736287,121.699278 387.93085,117.126424 387.895953,113.528409 Z" id="Path" fill="#3F3D56"></path>
                <path d="M424.110315,160.528409 L426.332374,172.302148 C426.332374,172.302148 436.331656,209.095072 434.850276,221.604662 C434.850276,221.604662 435.961309,249.567284 429.665465,246.255922 C423.369622,242.94456 426.70272,222.708451 426.70272,222.708451 L417.814471,186.283459 L413,164.94356 L424.110315,160.528409 Z" id="Path" fill="#FFB8B8"></path>
                <path d="M415.280722,130.528409 L418.926007,132.710225 C418.926007,132.710225 432.778083,161.437502 429.49733,163.619317 C426.216576,165.801133 412,170.528409 412,170.528409 L415.280722,130.528409 Z" id="Path" fill="#3F3D56"></path>
                <polygon id="Path" fill="#3F3D56" points="354.790475 130.712112 346.046029 130.528409 344 134.013101 346.604443 169.594197 360 172.528409"></polygon>
                <path d="M387.943041,82.7742454 L390.869759,81.7323374 C390.869759,81.7323374 384.750291,75.7414022 376.236169,76.2623779 L378.630816,73.9180679 C378.630816,73.9180679 372.77738,71.8342891 367.456098,77.3042487 C364.658807,80.1796901 361.422296,83.5596126 359.404672,87.3670637 L356.27036,87.3670637 L357.578503,89.9284004 L353,92.4897309 L357.699386,92.0296528 C357.25421,94.2409609 357.407441,96.5277977 358.143873,98.6632226 L359.208097,101.528409 C359.208097,101.528409 363.465174,93.1932073 363.465174,92.1512993 L363.465174,94.7560538 C363.465174,94.7560538 366.391892,92.411781 366.391892,90.8489407 L367.98827,92.6722688 L368.786456,89.8070265 L378.630835,92.6722688 L377.034457,90.3280022 L383.153931,91.1094285 L380.759285,88.2441863 C380.759285,88.2441863 387.676945,91.6303608 387.94306,94.4956031 C388.209175,97.3608454 390.035522,101.095725 390.035522,101.095725 L392.249714,98.566758 C392.249714,98.566758 395.658894,86.6813584 387.943041,82.7742454 Z" id="Path" fill="#2F2E41"></path>
                <ellipse id="Oval" fill="#FFB8B8" cx="387.5" cy="97.0284091" rx="1.5" ry="3.5"></ellipse>
                <path d="M26.8379851,345.610136 C34.5851979,360.245652 51.0275716,366.528409 51.0275716,366.528409 C51.0275716,366.528409 54.9092254,349.082224 47.1620126,334.446676 C39.4147998,319.811128 22.9724261,313.528409 22.9724261,313.528409 C22.9724261,313.528409 19.0907785,330.974594 26.8379851,345.610136 Z" id="Path" fill="#3F3D56"></path>
                <path d="M31.4928288,341.499876 C45.5760866,350.030328 51,366.97416 51,366.97416 C51,366.97416 33.5904289,370.087398 19.5071712,361.55694 C5.4239134,353.026482 0,336.082656 0,336.082656 C0,336.082656 17.4095648,332.969424 31.4928288,341.499876 Z" id="Path" fill="#0F70EB"></path>
                <path d="M178,125.731209 C178,125.731209 221.610402,102.774909 251.95247,125.731209 C282.294539,148.687509 336,127.900305 336,127.900305" id="Path" fill="#FFFFFF" opacity="0.3"></path>
                <circle id="Oval" fill="#FFFFFF" cx="257" cy="349.528409" r="7"></circle>
            </g>
        </g>
    </g>
</svg>