<?xml version="1.0" encoding="UTF-8"?>
<svg width="555px" height="432px" viewBox="0 0 555 432" version="1.1" xmlns="http://www.w3.org/2000/svg" xmlns:xlink="http://www.w3.org/1999/xlink">
    <!-- Generator: Sketch 61 (89581) - https://sketch.com -->
    <title>undraw_Mobile_app_p3ts</title>
    <desc>Created with Sketch.</desc>
    <g id="Home" stroke="none" stroke-width="1" fill="none" fill-rule="evenodd">
        <g id="04---Start-up" transform="translate(-655.000000, -2027.000000)">
            <g id="undraw_Mobile_app_p3ts" transform="translate(655.000000, 2027.000000)">
                <path d="M410.830588,246.085955 L300.708665,108.464585 C295.708394,113.03776 289.547634,116.148786 282.899315,117.457852 C262.167728,121.541068 241.921442,107.382713 237.677961,85.8342788 C234.678303,70.6019671 240.485221,55.7626314 251.46583,46.9249649 L213.917405,0 L0,182.838889 L196.913148,428.924844 L410.830588,246.085955 Z" id="Path" fill="#F2F2F2" fill-rule="nonzero"></path>
                <line x1="46.9570296" y1="430.179088" x2="554.516247" y2="430.179088" id="Path" stroke="#3F3D56" stroke-width="2"></line>
                <ellipse id="Oval" stroke="#3F3D56" stroke-width="2" cx="354.05059" cy="32.5341436" rx="8.43391946" ry="8.43454424"></ellipse>
                <ellipse id="Oval" stroke="#3F3D56" stroke-width="2" cx="465.50785" cy="277.758282" rx="8.43391946" ry="8.43454424"></ellipse>
                <ellipse id="Oval" stroke="#3F3D56" stroke-width="2" cx="97.5655248" cy="53.684011" rx="8.43391946" ry="8.43454424"></ellipse>
                <ellipse id="Oval" fill="#F2F2F2" fill-rule="nonzero" cx="273.999996" cy="79.8718454" rx="31.0452253" ry="31.0475251"></ellipse>
                <path d="M89.6711557,62.5227359 L227.201122,62.5227359 C240.870415,62.5227359 252.715154,71.995667 255.721457,85.3312606 L325.21263,393.586176 C326.746933,400.392132 325.19554,407.528292 320.974092,413.082769 C316.752644,418.637246 310.292648,422.042275 303.324836,422.385596 L161.943101,429.351991 C146.28263,430.123664 132.479717,419.158039 129.688822,403.727812 L90.2691896,185.788146 L87.3365433,186.626138 L79.7939561,145.318412 L82.8127103,144.563671 L71.8093066,83.7288895 C70.8550951,78.4533405 72.3017223,73.0269701 75.7554483,68.9267163 C79.2091743,64.8264625 84.3105726,62.4790352 89.6711557,62.5227359 Z" id="Path" fill="#3F3D56" fill-rule="nonzero"></path>
                <path d="M209.095518,69.1685148 L225.149411,69.1685148 C234.64837,69.1685148 242.864594,75.7858866 244.889457,85.0672074 L311.591409,390.807129 C312.368531,394.369192 311.554503,398.093087 309.362,401.005907 C307.169497,403.918726 303.816326,405.731104 300.17854,405.969538 L159.254169,415.206279 C151.023166,415.745774 143.699047,410.019067 142.236795,401.900446 L85.3195784,85.8884453 C84.5738129,81.7478452 85.7021184,77.4896712 88.400344,74.2617743 C91.0985696,71.0338775 95.0889793,69.1685148 99.2959016,69.1685148 L114.525536,69.1685148 C117.556012,69.1685148 120.209443,71.2021989 120.997288,74.1286903 L120.997288,74.1286903 C121.692816,76.7122651 124.035327,78.5076451 126.710701,78.5076446 L199.011128,78.5076446 C204.296144,78.507645 208.690154,74.4383534 209.095496,69.1685148 L209.095518,69.1685148 Z" id="Path" fill="#0F70EB" fill-rule="nonzero"></path>
                <rect id="Rectangle" fill="#2F2E41" fill-rule="nonzero" x="108.16846" y="148.191982" width="145.823432" height="1"></rect>
                <rect id="Rectangle" fill="#2F2E41" fill-rule="nonzero" x="112.478512" y="171.539829" width="147.260116" height="1"></rect>
                <polygon id="Path" fill="#2F2E41" fill-rule="nonzero" points="117.37707 147.054456 120.690494 142.63642 120.116061 142.20542 117.252467 146.023829 106.217626 136.99455 105.763223 137.551306"></polygon>
                <polygon id="Path" fill="#2F2E41" fill-rule="nonzero" points="136.413399 251.221554 139.726823 246.803519 139.152389 246.37309 136.288223 250.190927 125.253383 241.16222 124.79898 241.718405"></polygon>
                <polygon id="Rectangle" fill="#2F2E41" fill-rule="nonzero" transform="translate(199.577876, 253.257280) rotate(-1.213140) translate(-199.577876, -253.257280) " points="123.236524 252.89812 275.918435 252.897881 275.918434 253.616439 123.236523 253.616678"></polygon>
                <polygon id="Rectangle" fill="#2F2E41" fill-rule="nonzero" transform="translate(202.810472, 274.629546) rotate(-1.322990) translate(-202.810472, -274.629546) " points="125.028742 274.270383 280.591264 274.270117 280.591263 274.988709 125.028741 274.988975"></polygon>
                <path d="M185.210645,333.717555 C185.210645,352.563595 200.487247,367.841329 219.33189,367.841329 C238.176534,367.841329 253.453136,352.563595 253.453136,333.717555 C253.453136,333.290128 253.445946,332.866256 253.427987,332.442384 C252.733451,313.857987 237.286325,299.252153 218.693578,299.599703 C200.100831,299.947253 185.210645,315.120183 185.210645,333.717555 L185.210645,333.717555 Z" id="Path" fill="#000000" fill-rule="nonzero" opacity="0.1"></path>
                <path d="M188.443185,347.007869 C188.443185,347.435291 188.450376,347.859163 188.468335,348.283034 C195.286057,362.725578 211.207467,370.508052 226.790782,367.015259 C242.374098,363.522467 253.451218,349.688632 253.453142,333.717555 C253.453142,333.290128 253.445951,332.866256 253.427992,332.442384 C246.610255,317.999867 230.68886,310.217418 215.105562,313.710209 C199.522265,317.203 188.445152,331.03681 188.443185,347.007869 L188.443185,347.007869 Z" id="Path" fill="#000000" fill-rule="nonzero" opacity="0.1"></path>
                <ellipse id="Oval" fill="#2F2E41" fill-rule="nonzero" cx="396.075378" cy="134.282606" rx="21.0338998" ry="21.035458"></ellipse>
                <polygon id="Path" fill="#9F616A" fill-rule="nonzero" points="418.767219 397.882737 422.768249 415.031279 413.051462 415.031279 409.050433 395.596265"></polygon>
                <polygon id="Path" fill="#9F616A" fill-rule="nonzero" points="371.898012 397.882737 371.898012 413.888042 362.181226 415.031279 362.181226 397.882737"></polygon>
                <path d="M421.624904,216.108139 C421.624904,216.108139 420.481752,240.687714 419.338601,242.402568 C418.195449,244.117423 407.907087,268.696998 407.907087,268.696998 L402.762906,252.691693 C402.762906,252.691693 410.764965,239.544478 409.621814,232.113444 C408.478663,224.682409 409.198848,215.538173 409.198848,215.538173 L421.624904,216.108139 Z" id="Path" fill="#9F616A" fill-rule="nonzero"></path>
                <ellipse id="Oval" fill="#9F616A" fill-rule="nonzero" cx="389.045083" cy="140.654552" rx="16.0041195" ry="16.005305"></ellipse>
                <path d="M402.19133,142.369412 C402.19133,142.369412 401.619754,165.234133 405.620784,168.663842 C409.621814,172.09355 382.757756,169.23546 382.757756,169.23546 C382.757756,169.23546 388.473513,153.230155 383.900908,149.800446 C379.328302,146.370738 402.19133,142.369412 402.19133,142.369412 Z" id="Path" fill="#9F616A" fill-rule="nonzero"></path>
                <path d="M381.043029,168.092224 C381.043029,168.092224 384.472483,161.804425 389.045089,162.376043 C393.617694,162.947661 408.478663,164.090897 409.050238,165.234133 C409.621814,166.377369 411.336541,170.378696 412.479692,171.521932 C413.622844,172.665168 422.196479,174.380022 422.768055,181.239438 C423.339631,188.098855 402.19133,229.826972 402.19133,229.826972 C402.19133,229.826972 405.049208,239.544478 404.477633,241.83095 C403.906057,244.117423 407.335511,250.976839 406.763935,253.834929 C406.19236,256.693019 415.337571,273.84156 410.764965,296.134664 L410.764965,332.1466 C410.764965,332.1466 426.197509,394.452966 421.624904,399.025911 C417.052298,403.598855 401.619754,400.740765 398.761876,399.025911 C395.903997,397.311056 383.900908,310.996733 383.900908,310.996733 L378.185151,281.844213 L377.613575,345.865433 C377.613575,345.865433 378.756726,399.597529 374.755696,401.312383 C370.754667,403.027237 355.322123,403.598855 354.178971,400.169147 C353.287405,397.494254 348.919103,326.322561 347.039522,295.124935 C346.388376,284.356402 347.235313,273.5496 349.556079,263.014012 C351.935028,252.223189 355.388711,239.545336 359.323164,234.399916 C366.753648,224.682409 371.326254,193.815035 371.326254,193.815035 L361.609467,176.094876 C361.609467,176.094876 367.325224,170.378696 370.754678,170.378696 C374.184132,170.378696 381.043029,168.092224 381.043029,168.092224 Z" id="Path" fill="#2F2E41" fill-rule="nonzero"></path>
                <path d="M419.338601,177.238112 L422.352845,179.289861 C422.352845,179.289861 424.482782,216.108139 422.768055,218.394611 C421.053328,220.681083 409.131813,219.565147 408.233662,217.550834 C407.335511,215.536521 419.338601,177.238112 419.338601,177.238112 Z" id="Path" fill="#2F2E41" fill-rule="nonzero"></path>
                <path d="M368.367401,210.714082 C370.040477,222.32169 371.506672,232.654692 362.951807,242.002813 C354.354337,251.463412 344.657738,259.863183 334.068046,267.023643 C333.018811,269.803285 317.615114,290.215428 316.831535,282.073255 C316.047957,273.931082 321.369881,267.547932 328.932656,260.662632 C336.495431,253.777333 347.075823,238.83805 353.045657,230.640853 C359.015491,222.443656 356.557789,217.331967 356.350428,210.485029 C356.143066,203.638091 366.020082,210.796944 368.367401,210.714082 Z" id="Path" fill="#9F616A" fill-rule="nonzero"></path>
                <path d="M362.181031,404.627316 C362.181031,404.627316 361.609456,411.029889 359.894728,412.744743 C358.180001,414.459598 353.607396,416.74607 354.178971,423.033868 C354.750547,429.321667 358.465789,429.607476 358.465789,429.607476 L358.180001,428.17843 L359.894728,428.750049 L360.180516,429.607476 L376.184636,429.607476 C376.184636,429.607476 376.470424,423.605486 375.898848,420.747396 C375.327272,417.889306 375.327272,404.170473 373.612545,404.742091 C371.897818,405.313709 367.325212,405.885327 366.182061,408.171799 C365.03891,410.458271 361.609456,409.657103 362.181031,404.627316 Z" id="Path" fill="#2F2E41" fill-rule="nonzero"></path>
                <path d="M420.481752,404.627316 C420.481752,404.627316 421.053328,411.029889 422.768055,412.744743 C424.482782,414.459598 429.055388,416.74607 428.483812,423.033868 C427.912236,429.321667 424.196994,429.607476 424.196994,429.607476 L424.482782,428.17843 L422.768055,428.750049 L422.482267,429.607476 L406.478148,429.607476 C406.478148,429.607476 406.19236,423.605486 406.763935,420.747396 C407.335511,417.889306 407.335511,404.170473 409.050238,404.742091 C410.764965,405.313709 415.337571,405.885327 416.480722,408.171799 C417.623874,410.458271 421.053328,409.657103 420.481752,404.627316 Z" id="Path" fill="#2F2E41" fill-rule="nonzero"></path>
                <path d="M369.611515,174.380022 L361.609456,176.094876 C361.609456,176.094876 361.609456,188.670473 359.323153,193.815035 C357.03685,198.959598 353.03582,210.963576 354.750547,211.535194 C356.465274,212.106812 372.469394,220.109465 373.612545,215.536521 C374.755696,210.963576 377.613575,174.380022 369.611515,174.380022 Z" id="Path" fill="#2F2E41" fill-rule="nonzero"></path>
                <ellipse id="Oval" fill="#2F2E41" fill-rule="nonzero" cx="418.862101" cy="106.585923" rx="21.0338998" ry="21.035458"></ellipse>
                <path d="M437.004959,124.004633 C431.480835,127.997549 424.36458,129.066162 417.911481,126.871805 C411.458382,124.677448 406.468433,119.492158 404.52305,112.959258 C405.512183,120.825956 410.84003,127.468264 418.304242,130.14048 C425.768455,132.812697 434.100993,131.060859 439.857472,125.609116 C445.613951,120.157372 447.816446,111.931881 445.55452,104.332776 C446.514262,111.959963 443.235962,119.50307 437.004959,124.004633 Z" id="Path" fill="#2F2E41" fill-rule="nonzero"></path>
                <ellipse id="Oval" fill="#2F2E41" fill-rule="nonzero" cx="401.684411" cy="137.788511" rx="15.4248618" ry="15.4260045"></ellipse>
                <ellipse id="Oval" fill="#2F2E41" fill-rule="nonzero" cx="388.713512" cy="132.003753" rx="13.6720335" ry="10.6930243"></ellipse>
                <ellipse id="Oval" fill="#A0616A" fill-rule="nonzero" cx="385.066791" cy="142.960854" rx="2.59482219" ry="4.59118463"></ellipse>
            </g>
        </g>
    </g>
</svg>