<?xml version="1.0" encoding="UTF-8"?>
<svg width="150px" height="105px" viewBox="0 0 150 105" version="1.1" xmlns="http://www.w3.org/2000/svg" xmlns:xlink="http://www.w3.org/1999/xlink">
    <!-- Generator: Sketch 61 (89581) - https://sketch.com -->
    <title>undraw_segment_analysis_bdn4</title>
    <desc>Created with Sketch.</desc>
    <g id="Home" stroke="none" stroke-width="1" fill="none" fill-rule="evenodd">
        <g id="01---Agency" transform="translate(-175.000000, -933.000000)" fill-rule="nonzero">
            <g id="undraw_segment_analysis_bdn4" transform="translate(175.000000, 933.000000)">
                <ellipse id="Oval" fill="#3F3D56" cx="36.5346535" cy="99.6481467" rx="36.5346535" ry="5.2173913"></ellipse>
                <path d="M133.151262,47.0435103 L101.841796,47.0435103 L85.3830995,76.2864228 C90.325921,79.6486306 96.0270769,81.4254275 101.841796,81.4159052 C119.133533,81.4159052 133.151262,66.0268304 133.151262,47.0435103 Z" id="Path" fill="#F2F2F2"></path>
                <ellipse id="Oval" fill="#3F3D56" cx="57.582147" cy="87.2665793" rx="8.31950495" ry="9.13336957"></ellipse>
                <path d="M41.9554455,20.816625 C41.9554455,20.816625 42.2524752,24.0774946 41.3613861,25.3818424 C40.470297,26.6861902 43.5891089,34.8383641 43.5891089,34.8383641 L48.0445545,25.7079293 C48.0445545,25.7079293 46.5594059,24.7296685 47.450495,21.9579293 L41.9554455,20.816625 Z" id="Path" fill="#FFB9B9"></path>
                <path d="M41.9554455,20.816625 C41.9554455,20.816625 42.2524752,24.0774946 41.3613861,25.3818424 C40.470297,26.6861902 43.5891089,34.8383641 43.5891089,34.8383641 L48.0445545,25.7079293 C48.0445545,25.7079293 46.5594059,24.7296685 47.450495,21.9579293 L41.9554455,20.816625 Z" id="Path" fill="#000000" opacity="0.1"></path>
                <path d="M55.3217822,37.2840163 L55.470297,43.9687989 L49.8267327,53.9144511 L48.7871287,50.1644511 L51.9059406,43.4796685 C51.9059406,43.4796685 50.8663366,40.3818424 51.1633663,38.5883641 C51.460396,36.7948859 55.3217822,37.2840163 55.3217822,37.2840163 Z" id="Path" fill="#FFB9B9"></path>
                <path d="M32.1534653,36.3057554 L32.0049505,42.990538 L37.6485149,52.9361902 L38.6881188,49.1861902 L35.5693069,42.5014076 C35.5693069,42.5014076 36.6089109,39.4035815 36.3118812,37.6101033 C36.0148515,35.816625 32.1534653,36.3057554 32.1534653,36.3057554 Z" id="Path" fill="#FFB9B9"></path>
                <path d="M36.3118812,47.066625 L35.7178218,48.6970598 C34.1149282,50.3316985 33.246246,52.6562498 33.3415842,55.0557554 L31.5594059,75.2731467 C31.5594059,75.2731467 30.3712871,76.740538 30.8168317,78.5340163 C30.8168317,78.5340163 29.7772277,84.566625 30.3712871,86.5231467 C30.3712871,86.5231467 27.8465347,91.5774946 30.519802,91.9035815 C33.1930693,92.2296685 34.0841584,92.2296685 34.3811881,91.0883641 C34.6782178,89.9470598 35.1237624,85.7079293 35.1237624,85.7079293 L41.6584158,60.2731467 L42.6980198,76.0883641 C42.6980198,76.0883641 41.6584158,80.3274946 41.9554455,81.4687989 C42.2524752,82.6101033 39.8762376,90.7622772 40.9158416,91.5774946 C41.9554455,92.392712 44.9257426,92.7187989 45.0742574,92.066625 C45.2227723,91.4144511 45.3712871,87.3383641 45.3712871,87.3383641 C45.3712871,87.3383641 46.8564356,83.7514076 47.1534653,82.6101033 C47.450495,81.4687989 47.7475248,75.1101033 47.7475248,75.1101033 L50.4207921,56.3601033 C50.4207921,56.3601033 51.0148515,51.3057554 49.529703,50.3274946 L48.9356436,47.392712 L36.3118812,47.066625 Z" id="Path" fill="#2F2E41"></path>
                <path d="M30.0742574,90.9253207 L29.480198,94.1861902 C29.480198,94.1861902 26.3613861,99.566625 29.3316832,99.566625 C32.3019802,99.566625 32.5990099,97.9361902 32.5990099,97.9361902 L32.5990099,96.4687989 C32.5990099,96.4687989 34.0841584,95.6535815 34.0841584,95.490538 C34.0841584,95.3274946 33.6386139,91.4144511 33.6386139,91.4144511 L30.0742574,90.9253207 Z" id="Path" fill="#2F2E41"></path>
                <path d="M44.6287129,90.9253207 L45.2227723,94.1861902 C45.2227723,94.1861902 48.3415842,99.566625 45.3712871,99.566625 C42.4009901,99.566625 42.1039604,97.9361902 42.1039604,97.9361902 L42.1039604,96.4687989 C42.1039604,96.4687989 40.6188119,95.6535815 40.6188119,95.490538 C40.6188119,95.3274946 41.0643564,91.4144511 41.0643564,91.4144511 L44.6287129,90.9253207 Z" id="Path" fill="#2F2E41"></path>
                <ellipse id="Oval" fill="#FFB9B9" cx="45.2529653" cy="20.0439408" rx="3.9183" ry="4.30161196"></ellipse>
                <path d="M43.8861386,31.4144511 C43.8861386,31.4144511 41.6584158,27.3383641 41.8069307,26.3601033 C41.8983303,25.799658 41.8959211,25.2256175 41.7998213,24.6661207 L40.470297,25.5448859 L34.9752475,28.316625 L37.2029703,36.4687989 C37.2029703,36.4687989 36.6089109,38.2622772 36.6089109,39.566625 C36.6089109,40.8709728 36.9059406,42.3383641 36.6089109,42.8274946 C36.3118812,43.316625 36.1633663,44.1318424 36.460396,44.7840163 C36.6376895,45.1895314 36.6898248,45.6474157 36.6089109,46.0883641 C36.6089109,46.0883641 34.529703,47.392712 35.7178218,47.7187989 C36.5005057,47.9082087 37.3113755,47.9082087 38.0940594,47.7187989 C38.0940594,47.7187989 38.2425743,47.2296685 39.4306931,47.8818424 C40.6188119,48.5340163 46.8564356,48.6970598 46.8564356,48.6970598 C46.8564356,48.6970598 50.8663366,48.8601033 50.7178218,48.2079293 C50.5693069,47.5557554 51.460396,39.892712 51.460396,39.892712 L53.539604,29.1318424 L48.7871287,25.8709728 L47.2520792,24.3832125 L46.8564356,26.6861902 L43.8861386,31.4144511 Z" id="Path" fill="#D0CDE1"></path>
                <path d="M36.0148515,28.4796685 L34.9752475,28.4796685 C34.9752475,28.4796685 29.7029703,35.4090163 31.1881188,36.5503207 C32.6732673,37.691625 37.7970297,38.5883641 37.7970297,38.5883641 C37.7970297,38.5883641 37.3514851,28.4796685 36.0148515,28.4796685 Z" id="Path" fill="#D0CDE1"></path>
                <path d="M52.2029703,29.1318424 L53.539604,29.1318424 C53.539604,29.1318424 57.1039604,38.2622772 55.9158416,38.5883641 C54.7277228,38.9144511 50.4207921,39.892712 50.4207921,39.4035815 C50.4207921,38.9144511 52.2029703,29.1318424 52.2029703,29.1318424 Z" id="Path" fill="#D0CDE1"></path>
                <path d="M41.364303,20.0208978 C41.364303,20.0208978 40.9391777,19.3208266 41.1026866,18.5669022 C41.2003865,18.1388604 41.2389694,17.6971363 41.2171441,17.256512 C41.4000453,16.6033892 41.6296745,15.9671555 41.9038871,15.3537522 C42.2472535,14.6716304 42.0837475,14.3844212 43.1629144,14.1690147 C44.2420812,13.9536082 43.8006045,12.4098587 46.6456797,14.0792609 C46.8419635,14.3801308 47.1838772,14.5217771 47.5122832,14.4382728 C48.1009188,14.3126185 48.3134822,15.2101467 48.3134822,15.2101467 C48.3134822,15.2101467 48.7059074,14.9588397 48.8530663,15.31785 C49.0002252,15.6768603 50.049505,15.1023783 50.049505,17.5257049 C50.049505,19.9490315 48.8554619,22.1136864 48.8554619,22.1136864 C48.8554619,22.1136864 48.9429965,18.0373614 46.9972262,17.6244978 C45.0514559,17.2116342 42.9585267,16.0089473 42.4516455,17.5526951 C42.1780321,18.4191283 41.8131087,19.2474827 41.364303,20.0208978 L41.364303,20.0208978 Z" id="Path" fill="#2F2E41"></path>
                <path d="M100.780525,78.2291186 C94.9387125,78.234362 89.2115211,76.4494378 84.2435985,73.075244 L84.1174203,72.9894245 L84.1954485,72.8509011 L100.69771,43.5306196 L132.238403,43.5306196 L132.238403,43.693663 C132.238403,62.7366277 118.126451,78.2291186 100.780525,78.2291186 Z M84.5262698,72.8833826 C89.4187263,76.1709153 95.0443555,77.9082216 100.780525,77.9030318 C117.913396,77.9030318 131.861173,62.6455565 131.941087,43.8567065 L100.863339,43.8567065 L84.5262698,72.8833826 Z" id="Shape" fill="#3F3D56"></path>
                <path d="M62.9702604,42.091562 C62.9651474,54.0072569 68.5856087,65.0746056 77.8210678,71.3344745 L94.2797629,42.091562 L67.0914356,25.0355299 C64.3829128,30.2274841 62.9619392,36.1084248 62.9702604,42.091562 Z" id="Path" fill="#F2F2F2"></path>
                <path d="M80.389901,70.3937837 L80.2635772,70.3079641 C65.8442023,60.5200336 61.0777836,39.9522185 69.4832673,23.7893022 L69.5570183,23.647994 L97.0076124,40.868506 L80.389901,70.3937837 Z M69.6676054,24.0929397 C61.4679558,40.036751 66.1503818,60.241302 80.2937421,69.9444538 L96.5933955,40.9842538 L69.6676054,24.0929397 Z" id="Shape" fill="#3F3D56"></path>
                <path d="M109.851717,3.27937174 L103.102129,36.8483234 L134.411595,36.8483234 C134.411595,20.4092935 123.898751,6.6681375 109.851717,3.27937174 Z" id="Path" fill="#0F70EB"></path>
                <path d="M132.238406,38.9047386 L100.595606,38.9047386 L107.416992,4.97856033 L107.561881,5.0135087 C121.975074,8.51081156 132.236772,22.5366305 132.238406,38.7416951 L132.238406,38.9047386 Z M100.965443,38.5786516 L131.941087,38.5786516 C131.871325,22.7584989 121.68312,8.83292935 107.642955,5.3673 L100.965443,38.5786516 Z" id="Shape" fill="#3F3D56"></path>
                <path d="M96.4024396,-2.69263262e-06 C85.165175,-0.00487285093 74.7880372,6.60435285 69.2141109,17.3163163 L96.4024396,34.3723484 L103.15203,0.803396739 C100.935206,0.268722712 98.6721322,-0.000648629085 96.4024396,-2.69263262e-06 Z" id="Path" fill="#F2F2F2"></path>
                <path d="M97.8306772,37.3910935 L70.3380267,20.1441505 L70.4119203,20.0025228 C77.2525991,6.8837737 91.0628788,0.164233249 104.510655,3.41141576 L104.655835,3.44644402 L97.8306772,37.3910935 Z M70.7438317,20.0231495 L97.6276307,36.8881109 L104.301661,3.69523043 C91.0740828,0.573652786 77.5213841,7.16786261 70.7438317,20.0231495 L70.7438317,20.0231495 Z" id="Shape" fill="#3F3D56"></path>
                <polygon id="Path" fill="#3F3D56" points="114.022574 27.4932065 113.806485 27.2695109 130.102129 8.28440217 143.366584 8.28440217 143.366584 8.61048913 130.230446 8.61048913"></polygon>
                <rect id="Rectangle" fill="#0F70EB" x="134.345266" y="10.7777707" width="15.6547337" height="1"></rect>
                <rect id="Rectangle" fill="#0F70EB" x="134.345266" y="13.253744" width="15.6547337" height="1"></rect>
                <rect id="Rectangle" fill="#0F70EB" x="134.345266" y="15.729719" width="15.6547337" height="1"></rect>
                <rect id="Rectangle" fill="#0F70EB" x="128.998732" y="82.842988" width="15.6547337" height="1"></rect>
                <rect id="Rectangle" fill="#0F70EB" x="128.998732" y="85.3189614" width="15.6547337" height="1"></rect>
                <rect id="Rectangle" fill="#0F70EB" x="128.998732" y="87.7949364" width="15.6547337" height="1"></rect>
                <polygon id="Path" fill="#3F3D56" points="137.970297 79.92 122.298267 79.92 122.25401 79.8494022 110.075792 60.4472283 110.320248 60.2621739 122.454208 79.593913 137.970297 79.593913"></polygon>
                <path d="M8.4893703,91.736356 C7.99463317,96.4956489 10.6598079,100.73797 10.6598079,100.73797 C10.6598079,100.73797 14.1271084,97.2639554 14.6218455,92.5046641 C15.1165827,87.7453728 12.4514094,83.50305 12.4514094,83.50305 C12.4514094,83.50305 8.98410891,86.9770712 8.4893703,91.736356 Z" id="Path" fill="#2F2E41"></path>
                <path d="M10.3794891,91.4907734 C12.1627515,95.8626391 10.7917381,100.791406 10.7917381,100.791406 C10.7917381,100.791406 6.52948515,98.6319766 4.74622129,94.2601109 C2.96295743,89.8882451 4.33397079,84.9594766 4.33397079,84.9594766 C4.33397079,84.9594766 8.59622525,87.118906 10.3794891,91.4907734 Z" id="Path" fill="#0F70EB"></path>
            </g>
        </g>
    </g>
</svg>