<?xml version="1.0" encoding="UTF-8"?>
<svg width="133px" height="93px" viewBox="0 0 133 93" version="1.1" xmlns="http://www.w3.org/2000/svg" xmlns:xlink="http://www.w3.org/1999/xlink">
    <!-- Generator: Sketch 61 (89581) - https://sketch.com -->
    <title>undraw_segment_analysis_bdn4</title>
    <desc>Created with Sketch.</desc>
    <g id="Home" stroke="none" stroke-width="1" fill="none" fill-rule="evenodd">
        <g id="45---Classic-Service" transform="translate(-117.000000, -1239.000000)" fill-rule="nonzero">
            <g id="undraw_segment_analysis_bdn4" transform="translate(117.000000, 1239.000000)">
                <ellipse id="Oval" fill="#3F3D56" cx="32.5" cy="88.05" rx="32.5" ry="4.5"></ellipse>
                <path d="M118,41.55 L90.4712549,41.55 L76,67.0730215 C80.3459596,70.0075344 85.3586822,71.5583109 90.4712549,71.55 C105.674958,71.55 118,58.1185168 118,41.55 Z" id="Path" fill="#F2F2F2"></path>
                <ellipse id="Oval" fill="#3F3D56" cx="51.5" cy="77.55" rx="7.5" ry="8"></ellipse>
                <path d="M37.6612411,18.55 C37.6612411,18.55 37.9216684,21.3406977 37.1403866,22.4569767 C36.3591048,23.5732558 39.093591,30.55 39.093591,30.55 L43,22.7360465 C43,22.7360465 41.6978637,21.8988372 42.4791455,19.5267442 L37.6612411,18.55 Z" id="Path" fill="#FFB9B9"></path>
                <path d="M37.6612411,18.55 C37.6612411,18.55 37.9216684,21.3406977 37.1403866,22.4569767 C36.3591048,23.5732558 39.093591,30.55 39.093591,30.55 L43,22.7360465 C43,22.7360465 41.6978637,21.8988372 42.4791455,19.5267442 L37.6612411,18.55 Z" id="Path" fill="#000000" opacity="0.1"></path>
                <path d="M48.8666667,32.6047556 L49,38.6121578 L43.9333333,47.55 L43,44.1799939 L45.8,38.1725918 C45.8,38.1725918 44.8666667,35.3886737 45.1333333,33.7769317 C45.4,32.1651896 48.8666667,32.6047556 48.8666667,32.6047556 Z" id="Path" fill="#FFB9B9"></path>
                <path d="M28.1333333,31.6047556 L28,37.6121578 L33.0666667,46.55 L34,43.1799939 L31.2,37.1725918 C31.2,37.1725918 32.1333333,34.3886737 31.8666667,32.7769317 C31.6,31.1651896 28.1333333,31.6047556 28.1333333,31.6047556 Z" id="Path" fill="#FFB9B9"></path>
                <path d="M32.2777899,41.55 L31.7465363,42.9881873 C30.3131059,44.4300829 29.5362635,46.4805421 29.6215223,48.5971178 L28.0277617,66.4306403 C28.0277617,66.4306403 26.9652546,67.7250089 27.3636948,69.3070149 C27.3636948,69.3070149 26.4340011,74.6283079 26.9652546,76.3541327 C26.9652546,76.3541327 24.7074272,80.8125133 27.098068,81.1001507 C29.4887089,81.3877882 30.2855892,81.3877882 30.5512159,80.3810571 C30.8168427,79.374326 31.2152828,75.635039 31.2152828,75.635039 L37.0590716,53.1993171 L37.9887652,67.1497339 C37.9887652,67.1497339 37.0590716,70.8890209 37.3246983,71.895752 C37.5903251,72.9024831 35.465311,80.0934196 36.3950047,80.8125133 C37.3246983,81.5316069 39.9809659,81.8192444 40.1137793,81.2439695 C40.2465927,80.6686946 40.3794061,77.0732263 40.3794061,77.0732263 C40.3794061,77.0732263 41.7075399,73.9092142 41.9731667,72.9024831 C42.2387934,71.895752 42.5044202,66.2868216 42.5044202,66.2868216 L44.895061,49.7476676 C44.895061,49.7476676 45.4263146,45.289287 44.0981807,44.4263746 L43.5669272,41.8376375 L32.2777899,41.55 Z" id="Path" fill="#2F2E41"></path>
                <path d="M26.677891,80.55 L26.1857267,83.5688679 C26.1857267,83.5688679 23.6018642,88.55 26.0626856,88.55 C28.5235071,88.55 28.7695893,87.040566 28.7695893,87.040566 L28.7695893,85.6820755 C28.7695893,85.6820755 30,84.9273585 30,84.7764151 C30,84.6254717 29.6308768,81.0028302 29.6308768,81.0028302 L26.677891,80.55 Z" id="Path" fill="#2F2E41"></path>
                <path d="M39.322109,80.55 L39.8142733,83.5688679 C39.8142733,83.5688679 42.3981358,88.55 39.9373144,88.55 C37.4764929,88.55 37.2304107,87.040566 37.2304107,87.040566 L37.2304107,85.6820755 C37.2304107,85.6820755 36,84.9273585 36,84.7764151 C36,84.6254717 36.3691232,81.0028302 36.3691232,81.0028302 L39.322109,80.55 Z" id="Path" fill="#2F2E41"></path>
                <ellipse id="Oval" fill="#FFB9B9" cx="40.5" cy="17.55" rx="3.5" ry="4"></ellipse>
                <path d="M38.68,27.9073682 C38.68,27.9073682 36.76,24.2219314 36.888,23.3374265 C36.9667743,22.8306941 36.9646979,22.3116693 36.8818726,21.8057944 L35.736,22.6003392 L31,25.1064362 L32.92,32.4773098 C32.92,32.4773098 32.408,34.098902 32.408,35.2782418 C32.408,36.4575816 32.664,37.7843388 32.408,38.2265913 C32.152,38.6688437 32.024,39.405931 32.28,39.9956009 C32.4328033,40.3622517 32.477737,40.7762525 32.408,41.1749407 C32.408,41.1749407 30.616,42.3542805 31.64,42.6491154 C32.3145692,42.8203723 33.0134308,42.8203723 33.688,42.6491154 C33.688,42.6491154 33.816,42.206863 34.84,42.7965329 C35.864,43.3862028 41.24,43.5336203 41.24,43.5336203 C41.24,43.5336203 44.696,43.6810378 44.568,43.0913679 C44.44,42.501698 45.208,35.5730768 45.208,35.5730768 L47,25.8435236 L42.904,22.8951741 L41.580992,21.55 L41.24,23.6322615 L38.68,27.9073682 Z" id="Path" fill="#D0CDE1"></path>
                <path d="M31.4441059,25.55 L30.5365011,25.55 C30.5365011,25.55 25.9336478,31.7193548 27.2302262,32.7354839 C28.5268045,33.7516129 33,34.55 33,34.55 C33,34.55 32.6110265,25.55 31.4441059,25.55 Z" id="Path" fill="#D0CDE1"></path>
                <path d="M46.5530903,25.55 L47.7179081,25.55 C47.7179081,25.55 50.8240887,33.4466236 49.7886952,33.7286458 C48.7533016,34.0106681 45,34.8567349 45,34.4337015 C45,34.0106681 46.5530903,25.55 46.5530903,25.55 Z" id="Path" fill="#D0CDE1"></path>
                <path d="M36.2662864,17.6477749 C36.2662864,17.6477749 35.8877349,17.0114502 36.0333309,16.326176 C36.1203275,15.9371105 36.1546835,15.5356086 36.1352492,15.1351063 C36.2981131,14.5414551 36.5025857,13.963155 36.7467576,13.4056065 C37.0525072,12.7855968 36.9069138,12.5245401 37.8678549,12.3287478 C38.8287959,12.1329556 38.4356842,10.7297757 40.9690734,12.2471668 C41.1438537,12.5206404 41.4483099,12.6493887 41.740738,12.5734881 C42.264887,12.4592755 42.4541634,13.2750773 42.4541634,13.2750773 C42.4541634,13.2750773 42.8035974,13.0466536 42.9346346,13.3729734 C43.0656719,13.6992933 44,13.177122 44,15.3797872 C44,17.5824525 42.9367677,19.55 42.9367677,19.55 C42.9367677,19.55 43.0147127,15.8448538 41.282107,15.4695844 C39.5495014,15.094315 37.6858585,14.0011413 37.2345076,15.4043198 C36.9908692,16.191858 36.6659242,16.9447848 36.2662864,17.6477749 L36.2662864,17.6477749 Z" id="Path" fill="#2F2E41"></path>
                <path d="M88.8898353,69.5499897 C83.669702,69.5546742 78.5519921,67.9600049 74.1127505,64.945466 L74,64.868794 L74.0697245,64.7450358 L88.8158335,38.55 L117,38.55 L117,38.6956647 C117,55.7088418 104.389826,69.5499897 88.8898353,69.5499897 Z M74.3653402,64.7740551 C78.7371467,67.7111701 83.7641026,69.2632971 88.8898353,69.2586604 C104.199444,69.2586604 116.662914,55.6274778 116.734324,38.8413294 L88.9638357,38.8413294 L74.3653402,64.7740551 Z" id="Shape" fill="#3F3D56"></path>
                <path d="M56,37.653958 C55.9954275,48.2058939 61.0217902,58.0065772 69.2810353,63.55 L84,37.653958 L59.6855555,22.55 C57.2633311,27.1477317 55.9925584,32.3555949 56,37.653958 Z" id="Path" fill="#F2F2F2"></path>
                <path d="M71.307778,62.55 L71.1960913,62.474729 C58.4474852,53.8898884 54.23335,35.85018 61.6648928,21.6739392 L61.7300983,21.55 L86,36.6538413 L71.307778,62.55 Z M61.8278717,21.9402549 C54.5783131,35.924322 58.7181877,53.6454173 71.222761,62.1558998 L85.6337784,36.7553619 L61.8278717,21.9402549 Z" id="Shape" fill="#3F3D56"></path>
                <path d="M97.0361452,2.55 L91,32.55 L119,32.55 C119,17.8587191 109.598383,5.57848221 97.0361452,2.55 Z" id="Path" fill="#335EEA"></path>
                <path d="M117,34.55 L89,34.55 L95.0360899,4.55 L95.1642994,4.5809039 C107.918209,7.67347403 116.998554,20.0761256 117,34.4058251 L117,34.55 Z M89.3272597,34.2616501 L116.736909,34.2616501 C116.675178,20.2723178 107.659865,7.95831407 95.2360402,4.89375196 L89.3272597,34.2616501 Z" id="Shape" fill="#3F3D56"></path>
                <path d="M85.0335851,0.55 C75.1002142,0.545749352 65.9271669,6.31424539 61,15.6635885 L85.0335851,30.55 L91,1.25120263 C89.0404011,0.784542063 87.0399185,0.54943623 85.0335851,0.55 Z" id="Path" fill="#F2F2F2"></path>
                <path d="M87.0335722,33.55 L63,18.1816059 L63.0645964,18.0554044 C69.0445927,6.36555838 81.1172867,0.37791488 92.873087,3.27141205 L93,3.30262501 L87.0335722,33.55 Z M63.3547473,18.0737843 L86.8560726,33.1018026 L92.6903878,3.52431343 C81.127081,0.742740161 69.2795597,6.61870413 63.3547473,18.0737843 L63.3547473,18.0737843 Z" id="Shape" fill="#3F3D56"></path>
                <polygon id="Path" fill="#3F3D56" points="101.190064 24.55 101 24.3520269 115.333062 7.55 127 7.55 127 7.83859049 115.445925 7.83859049"></polygon>
                <rect id="Rectangle" fill="#335EEA" x="119" y="9.55" width="14" height="1"></rect>
                <rect id="Rectangle" fill="#335EEA" x="119" y="11.55" width="14" height="1"></rect>
                <rect id="Rectangle" fill="#335EEA" x="119" y="13.55" width="14" height="1"></rect>
                <rect id="Rectangle" fill="#335EEA" x="114" y="73.55" width="14" height="1"></rect>
                <rect id="Rectangle" fill="#335EEA" x="114" y="75.55" width="14" height="1"></rect>
                <rect id="Rectangle" fill="#335EEA" x="114" y="77.55" width="14" height="1"></rect>
                <polygon id="Path" fill="#3F3D56" points="122 70.55 107.954196 70.55 107.914531 70.4889473 97 53.7100342 97.2190892 53.55 108.093955 70.2680015 122 70.2680015"></polygon>
                <path d="M7.05874782,81.7156607 C6.58417708,85.8577973 9.14071443,89.55 9.14071443,89.55 C9.14071443,89.55 12.4666814,86.5264745 12.9412522,82.3843393 C13.4158229,78.2422041 10.859287,74.55 10.859287,74.55 C10.859287,74.55 7.53331998,77.5735312 7.05874782,81.7156607 Z" id="Path" fill="#2F2E41"></path>
                <path d="M9.14135467,81.3255535 C10.8136442,85.191546 9.52794932,89.55 9.52794932,89.55 C9.52794932,89.55 5.53093735,87.6404405 3.85864642,83.774448 C2.18635548,79.9084554 3.47205037,75.55 3.47205037,75.55 C3.47205037,75.55 7.46906373,77.4595595 9.14135467,81.3255535 Z" id="Path" fill="#335EEA"></path>
            </g>
        </g>
    </g>
</svg>