<?xml version="1.0" encoding="UTF-8"?>
<svg width="133px" height="93px" viewBox="0 0 133 93" version="1.1" xmlns="http://www.w3.org/2000/svg" xmlns:xlink="http://www.w3.org/1999/xlink">
    <!-- Generator: Sketch 61 (89581) - https://sketch.com -->
    <title>undraw_key_points_ig28</title>
    <desc>Created with Sketch.</desc>
    <g id="Home" stroke="none" stroke-width="1" fill="none" fill-rule="evenodd">
        <g id="45---Classic-Service" transform="translate(-437.000000, -1222.000000)" fill-rule="nonzero">
            <g id="undraw_key_points_ig28" transform="translate(437.000000, 1222.000000)">
                <ellipse id="Oval" fill="#2F2E41" cx="104.627417" cy="10.647172" rx="5.84424391" ry="6.38830266"></ellipse>
                <path d="M102.320478,16.0828321 C102.320478,16.0828321 102.423009,19.7813304 100.167335,20.9020782 C97.9116609,22.0228259 108.984961,21.9107581 108.984961,21.9107581 C108.984961,21.9107581 105.703983,17.539814 106.626757,16.0828321 L102.320478,16.0828321 Z" id="Path" fill="#FFB8B8"></path>
                <path d="M102.320478,16.0828321 C102.320478,16.0828321 102.423009,19.7813304 100.167335,20.9020782 C97.9116609,22.0228259 108.984961,21.9107581 108.984961,21.9107581 C108.984961,21.9107581 105.703983,17.539814 106.626757,16.0828321 L102.320478,16.0828321 Z" id="Path" fill="#000000" opacity="0.1"></path>
                <ellipse id="Oval" fill="#FFB8B8" cx="104.576151" cy="13.8413227" rx="3.99869341" ry="4.37094414"></ellipse>
                <path d="M104.063498,20.1175505 L100.628724,19.2769841 L98.6293769,21.574531 L96.3737027,21.9107581 L99.3470903,35.2477401 L99.2445604,38.6100043 C99.2445604,38.6100043 95.9635804,41.299817 96.1686429,53.7401966 C96.3737053,66.1805762 94.5281535,90.8371831 96.7838264,91.0613354 C99.0394992,91.2854877 103.755907,92.4062411 104.063504,91.3975611 C104.3711,90.3888812 104.883748,50.6020834 104.883748,50.6020834 C104.883748,50.6020834 104.781217,90.5009573 106.319176,90.9492592 C107.857136,91.3975611 112.573543,92.2941649 113.188726,90.8371831 C113.80391,89.3802012 113.188726,51.386611 113.188726,51.386611 C113.188726,51.386611 113.086196,41.523968 109.395094,38.6100029 L108.984972,36.0322663 L112.16342,21.9107553 L109.60015,21.9107553 L108.062192,18.9967916 L104.883743,20.2296225 L104.063498,20.1175505 Z" id="Path" fill="#2F2E41"></path>
                <path d="M95.686213,35.3949971 L91.2917203,43.4986009 C91.2917203,43.4986009 88.0777706,47.1032083 89.6861558,48.0988669 C91.294541,49.0945255 93.0045337,43.9016107 93.0045337,43.9016107 L97.7323459,37.0974612 L95.686213,35.3949971 Z" id="Path" fill="#FFB8B8"></path>
                <path d="M113.688284,35.5672523 L117.241807,44.149492 C117.241807,44.149492 120.074058,48.1182042 118.375349,48.9147073 C116.67664,49.7112104 115.498864,44.3443899 115.498864,44.3443899 L111.48345,37.0137165 L113.688284,35.5672523 Z" id="Path" fill="#FFB8B8"></path>
                <path d="M97.706601,22.6952857 L96.3737027,21.9107581 C96.3737027,21.9107581 94.0155,26.1696275 94.4256223,33.3424577 C94.4256223,33.3424577 94.0155,37.1530238 94.8357446,37.3771748 C95.6559893,37.6013257 98.0141921,38.0496276 98.1167233,37.6013257 C98.2192545,37.1530238 99.4496215,28.8594374 99.4496215,28.8594374 L97.706601,22.6952857 Z" id="Path" fill="#2F2E41"></path>
                <path d="M110.933048,22.4711348 L112.163415,21.9107609 C113.060221,23.0941429 113.629349,24.5327723 113.803905,26.0575541 C114.111497,28.6352893 115.546925,36.9288757 114.419088,37.1530266 C113.291251,37.3771776 110.625456,37.8254795 110.625456,37.1530266 C110.625456,36.4805738 109.702681,28.6352879 109.702681,28.6352879 L110.933048,22.4711348 Z" id="Path" fill="#2F2E41"></path>
                <polygon id="Path" fill="#2F2E41" points="108.484883 9.90882883 105.519103 8.21067117 101.423526 8.90537838 100.576179 12.9964009 102.685541 12.9077297 103.274712 11.4046486 103.274712 12.8828739 104.248018 12.8419595 104.812916 10.4492342 105.16601 12.9964009 108.626172 12.9191802"></polygon>
                <ellipse id="Oval" fill="#2F2E41" cx="104.935008" cy="3.36226419" rx="2.35820407" ry="2.57773658"></ellipse>
                <path d="M101.961621,2.57773518 C101.961694,1.3055133 102.810685,0.223513256 103.960967,0.0296594595 C103.043253,-0.123853937 102.128533,0.325499257 101.624248,1.17756516 C101.119963,2.02963105 101.119963,3.12583651 101.624248,3.97790241 C102.128533,4.82996831 103.043253,5.2793215 103.960967,5.12580811 C102.810686,4.93195282 101.961697,3.84995535 101.961621,2.57773518 L101.961621,2.57773518 Z" id="Path" fill="#2F2E41"></path>
                <ellipse id="Oval" fill="#335EEA" cx="63.6109819" cy="81.0619042" rx="1.00608243" ry="1"></ellipse>
                <path d="M63.610978,81.061907 C63.610978,81.061907 68.389875,90.1382462 68.2641117,91.4482336" id="Path" fill="#335EEA"></path>
                <path d="M66.7549912,81.6880176 L66.7549912,86.9975161 C65.7539522,85.4813396 63.7573099,83.9201377 60.0157564,82.6528144 L66.7549912,92.771382 L66.7549912,92.8482452 C66.7549912,92.8482452 66.7677212,92.8407424 66.7914209,92.826083 L66.802899,92.8433145 C66.802899,92.8433145 66.8125222,92.8292612 66.8297259,92.8020915 C67.6148963,92.3049423 74.2000168,87.8223144 66.7549912,81.6880176 Z" id="Path" fill="#3F3D56"></path>
                <rect id="Rectangle" fill="#3F3D56" x="62.9793956" y="92.6450584" width="69.8777485" height="1"></rect>
                <path d="M80.9917582,92.8196512 L78.4698806,92.8196512 L78.4698806,90.0630041 L80.9917582,90.0630041 L80.9917582,92.8196512 Z M78.6638712,92.6076014 L80.7977677,92.6076014 L80.7977677,90.2750511 L78.6638712,90.2750511 L78.6638712,92.6076014 Z" id="Shape" fill="#3F3D56"></path>
                <ellipse id="Oval" fill="#335EEA" cx="128.042362" cy="88.5459856" rx="1.28751474" ry="1.40737347"></ellipse>
                <path d="M128.042362,92.6117306 C125.988145,92.6117306 124.322873,90.7914333 124.322873,88.5459828 C124.322873,86.3005324 125.988145,84.4802351 128.042362,84.4802351 C130.096579,84.4802351 131.761851,86.3005324 131.761851,88.5459828 C131.759553,90.7903921 130.095626,92.6092187 128.042362,92.6117306 L128.042362,92.6117306 Z M128.042362,84.7929902 C126.146163,84.7929902 124.608989,86.4732635 124.608989,88.5459856 C124.608989,90.6187078 126.146163,92.2989811 128.042362,92.2989811 C129.938561,92.2989811 131.475734,90.6187078 131.475734,88.5459856 C131.473566,86.4742457 129.937662,84.7953595 128.042362,84.7929902 L128.042362,84.7929902 Z" id="Shape" fill="#2F2E41"></path>
                <rect id="Rectangle" fill="#335EEA" x="4.5989011" y="5.60613356" width="85.9739011" height="56.1351351"></rect>
                <polygon id="Path" fill="#000000" opacity="0.1" points="58.3140659 5.60611261 4.5989011 45.914491 4.5989011 36.2598063 45.4486401 5.60611261"></polygon>
                <polygon id="Path" fill="#000000" opacity="0.1" points="84.0576923 5.60611261 84.0576923 6.58219369 10.5519231 61.7412477 4.5989011 61.7412477 4.5989011 56.5550315 72.494011 5.60611261"></polygon>
                <rect id="Rectangle" fill="#3F3D56" x="11.9285862" y="51.8268543" width="1" height="9.91441441"></rect>
                <ellipse id="Oval" fill="#3F3D56" cx="12.0721154" cy="51.8268543" rx="3.19368132" ry="3.49099099"></ellipse>
                <rect id="Rectangle" fill="#3F3D56" x="29.6854544" y="43.3088363" width="1" height="18.4324324"></rect>
                <ellipse id="Oval" fill="#3F3D56" cx="29.8289835" cy="43.7277552" rx="3.19368132" ry="3.49099099"></ellipse>
                <rect id="Rectangle" fill="#3F3D56" x="47.4423225" y="27.8088363" width="1" height="33.9324324"></rect>
                <ellipse id="Oval" fill="#3F3D56" cx="47.5858516" cy="27.8088363" rx="3.19368132" ry="3.49099099"></ellipse>
                <rect id="Rectangle" fill="#3F3D56" x="65.1991293" y="38.00253" width="1" height="23.7387387"></rect>
                <ellipse id="Oval" fill="#3F3D56" cx="65.3427198" cy="38.00253" rx="3.19368132" ry="3.49099099"></ellipse>
                <rect id="Rectangle" fill="#3F3D56" x="82.9559974" y="17.7547822" width="1" height="43.9864865"></rect>
                <ellipse id="Oval" fill="#3F3D56" cx="83.0995879" cy="17.7547822" rx="3.19368132" ry="3.49099099"></ellipse>
                <rect id="Rectangle" fill="#3F3D56" x="4.5989011" y="51.6872146" width="1" height="1"></rect>
                <path d="M10.1686941,52.6872146 L8.9678201,52.6872146 L8.9678201,51.6872146 L10.1686941,51.6872146 L10.1686941,52.6872146 Z M7.76700742,52.6872146 L6.56619602,52.6872146 L6.56619602,51.6872146 L7.76700742,51.6872146 L7.76700742,52.6872146 Z" id="Shape" fill="#3F3D56"></path>
                <rect id="Rectangle" fill="#3F3D56" x="11.3695055" y="51.6872146" width="1" height="1"></rect>
                <rect id="Rectangle" fill="#3F3D56" x="4.5989011" y="43.5881155" width="1" height="1"></rect>
                <path d="M27.0653889,44.5881155 L25.5153931,44.5881155 L25.5153931,43.5881155 L27.0653889,43.5881155 L27.0653889,44.5881155 Z M23.9653974,44.5881155 L22.4154016,44.5881155 L22.4154016,43.5881155 L23.9653974,43.5881155 L23.9653974,44.5881155 Z M20.8654059,44.5881155 L19.3154102,44.5881155 L19.3154102,43.5881155 L20.8654059,43.5881155 L20.8654059,44.5881155 Z M17.7653518,44.5881155 L16.2153561,44.5881155 L16.2153561,43.5881155 L17.7653518,43.5881155 L17.7653518,44.5881155 Z M14.6653591,44.5881155 L13.1153633,44.5881155 L13.1153633,43.5881155 L14.6653591,43.5881155 L14.6653591,44.5881155 Z M11.5653676,44.5881155 L10.0153718,44.5881155 L10.0153718,43.5881155 L11.5653676,43.5881155 L11.5653676,44.5881155 Z M8.4653761,44.5881155 L6.91538036,44.5881155 L6.91538036,43.5881155 L8.4653761,43.5881155 L8.4653761,44.5881155 Z" id="Shape" fill="#3F3D56"></path>
                <rect id="Rectangle" fill="#3F3D56" x="28.6153846" y="43.5881155" width="1" height="1"></rect>
                <rect id="Rectangle" fill="#3F3D56" x="4.5989011" y="37.8628903" width="1" height="1"></rect>
                <path d="M60.925092,38.8628903 L59.3817634,38.8628903 L59.3817634,37.8628903 L60.925092,37.8628903 L60.925092,38.8628903 Z M57.8384489,38.8628903 L56.2951202,38.8628903 L56.2951202,37.8628903 L57.8384489,37.8628903 L57.8384489,38.8628903 Z M54.7518057,38.8628903 L53.2084771,38.8628903 L53.2084771,37.8628903 L54.7518057,37.8628903 L54.7518057,38.8628903 Z M51.6650999,38.8628903 L50.1217713,38.8628903 L50.1217713,37.8628903 L51.6650999,37.8628903 L51.6650999,38.8628903 Z M48.5784567,38.8628903 L47.0351332,38.8628903 L47.0351332,37.8628903 L48.5784567,37.8628903 L48.5784567,38.8628903 Z M45.4918136,38.8628903 L43.9484862,38.8628903 L43.9484862,37.8628903 L45.4918136,37.8628903 L45.4918136,38.8628903 Z M42.4051704,38.8628903 L40.8618431,38.8628903 L40.8618431,37.8628903 L42.4051704,37.8628903 L42.4051704,38.8628903 Z M39.3185272,38.8628903 L37.7751999,38.8628903 L37.7751999,37.8628903 L39.3185272,37.8628903 L39.3185272,38.8628903 Z M36.2318841,38.8628903 L34.6885567,38.8628903 L34.6885567,37.8628903 L36.2318841,37.8628903 L36.2318841,38.8628903 Z M33.1452409,38.8628903 L31.6019135,38.8628903 L31.6019135,37.8628903 L33.1452409,37.8628903 L33.1452409,38.8628903 Z M30.0585977,38.8628903 L28.5152704,38.8628903 L28.5152704,37.8628903 L30.0585977,37.8628903 L30.0585977,38.8628903 Z M26.9719545,38.8628903 L25.4286272,38.8628903 L25.4286272,37.8628903 L26.9719545,37.8628903 L26.9719545,38.8628903 Z M23.8853114,38.8628903 L22.3419214,38.8628903 L22.3419214,37.8628903 L23.8853114,37.8628903 L23.8853114,38.8628903 Z M20.7986069,38.8628903 L19.2552783,38.8628903 L19.2552783,37.8628903 L20.7986069,37.8628903 L20.7986069,38.8628903 Z M17.7119637,38.8628903 L16.1686351,38.8628903 L16.1686351,37.8628903 L17.7119637,37.8628903 L17.7119637,38.8628903 Z M14.6253205,38.8628903 L13.0819919,38.8628903 L13.0819919,37.8628903 L14.6253205,37.8628903 L14.6253205,38.8628903 Z M11.5386773,38.8628903 L9.99534874,38.8628903 L9.99534874,37.8628903 L11.5386773,37.8628903 L11.5386773,38.8628903 Z M8.45203418,38.8628903 L6.90870556,38.8628903 L6.90870556,37.8628903 L8.45203418,37.8628903 L8.45203418,38.8628903 Z" id="Shape" fill="#3F3D56"></path>
                <rect id="Rectangle" fill="#3F3D56" x="62.4684066" y="37.8628903" width="1" height="1"></rect>
                <rect id="Rectangle" fill="#3F3D56" x="4.5989011" y="27.6691966" width="1" height="1"></rect>
                <path d="M43.260285,28.6691966 L41.6813468,28.6691966 L41.6813468,27.6691966 L43.260285,27.6691966 L43.260285,28.6691966 Z M40.1024074,28.6691966 L38.5234066,28.6691966 L38.5234066,27.6691966 L40.1024074,27.6691966 L40.1024074,28.6691966 Z M36.9444684,28.6691966 L35.365529,28.6691966 L35.365529,27.6691966 L36.9444684,27.6691966 L36.9444684,28.6691966 Z M33.7865934,28.6691966 L32.2075901,28.6691966 L32.2075901,27.6691966 L33.7865934,27.6691966 L33.7865934,28.6691966 Z M30.6286519,28.6691966 L29.0497125,28.6691966 L29.0497125,27.6691966 L30.6286519,27.6691966 L30.6286519,28.6691966 Z M27.4707743,28.6691966 L25.8917736,28.6691966 L25.8917736,27.6691966 L27.4707743,27.6691966 L27.4707743,28.6691966 Z M24.3128393,28.6691966 L22.7339011,28.6691966 L22.7339011,27.6691966 L24.3128393,27.6691966 L24.3128393,28.6691966 Z M21.1548952,28.6691966 L19.5759571,28.6691966 L19.5759571,27.6691966 L21.1548952,27.6691966 L21.1548952,28.6691966 Z M17.9970176,28.6691966 L16.4180769,28.6691966 L16.4180769,27.6691966 L17.9970176,27.6691966 L17.9970176,28.6691966 Z M14.8390787,28.6691966 L13.2601393,28.6691966 L13.2601393,27.6691966 L14.8390787,27.6691966 L14.8390787,28.6691966 Z M11.6812011,28.6691966 L10.102263,28.6691966 L10.102263,27.6691966 L11.6812011,27.6691966 L11.6812011,28.6691966 Z M8.52326221,28.6691966 L6.94432277,28.6691966 L6.94432277,27.6691966 L8.52326221,27.6691966 L8.52326221,28.6691966 Z" id="Shape" fill="#3F3D56"></path>
                <rect id="Rectangle" fill="#3F3D56" x="44.8392857" y="27.6691966" width="1" height="1"></rect>
                <polygon id="Rectangle" fill="#3F3D56" transform="translate(4.982140, 18.032698) rotate(-0.195830) translate(-4.982140, -18.032698) " points="4.59893613 17.8931802 5.36542431 17.8929363 5.36534302 18.1722167 4.59885483 18.1724606"></polygon>
                <path d="M6.87627054,18.6231872 L6.87539674,18.1082913 L8.38584577,18.0983615 L8.38671956,18.6132574 L6.87627054,18.6231872 Z M9.89710982,18.6034512 L9.89623731,18.0885553 L11.4066799,18.0786358 L11.4075525,18.5935318 L9.89710982,18.6034512 Z M12.9179491,18.5835891 L12.9170766,18.0686932 L14.4275256,18.0587634 L14.4283981,18.5736594 L12.9179491,18.5835891 Z M15.9388472,18.5638532 L15.9379746,18.0489572 L17.4483611,18.0390275 L17.4492349,18.5539234 L15.9388472,18.5638532 Z M18.9596864,18.5439911 L18.9588127,18.0290951 L20.4691991,18.0191654 L20.4700729,18.5340613 L18.9596864,18.5439911 Z M21.9805257,18.5242551 L21.9796519,18.0093592 L23.490101,17.9994294 L23.4909748,18.5143253 L21.9805257,18.5242551 Z M25.001365,18.504393 L25.0004925,17.9894971 L26.5109415,17.9795673 L26.511814,18.4944632 L25.001365,18.504393 Z M28.0222043,18.484657 L28.0213305,17.9697611 L29.5317795,17.9598313 L29.5326533,18.4747273 L28.0222043,18.484657 Z M31.0430436,18.4647975 L31.0421698,17.9499016 L32.5526188,17.9399692 L32.5534926,18.4548652 L31.0430436,18.4647975 Z M34.0639416,18.4450615 L34.0630678,17.9301656 L35.5734555,17.9202332 L35.5743281,18.4351292 L34.0639416,18.4450615 Z M37.0847809,18.4251994 L37.0839084,17.9103035 L38.5942948,17.9003711 L38.5951673,18.4152671 L37.0847809,18.4251994 Z M40.1056202,18.4054635 L40.1047477,17.8905675 L41.6151967,17.8806352 L41.6160692,18.3955311 L40.1056202,18.4054635 Z M43.1264595,18.3856013 L43.1255857,17.8707054 L44.6360347,17.8607731 L44.6369085,18.375669 L43.1264595,18.3856013 Z M46.1472988,18.3658654 L46.146425,17.8509694 L47.656874,17.8410371 L47.6577478,18.355933 L46.1472988,18.3658654 Z M49.1681968,18.3460033 L49.167323,17.8311073 L50.6777107,17.8211776 L50.6785833,18.3360735 L49.1681968,18.3460033 Z M52.1890361,18.3262673 L52.1881636,17.8113714 L53.69855,17.8014416 L53.6994238,18.3163375 L52.1890361,18.3262673 Z M55.2098754,18.3064052 L55.2090016,17.7915093 L56.719388,17.7815795 L56.7202618,18.2964754 L55.2098754,18.3064052 Z M58.2307147,18.2866692 L58.2298409,17.7717733 L59.7402899,17.7618435 L59.7411637,18.2767395 L58.2307147,18.2866692 Z M61.2514875,18.2668071 L61.2507389,17.7519112 L62.7611266,17.7419814 L62.7618752,18.2568774 L61.2514875,18.2668071 Z M64.2723856,18.2470712 L64.271637,17.7321752 L65.7820247,17.7222455 L65.7827733,18.2371414 L64.2723856,18.2470712 Z M67.2931597,18.2272091 L67.2924111,17.7123131 L68.8029227,17.7023834 L68.8036713,18.2172793 L67.2931597,18.2272091 Z M70.3140578,18.2074731 L70.3133092,17.6925772 L71.8236956,17.6826474 L71.8244442,18.1975433 L70.3140578,18.2074731 Z M73.3348306,18.1876136 L73.334082,17.6727176 L74.8445937,17.6627853 L74.8453423,18.1776812 L73.3348306,18.1876136 Z M76.3557287,18.1678776 L76.3549814,17.6529817 L77.8653678,17.6430493 L77.8661164,18.1579453 L76.3557287,18.1678776 Z M79.376628,18.1480155 L79.3758794,17.6331195 L80.8862658,17.6231872 L80.8870144,18.1380831 L79.376628,18.1480155 Z" id="Shape" fill="#3F3D56"></path>
                <polygon id="Rectangle" fill="#3F3D56" transform="translate(82.780220, 17.756144) rotate(-0.167860) translate(-82.780220, -17.756144) " points="82.3970112 17.6166081 83.1634992 17.616399 83.1634295 17.8956795 82.3969415 17.8958885"></polygon>
                <rect id="Rectangle" fill="#3F3D56" x="0" y="16.4980255" width="2.55494505" height="2.79279279"></rect>
                <rect id="Rectangle" fill="#3F3D56" x="0" y="26.4124399" width="2.55494505" height="2.79279279"></rect>
                <rect id="Rectangle" fill="#3F3D56" x="0" y="36.6061336" width="2.55494505" height="2.79279279"></rect>
                <rect id="Rectangle" fill="#3F3D56" x="0" y="42.3313588" width="2.55494505" height="2.79279279"></rect>
                <rect id="Rectangle" fill="#3F3D56" x="0" y="50.4304579" width="2.55494505" height="2.79279279"></rect>
                <polygon id="Rectangle" fill="#335EEA" transform="translate(123.313044, 45.159560) rotate(104.722595) translate(-123.313044, -45.159560) " points="119.778376 41.8941537 126.999714 41.7421524 126.847713 48.4249669 119.626375 48.5769681"></polygon>
                <path d="M117.932048,48.2357305 C117.633502,47.3697278 118.033728,46.4031441 118.825977,46.0768052 C119.618227,45.7504663 120.502492,46.1879501 120.801038,47.0539527 C121.099585,47.9199552 120.69936,48.8865391 119.90711,49.2128784 C119.114894,49.5380732 118.231359,49.1009502 117.932048,48.2357305 Z M120.561956,47.1524341 C120.313168,46.4307651 119.576281,46.0661949 118.916072,46.3381438 C118.255864,46.6100927 117.922343,47.4155792 118.171131,48.1372482 C118.419919,48.8589173 119.156807,49.2234875 119.817015,48.9515386 C120.476641,48.6789117 120.809894,47.8740725 120.561955,47.1524341 L120.561956,47.1524341 Z" id="Shape" fill="#3F3D56"></path>
                <ellipse id="Oval" fill="#2F2E41" cx="99.8983516" cy="91.4845119" rx="2.1717033" ry="1.25675676"></ellipse>
                <ellipse id="Oval" fill="#2F2E41" cx="109.862637" cy="91.4845119" rx="2.1717033" ry="1.25675676"></ellipse>
                <path d="M70.2830075,31.3377324 C69.4363732,31.3377324 68.7500405,30.5875069 68.7500405,29.6620568 C68.7500405,28.7366066 69.4363732,27.9863811 70.2830075,27.9863811 C71.1296418,27.9863811 71.8159746,28.7366066 71.8159746,29.6620568 C71.8150066,30.5870682 71.1292406,31.3366743 70.2830075,31.3377324 L70.2830075,31.3377324 Z M70.2830075,28.2656604 C69.5774789,28.2656604 69.005535,28.8908483 69.005535,29.6620568 C69.005535,30.4332652 69.5774789,31.0584532 70.2830075,31.0584532 C70.9885361,31.0584532 71.5604801,30.4332652 71.5604801,29.6620568 C71.5596958,28.8912037 70.988211,28.2665177 70.2830075,28.2656604 Z" id="Shape" fill="#FFFFFF"></path>
                <path d="M36.174491,56.6125072 C35.3278567,56.6125072 34.641524,55.8622817 34.641524,54.9368315 C34.641524,54.0113814 35.3278567,53.2611559 36.174491,53.2611559 C37.0211254,53.2611559 37.7074581,54.0113814 37.7074581,54.9368315 C37.7064901,55.861843 37.0207241,56.6114491 36.174491,56.6125072 L36.174491,56.6125072 Z M36.174491,53.5404351 C35.4689624,53.5404351 34.8970185,54.1656231 34.8970185,54.9368315 C34.8970185,55.70804 35.4689624,56.3332279 36.174491,56.3332279 C36.8800196,56.3332279 37.4519636,55.70804 37.4519636,54.9368315 C37.4511793,54.1659785 36.8796945,53.5412924 36.174491,53.5404351 L36.174491,53.5404351 Z" id="Shape" fill="#FFFFFF"></path>
                <path d="M21.1003152,15.9773721 C20.2536809,15.9773721 19.5673482,15.2271465 19.5673482,14.3016964 C19.5673482,13.3762463 20.2536809,12.6260207 21.1003152,12.6260207 C21.9469495,12.6260207 22.6332823,13.3762463 22.6332823,14.3016964 C22.6323143,15.2267079 21.9465483,15.976314 21.1003152,15.9773721 L21.1003152,15.9773721 Z M21.1003152,12.9053 C20.3947866,12.9053 19.8228427,13.530488 19.8228427,14.3016964 C19.8228427,15.0729048 20.3947866,15.6980928 21.1003152,15.6980928 C21.8058438,15.6980928 22.3777877,15.0729048 22.3777877,14.3016964 C22.3770035,13.5308433 21.8055187,12.9061573 21.1003152,12.9053 Z" id="Shape" fill="#FFFFFF"></path>
            </g>
        </g>
    </g>
</svg>