<?xml version="1.0" encoding="UTF-8"?>
<svg width="133px" height="94px" viewBox="0 0 133 94" version="1.1" xmlns="http://www.w3.org/2000/svg" xmlns:xlink="http://www.w3.org/1999/xlink">
    <!-- Generator: Sketch 61 (89581) - https://sketch.com -->
    <title>undraw_all_the_data_h4ki</title>
    <desc>Created with Sketch.</desc>
    <g id="Home" stroke="none" stroke-width="1" fill="none" fill-rule="evenodd">
        <g id="45---Classic-Service" transform="translate(-810.000000, -1211.000000)">
            <g id="undraw_all_the_data_h4ki" transform="translate(810.000000, 1212.000000)">
                <ellipse id="Oval" fill="#3F3D56" fill-rule="nonzero" cx="115.725577" cy="90.8751373" rx="17.1315656" ry="2.10250115"></ellipse>
                <rect id="Rectangle" fill="#F2F2F2" fill-rule="nonzero" x="0" y="2.97285887" width="51.7193878" height="30.5138721"></rect>
                <rect id="Rectangle" stroke="#3F3D56" stroke-width="2" x="3.26211735" y="0" width="51.7193878" height="30.5138721"></rect>
                <path d="M37.0657194,22.6574486 C40.2547401,19.6415328 41.2087292,15.1058415 39.4828435,11.1653589 C37.7569578,7.22487632 33.6910806,4.65560917 29.1811224,4.65560917 L29.1811224,15.2008444 L37.0657194,22.6574486 Z" id="Path" fill="#3F3D56" fill-rule="nonzero"></path>
                <path d="M29.1811224,4.65560917 C24.0826976,4.65618352 19.6339061,7.92666275 18.3755891,12.5991759 C17.1172721,17.271689 19.3698918,22.1562624 23.8469082,24.4631665 L29.1811224,15.2008444 L29.1811224,4.65560917 Z" id="Path" fill="#335EEA" fill-rule="nonzero"></path>
                <path d="M37.0657194,22.6574486 L29.1811224,15.2008444 L23.8469082,24.4631665 C28.1895272,26.6976145 33.5692043,25.9627392 37.0657194,22.6574486 L37.0657194,22.6574486 Z" id="Path" fill="#575A89" fill-rule="nonzero"></path>
                <rect id="Rectangle" fill="#335EEA" fill-rule="nonzero" x="5.21938776" y="24.1755127" width="2.13520408" height="2.01930036"></rect>
                <rect id="Rectangle" fill="#3F3D56" fill-rule="nonzero" x="8.30357143" y="24.1755127" width="2.13520408" height="2.01930036"></rect>
                <rect id="Rectangle" fill="#575A89" fill-rule="nonzero" x="11.3877551" y="24.1755127" width="2.13520408" height="2.01930036"></rect>
                <rect id="Rectangle" fill="#3F3D56" fill-rule="nonzero" x="42.1109694" y="24.6242461" width="8.77806122" height="1"></rect>
                <rect id="Rectangle" fill="#3F3D56" fill-rule="nonzero" x="42.1109694" y="25.6338963" width="8.77806122" height="1"></rect>
                <rect id="Rectangle" fill="#3F3D56" fill-rule="nonzero" x="42.1109694" y="26.6435464" width="8.77806122" height="1"></rect>
                <rect id="Rectangle" fill="#F2F2F2" fill-rule="nonzero" x="16.2512755" y="45.4903498" width="29.4183673" height="30.5138721"></rect>
                <rect id="Rectangle" stroke="#3F3D56" stroke-width="2" x="19.2168367" y="42.5735826" width="29.4183673" height="30.5138721"></rect>
                <rect id="Rectangle" fill="#335EEA" fill-rule="nonzero" x="20.7589286" y="69.6450289" width="1.58615177" height="1.50005186"></rect>
                <rect id="Rectangle" fill="#3F3D56" fill-rule="nonzero" x="23.050037" y="69.6450289" width="1.58615177" height="1.50005186"></rect>
                <rect id="Rectangle" fill="#575A89" fill-rule="nonzero" x="25.3411441" y="69.6450289" width="1.58615177" height="1.50005186"></rect>
                <rect id="Rectangle" fill="#3F3D56" fill-rule="nonzero" x="38.5522959" y="70.2965147" width="6.16836735" height="1"></rect>
                <rect id="Rectangle" fill="#3F3D56" fill-rule="nonzero" x="38.5522959" y="71.0059992" width="6.16836735" height="1"></rect>
                <rect id="Rectangle" fill="#3F3D56" fill-rule="nonzero" x="38.5522959" y="71.7154826" width="6.16836735" height="1"></rect>
                <path d="M33.9260204,47.9583836 L33.9260204,50.4264174 C37.0925895,50.4264158 39.9473585,52.230367 41.1591524,54.9970909 C42.3709463,57.7638148 41.7011228,60.948452 39.4620198,63.0660103 L41.3073497,64.8111727 C44.2928189,61.9877619 45.1859164,57.7415803 43.5701922,54.0526161 C41.9544679,50.3636518 38.1481112,47.9583836 33.9260204,47.9583836 L33.9260204,47.9583836 Z" id="Path" fill="#3F3D56" fill-rule="nonzero"></path>
                <path d="M41.3073497,64.8111727 L39.4620198,63.0660103 C36.6938993,65.684415 32.3058299,65.9657847 29.1893157,63.7247117 L27.6097665,65.6902482 C31.7657602,68.677498 37.6162001,68.3020319 41.3073497,64.8111727 Z" id="Path" fill="#575A89" fill-rule="nonzero"></path>
                <path d="M26.0969388,57.8305187 C26.0969388,53.7413464 29.602138,50.4264174 33.9260204,50.4264174 L33.9260204,47.9583836 C29.4450858,47.9583836 25.463998,50.6628691 24.0334798,54.6788183 C22.6029616,58.6947675 24.0421785,63.1261336 27.6097665,65.6902482 L29.1893181,63.7247117 C27.2396503,62.3261675 26.0951713,60.1447468 26.0969388,57.8305187 L26.0969388,57.8305187 Z" id="Path" fill="#335EEA" fill-rule="nonzero"></path>
                <path d="M110.511571,15.7049212 C110.511571,15.7049212 110.027559,19.1052671 111.272162,19.497616 C112.516765,19.889965 112.171041,22.897963 112.171041,22.897963 L108.437233,25.5790049 L105.118295,25.8405705 L104.288559,21.7863113 L104.772566,20.7400467 C104.772566,20.7400467 106.639471,18.6475265 105.325724,16.4896146 C104.011977,14.3317027 110.511571,15.7049212 110.511571,15.7049212 Z" id="Path" fill="#FFB9B9" fill-rule="nonzero"></path>
                <path d="M110.511571,15.7049212 C110.511571,15.7049212 110.027559,19.1052671 111.272162,19.497616 C112.516765,19.889965 112.171041,22.897963 112.171041,22.897963 L108.437233,25.5790049 L105.118295,25.8405705 L104.288559,21.7863113 L104.772566,20.7400467 C104.772566,20.7400467 106.639471,18.6475265 105.325724,16.4896146 C104.011977,14.3317027 110.511571,15.7049212 110.511571,15.7049212 Z" id="Path" fill="#000000" fill-rule="nonzero" opacity="0.1"></path>
                <path d="M107.054341,42.188382 L102.698231,51.8662941 C102.698231,51.8662941 99.3101461,50.0353383 97.3049522,50.2315123 C95.2997583,50.4276862 92.8105528,48.1389921 92.8105528,48.1389921 L95.2997583,36.7609076 L99.9324466,24.6635215 L106.362895,28.5216068 L107.054341,42.188382 Z" id="Path" fill="#575A89" fill-rule="nonzero"></path>
                <path d="M107.054341,42.188382 L102.698231,51.8662941 C102.698231,51.8662941 99.3101461,50.0353383 97.3049522,50.2315123 C95.2997583,50.4276862 92.8105528,48.1389921 92.8105528,48.1389921 L95.2997583,36.7609076 L99.9324466,24.6635215 L106.362895,28.5216068 L107.054341,42.188382 Z" id="Path" fill="#000000" fill-rule="nonzero" opacity="0.1"></path>
                <polygon id="Path" fill="#575A89" fill-rule="nonzero" points="113.899615 83.3194741 113.899615 86.4582521 110.788148 86.4582521 111.272128 82.7963631"></polygon>
                <polygon id="Path" fill="#575A89" fill-rule="nonzero" points="121.989547 77.8920434 124.271369 79.199877 122.611841 82.7963631 120.883274 82.6001544 119.223746 80.3769047"></polygon>
                <path d="M114.521958,41.2729075 L118.60149,50.3622956 C118.60149,50.3622956 117.149452,60.4325465 117.218597,61.2826383 C117.287742,62.1327301 117.356886,62.4596818 117.011163,63.1789857 C116.665441,63.8982897 116.527152,64.356028 116.734586,65.2061154 C116.94202,66.0562027 117.011163,66.3831577 116.872875,66.7101138 C116.734586,67.03707 115.766561,80.5076735 115.282549,81.4231513 C114.798536,82.3386292 115.559127,83.8426288 115.075115,83.9734155 C114.591102,84.1042022 110.995583,83.7772416 110.788149,82.9925471 C110.580715,82.2078526 111.479599,80.3115041 110.995583,79.7229823 C110.511567,79.1344606 111.064728,57.9476875 110.373281,56.5090796 C109.681835,55.0704717 102.075929,53.762646 102.075929,53.762646 C102.075929,53.762646 101.384479,49.5776045 101.799352,48.9236922 C102.214224,48.2697799 102.767372,44.1501245 102.767372,44.1501245 L114.521958,41.2729075 Z" id="Path" fill="#2F2E41" fill-rule="nonzero"></path>
                <path d="M110.511571,85.935149 C110.511571,85.935149 112.44762,83.7772371 114.10709,85.935149 C114.10709,85.935149 114.245379,88.4854132 115.420834,89.0085398 C116.596289,89.5316665 116.043135,91.6241901 114.383666,91.6895818 C112.724196,91.7549734 110.580712,92.0165379 110.511568,91.1664517 C110.442424,90.3163655 110.788146,89.7932344 110.165845,89.5316699 C109.543545,89.2701054 110.165845,87.7661058 110.165845,87.7661058 L110.511571,85.935149 Z" id="Path" fill="#2F2E41" fill-rule="nonzero"></path>
                <path d="M110.719005,54.6781193 C110.719005,54.6781193 110.64986,59.3862909 110.165849,60.0402043 C109.681837,60.6941177 109.405257,61.0864644 109.681836,61.8057684 C109.958415,62.5250723 110.373286,63.832898 110.165849,64.0944636 C109.958411,64.3560292 110.373281,65.7292454 110.373281,65.7292454 C110.373281,65.7292454 115.697413,68.1487229 118.186622,73.1838506 C118.186622,73.1838506 120.744972,77.1727182 121.505559,77.2381098 C122.266146,77.3035015 123.165029,76.7803703 122.750163,78.2843699 C122.335296,79.7883695 120.744969,81.7501075 119.56951,81.5539336 C118.394052,81.3577597 117.49518,79.4614134 117.49518,79.4614134 C117.49518,79.4614134 108.298947,70.6335931 107.330923,70.3720253 C106.362898,70.1104575 103.597114,68.0179395 103.113102,66.7101138 C102.629091,65.4022881 101.591921,54.4819454 102.075933,53.7626415 C102.559944,53.0433375 104.357706,52.062468 104.357706,52.062468 L110.719005,54.6781193 Z" id="Path" fill="#2F2E41" fill-rule="nonzero"></path>
                <path d="M122.681021,77.6304576 C122.681021,77.6304576 126.967987,77.7612399 127.03713,78.7421094 C127.106274,79.722979 125.239372,85.5428023 125.515949,86.9160185 C125.792527,88.2892348 123.372467,91.4280173 121.782142,90.7741039 C120.191817,90.1201905 121.436418,86.7198446 121.436418,86.7198446 C121.436418,86.7198446 119.846093,82.0770647 120.122674,82.0116731 C120.399255,81.9462814 123.165036,81.1615869 123.026747,80.3768912 C122.888459,79.5921956 122.681021,77.6304576 122.681021,77.6304576 Z" id="Path" fill="#2F2E41" fill-rule="nonzero"></path>
                <ellipse id="Oval" fill="#FFB9B9" fill-rule="nonzero" cx="107.296347" cy="15.1490931" rx="4.28696548" ry="4.05425928"></ellipse>
                <path d="M111.617885,21.3939634 C111.617885,21.3939634 109.266968,23.7480492 107.538353,23.3557014 C105.809738,22.9633536 104.910859,20.1515294 104.910859,20.1515294 L101.799352,19.6283983 C101.799352,19.6283983 99.5867238,28.9139603 99.5867238,29.8294381 C99.5867238,30.744916 101.799352,40.6189986 101.799352,42.3845627 C101.799352,44.1501267 100.001592,45.1963879 102.767376,45.1309962 C105.53316,45.0656046 104.219412,44.2155184 108.2298,44.1501278 C112.240188,44.0847373 112.862488,44.9348223 113.692222,43.5616061 C114.258111,42.6656775 114.956635,41.8509294 115.766561,41.1421286 L114.314524,36.3031737 L114.107085,22.6363941 C114.107085,22.6363941 112.334352,19.3668304 111.526676,19.6283949 C111.526681,19.6283949 111.963607,21.0670039 111.617885,21.3939634 Z" id="Path" fill="#335EEA" fill-rule="nonzero"></path>
                <path d="M110.766215,19.0500437 C110.766215,19.0500437 114.452813,19.432221 115.489982,20.1515261 C116.527152,20.8708311 119.431225,21.3939567 119.36208,21.9170901 C119.292935,22.4402235 115.973995,29.8948253 115.973995,29.8948253 C115.973995,29.8948253 114.452813,35.7800403 115.766561,37.1532577 C117.08031,38.526475 121.989574,53.501077 121.15984,54.743511 C120.330106,55.985945 117.70261,50.9508162 117.70261,50.9508162 C117.70261,50.9508162 114.176235,40.1612557 112.240186,38.3303011 C110.304138,36.4993465 110.165855,26.6252617 110.165855,26.1675233 C110.165855,25.7097849 110.766215,19.0500437 110.766215,19.0500437 Z" id="Path" fill="#575A89" fill-rule="nonzero"></path>
                <path d="M105.373834,19.8084907 C105.373834,19.8084907 100.831327,18.1897825 99.2410011,18.8436993 C97.650675,19.497616 96.6826505,19.6283938 96.6826505,19.6283938 L96.1294974,26.03674 C96.1294974,26.03674 95.9220636,35.2569103 94.1243036,37.4802138 C92.3265436,39.7035174 91.1510865,48.9890783 91.4276594,49.9045561 C91.7042324,50.820034 90.9436478,52.3894252 92.1191097,51.9970774 C93.2945716,51.6047296 96.544364,42.5807332 96.544364,42.5807332 C96.544364,42.5807332 96.544364,37.4148221 98.4804129,35.9762142 C100.416462,34.5376063 103.597113,28.5870008 103.735403,27.148394 C103.873693,25.7097872 105.187439,21.7209185 105.187439,21.7209185 L105.373834,19.8084907 Z" id="Path" fill="#575A89" fill-rule="nonzero"></path>
                <path d="M120.952406,40.4228213 C120.952406,40.4228213 118.878068,44.0847294 118.60149,44.7386462 C118.324911,45.392563 116.388862,49.8391667 113.623079,48.8582971 C110.857295,47.8774276 116.319723,43.1038644 116.319723,43.1038644 L117.564325,39.1149968 C117.564325,39.1149968 120.814117,38.4610834 120.952406,40.4228213 Z" id="Path" fill="#FFB9B9" fill-rule="nonzero"></path>
                <path d="M97.3740972,19.6283949 L96.682647,19.6283949 C96.682647,19.6283949 95.9911967,19.1052648 95.1614659,19.432221 C94.3317351,19.7591771 92.3956815,19.3014388 92.3956815,19.4976127 C92.3956815,19.6937866 90.2521987,18.9090909 89.3533193,19.3014388 C88.4544399,19.6937866 85.2046427,19.8245688 85.2046427,19.8245688 C85.2046427,19.8245688 83.8908991,22.9633469 84.7897761,23.5518719 C85.6886532,24.140397 87.0024027,23.6826542 87.6247044,24.1403937 C88.2470061,24.5981332 89.4224644,24.075002 89.837331,24.6635237 C90.2521976,25.2520454 91.7733798,26.2983055 92.1191038,25.6443933 C92.4648277,24.990481 91.7733798,24.4019626 93.2254171,25.1212621 C94.6774543,25.8405616 96.9592259,25.8405672 96.9592259,25.8405672 L97.3740972,19.6283949 Z" id="Path" fill="#575A89" fill-rule="nonzero"></path>
                <path d="M107.682809,12.1536237 C107.102693,12.0268565 106.500486,12.1673325 105.912923,12.2583962 C105.32536,12.3494599 104.677845,12.3794813 104.180825,12.0694458 C103.813772,11.8404795 103.588101,11.4616891 103.376191,11.0973276 C103.287767,10.9672025 103.228833,10.8211513 103.203111,10.6683968 C103.178162,10.3989257 103.359417,10.153068 103.551895,9.95297779 C104.445952,9.02356002 105.752468,8.51486685 107.070029,8.35328019 C108.153108,8.2204551 109.282296,8.30940528 110.282474,8.72427054 C111.282651,9.1391358 112.142421,9.8988684 112.535649,10.8624606 C112.716762,11.3556348 112.829867,11.8688393 112.872164,12.3893759 C112.931581,12.7723637 112.939203,13.1609468 112.894847,13.5457551 C112.841891,13.8310244 112.7626,14.1113556 112.657886,14.3835314 L112.00651,16.2436257 C111.95968,16.4193992 111.872202,16.5831595 111.750381,16.7231052 C111.621816,16.8638856 111.410508,16.9076672 111.23148,16.8306183 C111.283608,16.6285806 111.291553,16.418603 111.25483,16.2135583 C111.213133,16.0044884 111.041129,15.8404425 110.820419,15.799245 C110.580327,15.7751491 110.375229,15.9511603 110.147474,16.0269648 C109.926021,16.0890488 109.687212,16.0608156 109.488736,15.9490853 C109.290259,15.837355 109.150163,15.6522883 109.102292,15.4385912 C109.066338,15.2259342 109.126707,14.9982783 109.041475,14.798574 C108.941615,14.5645954 108.676807,14.4419969 108.477864,14.2738666 C108.107242,13.9504177 107.968417,13.4531496 108.121908,12.9988355 C108.175169,12.8440326 108.325583,12.7736588 108.295489,12.5958235 C108.256011,12.3625169 107.892294,12.1994012 107.682809,12.1536237 Z" id="Path" fill="#2F2E41" fill-rule="nonzero"></path>
                <rect id="Rectangle" fill="#F2F2F2" fill-rule="nonzero" x="60.1415816" y="26.4191797" width="29.4183673" height="30.5138721"></rect>
                <rect id="Rectangle" stroke="#3F3D56" stroke-width="2" x="63.1071429" y="23.5024125" width="29.4183673" height="30.5138721"></rect>
                <polyline id="Path" stroke="#3F3D56" stroke-width="2" points="65.9540816 25.4095296 65.9540816 48.7436671 89.7971939 48.7436671"></polyline>
                <rect id="Rectangle" fill="#575A89" fill-rule="nonzero" x="67.2589286" y="40.5542823" width="5.3380102" height="8.07720145"></rect>
                <rect id="Rectangle" fill="#3F3D56" fill-rule="nonzero" x="74.9693878" y="35.0572979" width="5.3380102" height="13.5741858"></rect>
                <rect id="Rectangle" fill="#335EEA" fill-rule="nonzero" x="82.6798469" y="28.6628468" width="5.3380102" height="19.9686369"></rect>
                <rect id="Rectangle" fill="#335EEA" fill-rule="nonzero" x="65.5982143" y="50.5738588" width="1.58615177" height="1.50005186"></rect>
                <rect id="Rectangle" fill="#3F3D56" fill-rule="nonzero" x="67.8893227" y="50.5738588" width="1.58615177" height="1.50005186"></rect>
                <rect id="Rectangle" fill="#575A89" fill-rule="nonzero" x="70.1804299" y="50.5738588" width="1.58615177" height="1.50005186"></rect>
                <rect id="Rectangle" fill="#3F3D56" fill-rule="nonzero" x="83.3915816" y="51.2253446" width="6.16836735" height="1"></rect>
                <rect id="Rectangle" fill="#3F3D56" fill-rule="nonzero" x="83.3915816" y="51.9348291" width="6.16836735" height="1"></rect>
                <rect id="Rectangle" fill="#3F3D56" fill-rule="nonzero" x="83.3915816" y="52.6443126" width="6.16836735" height="1"></rect>
                <path d="M85.9191413,19.8208073 C87.1799177,19.8726483 88.1167112,20.9539366 87.980325,22.1404124 C87.856769,23.2153252 87.400973,24.5528762 85.9652321,25.0666411 C83.4068827,25.982119 83.5451716,20.8162079 84.0291832,20.6200296 C84.3518636,20.4892518 84.8589235,19.777214 85.9191413,19.8208073 Z" id="Path" fill="#FFB9B9" fill-rule="nonzero"></path>
                <path d="M118.60149,21.5677355 L119.36208,21.9170901 C119.36208,21.9170901 121.02155,25.1212621 121.090695,25.5790016 C121.15984,26.0367411 122.266153,27.7369134 121.851286,28.1946529 C121.436418,28.6523924 120.814117,29.8294348 121.228984,30.2871731 C121.643851,30.7449115 122.611876,32.5758684 122.611876,33.2297806 C122.611876,33.8836929 121.574708,35.6492581 122.266153,35.845432 C122.957599,36.0416059 122.750166,38.5918656 122.611876,38.7880395 C122.473586,38.9842134 120.675827,42.1883854 120.675827,42.1883854 C120.675827,42.1883854 120.330105,38.5264739 116.94202,40.0304735 C116.94202,40.0304735 116.665441,38.1995178 116.94202,38.0687355 C117.218599,37.9379533 117.910044,37.1532577 117.356886,37.0224743 C116.803728,36.891691 116.043143,35.322302 116.181428,35.1261269 C116.319713,34.9299519 116.665441,34.6683874 116.319718,34.4722102 C115.973995,34.2760329 115.697416,33.1643856 115.766561,32.9682117 C115.835706,32.7720378 115.005971,31.8565599 115.005971,31.8565599 L118.60149,21.5677355 Z" id="Path" fill="#575A89" fill-rule="nonzero"></path>
            </g>
        </g>
    </g>
</svg>