<?xml version="1.0" encoding="UTF-8"?>
<svg width="150px" height="105px" viewBox="0 0 150 105" version="1.1" xmlns="http://www.w3.org/2000/svg" xmlns:xlink="http://www.w3.org/1999/xlink">
    <!-- Generator: Sketch 61 (89581) - https://sketch.com -->
    <title>undraw_key_points_ig28</title>
    <desc>Created with Sketch.</desc>
    <g id="Home" stroke="none" stroke-width="1" fill="none" fill-rule="evenodd">
        <g id="01---Agency" transform="translate(-565.000000, -933.000000)" fill-rule="nonzero">
            <g id="undraw_key_points_ig28" transform="translate(565.000000, 933.000000)">
                <ellipse id="Oval" fill="#2F2E41" cx="118.127729" cy="12.0210007" rx="6.5983399" ry="7.21259977"></ellipse>
                <path d="M115.52312,18.1580363 C115.52312,18.1580363 115.638881,22.3337601 113.092152,23.5991205 C110.545424,24.8644809 123.047537,24.7379527 123.047537,24.7379527 C123.047537,24.7379527 119.343206,19.8030158 120.385049,18.1580363 L115.52312,18.1580363 Z" id="Path" fill="#FFB8B8"></path>
                <path d="M115.52312,18.1580363 C115.52312,18.1580363 115.638881,22.3337601 113.092152,23.5991205 C110.545424,24.8644809 123.047537,24.7379527 123.047537,24.7379527 C123.047537,24.7379527 119.343206,19.8030158 120.385049,18.1580363 L115.52312,18.1580363 Z" id="Path" fill="#000000" opacity="0.1"></path>
                <ellipse id="Oval" fill="#FFB8B8" cx="118.069848" cy="15.6272998" rx="4.51465385" ry="4.93493694"></ellipse>
                <path d="M117.491047,22.7133635 L113.613075,21.7643369 L111.355748,24.3583414 L108.809019,24.7379527 L112.16607,39.7958356 L112.05031,43.5919403 C112.05031,43.5919403 108.345978,46.6288257 108.5775,60.6744155 C108.809022,74.7200054 106.725335,102.55811 109.272062,102.811185 C111.818789,103.06426 117.143766,104.329627 117.491052,103.190795 C117.838338,102.051963 118.417135,57.1313845 118.417135,57.1313845 C118.417135,57.1313845 118.301374,102.1785 120.03778,102.684648 C121.774186,103.190795 127.099161,104.203089 127.793723,102.55811 C128.488285,100.91313 127.793723,58.0171414 127.793723,58.0171414 C127.793723,58.0171414 127.677963,46.8818993 123.51059,43.5919387 L123.047549,40.681591 L126.63612,24.7379495 L123.742105,24.7379495 L122.0057,21.4479905 L118.417129,22.8398964 L117.491047,22.7133635 Z" id="Path" fill="#2F2E41"></path>
                <path d="M108.032821,39.9620935 L103.071297,49.1113236 C103.071297,49.1113236 99.4426442,53.1810417 101.258563,54.3051723 C103.074482,55.4293029 105.005119,49.5663347 105.005119,49.5663347 L110.342971,41.8842304 L108.032821,39.9620935 Z" id="Path" fill="#FFB8B8"></path>
                <path d="M128.35774,40.1565752 L132.369782,49.8462007 C132.369782,49.8462007 135.567485,54.3270047 133.649588,55.2262824 C131.73169,56.1255601 130.401943,50.0662466 130.401943,50.0662466 L125.868411,41.78968 L128.35774,40.1565752 Z" id="Path" fill="#FFB8B8"></path>
                <path d="M110.313904,25.6237097 L108.809019,24.7379527 C108.809019,24.7379527 106.146532,29.5463536 106.609574,37.6447104 C106.609574,37.6447104 106.146532,41.9469624 107.072615,42.200036 C107.998698,42.4531097 110.661185,42.959257 110.776946,42.4531097 C110.892707,41.9469624 112.281831,32.5832358 112.281831,32.5832358 L110.313904,25.6237097 Z" id="Path" fill="#2F2E41"></path>
                <path d="M125.24699,25.370636 L126.636114,24.7379559 C127.648637,26.0740323 128.291201,27.6982913 128.488279,29.4198191 C128.835561,32.3301653 130.456206,41.6938919 129.182841,41.9469655 C127.909477,42.2000392 124.899708,42.7061865 124.899708,41.9469655 C124.899708,41.1877446 123.857866,32.3301637 123.857866,32.3301637 L125.24699,25.370636 Z" id="Path" fill="#2F2E41"></path>
                <polygon id="Path" fill="#2F2E41" points="122.482933 11.1873874 119.134471 9.27011261 114.510433 10.0544595 113.55375 14.6733559 115.935288 14.5732432 116.600481 12.8762162 116.600481 14.5451802 117.699375 14.4989865 118.337163 11.7975225 118.735817 14.6733559 122.642452 14.5861712"></polygon>
                <ellipse id="Oval" fill="#2F2E41" cx="118.475009" cy="3.79610473" rx="2.66248846" ry="2.91034775"></ellipse>
                <path d="M115.117959,2.91034617 C115.118041,1.47396663 116.076579,0.252353676 117.375286,0.0334864865 C116.339156,-0.13983509 115.306408,0.367499161 114.737054,1.32950905 C114.1677,2.29151893 114.1677,3.52917026 114.737054,4.49118014 C115.306408,5.45319003 116.339156,5.96052428 117.375286,5.7872027 C116.076581,5.56833383 115.118044,4.34672378 115.117959,2.91034617 L115.117959,2.91034617 Z" id="Path" fill="#2F2E41"></path>
                <ellipse id="Oval" fill="#0F70EB" cx="71.8188505" cy="91.5215047" rx="1.13589952" ry="1"></ellipse>
                <path d="M71.8188462,91.5215079 C71.8188462,91.5215079 77.214375,101.768988 77.0723841,103.248006" id="Path" fill="#0F70EB"></path>
                <path d="M75.3685385,92.228407 L75.3685385,98.223002 C74.2383332,96.5111899 71.9840596,94.7485426 67.759725,93.3176937 L75.3685385,104.741883 L75.3685385,104.828664 C75.3685385,104.828664 75.3829111,104.820193 75.4096688,104.803642 L75.4226279,104.823097 C75.4226279,104.823097 75.4334928,104.80723 75.4529163,104.776555 C76.339399,104.215257 83.7742125,99.1542259 75.3685385,92.228407 Z" id="Path" fill="#3F3D56"></path>
                <rect id="Rectangle" fill="#3F3D56" x="71.1057692" y="104.599259" width="78.8942322" height="1"></rect>
                <path d="M91.4423077,104.79638 L88.5950264,104.79638 L88.5950264,101.684037 L91.4423077,101.684037 L91.4423077,104.79638 Z M88.8140481,104.556969 L91.2232861,104.556969 L91.2232861,101.923445 L88.8140481,101.923445 L88.8140481,104.556969 Z" id="Shape" fill="#3F3D56"></path>
                <ellipse id="Oval" fill="#0F70EB" cx="144.563957" cy="99.9712741" rx="1.45364567" ry="1.58897005"></ellipse>
                <path d="M144.563957,104.561631 C142.244679,104.561631 140.364534,102.506457 140.364534,99.9712709 C140.364534,97.4360849 142.244679,95.3809106 144.563957,95.3809106 C146.883234,95.3809106 148.76338,97.4360849 148.76338,99.9712709 C148.760785,102.505281 146.882159,104.558795 144.563957,104.561631 L144.563957,104.561631 Z M144.563957,95.7340212 C142.423087,95.7340212 140.687569,97.6311039 140.687569,99.9712741 C140.687569,102.311444 142.423087,104.208527 144.563957,104.208527 C146.704827,104.208527 148.440345,102.311444 148.440345,99.9712741 C148.437897,97.6322129 146.703812,95.7366963 144.563957,95.7340212 L144.563957,95.7340212 Z" id="Shape" fill="#2F2E41"></path>
                <rect id="Rectangle" fill="#0F70EB" x="5.19230769" y="6.32950563" width="97.0673077" height="63.3783784"></rect>
                <polygon id="Path" fill="#000000" opacity="0.1" points="65.8384615 6.32948198 5.19230769 51.8389414 5.19230769 40.938491 51.3129808 6.32948198"></polygon>
                <polygon id="Path" fill="#000000" opacity="0.1" points="94.9038462 6.32948198 94.9038462 7.43150901 11.9134615 69.7078604 5.19230769 69.7078604 5.19230769 63.852455 81.8480769 6.32948198"></polygon>
                <rect id="Rectangle" fill="#3F3D56" x="13.4677587" y="58.5141903" width="1" height="11.1936937"></rect>
                <ellipse id="Oval" fill="#3F3D56" cx="13.6298077" cy="58.5141903" rx="3.60576923" ry="3.94144144"></ellipse>
                <rect id="Rectangle" fill="#3F3D56" x="33.5158356" y="48.8970732" width="1" height="20.8108108"></rect>
                <ellipse id="Oval" fill="#3F3D56" cx="33.6778846" cy="49.3700462" rx="3.60576923" ry="3.94144144"></ellipse>
                <rect id="Rectangle" fill="#3F3D56" x="53.5639125" y="31.3970732" width="1" height="38.3108108"></rect>
                <ellipse id="Oval" fill="#3F3D56" cx="53.7259615" cy="31.3970732" rx="3.60576923" ry="3.94144144"></ellipse>
                <rect id="Rectangle" fill="#3F3D56" x="73.6119202" y="42.9060822" width="1" height="26.8018018"></rect>
                <ellipse id="Oval" fill="#3F3D56" cx="73.7740385" cy="42.9060822" rx="3.60576923" ry="3.94144144"></ellipse>
                <rect id="Rectangle" fill="#3F3D56" x="93.6599971" y="20.0457218" width="1" height="49.6621622"></rect>
                <ellipse id="Oval" fill="#3F3D56" cx="93.8221154" cy="20.0457218" rx="3.60576923" ry="3.94144144"></ellipse>
                <rect id="Rectangle" fill="#3F3D56" x="5.19230769" y="58.3565327" width="1" height="1"></rect>
                <path d="M11.4807837,59.3565327 L10.1249582,59.3565327 L10.1249582,58.3565327 L11.4807837,58.3565327 L11.4807837,59.3565327 Z M8.76920192,59.3565327 L7.41344712,59.3565327 L7.41344712,58.3565327 L8.76920192,58.3565327 L8.76920192,59.3565327 Z" id="Shape" fill="#3F3D56"></path>
                <rect id="Rectangle" fill="#3F3D56" x="12.8365385" y="58.3565327" width="1" height="1"></rect>
                <rect id="Rectangle" fill="#3F3D56" x="5.19230769" y="49.2123885" width="1" height="1"></rect>
                <path d="M30.5576971,50.2123885 L28.8077019,50.2123885 L28.8077019,49.2123885 L30.5576971,49.2123885 L30.5576971,50.2123885 Z M27.0577067,50.2123885 L25.3077115,50.2123885 L25.3077115,49.2123885 L27.0577067,49.2123885 L27.0577067,50.2123885 Z M23.5577163,50.2123885 L21.8077212,50.2123885 L21.8077212,49.2123885 L23.5577163,49.2123885 L23.5577163,50.2123885 Z M20.0576553,50.2123885 L18.3076601,50.2123885 L18.3076601,49.2123885 L20.0576553,49.2123885 L20.0576553,50.2123885 Z M16.5576635,50.2123885 L14.8076683,50.2123885 L14.8076683,49.2123885 L16.5576635,49.2123885 L16.5576635,50.2123885 Z M13.0576731,50.2123885 L11.3076779,50.2123885 L11.3076779,49.2123885 L13.0576731,49.2123885 L13.0576731,50.2123885 Z M9.55768269,50.2123885 L7.8076875,50.2123885 L7.8076875,49.2123885 L9.55768269,49.2123885 L9.55768269,50.2123885 Z" id="Shape" fill="#3F3D56"></path>
                <rect id="Rectangle" fill="#3F3D56" x="32.3076923" y="49.2123885" width="1" height="1"></rect>
                <rect id="Rectangle" fill="#3F3D56" x="5.19230769" y="42.7484245" width="1" height="1"></rect>
                <path d="M68.7863942,43.7484245 L67.0439264,43.7484245 L67.0439264,42.7484245 L68.7863942,42.7484245 L68.7863942,43.7484245 Z M65.3014745,43.7484245 L63.5590067,43.7484245 L63.5590067,42.7484245 L65.3014745,42.7484245 L65.3014745,43.7484245 Z M61.8165548,43.7484245 L60.074087,43.7484245 L60.074087,42.7484245 L61.8165548,42.7484245 L61.8165548,43.7484245 Z M58.3315644,43.7484245 L56.5890966,43.7484245 L56.5890966,42.7484245 L58.3315644,42.7484245 L58.3315644,43.7484245 Z M54.8466447,43.7484245 L53.1041827,43.7484245 L53.1041827,42.7484245 L54.8466447,42.7484245 L54.8466447,43.7484245 Z M51.361725,43.7484245 L49.6192587,43.7484245 L49.6192587,42.7484245 L51.361725,42.7484245 L51.361725,43.7484245 Z M47.8768053,43.7484245 L46.1343389,43.7484245 L46.1343389,42.7484245 L47.8768053,42.7484245 L47.8768053,43.7484245 Z M44.3918856,43.7484245 L42.6494192,43.7484245 L42.6494192,42.7484245 L44.3918856,42.7484245 L44.3918856,43.7484245 Z M40.9069659,43.7484245 L39.1644995,43.7484245 L39.1644995,42.7484245 L40.9069659,42.7484245 L40.9069659,43.7484245 Z M37.4220462,43.7484245 L35.6795798,43.7484245 L35.6795798,42.7484245 L37.4220462,42.7484245 L37.4220462,43.7484245 Z M33.9371264,43.7484245 L32.1946601,43.7484245 L32.1946601,42.7484245 L33.9371264,42.7484245 L33.9371264,43.7484245 Z M30.4522067,43.7484245 L28.7097404,43.7484245 L28.7097404,42.7484245 L30.4522067,42.7484245 L30.4522067,43.7484245 Z M26.967287,43.7484245 L25.22475,43.7484245 L25.22475,42.7484245 L26.967287,42.7484245 L26.967287,43.7484245 Z M23.4822981,43.7484245 L21.7398303,43.7484245 L21.7398303,42.7484245 L23.4822981,42.7484245 L23.4822981,43.7484245 Z M19.9973784,43.7484245 L18.2549106,43.7484245 L18.2549106,42.7484245 L19.9973784,42.7484245 L19.9973784,43.7484245 Z M16.5124587,43.7484245 L14.7699909,43.7484245 L14.7699909,42.7484245 L16.5124587,42.7484245 L16.5124587,43.7484245 Z M13.0275389,43.7484245 L11.2850712,43.7484245 L11.2850712,42.7484245 L13.0275389,42.7484245 L13.0275389,43.7484245 Z M9.54261923,43.7484245 L7.80015144,43.7484245 L7.80015144,42.7484245 L9.54261923,42.7484245 L9.54261923,43.7484245 Z" id="Shape" fill="#3F3D56"></path>
                <rect id="Rectangle" fill="#3F3D56" x="70.5288462" y="42.7484245" width="1" height="1"></rect>
                <rect id="Rectangle" fill="#3F3D56" x="5.19230769" y="31.2394155" width="1" height="1"></rect>
                <path d="M48.8422572,32.2394155 L47.0595851,32.2394155 L47.0595851,31.2394155 L48.8422572,31.2394155 L48.8422572,32.2394155 Z M45.2769115,32.2394155 L43.4941688,32.2394155 L43.4941688,31.2394155 L45.2769115,31.2394155 L45.2769115,32.2394155 Z M41.7114966,32.2394155 L39.9288231,32.2394155 L39.9288231,31.2394155 L41.7114966,31.2394155 L41.7114966,32.2394155 Z M38.1461538,32.2394155 L36.3634082,32.2394155 L36.3634082,31.2394155 L38.1461538,31.2394155 L38.1461538,32.2394155 Z M34.5807361,32.2394155 L32.7980625,32.2394155 L32.7980625,31.2394155 L34.5807361,31.2394155 L34.5807361,32.2394155 Z M31.0153904,32.2394155 L29.2326476,32.2394155 L29.2326476,31.2394155 L31.0153904,31.2394155 L31.0153904,32.2394155 Z M27.4499798,32.2394155 L25.6673077,32.2394155 L25.6673077,31.2394155 L27.4499798,31.2394155 L27.4499798,32.2394155 Z M23.8845591,32.2394155 L22.101887,32.2394155 L22.101887,31.2394155 L23.8845591,31.2394155 L23.8845591,32.2394155 Z M20.3192135,32.2394155 L18.5365385,32.2394155 L18.5365385,31.2394155 L20.3192135,31.2394155 L20.3192135,32.2394155 Z M16.7537986,32.2394155 L14.971125,32.2394155 L14.971125,31.2394155 L16.7537986,31.2394155 L16.7537986,32.2394155 Z M13.1884529,32.2394155 L11.4057808,32.2394155 L11.4057808,31.2394155 L13.1884529,31.2394155 L13.1884529,32.2394155 Z M9.62303798,32.2394155 L7.84036442,32.2394155 L7.84036442,31.2394155 L9.62303798,31.2394155 L9.62303798,32.2394155 Z" id="Shape" fill="#3F3D56"></path>
                <rect id="Rectangle" fill="#3F3D56" x="50.625" y="31.2394155" width="1" height="1"></rect>
                <polygon id="Rectangle" fill="#3F3D56" transform="translate(5.624996, 20.359498) rotate(-0.195830) translate(-5.624996, -20.359498) " points="5.19234724 20.2019777 6.05773712 20.2017023 6.05764534 20.5170189 5.19225546 20.5172943"></polygon>
                <path d="M7.76353125,20.8971468 L7.76254471,20.3822509 L9.46789038,20.3723211 L9.46887692,20.8872171 L7.76353125,20.8971468 Z M11.1741563,20.8774109 L11.1731712,20.3625149 L12.8785096,20.3525955 L12.8794947,20.8674914 L11.1741563,20.8774109 Z M14.5847812,20.8575488 L14.5837962,20.3426528 L16.2891418,20.3327231 L16.2901269,20.847619 L14.5847812,20.8575488 Z M17.9954726,20.8378128 L17.9944875,20.3229169 L19.6997625,20.3129871 L19.700749,20.827883 L17.9954726,20.8378128 Z M21.4060976,20.8179507 L21.4051111,20.3030548 L23.1103861,20.293125 L23.1113726,20.8080209 L21.4060976,20.8179507 Z M24.8167226,20.7982147 L24.8157361,20.2833188 L26.5210817,20.273389 L26.5220683,20.788285 L24.8167226,20.7982147 Z M28.2273476,20.7783526 L28.2263625,20.2634567 L29.9317082,20.2535269 L29.9326933,20.7684229 L28.2273476,20.7783526 Z M31.6379726,20.7586167 L31.6369861,20.2437207 L33.3423317,20.233791 L33.3433183,20.7486869 L31.6379726,20.7586167 Z M35.0485976,20.7387571 L35.0476111,20.2238612 L36.7529567,20.2139289 L36.7539433,20.7288248 L35.0485976,20.7387571 Z M38.4592889,20.7190212 L38.4583024,20.2041252 L40.1635788,20.1941929 L40.1645639,20.7090888 L38.4592889,20.7190212 Z M41.8699139,20.6991591 L41.8689288,20.1842631 L43.5742038,20.1743308 L43.5751889,20.6892267 L41.8699139,20.6991591 Z M45.2805389,20.6794231 L45.2795538,20.1645272 L46.9848995,20.1545948 L46.9858846,20.6694908 L45.2805389,20.6794231 Z M48.6911639,20.659561 L48.6901774,20.144665 L50.3955231,20.1347327 L50.3965096,20.6496286 L48.6911639,20.659561 Z M52.1017889,20.639825 L52.1008024,20.1249291 L53.8061481,20.1149967 L53.8071346,20.6298927 L52.1017889,20.639825 Z M55.5124803,20.6199629 L55.5114937,20.105067 L57.2167702,20.0951372 L57.2177553,20.6100331 L55.5124803,20.6199629 Z M58.9231053,20.600227 L58.9221202,20.085331 L60.6273952,20.0754012 L60.6283817,20.5902972 L58.9231053,20.600227 Z M62.3337303,20.5803648 L62.3327437,20.0654689 L64.0380188,20.0555391 L64.0390053,20.5704351 L62.3337303,20.5803648 Z M65.7443553,20.5606289 L65.7433687,20.0457329 L67.4487144,20.0358032 L67.449701,20.5506991 L65.7443553,20.5606289 Z M69.1549053,20.5407668 L69.1540601,20.0258708 L70.8593365,20.0159411 L70.8601817,20.530837 L69.1549053,20.5407668 Z M72.5655966,20.5210308 L72.5647514,20.0061349 L74.2700279,19.9962051 L74.2708731,20.511101 L72.5655966,20.5210308 Z M75.9761481,20.5011687 L75.9753029,19.9862728 L77.6807192,19.976343 L77.6815644,20.4912389 L75.9761481,20.5011687 Z M79.3868394,20.4814327 L79.3859942,19.9665368 L81.0912692,19.956607 L81.0921144,20.471503 L79.3868394,20.4814327 Z M82.7973894,20.4615732 L82.7965442,19.9466773 L84.5019606,19.9367449 L84.5028058,20.4516409 L82.7973894,20.4615732 Z M86.2080808,20.4418372 L86.207237,19.9269413 L87.912512,19.917009 L87.9133572,20.4319049 L86.2080808,20.4418372 Z M89.6187736,20.4219751 L89.6179284,19.9070792 L91.3232034,19.8971468 L91.3240486,20.4120428 L89.6187736,20.4219751 Z" id="Shape" fill="#3F3D56"></path>
                <polygon id="Rectangle" fill="#3F3D56" transform="translate(93.461539, 20.047259) rotate(-0.167860) translate(-93.461539, -20.047259) " points="93.0288836 19.8897188 93.8942732 19.8894827 93.8941946 20.2047994 93.0288049 20.2050354"></polygon>
                <rect id="Rectangle" fill="#3F3D56" x="0" y="18.6268029" width="2.88461538" height="3.15315315"></rect>
                <rect id="Rectangle" fill="#3F3D56" x="0" y="29.8204966" width="2.88461538" height="3.15315315"></rect>
                <rect id="Rectangle" fill="#3F3D56" x="0" y="41.3295056" width="2.88461538" height="3.15315315"></rect>
                <rect id="Rectangle" fill="#3F3D56" x="0" y="47.7934696" width="2.88461538" height="3.15315315"></rect>
                <rect id="Rectangle" fill="#3F3D56" x="0" y="56.9376137" width="2.88461538" height="3.15315315"></rect>
                <polygon id="Rectangle" fill="#0F70EB" transform="translate(139.224405, 50.986600) rotate(104.722595) translate(-139.224405, -50.986600) " points="135.23365 47.2998509 143.386774 47.1282366 143.21516 54.6733497 135.062036 54.844964"></polygon>
                <path d="M133.149087,54.4596957 C132.812018,53.4819507 133.263886,52.3906466 134.158362,52.0221994 C135.052837,51.6537523 136.051201,52.1476856 136.388269,53.1254304 C136.725338,54.1031752 136.27347,55.1944797 135.378995,55.5629273 C134.484558,55.9300826 133.487018,55.4365567 133.149087,54.4596957 Z M136.118338,53.2366191 C135.837448,52.4218315 135.005478,52.01022 134.260082,52.3172591 C133.514685,52.6242982 133.138129,53.5337184 133.419019,54.3485061 C133.699909,55.1632937 134.531879,55.5749053 135.277275,55.2678662 C136.022015,54.9600616 136.398268,54.0513722 136.118337,53.2366191 L136.118338,53.2366191 Z" id="Shape" fill="#3F3D56"></path>
                <ellipse id="Oval" fill="#2F2E41" cx="112.788462" cy="103.288965" rx="2.45192308" ry="1.41891892"></ellipse>
                <ellipse id="Oval" fill="#2F2E41" cx="124.038462" cy="103.288965" rx="2.45192308" ry="1.41891892"></ellipse>
                <path d="M79.3517827,35.3813108 C78.3959052,35.3813108 77.6210135,34.534282 77.6210135,33.4894189 C77.6210135,32.4445559 78.3959052,31.597527 79.3517827,31.597527 C80.3076601,31.597527 81.0825519,32.4445559 81.0825519,33.4894189 C81.081459,34.5337867 80.3072071,35.3801162 79.3517827,35.3813108 L79.3517827,35.3813108 Z M79.3517827,31.9128423 C78.5552181,31.9128423 77.909475,32.6186997 77.909475,33.4894189 C77.909475,34.3601381 78.5552181,35.0659955 79.3517827,35.0659955 C80.1483472,35.0659955 80.7940904,34.3601381 80.7940904,33.4894189 C80.7932049,32.619101 80.1479802,31.9138103 79.3517827,31.9128423 Z" id="Shape" fill="#FFFFFF"></path>
                <path d="M40.8421673,63.9173468 C39.8862899,63.9173468 39.1113981,63.070318 39.1113981,62.025455 C39.1113981,60.9805919 39.8862899,60.1335631 40.8421673,60.1335631 C41.7980448,60.1335631 42.5729365,60.9805919 42.5729365,62.025455 C42.5718437,63.0698228 41.7975917,63.9161522 40.8421673,63.9173468 L40.8421673,63.9173468 Z M40.8421673,60.4488784 C40.0456028,60.4488784 39.3998596,61.1547358 39.3998596,62.025455 C39.3998596,62.8961742 40.0456028,63.6020315 40.8421673,63.6020315 C41.6387319,63.6020315 42.284475,62.8961742 42.284475,62.025455 C42.2835895,61.155137 41.6383648,60.4498463 40.8421673,60.4488784 L40.8421673,60.4488784 Z" id="Shape" fill="#FFFFFF"></path>
                <path d="M23.8229365,18.0389685 C22.8670591,18.0389685 22.0921673,17.1919396 22.0921673,16.1470766 C22.0921673,15.1022135 22.8670591,14.2551847 23.8229365,14.2551847 C24.778814,14.2551847 25.5537058,15.1022135 25.5537058,16.1470766 C25.5526129,17.1914444 24.7783609,18.0377738 23.8229365,18.0389685 L23.8229365,18.0389685 Z M23.8229365,14.5705 C23.026372,14.5705 22.3806288,15.2763574 22.3806288,16.1470766 C22.3806288,17.0177958 23.026372,17.7236532 23.8229365,17.7236532 C24.6195011,17.7236532 25.2652442,17.0177958 25.2652442,16.1470766 C25.2643587,15.2767586 24.619134,14.5714679 23.8229365,14.5705 Z" id="Shape" fill="#FFFFFF"></path>
            </g>
        </g>
    </g>
</svg>