<?xml version="1.0" encoding="UTF-8"?>
<svg width="150px" height="106px" viewBox="0 0 150 106" version="1.1" xmlns="http://www.w3.org/2000/svg" xmlns:xlink="http://www.w3.org/1999/xlink">
    <!-- Generator: Sketch 61 (89581) - https://sketch.com -->
    <title>undraw_all_the_data_h4ki</title>
    <desc>Created with Sketch.</desc>
    <g id="Home" stroke="none" stroke-width="1" fill="none" fill-rule="evenodd">
        <g id="01---Agency" transform="translate(-955.000000, -932.000000)">
            <g id="undraw_all_the_data_h4ki" transform="translate(955.000000, 933.000000)">
                <ellipse id="Oval" fill="#3F3D56" fill-rule="nonzero" cx="130.65791" cy="102.600962" rx="19.3420902" ry="2.37379162"></ellipse>
                <rect id="Rectangle" fill="#F2F2F2" fill-rule="nonzero" x="0" y="3.35645356" width="58.3928571" height="34.451146"></rect>
                <rect id="Rectangle" stroke="#3F3D56" stroke-width="2" x="3.68303571" y="0" width="58.3928571" height="34.451146"></rect>
                <path d="M41.8483929,25.5809904 C45.4489001,22.1759241 46.5259846,17.0549824 44.577404,12.6060504 C42.6288233,8.15711843 38.0383168,5.25633293 32.9464286,5.25633293 L32.9464286,17.1622437 L41.8483929,25.5809904 Z" id="Path" fill="#3F3D56" fill-rule="nonzero"></path>
                <path d="M32.9464286,5.25633293 C27.1901425,5.2569814 22.1673133,8.94945795 20.7466328,14.224876 C19.3259523,19.500294 21.8692327,25.015135 26.9239286,27.6197041 L32.9464286,17.1622437 L32.9464286,5.25633293 Z" id="Path" fill="#0F70EB" fill-rule="nonzero"></path>
                <path d="M41.8483929,25.5809904 L32.9464286,17.1622437 L26.9239286,27.6197041 C31.8268855,30.142468 37.9007145,29.31277 41.8483929,25.5809904 L41.8483929,25.5809904 Z" id="Path" fill="#575A89" fill-rule="nonzero"></path>
                <rect id="Rectangle" fill="#0F70EB" fill-rule="nonzero" x="5.89285714" y="27.2949337" width="2.41071429" height="2.27985525"></rect>
                <rect id="Rectangle" fill="#3F3D56" fill-rule="nonzero" x="9.375" y="27.2949337" width="2.41071429" height="2.27985525"></rect>
                <rect id="Rectangle" fill="#575A89" fill-rule="nonzero" x="12.8571429" y="27.2949337" width="2.41071429" height="2.27985525"></rect>
                <rect id="Rectangle" fill="#3F3D56" fill-rule="nonzero" x="47.5446429" y="27.8015682" width="9.91071429" height="1"></rect>
                <rect id="Rectangle" fill="#3F3D56" fill-rule="nonzero" x="47.5446429" y="28.9414958" width="9.91071429" height="1"></rect>
                <rect id="Rectangle" fill="#3F3D56" fill-rule="nonzero" x="47.5446429" y="30.0814234" width="9.91071429" height="1"></rect>
                <rect id="Rectangle" fill="#F2F2F2" fill-rule="nonzero" x="18.3482143" y="51.3600724" width="33.2142857" height="34.451146"></rect>
                <rect id="Rectangle" stroke="#3F3D56" stroke-width="2" x="21.6964286" y="48.0669481" width="33.2142857" height="34.451146"></rect>
                <rect id="Rectangle" fill="#0F70EB" fill-rule="nonzero" x="23.4375" y="78.6314843" width="1.79081652" height="1.69360694"></rect>
                <rect id="Rectangle" fill="#3F3D56" fill-rule="nonzero" x="26.0242353" y="78.6314843" width="1.79081652" height="1.69360694"></rect>
                <rect id="Rectangle" fill="#575A89" fill-rule="nonzero" x="28.6109692" y="78.6314843" width="1.79081652" height="1.69360694"></rect>
                <rect id="Rectangle" fill="#3F3D56" fill-rule="nonzero" x="43.5267857" y="79.3670327" width="6.96428571" height="1"></rect>
                <rect id="Rectangle" fill="#3F3D56" fill-rule="nonzero" x="43.5267857" y="80.1680636" width="6.96428571" height="1"></rect>
                <rect id="Rectangle" fill="#3F3D56" fill-rule="nonzero" x="43.5267857" y="80.9690933" width="6.96428571" height="1"></rect>
                <path d="M38.3035714,54.1465621 L38.3035714,56.9330519 C41.8787301,56.9330501 45.1018564,58.9697692 46.4700108,62.0934897 C47.8381652,65.2172102 47.0819129,68.8127684 44.5538933,71.2035601 L46.6373304,73.1739047 C50.0080214,69.9861828 51.0163573,65.1921068 49.1921525,61.0271472 C47.3679477,56.8621875 43.0704482,54.1465621 38.3035714,54.1465621 L38.3035714,54.1465621 Z" id="Path" fill="#3F3D56" fill-rule="nonzero"></path>
                <path d="M46.6373304,73.1739047 L44.5538933,71.2035601 C41.428596,74.1598234 36.4743241,74.4774988 32.955679,71.9472552 L31.172317,74.1664093 C35.864568,77.5391107 42.4699034,77.1151973 46.6373304,73.1739047 Z" id="Path" fill="#575A89" fill-rule="nonzero"></path>
                <path d="M29.4642857,65.2925211 C29.4642857,60.6757137 33.4217687,56.9330519 38.3035714,56.9330519 L38.3035714,54.1465621 C33.2444517,54.1465621 28.7496752,57.2000136 27.134574,61.7341497 C25.5194728,66.2682859 27.144395,71.2714412 31.172317,74.1664093 L32.9556817,71.9472552 C30.7544439,70.3682537 29.4622902,67.9053593 29.4642857,65.2925211 L29.4642857,65.2925211 Z" id="Path" fill="#0F70EB" fill-rule="nonzero"></path>
                <path d="M124.771129,17.7313627 C124.771129,17.7313627 124.224663,21.5704628 125.62986,22.0134375 C127.035058,22.4564121 126.644724,25.8525389 126.644724,25.8525389 L122.429133,28.8795217 L118.681946,29.1748377 L117.745148,24.5974482 L118.291607,23.4161817 C118.291607,23.4161817 120.399403,21.0536589 118.91614,18.6173068 C117.432877,16.1809547 124.771129,17.7313627 124.771129,17.7313627 Z" id="Path" fill="#FFB9B9" fill-rule="nonzero"></path>
                <path d="M124.771129,17.7313627 C124.771129,17.7313627 124.224663,21.5704628 125.62986,22.0134375 C127.035058,22.4564121 126.644724,25.8525389 126.644724,25.8525389 L122.429133,28.8795217 L118.681946,29.1748377 L117.745148,24.5974482 L118.291607,23.4161817 C118.291607,23.4161817 120.399403,21.0536589 118.91614,18.6173068 C117.432877,16.1809547 124.771129,17.7313627 124.771129,17.7313627 Z" id="Path" fill="#000000" fill-rule="nonzero" opacity="0.1"></path>
                <path d="M120.867805,47.6320442 L115.949616,58.5587191 C115.949616,58.5587191 112.124358,56.491511 109.86043,56.7129977 C107.596501,56.9344844 104.786108,54.3504749 104.786108,54.3504749 L107.596501,41.5042505 L112.826956,27.8459113 L120.087139,32.2018142 L120.867805,47.6320442 Z" id="Path" fill="#575A89" fill-rule="nonzero"></path>
                <path d="M120.867805,47.6320442 L115.949616,58.5587191 C115.949616,58.5587191 112.124358,56.491511 109.86043,56.7129977 C107.596501,56.9344844 104.786108,54.3504749 104.786108,54.3504749 L107.596501,41.5042505 L112.826956,27.8459113 L120.087139,32.2018142 L120.867805,47.6320442 Z" id="Path" fill="#000000" fill-rule="nonzero" opacity="0.1"></path>
                <polygon id="Path" fill="#575A89" fill-rule="nonzero" points="128.596339 94.0703739 128.596339 97.6141556 125.083393 97.6141556 125.629821 93.4797648"></polygon>
                <polygon id="Path" fill="#575A89" fill-rule="nonzero" points="137.730134 87.9426297 140.306384 89.4192159 138.432723 93.4797648 136.481116 93.2582388 134.607455 90.7481182"></polygon>
                <path d="M129.298985,46.598444 L133.904908,56.8606563 C133.904908,56.8606563 132.265511,68.2302945 132.343578,69.1900755 C132.421645,70.1498566 132.49971,70.5189955 132.109378,71.3311129 C131.719046,72.1432303 131.562913,72.6600317 131.797113,73.6198077 C132.031312,74.5795837 132.109378,74.9487264 131.953246,75.3178704 C131.797113,75.6870145 130.704182,90.8957604 130.157716,91.9293644 C129.61125,92.9629685 130.469983,94.6610325 129.923517,94.8086949 C129.37705,94.9563574 125.317594,94.5872083 125.083394,93.7012628 C124.849195,92.8153174 125.864064,90.6742788 125.317594,90.0098188 C124.771124,89.3453587 125.395661,65.4248084 124.614995,63.8005737 C123.834329,62.176339 115.247017,60.6997616 115.247017,60.6997616 C115.247017,60.6997616 114.466347,55.9747147 114.934752,55.2364267 C115.403156,54.4981386 116.027679,49.8469147 116.027679,49.8469147 L129.298985,46.598444 Z" id="Path" fill="#2F2E41" fill-rule="nonzero"></path>
                <path d="M124.771129,97.0235553 C124.771129,97.0235553 126.956991,94.5872032 128.830586,97.0235553 C128.830586,97.0235553 128.986718,99.9028858 130.313845,100.493513 C131.640971,101.08414 131.016443,103.446666 129.142848,103.520496 C127.269253,103.594325 124.849191,103.88964 124.771125,102.929865 C124.693059,101.97009 125.08339,101.379458 124.380793,101.084143 C123.678196,100.788829 124.380793,99.0907647 124.380793,99.0907647 L124.771129,97.0235553 Z" id="Path" fill="#2F2E41" fill-rule="nonzero"></path>
                <path d="M125.005329,61.7333606 C125.005329,61.7333606 124.927262,67.0490381 124.380797,67.7873274 C123.834332,68.5256168 123.522064,68.9685888 123.834331,69.7807062 C124.146597,70.5928236 124.615,72.069401 124.380797,72.3647169 C124.146593,72.6600329 124.614995,74.2104384 124.614995,74.2104384 C124.614995,74.2104384 130.626111,76.9421065 133.436508,82.626928 C133.436508,82.626928 136.324969,87.1304882 137.183696,87.2043176 C138.042423,87.2781469 139.057291,86.6875149 138.588893,88.385579 C138.120496,90.083643 136.324965,92.2985084 134.997834,92.0770218 C133.670704,91.8555351 132.655848,89.714499 132.655848,89.714499 C132.655848,89.714499 122.273005,79.7476051 121.180074,79.4522866 C120.087143,79.1569681 116.964483,76.7944478 116.418019,75.3178704 C115.871554,73.8412931 114.700556,61.5118739 115.247021,60.6997565 C115.793486,59.8876391 117.823216,58.7802058 117.823216,58.7802058 L125.005329,61.7333606 Z" id="Path" fill="#2F2E41" fill-rule="nonzero"></path>
                <path d="M138.51083,87.6472909 C138.51083,87.6472909 143.350953,87.7949483 143.429018,88.9023816 C143.507084,90.009815 141.399291,96.5805832 141.711556,98.1309887 C142.023821,99.6813941 139.291495,103.225181 137.495967,102.486891 C135.700438,101.748602 137.105633,97.909502 137.105633,97.909502 C137.105633,97.909502 135.310105,92.6676537 135.622374,92.5938244 C135.934643,92.5199951 139.057299,91.6340497 138.901167,90.748103 C138.745034,89.8621563 138.51083,87.6472909 138.51083,87.6472909 Z" id="Path" fill="#2F2E41" fill-rule="nonzero"></path>
                <ellipse id="Oval" fill="#FFB9B9" fill-rule="nonzero" cx="121.141037" cy="17.1038148" rx="4.84012232" ry="4.57738951"></ellipse>
                <path d="M126.020192,24.1544748 C126.020192,24.1544748 123.365932,26.8123136 121.41427,26.3693403 C119.462608,25.9263669 118.447744,22.7517268 118.447744,22.7517268 L114.934752,22.1610948 C114.934752,22.1610948 112.436624,32.6447938 112.436624,33.6783979 C112.436624,34.7120019 114.934752,45.8601597 114.934752,47.8535385 C114.934752,49.8469172 112.905023,51.0281799 116.027683,50.9543506 C119.150342,50.8805213 117.667078,49.9207466 122.194935,49.8469185 C126.722792,49.7730905 127.42539,50.7328639 128.362187,49.1824585 C129.001093,48.1709262 129.789749,47.2510493 130.704182,46.4507904 L129.064785,40.9874542 L128.83058,25.5572191 C128.83058,25.5572191 126.829108,21.8657763 125.917215,22.161091 C125.91722,22.161091 126.410525,23.785327 126.020192,24.1544748 Z" id="Path" fill="#0F70EB" fill-rule="nonzero"></path>
                <path d="M125.058629,21.5081139 C125.058629,21.5081139 129.220918,21.9396043 130.391916,22.751723 C131.562913,23.5638416 134.841706,24.1544672 134.763639,24.7451017 C134.685572,25.3357362 130.938382,33.7522221 130.938382,33.7522221 C130.938382,33.7522221 129.220918,40.3968197 130.704182,41.9472264 C132.187446,43.4976331 137.730165,60.4044418 136.793368,61.8071899 C135.856571,63.2099379 132.890044,57.5251151 132.890044,57.5251151 C132.890044,57.5251151 128.908653,45.3433533 126.722791,43.2761464 C124.536929,41.2089396 124.380804,30.0607793 124.380804,29.5439779 C124.380804,29.0271765 125.058629,21.5081139 125.058629,21.5081139 Z" id="Path" fill="#575A89" fill-rule="nonzero"></path>
                <path d="M118.970458,22.364425 C118.970458,22.364425 113.841821,20.5368512 112.046292,21.2751443 C110.250762,22.0134375 109.157831,22.1610897 109.157831,22.1610897 L108.533304,29.3963193 C108.533304,29.3963193 108.299104,39.806189 106.269375,42.3163704 C104.239646,44.8265519 102.912517,55.3102496 103.224777,56.3438537 C103.537037,57.3774577 102.678312,59.1493511 104.005446,58.7063777 C105.332581,58.2634044 109.001701,48.0750214 109.001701,48.0750214 C109.001701,48.0750214 109.001701,42.2425411 111.187563,40.6183064 C113.373425,38.9940717 116.964482,32.275646 117.120616,30.6514125 C117.27675,29.0271791 118.760012,24.5236176 118.760012,24.5236176 L118.970458,22.364425 Z" id="Path" fill="#575A89" fill-rule="nonzero"></path>
                <path d="M136.559168,45.6386692 C136.559168,45.6386692 134.217174,49.7730816 133.904908,50.5113747 C133.592641,51.2496679 131.406779,56.2700269 128.284121,55.1625935 C125.161463,54.0551602 131.328719,48.6656533 131.328719,48.6656533 L132.733915,44.1620931 C132.733915,44.1620931 136.403036,43.4238038 136.559168,45.6386692 Z" id="Path" fill="#FFB9B9" fill-rule="nonzero"></path>
                <path d="M109.938497,22.161091 L109.157827,22.161091 C109.157827,22.161091 108.377158,21.5704603 107.440365,21.9396043 C106.503572,22.3087484 104.317705,21.791947 104.317705,22.0134337 C104.317705,22.2349203 101.897644,21.3489736 100.88278,21.791947 C99.8679161,22.2349203 96.1987902,22.3825777 96.1987902,22.3825777 C96.1987902,22.3825777 94.7155312,25.9263593 95.7303924,26.5908232 C96.7452536,27.255287 98.2285192,26.7384805 98.9311179,27.2552832 C99.6337165,27.7720858 100.960847,27.1814539 101.429245,27.8459139 C101.897642,28.5103739 103.615106,29.6916353 104.00544,28.9533472 C104.395773,28.2150592 103.615106,27.550603 105.254503,28.3627153 C106.8939,29.1748276 109.470094,29.1748339 109.470094,29.1748339 L109.938497,22.161091 Z" id="Path" fill="#575A89" fill-rule="nonzero"></path>
                <path d="M121.577365,13.7218332 C120.922396,13.5787089 120.242484,13.7373109 119.579107,13.8401247 C118.915729,13.9429386 118.184664,13.9768337 117.623513,13.6267936 C117.209097,13.3682834 116.954308,12.9406167 116.715055,12.5292409 C116.61522,12.3823254 116.548682,12.2174289 116.519641,12.0449642 C116.491473,11.7407226 116.696116,11.4631413 116.91343,11.237233 C117.92285,10.1878903 119.397948,9.61355935 120.885517,9.4311228 C122.108348,9.28115899 123.383238,9.38158661 124.51247,9.84998287 C125.641702,10.3183791 126.612411,11.1761417 127.056378,12.2640684 C127.260861,12.820878 127.388559,13.4003024 127.436314,13.988005 C127.503398,14.4204106 127.512004,14.8591335 127.461924,15.2935945 C127.402135,15.6156727 127.312613,15.9321757 127.194387,16.239471 L126.458963,18.3395774 C126.40609,18.5380314 126.307325,18.722922 126.169785,18.8809252 C126.024631,19.0398708 125.786058,19.0893017 125.583929,19.002311 C125.642783,18.7742039 125.651754,18.5371325 125.610292,18.3056303 C125.563214,18.0695836 125.369017,17.8843705 125.119828,17.8378572 C124.848757,17.8106522 124.617194,18.0093745 124.360051,18.0949603 C124.110024,18.1650551 123.840401,18.1331789 123.616314,18.0070318 C123.392228,17.8808846 123.234055,17.6719384 123.180007,17.4306675 C123.139414,17.1905709 123.207572,16.93354 123.111343,16.7080674 C122.998598,16.443898 122.699621,16.3054804 122.475008,16.1156559 C122.056563,15.7504716 121.899826,15.1890399 122.073122,14.6761046 C122.133256,14.5013271 122.303077,14.4218729 122.269101,14.2210911 C122.224528,13.9576804 121.81388,13.7735175 121.577365,13.7218332 Z" id="Path" fill="#2F2E41" fill-rule="nonzero"></path>
                <rect id="Rectangle" fill="#F2F2F2" fill-rule="nonzero" x="67.9017857" y="29.8281062" width="33.2142857" height="34.451146"></rect>
                <rect id="Rectangle" stroke="#3F3D56" stroke-width="2" x="71.25" y="26.5349819" width="33.2142857" height="34.451146"></rect>
                <polyline id="Path" stroke="#3F3D56" stroke-width="2" points="74.4642857 28.6881785 74.4642857 55.0331725 101.383929 55.0331725"></polyline>
                <rect id="Rectangle" fill="#575A89" fill-rule="nonzero" x="75.9375" y="45.7870929" width="6.02678571" height="9.11942099"></rect>
                <rect id="Rectangle" fill="#3F3D56" fill-rule="nonzero" x="84.6428571" y="39.5808203" width="6.02678571" height="15.3256936"></rect>
                <rect id="Rectangle" fill="#0F70EB" fill-rule="nonzero" x="93.3482143" y="32.3612786" width="6.02678571" height="22.5452352"></rect>
                <rect id="Rectangle" fill="#0F70EB" fill-rule="nonzero" x="74.0625" y="57.099518" width="1.79081652" height="1.69360694"></rect>
                <rect id="Rectangle" fill="#3F3D56" fill-rule="nonzero" x="76.6492353" y="57.099518" width="1.79081652" height="1.69360694"></rect>
                <rect id="Rectangle" fill="#575A89" fill-rule="nonzero" x="79.2359692" y="57.099518" width="1.79081652" height="1.69360694"></rect>
                <rect id="Rectangle" fill="#3F3D56" fill-rule="nonzero" x="94.1517857" y="57.8350665" width="6.96428571" height="1"></rect>
                <rect id="Rectangle" fill="#3F3D56" fill-rule="nonzero" x="94.1517857" y="58.6360974" width="6.96428571" height="1"></rect>
                <rect id="Rectangle" fill="#3F3D56" fill-rule="nonzero" x="94.1517857" y="59.4371271" width="6.96428571" height="1"></rect>
                <path d="M97.0054821,22.3783308 C98.4289393,22.436861 99.4866094,23.6576703 99.332625,24.9972398 C99.1931263,26.2108511 98.6785179,27.7209892 97.0575201,28.3010464 C94.1690612,29.3346505 94.3251937,23.5021703 94.8716585,23.2806785 C95.235975,23.1330262 95.8084621,22.3291125 97.0054821,22.3783308 Z" id="Path" fill="#FFB9B9" fill-rule="nonzero"></path>
                <path d="M133.904908,24.3506691 L134.763639,24.7451017 C134.763639,24.7451017 136.637234,28.3627153 136.715301,28.8795179 C136.793368,29.3963206 138.042431,31.31587 137.574032,31.8326727 C137.105633,32.3494753 136.403036,33.6783941 136.871433,34.1951955 C137.339831,34.7119969 138.432763,36.7792062 138.432763,37.5174943 C138.432763,38.2557823 137.261767,40.2491624 138.042431,40.470649 C138.823096,40.6921357 138.588897,43.5714612 138.432763,43.7929478 C138.276629,44.0144345 136.246902,47.632048 136.246902,47.632048 C136.246902,47.632048 135.85657,43.4976318 132.031312,45.1956959 C132.031312,45.1956959 131.719046,43.1284878 132.031312,42.9808305 C132.343579,42.8331731 133.124243,41.9472264 132.49971,41.7995678 C131.875177,41.6519092 131.016451,39.8800183 131.17258,39.6585304 C131.328708,39.4370425 131.719046,39.1417277 131.328714,38.9202373 C130.938382,38.6987468 130.626115,37.4436612 130.704182,37.2221745 C130.782249,37.0006878 129.845451,35.9670838 129.845451,35.9670838 L133.904908,24.3506691 Z" id="Path" fill="#575A89" fill-rule="nonzero"></path>
            </g>
        </g>
    </g>
</svg>