<?xml version="1.0" encoding="UTF-8"?>
<svg width="200px" height="140px" viewBox="0 0 200 140" version="1.1" xmlns="http://www.w3.org/2000/svg" xmlns:xlink="http://www.w3.org/1999/xlink">
    <!-- Generator: Sketch 61 (89581) - https://sketch.com -->
    <title>undraw_segment_analysis_bdn4</title>
    <desc>Created with Sketch.</desc>
    <g id="Home" stroke="none" stroke-width="1" fill="none" fill-rule="evenodd">
        <g id="04---Start-up" transform="translate(-150.000000, -1013.000000)" fill-rule="nonzero">
            <g id="undraw_segment_analysis_bdn4" transform="translate(150.000000, 1013.000000)">
                <ellipse id="Oval" fill="#3F3D56" cx="48.7128713" cy="132.864196" rx="48.7128713" ry="6.95652174"></ellipse>
                <path d="M177.535016,62.7246804 L135.789061,62.7246804 L113.844133,101.71523 C120.434561,106.198174 128.036102,108.567237 135.789061,108.55454 C158.844711,108.55454 177.535016,88.0357739 177.535016,62.7246804 Z" id="Path" fill="#F2F2F2"></path>
                <ellipse id="Oval" fill="#3F3D56" cx="76.776196" cy="116.355439" rx="11.0926733" ry="12.1778261"></ellipse>
                <path d="M55.9405941,27.7555 C55.9405941,27.7555 56.3366337,32.1033261 55.1485149,33.8424565 C53.960396,35.581587 58.1188119,46.4511522 58.1188119,46.4511522 L64.0594059,34.2772391 C64.0594059,34.2772391 62.0792079,32.9728913 63.2673267,29.2772391 L55.9405941,27.7555 Z" id="Path" fill="#FFB9B9"></path>
                <path d="M55.9405941,27.7555 C55.9405941,27.7555 56.3366337,32.1033261 55.1485149,33.8424565 C53.960396,35.581587 58.1188119,46.4511522 58.1188119,46.4511522 L64.0594059,34.2772391 C64.0594059,34.2772391 62.0792079,32.9728913 63.2673267,29.2772391 L55.9405941,27.7555 Z" id="Path" fill="#000000" opacity="0.1"></path>
                <path d="M73.7623762,49.7120217 L73.960396,58.6250652 L66.4356436,71.8859348 L65.049505,66.8859348 L69.2079208,57.9728913 C69.2079208,57.9728913 67.8217822,53.8424565 68.2178218,51.4511522 C68.6138614,49.0598478 73.7623762,49.7120217 73.7623762,49.7120217 Z" id="Path" fill="#FFB9B9"></path>
                <path d="M42.8712871,48.4076739 L42.6732673,57.3207174 L50.1980198,70.581587 L51.5841584,65.581587 L47.4257426,56.6685435 C47.4257426,56.6685435 48.8118812,52.5381087 48.4158416,50.1468043 C48.019802,47.7555 42.8712871,48.4076739 42.8712871,48.4076739 Z" id="Path" fill="#FFB9B9"></path>
                <path d="M48.4158416,62.7555 L47.6237624,64.929413 C45.486571,67.1089314 44.328328,70.208333 44.4554455,73.4076739 L42.0792079,100.364196 C42.0792079,100.364196 40.4950495,102.320717 41.0891089,104.712022 C41.0891089,104.712022 39.7029703,112.7555 40.4950495,115.364196 C40.4950495,115.364196 37.1287129,122.103326 40.6930693,122.538109 C44.2574257,122.972891 45.4455446,122.972891 45.8415842,121.451152 C46.2376238,119.929413 46.8316832,114.277239 46.8316832,114.277239 L55.5445545,80.3641957 L56.9306931,101.451152 C56.9306931,101.451152 55.5445545,107.103326 55.9405941,108.625065 C56.3366337,110.146804 53.1683168,121.01637 54.5544554,122.103326 C55.9405941,123.190283 59.9009901,123.625065 60.0990099,122.7555 C60.2970297,121.885935 60.4950495,116.451152 60.4950495,116.451152 C60.4950495,116.451152 62.4752475,111.668543 62.8712871,110.146804 C63.2673267,108.625065 63.6633663,100.146804 63.6633663,100.146804 L67.2277228,75.1468043 C67.2277228,75.1468043 68.019802,68.4076739 66.039604,67.1033261 L65.2475248,63.1902826 L48.4158416,62.7555 Z" id="Path" fill="#2F2E41"></path>
                <path d="M40.0990099,121.233761 L39.3069307,125.581587 C39.3069307,125.581587 35.1485149,132.7555 39.1089109,132.7555 C43.0693069,132.7555 43.4653465,130.581587 43.4653465,130.581587 L43.4653465,128.625065 C43.4653465,128.625065 45.4455446,127.538109 45.4455446,127.320717 C45.4455446,127.103326 44.8514851,121.885935 44.8514851,121.885935 L40.0990099,121.233761 Z" id="Path" fill="#2F2E41"></path>
                <path d="M59.5049505,121.233761 L60.2970297,125.581587 C60.2970297,125.581587 64.4554455,132.7555 60.4950495,132.7555 C56.5346535,132.7555 56.1386139,130.581587 56.1386139,130.581587 L56.1386139,128.625065 C56.1386139,128.625065 54.1584158,127.538109 54.1584158,127.320717 C54.1584158,127.103326 54.7524752,121.885935 54.7524752,121.885935 L59.5049505,121.233761 Z" id="Path" fill="#2F2E41"></path>
                <ellipse id="Oval" fill="#FFB9B9" cx="60.3372871" cy="26.7252543" rx="5.2244" ry="5.73548261"></ellipse>
                <path d="M58.5148515,41.8859348 C58.5148515,41.8859348 55.5445545,36.4511522 55.7425743,35.1468043 C55.8644404,34.3995441 55.8612282,33.6341566 55.733095,32.8881609 L53.960396,34.0598478 L46.6336634,37.7555 L49.6039604,48.6250652 C49.6039604,48.6250652 48.8118812,51.0163696 48.8118812,52.7555 C48.8118812,54.4946304 49.2079208,56.4511522 48.8118812,57.1033261 C48.4158416,57.7555 48.2178218,58.8424565 48.6138614,59.7120217 C48.8502526,60.2527086 48.9197664,60.8632209 48.8118812,61.4511522 C48.8118812,61.4511522 46.039604,63.1902826 47.6237624,63.6250652 C48.667341,63.8776116 49.7485006,63.8776116 50.7920792,63.6250652 C50.7920792,63.6250652 50.990099,62.9728913 52.5742574,63.8424565 C54.1584158,64.7120217 62.4752475,64.929413 62.4752475,64.929413 C62.4752475,64.929413 67.8217822,65.1468043 67.6237624,64.2772391 C67.4257426,63.4076739 68.6138614,53.1902826 68.6138614,53.1902826 L71.3861386,38.8424565 L65.049505,34.4946304 L63.0027723,32.51095 L62.4752475,35.581587 L58.5148515,41.8859348 Z" id="Path" fill="#D0CDE1"></path>
                <path d="M48.019802,37.9728913 L46.6336634,37.9728913 C46.6336634,37.9728913 39.6039604,47.2120217 41.5841584,48.7337609 C43.5643564,50.2555 50.3960396,51.4511522 50.3960396,51.4511522 C50.3960396,51.4511522 49.8019802,37.9728913 48.019802,37.9728913 Z" id="Path" fill="#D0CDE1"></path>
                <path d="M69.6039604,38.8424565 L71.3861386,38.8424565 C71.3861386,38.8424565 76.1386139,51.0163696 74.5544554,51.4511522 C72.970297,51.8859348 67.2277228,53.1902826 67.2277228,52.5381087 C67.2277228,51.8859348 69.6039604,38.8424565 69.6039604,38.8424565 Z" id="Path" fill="#D0CDE1"></path>
                <path d="M55.152404,26.6945304 C55.152404,26.6945304 54.5855703,25.7611022 54.8035822,24.7558696 C54.9338487,24.1851472 54.9852925,23.5961817 54.9561921,23.0086826 C55.2000604,22.1378523 55.5062326,21.2895407 55.8718495,20.4716696 C56.3296713,19.5621739 56.1116634,19.1792283 57.5505525,18.8920196 C58.9894416,18.6048109 58.4008059,16.5464783 62.1942396,18.7723478 C62.4559513,19.1735078 62.9118363,19.3623695 63.3497109,19.2510304 C64.1345584,19.0834913 64.4179762,20.2801957 64.4179762,20.2801957 C64.4179762,20.2801957 64.9412099,19.9451196 65.1374218,20.4238 C65.3336337,20.9024804 66.7326733,20.1365043 66.7326733,23.3676065 C66.7326733,26.5987087 65.1406158,29.4849152 65.1406158,29.4849152 C65.1406158,29.4849152 65.2573287,24.0498152 62.6629683,23.4993304 C60.0686079,22.9488457 57.2780356,21.345263 56.6021941,23.4035935 C56.2373761,24.5588378 55.7508115,25.6633103 55.152404,26.6945304 L55.152404,26.6945304 Z" id="Path" fill="#2F2E41"></path>
                <path d="M134.374034,104.305492 C126.58495,104.312483 118.948695,101.932584 112.324798,97.4336587 L112.15656,97.3192326 L112.260598,97.1345348 L134.263614,58.0408261 L176.317871,58.0408261 L176.317871,58.2582174 C176.317871,83.648837 157.501935,104.305492 134.374034,104.305492 Z M112.701693,97.1778435 C119.224968,101.56122 126.725807,103.877629 134.374034,103.870709 C157.217861,103.870709 175.814897,83.5274087 175.92145,58.4756087 L134.484451,58.4756087 L112.701693,97.1778435 Z" id="Shape" fill="#3F3D56"></path>
                <path d="M83.9603472,56.1220826 C83.9535299,72.0096759 91.4474783,86.7661408 103.761424,95.1126326 L125.70635,56.1220826 L89.4552475,33.3807065 C85.8438838,40.3033122 83.9492523,48.1445665 83.9603472,56.1220826 Z" id="Path" fill="#F2F2F2"></path>
                <path d="M107.186535,93.8583783 L107.018103,93.7439522 C87.7922698,80.6933781 81.4370448,53.2696247 92.6443564,31.7190696 L92.7426911,31.5306587 L129.343483,54.4913413 L107.186535,93.8583783 Z M92.8901406,32.1239196 C81.9572745,53.3823346 88.2005091,80.321736 107.058323,93.2592717 L128.791194,54.6456717 L92.8901406,32.1239196 Z" id="Shape" fill="#3F3D56"></path>
                <path d="M146.468956,4.37249565 L137.469505,49.1310978 L179.215459,49.1310978 C179.215459,27.2123913 165.198335,8.89085 146.468956,4.37249565 Z" id="Path" fill="#0F70EB"></path>
                <path d="M176.317875,51.8729848 L134.127475,51.8729848 L143.222655,6.63808043 L143.415842,6.68467826 C162.633432,11.3477487 176.315696,30.0488407 176.317875,51.6555935 L176.317875,51.8729848 Z M134.62059,51.4382022 L175.92145,51.4382022 C175.828434,30.3446652 162.24416,11.7772391 143.523941,7.1564 L134.62059,51.4382022 Z" id="Shape" fill="#3F3D56"></path>
                <path d="M128.536586,-3.59017683e-06 C113.553567,-0.00649713457 99.7173829,8.8058038 92.2854812,23.0884217 L128.536586,45.8297978 L137.53604,1.07119565 C134.580275,0.358296949 131.562843,-0.00086483878 128.536586,-3.59017683e-06 Z" id="Path" fill="#F2F2F2"></path>
                <path d="M130.440903,49.8547913 L93.7840356,26.8588674 L93.8825604,26.6700304 C103.003465,9.17836493 121.417172,0.218977665 139.347541,4.54855435 L139.541113,4.5952587 L130.440903,49.8547913 Z M94.3251089,26.6975326 L130.170174,49.1841478 L139.068881,4.92697391 C121.43211,0.764870381 103.361846,9.55715014 94.3251089,26.6975326 L94.3251089,26.6975326 Z" id="Shape" fill="#3F3D56"></path>
                <polygon id="Path" fill="#3F3D56" points="152.030099 36.6576087 151.74198 36.3593478 173.469505 11.0458696 191.155446 11.0458696 191.155446 11.4806522 173.640594 11.4806522"></polygon>
                <rect id="Rectangle" fill="#0F70EB" x="179.127022" y="14.3703609" width="20.8729782" height="1"></rect>
                <rect id="Rectangle" fill="#0F70EB" x="179.127022" y="17.6716587" width="20.8729782" height="1"></rect>
                <rect id="Rectangle" fill="#0F70EB" x="179.127022" y="20.9729587" width="20.8729782" height="1"></rect>
                <rect id="Rectangle" fill="#0F70EB" x="171.998309" y="110.457317" width="20.8729782" height="1"></rect>
                <rect id="Rectangle" fill="#0F70EB" x="171.998309" y="113.758615" width="20.8729782" height="1"></rect>
                <rect id="Rectangle" fill="#0F70EB" x="171.998309" y="117.059915" width="20.8729782" height="1"></rect>
                <polygon id="Path" fill="#3F3D56" points="183.960396 106.56 163.064356 106.56 163.005347 106.46587 146.767723 80.5963043 147.093663 80.3495652 163.272277 106.125217 183.960396 106.125217"></polygon>
                <path d="M11.3191604,122.315141 C10.6595109,128.660865 14.2130772,134.317293 14.2130772,134.317293 C14.2130772,134.317293 18.8361446,129.685274 19.4957941,123.339552 C20.1554436,116.99383 16.6018792,111.3374 16.6018792,111.3374 C16.6018792,111.3374 11.9788119,115.969428 11.3191604,122.315141 Z" id="Path" fill="#2F2E41"></path>
                <path d="M13.8393188,121.987698 C16.217002,127.816852 14.3889842,134.388541 14.3889842,134.388541 C14.3889842,134.388541 8.7059802,131.509302 6.32829505,125.680148 C3.9506099,119.850993 5.77862772,113.279302 5.77862772,113.279302 C5.77862772,113.279302 11.4616337,116.158541 13.8393188,121.987698 Z" id="Path" fill="#0F70EB"></path>
            </g>
        </g>
    </g>
</svg>