<?xml version="1.0" encoding="UTF-8"?>
<svg width="200px" height="140px" viewBox="0 0 200 140" version="1.1" xmlns="http://www.w3.org/2000/svg" xmlns:xlink="http://www.w3.org/1999/xlink">
    <!-- Generator: Sketch 61 (89581) - https://sketch.com -->
    <title>undraw_key_points_ig28</title>
    <desc>Created with Sketch.</desc>
    <g id="Home" stroke="none" stroke-width="1" fill="none" fill-rule="evenodd">
        <g id="04---Start-up" transform="translate(-540.000000, -1013.000000)" fill-rule="nonzero">
            <g id="undraw_key_points_ig28" transform="translate(540.000000, 1013.000000)">
                <ellipse id="Oval" fill="#2F2E41" cx="157.503638" cy="16.0280009" rx="8.79778654" ry="9.6167997"></ellipse>
                <path d="M154.030827,24.210715 C154.030827,24.210715 154.185175,29.7783468 150.789537,31.465494 C147.393898,33.1526411 164.063383,32.9839369 164.063383,32.9839369 C164.063383,32.9839369 159.124275,26.404021 160.513398,24.210715 L154.030827,24.210715 Z" id="Path" fill="#FFB8B8"></path>
                <path d="M154.030827,24.210715 C154.030827,24.210715 154.185175,29.7783468 150.789537,31.465494 C147.393898,33.1526411 164.063383,32.9839369 164.063383,32.9839369 C164.063383,32.9839369 159.124275,26.404021 160.513398,24.210715 L154.030827,24.210715 Z" id="Path" fill="#000000" opacity="0.1"></path>
                <ellipse id="Oval" fill="#FFB8B8" cx="157.426463" cy="20.8363997" rx="6.01953846" ry="6.57991592"></ellipse>
                <path d="M156.654729,30.2844847 L151.4841,29.0191159 L148.474331,32.4777886 L145.078692,32.9839369 L149.55476,53.0611141 L149.400413,58.1225871 C149.400413,58.1225871 144.461304,62.1717676 144.77,80.8992207 C145.078696,99.6266739 142.300446,136.744147 145.696083,137.08158 C149.091719,137.419014 156.191688,139.106169 156.654737,137.587726 C157.117785,136.069283 157.889513,76.1751793 157.889513,76.1751793 C157.889513,76.1751793 157.735165,136.238 160.050373,136.912863 C162.365581,137.587726 169.465548,138.937453 170.391631,136.744147 C171.317713,134.550841 170.391631,77.3561886 170.391631,77.3561886 C170.391631,77.3561886 170.237285,62.5091991 164.680787,58.122585 L164.063398,54.2421213 L168.84816,32.9839327 L164.989473,32.9839327 L162.674267,28.5973207 L157.889506,30.4531952 L156.654729,30.2844847 Z" id="Path" fill="#2F2E41"></path>
                <path d="M144.043762,53.2827913 L137.428396,65.4817649 C137.428396,65.4817649 132.590192,70.9080556 135.011417,72.4068964 C137.432642,73.9057372 140.006825,66.0884462 140.006825,66.0884462 L147.123962,55.8456405 L144.043762,53.2827913 Z" id="Path" fill="#FFB8B8"></path>
                <path d="M171.143654,53.5421003 L176.493042,66.4616009 C176.493042,66.4616009 180.756646,72.4360063 178.19945,73.6350432 C175.642254,74.8340802 173.869258,66.7549955 173.869258,66.7549955 L167.824548,55.7195733 L171.143654,53.5421003 Z" id="Path" fill="#FFB8B8"></path>
                <path d="M147.085206,34.1649462 L145.078692,32.9839369 C145.078692,32.9839369 141.52871,39.3951381 142.146098,50.1929471 C142.146098,50.1929471 141.52871,55.9292832 142.763487,56.2667147 C143.998263,56.6041462 147.548246,57.2790093 147.702594,56.6041462 C147.856942,55.9292832 149.709108,43.4443144 149.709108,43.4443144 L147.085206,34.1649462 Z" id="Path" fill="#2F2E41"></path>
                <path d="M166.995987,33.8275147 L168.848152,32.9839411 C170.198182,34.7653764 171.054934,36.931055 171.317706,39.2264255 C171.780748,43.1068871 173.941608,55.5918559 172.243788,55.9292874 C170.545969,56.2667189 166.532944,56.941582 166.532944,55.9292874 C166.532944,54.9169928 165.143821,43.106885 165.143821,43.106885 L166.995987,33.8275147 Z" id="Path" fill="#2F2E41"></path>
                <polygon id="Path" fill="#2F2E41" points="163.310577 14.9165165 158.845962 12.3601502 152.680577 13.4059459 151.405 19.5644745 154.580385 19.430991 155.467308 17.1682883 155.467308 19.3935736 156.9325 19.331982 157.782885 15.73003 158.314423 19.5644745 163.523269 19.4482282"></polygon>
                <ellipse id="Oval" fill="#2F2E41" cx="157.966679" cy="5.06147297" rx="3.54998462" ry="3.88046366"></ellipse>
                <path d="M153.490612,3.88046156 C153.490722,1.96528883 154.768773,0.336471569 156.500381,0.0446486486 C155.118875,-0.186446787 153.741877,0.489998882 152.982739,1.77267873 C152.223601,3.05535858 152.223601,4.70556034 152.982739,5.98824019 C153.741877,7.27092004 155.118875,7.94736571 156.500381,7.71627027 C154.768775,7.42444511 153.490726,5.79563171 153.490612,3.88046156 L153.490612,3.88046156 Z" id="Path" fill="#2F2E41"></path>
                <ellipse id="Oval" fill="#0F70EB" cx="95.7584673" cy="122.028673" rx="1.51453269" ry="1.12686967"></ellipse>
                <path d="M95.7584615,122.028677 C95.7584615,122.028677 102.9525,135.691983 102.763179,137.664008" id="Path" fill="#335EEA"></path>
                <path d="M100.491385,122.971209 L100.491385,130.964003 C98.9844442,128.681586 95.9787462,126.33139 90.3463,124.423592 L100.491385,139.655844 L100.491385,139.771552 C100.491385,139.771552 100.510548,139.760257 100.546225,139.738189 L100.563504,139.764129 C100.563504,139.764129 100.57799,139.742974 100.603888,139.702073 C101.785865,138.953677 111.69895,132.205635 100.491385,122.971209 Z" id="Path" fill="#3F3D56"></path>
                <rect id="Rectangle" fill="#3F3D56" x="94.8076923" y="139.465679" width="105.19231" height="1"></rect>
                <path d="M121.923077,139.728507 L118.126702,139.728507 L118.126702,135.578716 L121.923077,135.578716 L121.923077,139.728507 Z M118.418731,139.409292 L121.631048,139.409292 L121.631048,135.897926 L118.418731,135.897926 L118.418731,139.409292 Z" id="Shape" fill="#3F3D56"></path>
                <ellipse id="Oval" fill="#0F70EB" cx="192.751942" cy="133.295032" rx="1.93819423" ry="2.11862673"></ellipse>
                <path d="M192.751942,139.415508 C189.659573,139.415508 187.152712,136.675276 187.152712,133.295028 C187.152712,129.91478 189.659573,127.174547 192.751942,127.174547 C195.844312,127.174547 198.351173,129.91478 198.351173,133.295028 C198.347714,136.673708 195.842878,139.411727 192.751942,139.415508 L192.751942,139.415508 Z M192.751942,127.645362 C189.897449,127.645362 187.583425,130.174805 187.583425,133.295032 C187.583425,136.415259 189.897449,138.944703 192.751942,138.944703 C195.606436,138.944703 197.92046,136.415259 197.92046,133.295032 C197.917197,130.176284 195.605083,127.648928 192.751942,127.645362 L192.751942,127.645362 Z" id="Shape" fill="#2F2E41"></path>
                <rect id="Rectangle" fill="#0F70EB" x="6.92307692" y="8.43934084" width="129.423077" height="84.5045045"></rect>
                <polygon id="Path" fill="#000000" opacity="0.1" points="87.7846154 8.43930931 6.92307692 69.1185886 6.92307692 54.5846547 68.4173077 8.43930931"></polygon>
                <polygon id="Path" fill="#000000" opacity="0.1" points="126.538462 8.43930931 126.538462 9.90867868 15.8846154 92.9438138 6.92307692 92.9438138 6.92307692 85.1366066 109.130769 8.43930931"></polygon>
                <rect id="Rectangle" fill="#3F3D56" x="17.9570115" y="78.0189204" width="1" height="14.9249249"></rect>
                <ellipse id="Oval" fill="#3F3D56" cx="18.1730769" cy="78.0189204" rx="4.80769231" ry="5.25525526"></ellipse>
                <rect id="Rectangle" fill="#3F3D56" x="44.6877808" y="65.1960976" width="1" height="27.7477477"></rect>
                <ellipse id="Oval" fill="#3F3D56" cx="44.9038462" cy="65.8267282" rx="4.80769231" ry="5.25525526"></ellipse>
                <rect id="Rectangle" fill="#3F3D56" x="71.41855" y="41.8627643" width="1" height="51.0810811"></rect>
                <ellipse id="Oval" fill="#3F3D56" cx="71.6346154" cy="41.8627643" rx="4.80769231" ry="5.25525526"></ellipse>
                <rect id="Rectangle" fill="#3F3D56" x="98.1492269" y="57.2081096" width="1" height="35.7357357"></rect>
                <ellipse id="Oval" fill="#3F3D56" cx="98.3653846" cy="57.2081096" rx="4.80769231" ry="5.25525526"></ellipse>
                <rect id="Rectangle" fill="#3F3D56" x="124.879996" y="26.7276291" width="1" height="66.2162162"></rect>
                <ellipse id="Oval" fill="#3F3D56" cx="125.096154" cy="26.7276291" rx="4.80769231" ry="5.25525526"></ellipse>
                <rect id="Rectangle" fill="#3F3D56" x="6.92307692" y="77.8087102" width="1.15384615" height="1"></rect>
                <path d="M15.3077115,79.1420435 L13.4999442,79.1420435 L13.4999442,77.8087102 L15.3077115,77.8087102 L15.3077115,79.1420435 Z M11.6922692,79.1420435 L9.88459615,79.1420435 L9.88459615,77.8087102 L11.6922692,77.8087102 L11.6922692,79.1420435 Z" id="Shape" fill="#3F3D56"></path>
                <rect id="Rectangle" fill="#3F3D56" x="17.1153846" y="77.8087102" width="1.15384615" height="1"></rect>
                <rect id="Rectangle" fill="#3F3D56" x="6.92307692" y="65.616518" width="1.15384615" height="1"></rect>
                <path d="M40.7435962,66.9498514 L38.4102692,66.9498514 L38.4102692,65.616518 L40.7435962,65.616518 L40.7435962,66.9498514 Z M36.0769423,66.9498514 L33.7436154,66.9498514 L33.7436154,65.616518 L36.0769423,65.616518 L36.0769423,66.9498514 Z M31.4102885,66.9498514 L29.0769615,66.9498514 L29.0769615,65.616518 L31.4102885,65.616518 L31.4102885,66.9498514 Z M26.7435404,66.9498514 L24.4102135,66.9498514 L24.4102135,65.616518 L26.7435404,65.616518 L26.7435404,66.9498514 Z M22.0768846,66.9498514 L19.7435577,66.9498514 L19.7435577,65.616518 L22.0768846,65.616518 L22.0768846,66.9498514 Z M17.4102308,66.9498514 L15.0769038,66.9498514 L15.0769038,65.616518 L17.4102308,65.616518 L17.4102308,66.9498514 Z M12.7435769,66.9498514 L10.41025,66.9498514 L10.41025,65.616518 L12.7435769,65.616518 L12.7435769,66.9498514 Z" id="Shape" fill="#3F3D56"></path>
                <rect id="Rectangle" fill="#3F3D56" x="43.0769231" y="65.616518" width="1.15384615" height="1"></rect>
                <rect id="Rectangle" fill="#3F3D56" x="6.92307692" y="56.9978994" width="1.15384615" height="1"></rect>
                <path d="M91.7151923,58.3312327 L89.3919019,58.3312327 L89.3919019,56.9978994 L91.7151923,56.9978994 L91.7151923,58.3312327 Z M87.0686327,58.3312327 L84.7453423,58.3312327 L84.7453423,56.9978994 L87.0686327,56.9978994 L87.0686327,58.3312327 Z M82.4220731,58.3312327 L80.0987827,58.3312327 L80.0987827,56.9978994 L82.4220731,56.9978994 L82.4220731,58.3312327 Z M77.7754192,58.3312327 L75.4521288,58.3312327 L75.4521288,56.9978994 L77.7754192,56.9978994 L77.7754192,58.3312327 Z M73.1288596,58.3312327 L70.8055769,58.3312327 L70.8055769,56.9978994 L73.1288596,56.9978994 L73.1288596,58.3312327 Z M68.4823,58.3312327 L66.1590115,58.3312327 L66.1590115,56.9978994 L68.4823,56.9978994 L68.4823,58.3312327 Z M63.8357404,58.3312327 L61.5124519,58.3312327 L61.5124519,56.9978994 L63.8357404,56.9978994 L63.8357404,58.3312327 Z M59.1891808,58.3312327 L56.8658923,58.3312327 L56.8658923,56.9978994 L59.1891808,56.9978994 L59.1891808,58.3312327 Z M54.5426212,58.3312327 L52.2193327,58.3312327 L52.2193327,56.9978994 L54.5426212,56.9978994 L54.5426212,58.3312327 Z M49.8960615,58.3312327 L47.5727731,58.3312327 L47.5727731,56.9978994 L49.8960615,56.9978994 L49.8960615,58.3312327 Z M45.2495019,58.3312327 L42.9262135,58.3312327 L42.9262135,56.9978994 L45.2495019,56.9978994 L45.2495019,58.3312327 Z M40.6029423,58.3312327 L38.2796538,58.3312327 L38.2796538,56.9978994 L40.6029423,56.9978994 L40.6029423,58.3312327 Z M35.9563827,58.3312327 L33.633,58.3312327 L33.633,56.9978994 L35.9563827,56.9978994 L35.9563827,58.3312327 Z M31.3097308,58.3312327 L28.9864404,58.3312327 L28.9864404,56.9978994 L31.3097308,56.9978994 L31.3097308,58.3312327 Z M26.6631712,58.3312327 L24.3398808,58.3312327 L24.3398808,56.9978994 L26.6631712,56.9978994 L26.6631712,58.3312327 Z M22.0166115,58.3312327 L19.6933212,58.3312327 L19.6933212,56.9978994 L22.0166115,56.9978994 L22.0166115,58.3312327 Z M17.3700519,58.3312327 L15.0467615,58.3312327 L15.0467615,56.9978994 L17.3700519,56.9978994 L17.3700519,58.3312327 Z M12.7234923,58.3312327 L10.4002019,58.3312327 L10.4002019,56.9978994 L12.7234923,56.9978994 L12.7234923,58.3312327 Z" id="Shape" fill="#3F3D56"></path>
                <rect id="Rectangle" fill="#3F3D56" x="94.0384615" y="56.9978994" width="1.15384615" height="1"></rect>
                <rect id="Rectangle" fill="#3F3D56" x="6.92307692" y="41.6525541" width="1.15384615" height="1"></rect>
                <path d="M65.1230096,42.9858874 L62.7461135,42.9858874 L62.7461135,41.6525541 L65.1230096,41.6525541 L65.1230096,42.9858874 Z M60.3692154,42.9858874 L57.992225,42.9858874 L57.992225,41.6525541 L60.3692154,41.6525541 L60.3692154,42.9858874 Z M55.6153288,42.9858874 L53.2384308,42.9858874 L53.2384308,41.6525541 L55.6153288,41.6525541 L55.6153288,42.9858874 Z M50.8615385,42.9858874 L48.4845442,42.9858874 L48.4845442,41.6525541 L50.8615385,41.6525541 L50.8615385,42.9858874 Z M46.1076481,42.9858874 L43.73075,42.9858874 L43.73075,41.6525541 L46.1076481,41.6525541 L46.1076481,42.9858874 Z M41.3538538,42.9858874 L38.9768635,42.9858874 L38.9768635,41.6525541 L41.3538538,41.6525541 L41.3538538,42.9858874 Z M36.5999731,42.9858874 L34.2230769,42.9858874 L34.2230769,41.6525541 L36.5999731,41.6525541 L36.5999731,42.9858874 Z M31.8460788,42.9858874 L29.4691827,42.9858874 L29.4691827,41.6525541 L31.8460788,41.6525541 L31.8460788,42.9858874 Z M27.0922846,42.9858874 L24.7153846,42.9858874 L24.7153846,41.6525541 L27.0922846,41.6525541 L27.0922846,42.9858874 Z M22.3383981,42.9858874 L19.9615,42.9858874 L19.9615,41.6525541 L22.3383981,41.6525541 L22.3383981,42.9858874 Z M17.5846038,42.9858874 L15.2077077,42.9858874 L15.2077077,41.6525541 L17.5846038,41.6525541 L17.5846038,42.9858874 Z M12.8307173,42.9858874 L10.4538192,42.9858874 L10.4538192,41.6525541 L12.8307173,41.6525541 L12.8307173,42.9858874 Z" id="Shape" fill="#3F3D56"></path>
                <rect id="Rectangle" fill="#3F3D56" x="67.5" y="41.6525541" width="1.15384615" height="1"></rect>
                <polygon id="Rectangle" fill="#3F3D56" transform="translate(7.499995, 27.145998) rotate(-0.195830) translate(-7.499995, -27.145998) " points="6.92312965 26.9359702 8.07698283 26.9356031 8.07686045 27.3560252 6.92300728 27.3563923"></polygon>
                <path d="M10.351375,27.8628625 L10.3500596,27.1763345 L12.6238538,27.1630949 L12.6251692,27.8496228 L10.351375,27.8628625 Z M14.898875,27.8365478 L14.8975615,27.1500199 L17.1713462,27.136794 L17.1726596,27.8233219 L14.898875,27.8365478 Z M19.446375,27.810065 L19.4450615,27.1235371 L21.7188558,27.1102974 L21.7201692,27.7968253 L19.446375,27.810065 Z M23.9939635,27.7837504 L23.99265,27.0972225 L26.26635,27.0839828 L26.2676654,27.7705107 L23.9939635,27.7837504 Z M28.5414635,27.7572676 L28.5401481,27.0707397 L30.8138481,27.0575 L30.8151635,27.7440279 L28.5414635,27.7572676 Z M33.0889635,27.730953 L33.0876481,27.0444251 L35.3614423,27.0311854 L35.3627577,27.7177133 L33.0889635,27.730953 Z M37.6364635,27.7044702 L37.63515,27.0179423 L39.9089442,27.0047026 L39.9102577,27.6912305 L37.6364635,27.7044702 Z M42.1839635,27.6781556 L42.1826481,26.9916276 L44.4564423,26.9783879 L44.4577577,27.6649159 L42.1839635,27.6781556 Z M46.7314635,27.6516762 L46.7301481,26.9651483 L49.0039423,26.9519051 L49.0052577,27.6384331 L46.7314635,27.6516762 Z M51.2790519,27.6253616 L51.2777365,26.9388336 L53.5514385,26.9255905 L53.5527519,27.6121184 L51.2790519,27.6253616 Z M55.8265519,27.5988787 L55.8252385,26.9123508 L58.0989385,26.8991077 L58.1002519,27.5856356 L55.8265519,27.5988787 Z M60.3740519,27.5725641 L60.3727385,26.8860362 L62.6465327,26.8727931 L62.6478462,27.559321 L60.3740519,27.5725641 Z M64.9215519,27.5460813 L64.9202365,26.8595534 L67.1940308,26.8463103 L67.1953462,27.5328382 L64.9215519,27.5460813 Z M69.4690519,27.5197667 L69.4677365,26.8332388 L71.7415308,26.8199957 L71.7428462,27.5065236 L69.4690519,27.5197667 Z M74.0166404,27.4932839 L74.015325,26.806756 L76.2890269,26.7935163 L76.2903404,27.4800442 L74.0166404,27.4932839 Z M78.5641404,27.4669693 L78.5628269,26.7804414 L80.8365269,26.7672017 L80.8378423,27.4537296 L78.5641404,27.4669693 Z M83.1116404,27.4404865 L83.110325,26.7539585 L85.384025,26.7407188 L85.3853404,27.4272468 L83.1116404,27.4404865 Z M87.6591404,27.4141718 L87.657825,26.7276439 L89.9316192,26.7144042 L89.9329346,27.4009322 L87.6591404,27.4141718 Z M92.2065404,27.387689 L92.2054135,26.7011611 L94.4791154,26.6879214 L94.4802423,27.3744493 L92.2065404,27.387689 Z M96.7541288,27.3613744 L96.7530019,26.6748465 L99.0267038,26.6616068 L99.0278308,27.3481347 L96.7541288,27.3613744 Z M101.301531,27.3348916 L101.300404,26.6483637 L103.574292,26.635124 L103.575419,27.3216519 L101.301531,27.3348916 Z M105.849119,27.308577 L105.847992,26.6220491 L108.121692,26.6088094 L108.122819,27.2953373 L105.849119,27.308577 Z M110.396519,27.2820976 L110.395392,26.5955697 L112.669281,26.5823266 L112.670408,27.2688545 L110.396519,27.2820976 Z M114.944108,27.255783 L114.942983,26.5692551 L117.216683,26.5560119 L117.21781,27.2425399 L114.944108,27.255783 Z M119.491698,27.2293002 L119.490571,26.5427723 L121.764271,26.5295291 L121.765398,27.216057 L119.491698,27.2293002 Z" id="Shape" fill="#3F3D56"></path>
                <polygon id="Rectangle" fill="#3F3D56" transform="translate(124.615385, 26.729679) rotate(-0.167860) translate(-124.615385, -26.729679) " points="124.038511 26.519625 125.192364 26.5193103 125.192259 26.9397325 124.038407 26.9400472"></polygon>
                <rect id="Rectangle" fill="#3F3D56" x="0" y="24.8357372" width="3.84615385" height="4.2042042"></rect>
                <rect id="Rectangle" fill="#3F3D56" x="0" y="39.7606622" width="3.84615385" height="4.2042042"></rect>
                <rect id="Rectangle" fill="#3F3D56" x="0" y="55.1060075" width="3.84615385" height="4.2042042"></rect>
                <rect id="Rectangle" fill="#3F3D56" x="0" y="63.7246261" width="3.84615385" height="4.2042042"></rect>
                <rect id="Rectangle" fill="#3F3D56" x="0" y="75.9168183" width="3.84615385" height="4.2042042"></rect>
                <polygon id="Rectangle" fill="#0F70EB" transform="translate(185.632540, 67.982134) rotate(104.722595) translate(-185.632540, -67.982134) " points="180.311533 63.0664679 191.182365 62.8376488 190.953546 72.8977996 180.082714 73.1266186"></polygon>
                <path d="M177.532115,72.6129276 C177.082691,71.3092676 177.685182,69.8541954 178.877815,69.3629326 C180.070449,68.8716697 181.401601,69.5302475 181.851026,70.8339072 C182.30045,72.137567 181.697961,73.5926395 180.505327,74.083903 C179.312744,74.5734435 177.98269,73.915409 177.532115,72.6129276 Z M181.491117,70.9821589 C181.116597,69.8957753 180.007304,69.34696 179.013442,69.7563455 C178.019581,70.1657309 177.517505,71.3782912 177.892025,72.4646748 C178.266545,73.5510583 179.375838,74.0998737 180.3697,73.6904883 C181.362686,73.2800821 181.864357,72.0684963 181.491115,70.9821589 L181.491117,70.9821589 Z" id="Shape" fill="#3F3D56"></path>
                <ellipse id="Oval" fill="#2F2E41" cx="150.384615" cy="137.71862" rx="3.26923077" ry="1.89189189"></ellipse>
                <ellipse id="Oval" fill="#2F2E41" cx="165.384615" cy="137.71862" rx="3.26923077" ry="1.89189189"></ellipse>
                <path d="M105.802377,47.1750811 C104.527874,47.1750811 103.494685,46.0457093 103.494685,44.6525586 C103.494685,43.2594078 104.527874,42.130036 105.802377,42.130036 C107.07688,42.130036 108.110069,43.2594078 108.110069,44.6525586 C108.108612,46.045049 107.076276,47.1734883 105.802377,47.1750811 L105.802377,47.1750811 Z M105.802377,42.5504565 C104.740291,42.5504565 103.8793,43.4915996 103.8793,44.6525586 C103.8793,45.8135175 104.740291,46.7546607 105.802377,46.7546607 C106.864463,46.7546607 107.725454,45.8135175 107.725454,44.6525586 C107.724273,43.4921346 106.863974,42.551747 105.802377,42.5504565 Z" id="Shape" fill="#FFFFFF"></path>
                <path d="M54.4562231,85.2231291 C53.1817198,85.2231291 52.1485308,84.0937573 52.1485308,82.7006066 C52.1485308,81.3074559 53.1817198,80.1780841 54.4562231,80.1780841 C55.7307263,80.1780841 56.7639154,81.3074559 56.7639154,82.7006066 C56.7624582,84.093097 55.7301223,85.2215363 54.4562231,85.2231291 L54.4562231,85.2231291 Z M54.4562231,80.5985045 C53.394137,80.5985045 52.5331462,81.5396477 52.5331462,82.7006066 C52.5331462,83.8615655 53.394137,84.8027087 54.4562231,84.8027087 C55.5183091,84.8027087 56.3793,83.8615655 56.3793,82.7006066 C56.3781194,81.5401827 55.5178197,80.5997951 54.4562231,80.5985045 L54.4562231,80.5985045 Z" id="Shape" fill="#FFFFFF"></path>
                <path d="M31.7639154,24.051958 C30.4894121,24.051958 29.4562231,22.9225862 29.4562231,21.5294354 C29.4562231,20.1362847 30.4894121,19.0069129 31.7639154,19.0069129 C33.0384187,19.0069129 34.0716077,20.1362847 34.0716077,21.5294354 C34.0701505,22.9219259 33.0378146,24.0503651 31.7639154,24.051958 L31.7639154,24.051958 Z M31.7639154,19.4273333 C30.7018293,19.4273333 29.8408385,20.3684765 29.8408385,21.5294354 C29.8408385,22.6903944 30.7018293,23.6315375 31.7639154,23.6315375 C32.8260014,23.6315375 33.6869923,22.6903944 33.6869923,21.5294354 C33.6858117,20.3690115 32.825512,19.4286239 31.7639154,19.4273333 Z" id="Shape" fill="#FFFFFF"></path>
            </g>
        </g>
    </g>
</svg>