<?xml version="1.0" encoding="UTF-8"?>
<svg width="200px" height="141px" viewBox="0 0 200 141" version="1.1" xmlns="http://www.w3.org/2000/svg" xmlns:xlink="http://www.w3.org/1999/xlink">
    <!-- Generator: Sketch 61 (89581) - https://sketch.com -->
    <title>undraw_all_the_data_h4ki</title>
    <desc>Created with Sketch.</desc>
    <g id="Home" stroke="none" stroke-width="1" fill="none" fill-rule="evenodd">
        <g id="04---Start-up" transform="translate(-930.000000, -1012.000000)">
            <g id="undraw_all_the_data_h4ki" transform="translate(930.000000, 1013.000000)">
                <ellipse id="Oval" fill="#3F3D56" fill-rule="nonzero" cx="174.210546" cy="136.801282" rx="25.7894536" ry="3.16505549"></ellipse>
                <rect id="Rectangle" fill="#F2F2F2" fill-rule="nonzero" x="0" y="4.47527141" width="77.8571429" height="45.9348613"></rect>
                <rect id="Rectangle" stroke="#3F3D56" stroke-width="2" x="4.91071429" y="0" width="77.8571429" height="45.9348613"></rect>
                <path d="M55.7978571,34.1079872 C60.5985334,29.5678988 62.0346461,22.7399765 59.4365386,16.8080672 C56.8384311,10.8761579 50.7177557,7.00844391 43.9285714,7.00844391 L43.9285714,22.8829916 L55.7978571,34.1079872 Z" id="Path" fill="#3F3D56" fill-rule="nonzero"></path>
                <path d="M43.9285714,7.00844391 C36.2535233,7.00930853 29.5564178,11.9326106 27.6621771,18.9665013 C25.7679365,26.0003921 29.158977,33.3535133 35.8985714,36.8262721 L43.9285714,22.8829916 L43.9285714,7.00844391 Z" id="Path" fill="#0F70EB" fill-rule="nonzero"></path>
                <path d="M55.7978571,34.1079872 L43.9285714,22.8829916 L35.8985714,36.8262721 C42.4358473,40.1899574 50.534286,39.0836934 55.7978571,34.1079872 L55.7978571,34.1079872 Z" id="Path" fill="#575A89" fill-rule="nonzero"></path>
                <rect id="Rectangle" fill="#0F70EB" fill-rule="nonzero" x="7.85714286" y="36.3932449" width="3.21428571" height="3.039807"></rect>
                <rect id="Rectangle" fill="#3F3D56" fill-rule="nonzero" x="12.5" y="36.3932449" width="3.21428571" height="3.039807"></rect>
                <rect id="Rectangle" fill="#575A89" fill-rule="nonzero" x="17.1428571" y="36.3932449" width="3.21428571" height="3.039807"></rect>
                <rect id="Rectangle" fill="#3F3D56" fill-rule="nonzero" x="63.3928571" y="37.0687575" width="13.2142857" height="1"></rect>
                <rect id="Rectangle" fill="#3F3D56" fill-rule="nonzero" x="63.3928571" y="38.588661" width="13.2142857" height="1"></rect>
                <rect id="Rectangle" fill="#3F3D56" fill-rule="nonzero" x="63.3928571" y="40.1085645" width="13.2142857" height="1"></rect>
                <rect id="Rectangle" fill="#F2F2F2" fill-rule="nonzero" x="24.4642857" y="68.4800965" width="44.2857143" height="45.9348613"></rect>
                <rect id="Rectangle" stroke="#3F3D56" stroke-width="2" x="28.9285714" y="64.0892642" width="44.2857143" height="45.9348613"></rect>
                <rect id="Rectangle" fill="#0F70EB" fill-rule="nonzero" x="31.25" y="104.841979" width="2.38775536" height="2.25814258"></rect>
                <rect id="Rectangle" fill="#3F3D56" fill-rule="nonzero" x="34.6989804" y="104.841979" width="2.38775536" height="2.25814258"></rect>
                <rect id="Rectangle" fill="#575A89" fill-rule="nonzero" x="38.1479589" y="104.841979" width="2.38775536" height="2.25814258"></rect>
                <rect id="Rectangle" fill="#3F3D56" fill-rule="nonzero" x="58.0357143" y="105.82271" width="9.28571429" height="1"></rect>
                <rect id="Rectangle" fill="#3F3D56" fill-rule="nonzero" x="58.0357143" y="106.890752" width="9.28571429" height="1"></rect>
                <rect id="Rectangle" fill="#3F3D56" fill-rule="nonzero" x="58.0357143" y="107.958791" width="9.28571429" height="1"></rect>
                <path d="M51.0714286,72.1954162 L51.0714286,75.9107358 C55.8383067,75.9107334 60.1358085,78.6263589 61.9600144,82.7913196 C63.7842203,86.9562803 62.7758838,91.7503579 59.4051911,94.9380801 L62.1831071,97.5652063 C66.6773619,93.3149103 68.0218097,86.9228091 65.5895366,81.3695295 C63.1572635,75.81625 57.4272642,72.1954162 51.0714286,72.1954162 L51.0714286,72.1954162 Z" id="Path" fill="#3F3D56" fill-rule="nonzero"></path>
                <path d="M62.1831071,97.5652063 L59.4051911,94.9380801 C55.238128,98.8797645 48.6324321,99.3033317 43.9409054,95.9296736 L41.5630893,98.8885457 C47.819424,103.385481 56.6265378,102.820263 62.1831071,97.5652063 Z" id="Path" fill="#575A89" fill-rule="nonzero"></path>
                <path d="M39.2857143,87.0566948 C39.2857143,80.9009516 44.5623583,75.9107358 51.0714286,75.9107358 L51.0714286,72.1954162 C44.3259356,72.1954162 38.3329002,76.2666847 36.179432,82.3121997 C34.0259637,88.3577146 36.1925267,95.0285883 41.5630893,98.8885457 L43.9409089,95.9296736 C41.0059252,93.8243382 39.2830536,90.5404791 39.2857143,87.0566948 L39.2857143,87.0566948 Z" id="Path" fill="#0F70EB" fill-rule="nonzero"></path>
                <path d="M166.361505,23.6418169 C166.361505,23.6418169 165.632884,28.7606171 167.50648,29.3512499 C169.380077,29.9418828 168.859632,34.4700519 168.859632,34.4700519 L163.238845,38.506029 L158.242595,38.8997836 L156.99353,32.7965976 L157.722143,31.2215756 C157.722143,31.2215756 160.532538,28.0715452 158.554854,24.8230758 C156.57717,21.5746063 166.361505,23.6418169 166.361505,23.6418169 Z" id="Path" fill="#FFB9B9" fill-rule="nonzero"></path>
                <path d="M166.361505,23.6418169 C166.361505,23.6418169 165.632884,28.7606171 167.50648,29.3512499 C169.380077,29.9418828 168.859632,34.4700519 168.859632,34.4700519 L163.238845,38.506029 L158.242595,38.8997836 L156.99353,32.7965976 L157.722143,31.2215756 C157.722143,31.2215756 160.532538,28.0715452 158.554854,24.8230758 C156.57717,21.5746063 166.361505,23.6418169 166.361505,23.6418169 Z" id="Path" fill="#000000" fill-rule="nonzero" opacity="0.1"></path>
                <path d="M161.157073,63.5093923 L154.599487,78.0782922 C154.599487,78.0782922 149.499145,75.3220147 146.480573,75.6173303 C143.462002,75.9126458 139.714811,72.4672999 139.714811,72.4672999 L143.462002,55.3390007 L150.435941,37.1278818 L160.116186,42.9357522 L161.157073,63.5093923 Z" id="Path" fill="#575A89" fill-rule="nonzero"></path>
                <path d="M161.157073,63.5093923 L154.599487,78.0782922 C154.599487,78.0782922 149.499145,75.3220147 146.480573,75.6173303 C143.462002,75.9126458 139.714811,72.4672999 139.714811,72.4672999 L143.462002,55.3390007 L150.435941,37.1278818 L160.116186,42.9357522 L161.157073,63.5093923 Z" id="Path" fill="#000000" fill-rule="nonzero" opacity="0.1"></path>
                <polygon id="Path" fill="#575A89" fill-rule="nonzero" points="171.461786 125.427165 171.461786 130.152207 166.777857 130.152207 167.506429 124.639686"></polygon>
                <polygon id="Path" fill="#575A89" fill-rule="nonzero" points="183.640179 117.25684 187.075179 119.225621 184.576964 124.639686 181.974821 124.344318 179.476607 120.997491"></polygon>
                <path d="M172.398646,62.1312586 L178.539877,75.8142084 C178.539877,75.8142084 176.354014,90.9737259 176.458104,92.253434 C176.562193,93.5331421 176.66628,94.0253274 176.145837,95.1081505 C175.625395,96.1909737 175.417218,96.8800422 175.729484,98.1597435 C176.04175,99.4394449 176.145837,99.9316352 175.937661,100.423827 C175.729484,100.916019 174.272243,121.194347 173.543621,122.572486 C172.815,123.950625 173.959977,126.21471 173.231355,126.411593 C172.502734,126.608476 167.090125,126.116278 166.777859,124.935017 C166.465593,123.753757 167.818752,120.899038 167.090125,120.013092 C166.361498,119.127145 167.194214,87.2330779 166.153327,85.0674316 C165.112439,82.9017853 153.662689,80.9330154 153.662689,80.9330154 C153.662689,80.9330154 152.621796,74.632953 153.246336,73.6485689 C153.870875,72.6641848 154.703571,66.462553 154.703571,66.462553 L172.398646,62.1312586 Z" id="Path" fill="#2F2E41" fill-rule="nonzero"></path>
                <path d="M166.361505,129.36474 C166.361505,129.36474 169.275988,126.116271 171.774114,129.36474 C171.774114,129.36474 171.982291,133.203848 173.751793,133.99135 C175.521295,134.778853 174.688591,137.928888 172.190464,138.027327 C169.692338,138.125766 166.465588,138.519519 166.3615,137.23982 C166.257413,135.96012 166.777854,135.172611 165.841057,134.778858 C164.904261,134.385105 165.841057,132.12102 165.841057,132.12102 L166.361505,129.36474 Z" id="Path" fill="#2F2E41" fill-rule="nonzero"></path>
                <path d="M166.673771,82.3111474 C166.673771,82.3111474 166.569682,89.3987175 165.841063,90.3831033 C165.112443,91.367489 164.696086,91.9581185 165.112441,93.0409416 C165.528796,94.1237648 166.153334,96.0925346 165.841063,96.4862893 C165.528791,96.8800439 166.153327,98.9472511 166.153327,98.9472511 C166.153327,98.9472511 174.168148,102.589475 177.915345,110.169237 C177.915345,110.169237 181.766625,116.173984 182.911595,116.272423 C184.056564,116.370862 185.409721,115.583353 184.785191,117.847439 C184.160661,120.111524 181.76662,123.064678 179.997113,122.769362 C178.227605,122.474047 176.874464,119.619332 176.874464,119.619332 C176.874464,119.619332 163.030673,106.33014 161.573432,105.936382 C160.116191,105.542624 155.952645,102.392597 155.224025,100.423827 C154.495405,98.4550574 152.934075,82.0158318 153.662695,80.9330087 C154.391314,79.8501855 157.097621,78.3736077 157.097621,78.3736077 L166.673771,82.3111474 Z" id="Path" fill="#2F2E41" fill-rule="nonzero"></path>
                <path d="M184.681107,116.863055 C184.681107,116.863055 191.134604,117.059931 191.238691,118.536509 C191.342779,120.013087 188.532387,128.774111 188.948741,130.841318 C189.365095,132.908525 185.721993,137.633574 183.327955,136.649189 C180.933918,135.664803 182.807511,130.546003 182.807511,130.546003 C182.807511,130.546003 180.413473,123.556872 180.829832,123.458433 C181.246191,123.359993 185.409732,122.178733 185.201555,120.997471 C184.993379,119.816208 184.681107,116.863055 184.681107,116.863055 Z" id="Path" fill="#2F2E41" fill-rule="nonzero"></path>
                <ellipse id="Oval" fill="#FFB9B9" fill-rule="nonzero" cx="161.521382" cy="22.8050864" rx="6.45349643" ry="6.10318601"></ellipse>
                <path d="M168.026923,32.2059665 C168.026923,32.2059665 164.487909,35.7497515 161.885693,35.1591204 C159.283477,34.5684893 157.930325,30.3356357 157.930325,30.3356357 L153.246336,29.5481264 C153.246336,29.5481264 149.915498,43.5263918 149.915498,44.9045305 C149.915498,46.2826692 153.246336,61.1468796 153.246336,63.804718 C153.246336,66.4625563 150.54003,68.0375732 154.703577,67.9391341 C158.867123,67.8406951 156.889437,66.5609954 162.92658,66.462558 C168.963723,66.3641206 169.90052,67.6438186 171.149582,65.5766113 C172.001457,64.2279016 173.052999,63.0013991 174.272243,61.9343872 L172.08638,54.649939 L171.774107,34.0762922 C171.774107,34.0762922 169.105477,29.1543684 167.88962,29.5481214 C167.889627,29.5481214 168.547366,31.7137694 168.026923,32.2059665 Z" id="Path" fill="#0F70EB" fill-rule="nonzero"></path>
                <path d="M166.744839,28.6774852 C166.744839,28.6774852 172.294557,29.2528058 173.855888,30.3356306 C175.417218,31.4184555 179.788941,32.2059563 179.684852,32.993469 C179.580763,33.7809817 174.584509,45.0029628 174.584509,45.0029628 C174.584509,45.0029628 172.294557,53.8624263 174.272243,55.9296352 C176.249929,57.9968441 183.64022,80.5392557 182.391157,82.4095865 C181.142095,84.2799172 177.186725,76.7001534 177.186725,76.7001534 C177.186725,76.7001534 171.878204,60.4578043 168.963721,57.7015286 C166.049239,54.9452528 165.841071,40.0810391 165.841071,39.3919706 C165.841071,38.7029021 166.744839,28.6774852 166.744839,28.6774852 Z" id="Path" fill="#575A89" fill-rule="nonzero"></path>
                <path d="M158.627277,29.8192333 C158.627277,29.8192333 151.789095,27.3824683 149.395055,28.3668591 C147.001016,29.3512499 145.543775,29.5481197 145.543775,29.5481197 L144.711071,39.1950924 C144.711071,39.1950924 144.398805,53.0749187 141.6925,56.4218273 C138.986195,59.7687358 137.216689,73.7469995 137.633036,75.1251382 C138.049382,76.503277 136.904416,78.8658014 138.673929,78.2751703 C140.443441,77.6845392 145.335602,64.1000285 145.335602,64.1000285 C145.335602,64.1000285 145.335602,56.3233882 148.250084,54.1577419 C151.164566,51.9920955 155.952643,43.0341947 156.160821,40.8685501 C156.369,38.7029054 158.346682,32.6981568 158.346682,32.6981568 L158.627277,29.8192333 Z" id="Path" fill="#575A89" fill-rule="nonzero"></path>
                <path d="M182.078891,60.851559 C182.078891,60.851559 178.956232,66.3641088 178.539877,67.3484996 C178.123521,68.3328905 175.209039,75.0267025 171.045495,73.5501247 C166.88195,72.0735469 175.104959,64.8875378 175.104959,64.8875378 L176.978554,58.8827908 C176.978554,58.8827908 181.870714,57.8984051 182.078891,60.851559 Z" id="Path" fill="#FFB9B9" fill-rule="nonzero"></path>
                <path d="M146.584662,29.5481214 L145.54377,29.5481214 C145.54377,29.5481214 144.502877,28.7606138 143.25382,29.2528058 C142.004762,29.7449978 139.090273,29.0559293 139.090273,29.3512449 C139.090273,29.6465604 135.863525,28.4652982 134.510373,29.0559293 C133.157221,29.6465604 128.265054,29.8434369 128.265054,29.8434369 C128.265054,29.8434369 126.287375,34.5684791 127.640523,35.4544309 C128.993671,36.3403826 130.971359,35.6513074 131.908157,36.3403776 C132.844955,37.0294478 134.614462,36.2419385 135.238993,37.1278852 C135.863523,38.0138318 138.153475,39.588847 138.67392,38.604463 C139.194364,37.6200789 138.153475,36.7341373 140.339337,37.8169537 C142.5252,38.8997701 145.960125,38.8997785 145.960125,38.8997785 L146.584662,29.5481214 Z" id="Path" fill="#575A89" fill-rule="nonzero"></path>
                <path d="M162.103154,18.2957776 C161.229861,18.1049452 160.323313,18.3164145 159.438809,18.4534996 C158.554305,18.5905848 157.579552,18.6357783 156.83135,18.1690581 C156.278796,17.8243778 155.939077,17.2541556 155.620073,16.7056545 C155.486961,16.5097673 155.398243,16.2899052 155.359521,16.0599522 C155.321964,15.6542967 155.594821,15.2841884 155.884573,14.9829773 C157.230466,13.5838538 159.197264,12.8180791 161.180689,12.5748304 C162.81113,12.3748786 164.510984,12.5087821 166.016627,13.1333105 C167.52227,13.7578388 168.816548,14.9015223 169.408504,16.3520912 C169.681147,17.094504 169.851412,17.8670699 169.915086,18.6506733 C170.00453,19.2272141 170.016005,19.8121779 169.949232,20.3914593 C169.869513,20.8208969 169.750151,21.2429009 169.592516,21.652628 L168.61195,24.4527698 C168.541453,24.7173752 168.409767,24.963896 168.22638,25.1745669 C168.032841,25.3864944 167.714744,25.4524022 167.445239,25.3364147 C167.523711,25.0322719 167.535672,24.7161766 167.480389,24.4075071 C167.417619,24.0927782 167.158689,23.8458274 166.826437,23.7838097 C166.465009,23.7475363 166.156259,24.0124994 165.813402,24.1266138 C165.480032,24.2200735 165.120535,24.1775718 164.821752,24.0093757 C164.52297,23.8411795 164.312074,23.5625846 164.240009,23.24089 C164.185886,22.9207612 164.276762,22.5780533 164.148457,22.2774232 C163.99813,21.9251973 163.599495,21.7406405 163.300011,21.4875411 C162.742084,21.0006288 162.533101,20.2520532 162.764162,19.5681394 C162.844341,19.3351028 163.07077,19.2291638 163.025468,18.9614548 C162.966038,18.6102405 162.418507,18.36469 162.103154,18.2957776 Z" id="Path" fill="#2F2E41" fill-rule="nonzero"></path>
                <rect id="Rectangle" fill="#F2F2F2" fill-rule="nonzero" x="90.5357143" y="39.7708082" width="44.2857143" height="45.9348613"></rect>
                <rect id="Rectangle" stroke="#3F3D56" stroke-width="2" x="95" y="35.3799759" width="44.2857143" height="45.9348613"></rect>
                <polyline id="Path" stroke="#3F3D56" stroke-width="2" points="99.2857143 38.2509047 99.2857143 73.3775633 135.178571 73.3775633"></polyline>
                <rect id="Rectangle" fill="#575A89" fill-rule="nonzero" x="101.25" y="61.0494572" width="8.03571429" height="12.159228"></rect>
                <rect id="Rectangle" fill="#3F3D56" fill-rule="nonzero" x="112.857143" y="52.774427" width="8.03571429" height="20.4342581"></rect>
                <rect id="Rectangle" fill="#0F70EB" fill-rule="nonzero" x="124.464286" y="43.1483715" width="8.03571429" height="30.0603136"></rect>
                <rect id="Rectangle" fill="#0F70EB" fill-rule="nonzero" x="98.75" y="76.1326907" width="2.38775536" height="2.25814258"></rect>
                <rect id="Rectangle" fill="#3F3D56" fill-rule="nonzero" x="102.19898" y="76.1326907" width="2.38775536" height="2.25814258"></rect>
                <rect id="Rectangle" fill="#575A89" fill-rule="nonzero" x="105.647959" y="76.1326907" width="2.38775536" height="2.25814258"></rect>
                <rect id="Rectangle" fill="#3F3D56" fill-rule="nonzero" x="125.535714" y="77.113422" width="9.28571429" height="1"></rect>
                <rect id="Rectangle" fill="#3F3D56" fill-rule="nonzero" x="125.535714" y="78.1814632" width="9.28571429" height="1"></rect>
                <rect id="Rectangle" fill="#3F3D56" fill-rule="nonzero" x="125.535714" y="79.2495028" width="9.28571429" height="1"></rect>
                <path d="M129.340643,29.8377744 C131.238586,29.9158147 132.648813,31.5435604 132.4435,33.3296531 C132.257502,34.9478014 131.571357,36.9613189 129.410027,37.7347286 C125.558748,39.1128673 125.766925,31.336227 126.495545,31.0409047 C126.9813,30.844035 127.744616,29.7721501 129.340643,29.8377744 Z" id="Path" fill="#FFB9B9" fill-rule="nonzero"></path>
                <path d="M178.539877,32.4675587 L179.684852,32.993469 C179.684852,32.993469 182.182979,37.8169537 182.287068,38.5060239 C182.391157,39.1950941 184.056575,41.7544934 183.432043,42.4435636 C182.807511,43.1326338 181.870714,44.9045255 182.495245,45.593594 C183.119775,46.2826625 184.577018,49.0389416 184.577018,50.0233257 C184.577018,51.0077098 183.015689,53.6655498 184.056575,53.9608654 C185.097461,54.2561809 184.785196,58.0952815 184.577018,58.3905971 C184.368839,58.6859127 181.662536,63.5093973 181.662536,63.5093973 C181.662536,63.5093973 181.142093,57.9968425 176.04175,60.2609279 C176.04175,60.2609279 175.625395,57.5046504 176.04175,57.3077739 C176.458105,57.1108975 177.498991,55.9296352 176.66628,55.7327571 C175.83357,55.5358789 174.688602,53.1733578 174.896773,52.8780405 C175.104945,52.5827233 175.625395,52.1889703 175.104952,51.8936497 C174.584509,51.5983291 174.168154,49.9248815 174.272243,49.629566 C174.376332,49.3342504 173.127268,47.9561117 173.127268,47.9561117 L178.539877,32.4675587 Z" id="Path" fill="#575A89" fill-rule="nonzero"></path>
            </g>
        </g>
    </g>
</svg>