<?xml version="1.0" encoding="UTF-8"?>
<svg width="188px" height="140px" viewBox="0 0 188 140" version="1.1" xmlns="http://www.w3.org/2000/svg" xmlns:xlink="http://www.w3.org/1999/xlink">
    <!-- Generator: Sketch 61 (89581) - https://sketch.com -->
    <title>undraw_good_team_m7uu</title>
    <desc>Created with Sketch.</desc>
    <g id="Pages" stroke="none" stroke-width="1" fill="none" fill-rule="evenodd">
        <g id="28---F.A.Q." transform="translate(-156.000000, -725.000000)">
            <g id="undraw_good_team_m7uu" transform="translate(156.000000, 725.000000)">
                <line x1="65.5389782" y1="42.9045042" x2="89.7406588" y2="42.9045042" id="Path" stroke="#3F3D56" stroke-width="2"></line>
                <ellipse id="Oval" fill="#2F2E41" fill-rule="nonzero" transform="translate(34.760372, 68.870592) rotate(-69.082170) translate(-34.760372, -68.870592) " cx="34.7603721" cy="68.8705922" rx="6.63865546" ry="2.08407899"></ellipse>
                <path d="M186.778941,85.5959193 C189.411832,105.190691 185.826632,124.806785 167.590923,132.445245 C149.355213,140.083706 128.380055,131.492936 120.741597,113.257227 C113.103138,95.0215176 131.125585,84.1103361 139.929615,66.4079008 C157.807978,30.4595361 178.602561,24.7447866 186.778941,85.5959193 Z" id="Path" fill="#F2F2F2" fill-rule="nonzero"></path>
                <ellipse id="Oval" fill="#3F3D56" fill-rule="nonzero" cx="153.94958" cy="133.518723" rx="28.5714286" ry="3.88692605"></ellipse>
                <polygon id="Rectangle" fill="#2F2E41" fill-rule="nonzero" transform="translate(139.278767, 124.607427) rotate(-105.452270) translate(-139.278767, -124.607427) " points="137.26196 120.993982 141.295573 120.993982 141.295573 128.220873 137.26196 128.220873"></polygon>
                <ellipse id="Oval" fill="#2F2E41" fill-rule="nonzero" transform="translate(134.843088, 124.961721) rotate(-15.452270) translate(-134.843088, -124.961721) " cx="134.843088" cy="124.961721" rx="1.2605042" ry="3.36134454"></ellipse>
                <ellipse id="Oval" fill="#2F2E41" fill-rule="nonzero" transform="translate(155.179521, 109.974902) rotate(-82.281110) translate(-155.179521, -109.974902) " cx="155.179521" cy="109.974902" rx="6.63865546" ry="2.08407899"></ellipse>
                <circle id="Oval" fill="#2F2E41" fill-rule="nonzero" cx="153.879808" cy="122.403245" r="13.2773109"></circle>
                <polygon id="Rectangle" fill="#2F2E41" fill-rule="nonzero" transform="translate(139.278767, 122.254486) rotate(-105.452270) translate(-139.278767, -122.254486) " points="137.26196 118.64104 141.295574 118.64104 141.295574 125.867931 137.26196 125.867931"></polygon>
                <ellipse id="Oval" fill="#2F2E41" fill-rule="nonzero" transform="translate(134.843088, 122.608780) rotate(-15.452270) translate(-134.843088, -122.608780) " cx="134.843088" cy="122.60878" rx="1.2605042" ry="3.36134454"></ellipse>
                <circle id="Oval" fill="#FFFFFF" fill-rule="nonzero" cx="157.366225" cy="114.797126" r="4.53781513"></circle>
                <circle id="Oval" fill="#3F3D56" fill-rule="nonzero" cx="158.81737" cy="112.792576" r="1.51260504"></circle>
                <path d="M169.212534,131.527313 C174.125897,131.281412 177.888936,126.685667 177.617518,121.262427 C177.346099,115.839187 173.143003,111.642126 168.229642,111.888027 C163.316281,112.133928 162.545272,115.990958 162.816686,121.414198 C163.088099,126.837439 164.299173,131.773213 169.212534,131.527313 Z" id="Path" fill="#0F70EB" fill-rule="nonzero"></path>
                <path d="M148.453407,116.785524 C146.788367,116.919819 145.329607,115.679163 145.194846,114.01416 C145.060086,112.349158 146.300335,110.890051 147.965299,110.754825 C149.630632,110.620035 150.084795,111.942139 150.219585,113.607472 C150.354375,115.272805 150.118738,116.650736 148.453407,116.785524 Z" id="Path" fill="#FFFFFF" fill-rule="nonzero"></path>
                <polyline id="Path" stroke="#3F3D56" stroke-width="2" points="8.31327731 60.6764706 82.6818487 60.6764706 94.2117647 66.2936134 112.582521 75.2435294 124.59395 52.7541176 158.583866 52.7541176"></polyline>
                <circle id="Oval" fill="#0F70EB" fill-rule="nonzero" cx="37.4472958" cy="63.0294706" r="2.3000605"></circle>
                <circle id="Oval" fill="#0F70EB" fill-rule="nonzero" cx="58.9145261" cy="60.6765294" r="2.3000605"></circle>
                <circle id="Oval" fill="#0F70EB" fill-rule="nonzero" cx="94.1821176" cy="66.2988992" r="2.3000605"></circle>
                <circle id="Oval" fill="#0F70EB" fill-rule="nonzero" cx="143.761195" cy="52.7540992" r="2.3000605"></circle>
                <circle id="Oval" fill="#0F70EB" fill-rule="nonzero" cx="119.738343" cy="61.6987782" r="2.3000605"></circle>
                <circle id="Oval" stroke="#3F3D56" stroke-width="2" cx="71.8614353" cy="97.7211546" r="2.47992605"></circle>
                <ellipse id="Oval" fill="#3F3D56" fill-rule="nonzero" cx="28.5714286" cy="136.039731" rx="28.5714286" ry="3.88692605"></ellipse>
                <circle id="Oval" fill="#2F2E41" fill-rule="nonzero" cx="27.0259748" cy="117.048134" r="13.2773109"></circle>
                <rect id="Rectangle" fill="#2F2E41" fill-rule="nonzero" x="20.9755546" y="127.468303" width="4.03361345" height="7.22689076"></rect>
                <rect id="Rectangle" fill="#2F2E41" fill-rule="nonzero" x="29.0427815" y="127.468303" width="4.03361345" height="7.22689076"></rect>
                <ellipse id="Oval" fill="#2F2E41" fill-rule="nonzero" cx="24.3368992" cy="134.779227" rx="3.36134454" ry="1.2605042"></ellipse>
                <ellipse id="Oval" fill="#2F2E41" fill-rule="nonzero" cx="32.4041261" cy="134.61116" rx="3.36134454" ry="1.2605042"></ellipse>
                <circle id="Oval" fill="#FFFFFF" fill-rule="nonzero" cx="27.3621092" cy="113.68679" r="4.53781513"></circle>
                <circle id="Oval" fill="#3F3D56" fill-rule="nonzero" cx="27.3621092" cy="113.68679" r="1.51260504"></circle>
                <path d="M14.1465412,104.700617 C13.0744588,99.8993429 16.5014739,95.0478588 21.800995,93.8645227 C27.100516,92.6811866 32.2657176,95.6141025 33.3378017,100.415378 C34.4098857,105.216654 30.8976992,106.987445 25.5981798,108.170782 C20.2986605,109.354118 15.2186168,109.501891 14.1465412,104.700617 Z" id="Path" fill="#0F70EB" fill-rule="nonzero"></path>
                <circle id="Oval" fill="#2F2E41" fill-rule="nonzero" cx="22.4881597" cy="78.8968739" r="13.2773109"></circle>
                <rect id="Rectangle" fill="#2F2E41" fill-rule="nonzero" x="16.4377395" y="89.317042" width="4.03361345" height="7.22689076"></rect>
                <rect id="Rectangle" fill="#2F2E41" fill-rule="nonzero" x="24.5049664" y="89.317042" width="4.03361345" height="7.22689076"></rect>
                <ellipse id="Oval" fill="#2F2E41" fill-rule="nonzero" cx="19.799084" cy="96.6279664" rx="3.36134454" ry="1.2605042"></ellipse>
                <ellipse id="Oval" fill="#2F2E41" fill-rule="nonzero" cx="27.8663109" cy="96.4598992" rx="3.36134454" ry="1.2605042"></ellipse>
                <circle id="Oval" fill="#FFFFFF" fill-rule="nonzero" cx="22.8242941" cy="75.5355294" r="4.53781513"></circle>
                <circle id="Oval" fill="#3F3D56" fill-rule="nonzero" cx="22.8242941" cy="75.5355294" r="1.51260504"></circle>
                <path d="M9.60872605,66.5493563 C8.5366437,61.7480824 11.9636588,56.8965983 17.2631798,55.7132622 C22.5627008,54.5299261 27.7279025,57.462842 28.7999866,62.2641176 C29.8720706,67.0653933 26.359884,68.8361849 21.0603647,70.019521 C15.7608454,71.2028571 10.6808017,71.3506303 9.60872605,66.5493563 Z" id="Path" fill="#0F70EB" fill-rule="nonzero"></path>
                <ellipse id="Oval" fill="#2F2E41" fill-rule="nonzero" transform="translate(7.533482, 72.736141) rotate(-64.625740) translate(-7.533482, -72.736141) " cx="7.53348162" cy="72.7361413" rx="2.08407899" ry="6.63865546"></ellipse>
                <path d="M15.9663866,83.6867882 C15.9663866,84.986284 19.3123714,87.5523345 23.0252101,87.5523345 C26.7380487,87.5523345 30.2192521,83.8938471 30.2192521,82.5943513 C30.2192521,81.2948555 26.7380487,82.8464521 23.0252101,82.8464521 C19.3123714,82.8464521 15.9663866,82.3872958 15.9663866,83.6867882 Z" id="Path" fill="#FFFFFF" fill-rule="nonzero"></path>
                <rect id="Rectangle" fill="#0F70EB" fill-rule="nonzero" x="140.415862" y="94.9091899" width="21.1981563" height="10.7834101"></rect>
                <rect id="Rectangle" stroke="#3F3D56" stroke-width="2" x="138.756877" y="96.6603412" width="21.1981563" height="10.7834101"></rect>
                <rect id="Rectangle" fill="#FF6584" fill-rule="nonzero" x="38.0846084" y="33.4453782" width="6.05042017" height="6.05042017"></rect>
                <rect id="Rectangle" stroke="#3F3D56" stroke-width="2" x="36.5720034" y="31.4285714" width="6.05042017" height="6.05042017"></rect>
                <circle id="Oval" fill="#2F2E41" fill-rule="nonzero" cx="152.277662" cy="31.8437126" r="13.2773109"></circle>
                <polygon id="Rectangle" fill="#2F2E41" fill-rule="nonzero" transform="translate(158.746189, 44.933587) rotate(169.739174) translate(-158.746189, -44.933587) " points="156.729377 41.3201305 160.763002 41.3201305 160.763002 48.5470429 156.729377 48.5470429"></polygon>
                <polygon id="Rectangle" fill="#2F2E41" fill-rule="nonzero" transform="translate(150.808419, 46.371395) rotate(169.738940) translate(-150.808419, -46.371395) " points="148.791612 42.7579498 152.825226 42.7579498 152.825226 49.9848406 148.791612 49.9848406"></polygon>
                <ellipse id="Oval" fill="#2F2E41" fill-rule="nonzero" transform="translate(150.759923, 50.820953) rotate(-40.261060) translate(-150.759923, -50.820953) " cx="150.759923" cy="50.820953" rx="3.36134454" ry="1.2605042"></ellipse>
                <ellipse id="Oval" fill="#2F2E41" fill-rule="nonzero" transform="translate(158.532746, 49.413849) rotate(-40.261060) translate(-158.532746, -49.413849) " cx="158.532746" cy="49.4138494" rx="3.36134454" ry="1.2605042"></ellipse>
                <circle id="Oval" fill="#FFFFFF" fill-rule="nonzero" cx="151.348136" cy="28.596005" r="4.53781513"></circle>
                <circle id="Oval" fill="#3F3D56" fill-rule="nonzero" cx="149.483109" cy="26.9694403" r="1.51260504"></circle>
                <path d="M162.751607,17.3994168 C162.951271,12.4839546 158.714857,8.32053445 153.289306,8.10014622 C147.863755,7.87975798 143.303612,11.6858605 143.103943,16.6013227 C142.904274,21.5167849 146.675724,22.6336151 152.101277,22.8540034 C157.52683,23.0743916 162.551938,22.3148756 162.751607,17.3994168 Z" id="Path" fill="#0F70EB" fill-rule="nonzero"></path>
                <ellipse id="Oval" fill="#2F2E41" fill-rule="nonzero" transform="translate(140.017900, 29.424806) rotate(-77.089900) translate(-140.017900, -29.424806) " cx="140.0179" cy="29.424806" rx="2.08407899" ry="6.63865546"></ellipse>
                <ellipse id="Oval" fill="#2F2E41" fill-rule="nonzero" transform="translate(166.080759, 33.759018) rotate(-77.089900) translate(-166.080759, -33.759018) " cx="166.080759" cy="33.7590182" rx="2.08407899" ry="6.63865546"></ellipse>
                <path d="M155.924282,37.0761311 C156.11681,38.1396486 155.727333,39.2250916 154.902563,39.923584 C154.077794,40.6220764 152.943034,40.8275008 151.925737,40.4624756 C150.90844,40.0974505 150.163158,39.2174319 149.97063,38.1539143 C149.673008,36.5098588 150.944139,35.9280941 152.588195,35.6304723 C154.23225,35.3328504 155.626661,35.4320756 155.924282,37.0761311 Z" id="Path" fill="#FFFFFF" fill-rule="nonzero"></path>
                <line x1="119.765281" y1="16.6386555" x2="135.059398" y2="28.4033613" id="Path" stroke="#3F3D56" stroke-width="2"></line>
                <circle id="Oval" fill="#FF6584" fill-rule="nonzero" cx="112.53839" cy="11.4285714" r="11.4285714"></circle>
                <ellipse id="Oval" fill="#2F2E41" fill-rule="nonzero" transform="translate(150.196037, 113.129739) rotate(-82.281110) translate(-150.196037, -113.129739) " cx="150.196037" cy="113.129739" rx="6.63865546" ry="2.08407899"></ellipse>
                <circle id="Oval" fill="#0F70EB" fill-rule="nonzero" cx="11.5649429" cy="132.105101" r="2.3000605"></circle>
                <rect id="Rectangle" fill="#FF6584" fill-rule="nonzero" x="43.1266252" y="129.411765" width="6.05042017" height="6.05042017"></rect>
                <circle id="Oval" fill="#0F70EB" fill-rule="nonzero" cx="43.1615815" cy="133.449639" r="2.3000605"></circle>
                <circle id="Oval" fill="#0F70EB" fill-rule="nonzero" cx="77.6398185" cy="42.8614034" r="2.3000605"></circle>
                <circle id="Oval" fill="#FF6584" fill-rule="nonzero" cx="122.305976" cy="114.160024" r="1.09838151"></circle>
                <line x1="127.687284" y1="132.390699" x2="127.687284" y2="119.884585" id="Path" stroke="#3F3D56" stroke-width="2" fill="#3F3D56" fill-rule="nonzero"></line>
                <circle id="Oval" fill="#3F3D56" fill-rule="nonzero" cx="127.687284" cy="119.884585" r="1.76854118"></circle>
                <path d="M127.687282,127.592361 C127.687282,127.592361 127.434634,122.158424 122.255334,122.790045" id="Path" fill="#3F3D56" fill-rule="nonzero"></path>
            </g>
        </g>
    </g>
</svg>