<?xml version="1.0" encoding="UTF-8"?>
<svg width="124px" height="132px" viewBox="0 0 124 132" version="1.1" xmlns="http://www.w3.org/2000/svg" xmlns:xlink="http://www.w3.org/1999/xlink">
    <!-- Generator: Sketch 61 (89581) - https://sketch.com -->
    <title>undraw_different_love_a3rg</title>
    <desc>Created with Sketch.</desc>
    <g id="Pages" stroke="none" stroke-width="1" fill="none" fill-rule="evenodd">
        <g id="28---F.A.Q." transform="translate(-597.000000, -733.000000)">
            <g id="undraw_different_love_a3rg" transform="translate(560.000000, 725.000000)">
                <circle id="Oval" fill="#F2F2F2" fill-rule="nonzero" cx="103.162759" cy="65.5529412" r="57.1529412"></circle>
                <g id="f9f9bcf5-f65d-4586-b32b-ca2676d797c4" transform="translate(41.341176, 114.305882)" fill-rule="nonzero">
                    <path d="M118.976893,2.28396165 C118.976893,3.45733953 92.3430085,9.81658918 59.4884459,9.81658918 C26.6338833,9.81658918 -1.40436682e-14,3.45733953 -1.40436682e-14,2.28396165 C-1.40436682e-14,1.11058376 26.6338849,3.05654094 59.4884459,3.05654094 C92.3430068,3.05654094 118.976893,1.11058376 118.976893,2.28396165 Z" id="Path" fill="#3F3D56"></path>
                    <path d="M118.976893,2.28396165 C118.976893,3.45733953 92.3430085,9.81658918 59.4884459,9.81658918 C26.6338833,9.81658918 -1.40436682e-14,3.45733953 -1.40436682e-14,2.28396165 C-1.40436682e-14,1.11058376 26.6338849,3.05654094 59.4884459,3.05654094 C92.3430068,3.05654094 118.976893,1.11058376 118.976893,2.28396165 Z" id="Path" fill="#000000" opacity="0.1"></path>
                    <ellipse id="Oval" fill="#3F3D56" cx="59.4884475" cy="2.28396165" rx="59.4884475" ry="2.12458729"></ellipse>
                </g>
                <line x1="157.665002" y1="116.01041" x2="157.665002" y2="96.8891247" id="Path" stroke="#3F3D56" stroke-width="2" fill="#3F3D56" fill-rule="nonzero"></line>
                <circle id="Oval" fill="#3F3D56" fill-rule="nonzero" cx="157.665002" cy="96.8891247" r="2.70402094"></circle>
                <path d="M157.665002,108.673969 C157.665002,108.673969 157.278713,100.365722 149.359797,101.331443" id="Path" fill="#3F3D56" fill-rule="nonzero"></path>
                <line x1="48.3974614" y1="117.435887" x2="48.3974614" y2="54.5176471" id="Path" stroke="#3F3D56" stroke-width="2" fill="#3F3D56" fill-rule="nonzero"></line>
                <circle id="Oval" fill="#3F3D56" fill-rule="nonzero" cx="48.3974614" cy="54.4874318" r="2.70402094"></circle>
                <circle id="Oval" fill="#3F3D56" fill-rule="nonzero" cx="40.0922562" cy="100.632331" r="2.70402094"></circle>
                <path d="M48.3974598,68.2996984 C48.3974598,68.2996984 48.0111718,59.9914527 40.0922546,60.9571744" id="Path" fill="#3F3D56" fill-rule="nonzero"></path>
                <path d="M48.3974598,91.8526395 C48.3974598,91.8526395 48.0111718,83.5443939 40.0922546,84.5101155" id="Path" fill="#3F3D56" fill-rule="nonzero"></path>
                <path d="M48.3974598,116.692607 C48.3974598,116.692607 50.1357656,101.40491 40.0922546,100.632333" id="Path" stroke="#3F3D56" stroke-width="2"></path>
                <circle id="Oval" fill="#3F3D56" fill-rule="nonzero" cx="56.7038508" cy="100.632331" r="2.70402094"></circle>
                <path d="M48.3986456,116.692607 C48.3986456,116.692607 46.6603398,101.40491 56.7038508,100.632333" id="Path" stroke="#3F3D56" stroke-width="2"></path>
                <circle id="Oval" fill="#3F3D56" fill-rule="nonzero" cx="56.8685567" cy="75.2676252" r="2.70402094"></circle>
                <path d="M48.5633515,91.3279014 C48.5633515,91.3279014 46.8250456,76.0402045 56.8685567,75.2676268" id="Path" stroke="#3F3D56" stroke-width="2"></path>
                <line x1="136.867034" y1="115.624122" x2="136.867034" y2="77.3815494" id="Path" stroke="#3F3D56" stroke-width="2" fill="#3F3D56" fill-rule="nonzero"></line>
                <circle id="Oval" fill="#3F3D56" fill-rule="nonzero" cx="136.867034" cy="77.3815494" r="2.70402094"></circle>
                <path d="M136.867032,88.393816 C136.867032,88.393816 137.253322,80.0855704 145.172239,81.051292" id="Path" fill="#3F3D56" fill-rule="nonzero"></path>
                <path d="M136.867032,114.880843 C136.867032,114.880843 135.128735,99.5931456 145.172239,98.820568" id="Path" stroke="#3F3D56" stroke-width="2"></path>
                <circle id="Oval" fill="#3F3D56" fill-rule="nonzero" cx="145.172239" cy="98.8205664" r="2.70402094"></circle>
                <circle id="Oval" fill="#FF6584" fill-rule="nonzero" cx="133.633347" cy="37.7176471" r="10.5411765"></circle>
                <circle id="Oval" fill="#2F2E41" fill-rule="nonzero" cx="116.239844" cy="97.9895247" r="13.0117647"></circle>
                <rect id="Rectangle" fill="#2F2E41" fill-rule="nonzero" transform="translate(120.192784, 111.742466) rotate(-180.000000) translate(-120.192784, -111.742466) " x="118.216313" y="108.201289" width="3.95294118" height="7.08235294"></rect>
                <rect id="Rectangle" fill="#2F2E41" fill-rule="nonzero" transform="translate(112.286901, 111.742466) rotate(-180.000000) translate(-112.286901, -111.742466) " x="110.310431" y="108.201289" width="3.95294118" height="7.08235294"></rect>
                <ellipse id="Oval" fill="#2F2E41" fill-rule="nonzero" transform="translate(111.463373, 116.024817) rotate(-30.000000) translate(-111.463373, -116.024817) " cx="111.463373" cy="116.024817" rx="3.29411765" ry="1.23529412"></ellipse>
                <ellipse id="Oval" fill="#2F2E41" fill-rule="nonzero" transform="translate(119.204550, 116.024817) rotate(-30.000000) translate(-119.204550, -116.024817) " cx="119.20455" cy="116.024817" rx="3.29411765" ry="1.23529412"></ellipse>
                <circle id="Oval" fill="#FFFFFF" fill-rule="nonzero" cx="115.910432" cy="94.6954071" r="4.44705882"></circle>
                <circle id="Oval" fill="#3F3D56" fill-rule="nonzero" cx="114.395888" cy="92.8012894" r="1.48235294"></circle>
                <path d="M128.861687,85.8889591 C129.912328,81.1837106 126.553853,76.4292546 121.360323,75.2695852 C116.166792,74.1099158 111.104894,76.9841734 110.054252,81.6894252 C109.00361,86.3946769 112.445552,88.1300494 117.639081,89.2897188 C122.83261,90.4493882 127.811055,90.5942075 128.861687,85.8889591 Z" id="Path" fill="#0F70EB" fill-rule="nonzero"></path>
                <ellipse id="Oval" fill="#2F2E41" fill-rule="nonzero" transform="translate(104.839705, 93.516708) rotate(-66.828840) translate(-104.839705, -93.516708) " cx="104.839705" cy="93.5167077" rx="2.04239741" ry="6.50588235"></ellipse>
                <ellipse id="Oval" fill="#2F2E41" fill-rule="nonzero" transform="translate(129.216175, 102.246119) rotate(-66.828840) translate(-129.216175, -102.246119) " cx="129.216175" cy="102.246119" rx="2.04239741" ry="6.50588235"></ellipse>
                <path d="M118.842946,103.671878 C118.842946,105.309239 117.515602,106.636584 115.87824,106.636584 C114.240879,106.636584 112.913535,105.309239 112.913535,103.671878 C112.913535,102.034515 114.240878,101.695407 115.87824,101.695407 C117.515603,101.695407 118.842946,102.034515 118.842946,103.671878 Z" id="Path" fill="#FFFFFF" fill-rule="nonzero"></path>
                <line x1="100.731273" y1="94.104528" x2="100.731273" y2="74.9832424" id="Path" stroke="#0F70EB" stroke-width="2"></line>
                <circle id="Oval" fill="#0F70EB" fill-rule="nonzero" cx="100.731273" cy="74.9832424" r="2.70402094"></circle>
                <path d="M100.731273,86.7680866 C100.731273,86.7680866 100.344985,78.4598393 92.426068,79.4255609" id="Path" fill="#0F70EB" fill-rule="nonzero"></path>
                <path d="M75.3089021,81.0124659 L76.3570525,83.4830541 L77.2853727,83.4830541 L75.9677256,77.2242306 C75.9677256,73.2069322 74.0287322,69.8124659 70.0114125,69.8124659 L70.0113713,69.8124659 C67.2063491,69.8124659 64.9324315,72.0864049 64.9324315,74.8914271 L64.9324315,81.0296562 C64.9324315,81.6803352 65.1909076,82.3043651 65.6510052,82.7644664 C66.1111029,83.2245678 66.7351307,83.4830541 67.3858096,83.4830541 L74.5883139,83.4830541 L75.3089021,81.0124659 Z" id="Path" fill="#2F2E41" fill-rule="nonzero"></path>
                <path d="M79.6921704,105.858195 C79.6921704,105.858195 93.3627586,104.211136 95.0098174,107.175842 C96.6568762,110.140548 95.5039351,112.611136 93.3627586,114.093489 C91.2215821,115.575842 79.3627586,122.328783 79.3627586,122.328783 L78.3745233,123.975842 L76.2333468,123.64643 L74.0921704,121.66996 L75.0804056,119.858195 C75.0804056,119.858195 83.3156998,114.917019 83.4804056,113.599372 C83.4804056,113.599372 75.9039351,117.058195 75.0804056,116.399372 C74.2568762,115.740548 65.0333468,112.611136 66.5156998,110.799372 C67.9980527,108.987607 71.786288,106.352313 71.786288,106.352313 L79.6921704,105.858195 Z" id="Path" fill="#2F2E41" fill-rule="nonzero"></path>
                <path d="M79.6921704,105.858195 C79.6921704,105.858195 93.3627586,104.211136 95.0098174,107.175842 C96.6568762,110.140548 95.5039351,112.611136 93.3627586,114.093489 C91.2215821,115.575842 79.3627586,122.328783 79.3627586,122.328783 L78.3745233,123.975842 L76.2333468,123.64643 L74.0921704,121.66996 L75.0804056,119.858195 C75.0804056,119.858195 83.3156998,114.917019 83.4804056,113.599372 C83.4804056,113.599372 75.9039351,117.058195 75.0804056,116.399372 C74.2568762,115.740548 65.0333468,112.611136 66.5156998,110.799372 C67.9980527,108.987607 71.786288,106.352313 71.786288,106.352313 L79.6921704,105.858195 Z" id="Path" fill="#000000" fill-rule="nonzero" opacity="0.1"></path>
                <path d="M77.8804056,122.493489 C77.8804056,122.493489 80.3509939,121.999372 79.8568762,123.64643 C79.3627586,125.293489 79.0333468,128.587607 79.8568762,129.411136 C80.6804056,130.234666 83.3156998,133.858195 80.6804056,134.187607 C78.0451115,134.517019 75.2451115,131.222901 75.2451115,131.222901 C75.2451115,131.222901 73.4333468,125.952313 72.1156998,125.458195 C70.7980527,124.964077 69.4804056,122.987607 70.1392292,122.493489 C70.7980527,121.999372 74.7509939,118.86996 75.0804056,119.034666 C75.4098174,119.199372 75.2451115,121.011136 75.2451115,121.011136 C75.2451115,121.011136 76.5627586,123.152313 77.8804056,122.493489 Z" id="Path" fill="#2F2E41" fill-rule="nonzero"></path>
                <path d="M78.1274645,87.3287833 L84.2215821,91.6111362 C84.2215821,91.6111362 88.8333468,86.8346656 88.8333468,84.0346656 C88.8333468,81.2346656 91.3039351,75.9640774 92.4568762,78.1052539 C93.6098174,80.2464304 91.1392292,85.3523127 91.1392292,85.3523127 L86.5274645,96.2229009 C86.5274645,96.2229009 83.8921704,96.7170186 82.4098174,95.5640774 C80.9274645,94.4111362 76.8098174,92.1052539 76.8098174,92.1052539 L78.1274645,87.3287833 Z" id="Path" fill="#FFB9B9" fill-rule="nonzero"></path>
                <circle id="Oval" fill="#FFB9B9" fill-rule="nonzero" cx="72.1156998" cy="75.5523111" r="4.61176471"></circle>
                <path d="M74.5039351,78.7640774 C74.5039351,78.7640774 72.8568762,83.0464304 73.5156998,84.0346656 C74.1745233,85.0229009 74.9980527,85.0229009 75.6568762,85.3523127 C75.986288,85.5170186 79.4451115,86.8346656 79.4451115,87.8229009 C79.4292153,88.4578759 79.2596706,89.0795399 78.9509939,89.6346656 L78.4568762,92.4346656 L74.3392292,95.0699598 L68.9039351,94.4111362 L64.786288,92.1052539 C64.786288,92.1052539 64.1274645,86.0111362 65.9392292,85.0229009 C67.7509939,84.0346656 69.8921704,81.7287833 69.7274645,80.9052539 C69.5627586,80.0817245 69.3980527,78.1052539 69.3980527,78.1052539 L74.5039351,78.7640774 Z" id="Path" fill="#FFB9B9" fill-rule="nonzero"></path>
                <path d="M81.4215821,88.9758421 C81.4215821,88.9758421 78.9509939,91.4464304 78.9509939,91.7758421 C78.9509939,92.1052539 80.5980527,93.5876068 79.4451115,95.5640774 C78.2921704,97.540548 78.2921704,102.481724 78.2921704,102.481724 L74.3392292,103.305254 L66.9274645,102.64643 L65.7745233,91.2817245 C65.7745233,91.2817245 68.7392292,91.7758421 69.3980527,92.2699598 C70.0568762,92.7640774 71.8686409,91.6111362 73.186288,91.6111362 C74.5039351,91.6111362 78.2921704,90.9523127 78.2921704,90.9523127 L77.9627586,89.6346656 L79.2804056,87.3287833 L81.4215821,88.9758421 Z" id="Path" fill="#0F70EB" fill-rule="nonzero"></path>
                <g id="Group" transform="translate(0.055099, 0.031059)"></g>
                <path d="M72.1156998,106.517019 C72.1156998,106.517019 88.7509939,99.1052539 90.0686409,103.881724 C91.386288,108.658195 91.5509939,120.187607 91.5509939,120.187607 C91.5509939,120.187607 92.3745233,128.093489 93.3627586,128.917019 C94.3509939,129.740548 93.3627586,132.211136 93.3627586,132.211136 L90.8921704,133.034666 L88.586288,132.04643 L87.5980527,129.411136 C87.5980527,129.411136 87.2686409,123.481724 85.9509939,120.517019 C84.6333468,117.552313 84.6333468,110.634666 84.7980527,110.305254 C84.7980527,110.305254 78.3745233,118.211136 72.1156998,117.717019 C65.8568762,117.222901 64.9509939,115.822901 64.9509939,115.822901 C64.9509939,115.822901 67.9980527,106.517019 72.1156998,106.517019 Z" id="Path" fill="#2F2E41" fill-rule="nonzero"></path>
                <path d="M92.3745233,129.740548 C92.3745233,129.740548 93.0333468,127.434666 94.5156998,129.24643 C95.9980527,131.058195 102.750994,133.858195 102.9157,134.187607 C103.080406,134.517019 106.045112,136.328783 102.586288,138.799372 C99.1274645,141.26996 94.5156998,138.799372 94.5156998,138.799372 C94.5156998,138.799372 90.5627586,137.481724 89.5745233,137.64643 C88.586288,137.811136 86.6098174,136.822901 86.4451115,135.999372 C86.2804056,135.175842 86.6694755,127.93606 87.545528,128.673598 C88.4215805,129.411136 89.4098174,131.387607 89.4098174,131.387607 C89.4098174,131.387607 92.7039351,132.211136 92.3745233,129.740548 Z" id="Path" fill="#2F2E41" fill-rule="nonzero"></path>
                <path d="M77.7156998,102.06996 C77.7156998,102.06996 78.6215821,101.987607 78.4568762,104.128783 C78.4568762,104.128783 72.7745233,105.858195 71.786288,107.340548 C70.7980527,108.822901 66.5156998,113.26996 65.8568762,116.399372 C65.8568762,116.399372 61.0804056,115.24643 63.7156998,107.011136 L66.8140958,100.293498 C66.8140958,100.293498 68.6568762,104.04643 77.7156998,102.06996 Z" id="Path" fill="#2F2E41" fill-rule="nonzero"></path>
                <path d="M73.8389235,106.072988 L68.2451115,103.634666 C68.2451115,103.634666 65.6098174,98.1993715 65.6098174,95.5640774 C65.5778713,94.0477157 65.4610155,92.5343336 65.2597993,91.0310421 C65.0070446,89.1113253 65.7202765,87.1908734 67.1648402,85.9015195 C67.7464991,85.3928452 68.3995315,85.0229009 69.0686492,85.0229009 C69.0686492,85.0229009 71.0451198,88.6464304 70.715708,91.940548 C70.3862962,95.2346656 71.2098256,100.175842 71.2098256,100.175842 L78.6522767,104.159125" id="Path" fill="#FFB9B9" fill-rule="nonzero"></path>
                <path d="M73.8389235,106.072988 L68.2451115,103.634666 C68.2451115,103.634666 65.6098174,98.1993715 65.6098174,95.5640774 C65.6098174,94.1914449 71.3745233,90.1287833 71.0451115,93.4229009 C70.7156998,96.7170186 71.2098174,100.175842 71.2098174,100.175842 L78.6522685,104.159125" id="Path" fill="#000000" fill-rule="nonzero" opacity="0.1"></path>
                <path d="M71.2098174,93.0934892 L70.6847087,95.3170186 L67.7509939,96.7170186 L65.2804056,96.7170186 L64.1274645,91.4464304 C64.1274645,91.4464304 66.1631007,91.0158892 67.2041061,91.5605715 C68.2451115,92.1052539 70.6897108,92.2355939 70.6897108,92.2355939 L71.2098174,93.0934892 Z" id="Path" fill="#0F70EB" fill-rule="nonzero"></path>
                <path d="M73.9423226,70.0327139 C73.0487454,69.8062136 70.9300068,69.8124488 70.619976,69.8124488 C69.1115474,69.8124488 67.6648991,70.4116825 66.5982782,71.4783018 C65.5316574,72.5449212 64.932436,73.9915685 64.9324365,75.4999972 L62.79126,83.4830541 L66.9590106,83.4830541 L67.7324365,80.5183482 L68.8304894,83.4830541 L70.9285591,83.4830541 L71.108912,81.701508 L71.8190052,83.4830541 L74.1559708,83.4830541 C72.4057287,79.522856 71.4746744,75.913068 73.7741628,73.6850553 C75.3269259,73.8965574 76.6365304,73.4806553 76.8499332,72.6388056 C77.0957814,71.6688659 75.794012,70.5020812 73.9423226,70.0327139 Z" id="Path" fill="#2F2E41" fill-rule="nonzero"></path>
            </g>
        </g>
    </g>
</svg>