<?xml version="1.0" encoding="UTF-8"?>
<svg width="188px" height="141px" viewBox="0 0 188 141" version="1.1" xmlns="http://www.w3.org/2000/svg" xmlns:xlink="http://www.w3.org/1999/xlink">
    <!-- Generator: Sketch 61 (89581) - https://sketch.com -->
    <title>undraw_elements_cipa</title>
    <desc>Created with Sketch.</desc>
    <g id="Pages" stroke="none" stroke-width="1" fill="none" fill-rule="evenodd">
        <g id="28---F.A.Q." transform="translate(-936.000000, -724.000000)">
            <g id="undraw_elements_cipa" transform="translate(936.000000, 725.000000)">
                <path d="M75.8778626,80.6092926 C70.4284196,100.841341 58.8920242,118.548224 37.9389313,118.548224 C16.9858384,118.548224 0,101.562385 0,80.6092926 C0,59.6561997 22.0846491,56.3697728 37.9389313,42.6703613 C70.1342504,14.8509435 92.8009931,17.7791148 75.8778626,80.6092926 Z" id="Path" fill="#F2F2F2" fill-rule="nonzero"></path>
                <circle id="Oval" fill="#FF6584" fill-rule="nonzero" cx="86.9927725" cy="18.524173" r="12.1119593"></circle>
                <rect id="Rectangle" fill="#FF6584" fill-rule="nonzero" x="102.488956" y="1.60305344" width="6.41221374" height="6.41221374"></rect>
                <ellipse id="Oval" fill="#3F3D56" fill-rule="nonzero" cx="38.4016295" cy="118.625954" rx="30.2798982" ry="4.11935038"></ellipse>
                <rect id="Rectangle" fill="#0F70EB" fill-rule="nonzero" x="46.9164366" y="22.7989822" width="40.9669211" height="20.8396947"></rect>
                <circle id="Oval" fill="#2F2E41" fill-rule="nonzero" cx="36.7637649" cy="98.4987277" r="14.0712468"></circle>
                <rect id="Rectangle" fill="#2F2E41" fill-rule="nonzero" x="30.3515511" y="109.541985" width="4.27480916" height="7.65903308"></rect>
                <rect id="Rectangle" fill="#2F2E41" fill-rule="nonzero" x="38.9011695" y="109.541985" width="4.27480916" height="7.65903308"></rect>
                <ellipse id="Oval" fill="#2F2E41" fill-rule="nonzero" cx="33.9138921" cy="117.290076" rx="3.56234097" ry="1.33587786"></ellipse>
                <ellipse id="Oval" fill="#2F2E41" fill-rule="nonzero" cx="42.4635104" cy="117.111959" rx="3.56234097" ry="1.33587786"></ellipse>
                <circle id="Oval" fill="#FFFFFF" fill-rule="nonzero" cx="37.119999" cy="94.9363868" r="4.80916031"></circle>
                <circle id="Oval" fill="#3F3D56" fill-rule="nonzero" cx="37.119999" cy="94.9363868" r="1.60305344"></circle>
                <path d="M23.1141799,85.4128725 C21.9779908,80.3244995 25.6099293,75.182914 31.2263427,73.9288186 C36.8427562,72.6747232 42.3168186,75.783017 43.4530094,80.8713919 C44.5892003,85.9597667 40.8669975,87.8364453 35.2505858,89.0905407 C29.634174,90.3446361 24.250369,90.5012455 23.1141799,85.4128725 Z" id="Path" fill="#0F70EB" fill-rule="nonzero"></path>
                <circle id="Oval" fill="#2F2E41" fill-rule="nonzero" cx="31.9546046" cy="58.0661578" r="14.0712468"></circle>
                <rect id="Rectangle" fill="#2F2E41" fill-rule="nonzero" x="25.5423908" y="69.1094148" width="4.27480916" height="7.65903308"></rect>
                <rect id="Rectangle" fill="#2F2E41" fill-rule="nonzero" x="34.0920092" y="69.1094148" width="4.27480916" height="7.65903308"></rect>
                <ellipse id="Oval" fill="#2F2E41" fill-rule="nonzero" cx="29.1047318" cy="76.8575064" rx="3.56234097" ry="1.33587786"></ellipse>
                <ellipse id="Oval" fill="#2F2E41" fill-rule="nonzero" cx="37.6543501" cy="76.6793893" rx="3.56234097" ry="1.33587786"></ellipse>
                <circle id="Oval" fill="#FFFFFF" fill-rule="nonzero" cx="32.3108387" cy="54.5038168" r="4.80916031"></circle>
                <circle id="Oval" fill="#3F3D56" fill-rule="nonzero" cx="32.3108387" cy="54.5038168" r="1.60305344"></circle>
                <path d="M18.3050196,44.9803025 C17.1688305,39.8919295 20.800769,34.750344 26.4171824,33.4962486 C32.0335959,32.2421532 37.5076583,35.3504471 38.6438491,40.4388219 C39.7800399,45.5271967 36.0578372,47.4038753 30.4414254,48.6579707 C24.8250137,49.9120662 19.4412087,50.0686756 18.3050196,44.9803025 Z" id="Path" fill="#0F70EB" fill-rule="nonzero"></path>
                <ellipse id="Oval" fill="#2F2E41" fill-rule="nonzero" transform="translate(44.960650, 47.440343) rotate(-69.082170) translate(-44.960650, -47.440343) " cx="44.9606495" cy="47.4403428" rx="7.03562341" ry="2.20869949"></ellipse>
                <ellipse id="Oval" fill="#2F2E41" fill-rule="nonzero" transform="translate(16.105689, 51.537037) rotate(-64.625740) translate(-16.105689, -51.537037) " cx="16.1056893" cy="51.537037" rx="2.20869949" ry="7.03562341"></ellipse>
                <path d="M25.0428509,63.1424936 C25.0428509,64.5196947 28.5889137,67.2391858 32.5237669,67.2391858 C36.4586201,67.2391858 40.1479888,63.3619338 40.1479888,61.9847328 C40.1479888,60.6075318 36.4586201,62.2519084 32.5237669,62.2519084 C28.5889137,62.2519084 25.0428509,61.7652944 25.0428509,63.1424936 Z" id="Path" fill="#FFFFFF" fill-rule="nonzero"></path>
                <rect id="Rectangle" stroke="#3F3D56" stroke-width="2" x="50.8350117" y="19.7709924" width="40.9669211" height="20.8396947"></rect>
                <rect id="Rectangle" stroke="#3F3D56" stroke-width="2" x="104.62636" y="0" width="6.41221374" height="6.41221374"></rect>
                <path d="M187.807022,96.0580059 C187.807022,110.63288 179.14249,115.721882 168.454248,115.721882 C157.766007,115.721882 149.101475,110.63288 149.101475,96.0580059 C149.101475,81.4831313 168.454248,62.9415936 168.454248,62.9415936 C168.454248,62.9415936 187.807022,81.4831349 187.807022,96.0580059 Z" id="Path" fill="#F2F2F2" fill-rule="nonzero"></path>
                <polygon id="Path" fill="#3F3D56" fill-rule="nonzero" points="167.749211 113.492443 167.947455 101.294453 176.196056 86.2040204 167.978448 99.3811196 168.067684 93.8963613 173.752468 82.9784987 168.091196 92.4448855 168.091196 92.4450636 168.251501 82.5805852 174.339008 73.8886514 168.276616 81.0293639 168.376718 62.9415776 167.747608 86.8865649 167.799262 85.8987277 161.610051 76.4250382 167.700051 87.7949618 167.123308 98.8118575 167.106209 98.5193893 159.971018 88.5498219 167.084478 99.5524682 167.012341 100.930204 166.999517 100.950865 167.005394 101.063969 165.542341 129.014631 167.497176 129.014631 167.731578 114.57771 174.827761 103.601959"></polygon>
                <ellipse id="Oval" fill="#3F3D56" fill-rule="nonzero" cx="166.373722" cy="129.014065" rx="6.72905903" ry="1.99379593"></ellipse>
                <ellipse id="Oval" fill="#3F3D56" fill-rule="nonzero" cx="136.187889" cy="135.725191" rx="30.2798982" ry="4.11935038"></ellipse>
                <circle id="Oval" fill="#2F2E41" fill-rule="nonzero" cx="136.544123" cy="114.618321" r="14.0712468"></circle>
                <rect id="Rectangle" fill="#2F2E41" fill-rule="nonzero" transform="translate(140.818934, 129.491094) rotate(-180.000000) translate(-140.818934, -129.491094) " x="138.68153" y="125.661578" width="4.27480916" height="7.65903308"></rect>
                <rect id="Rectangle" fill="#2F2E41" fill-rule="nonzero" transform="translate(132.269316, 129.491094) rotate(-180.000000) translate(-132.269316, -129.491094) " x="130.131911" y="125.661578" width="4.27480916" height="7.65903308"></rect>
                <ellipse id="Oval" fill="#2F2E41" fill-rule="nonzero" transform="translate(131.378730, 134.122139) rotate(-30.000000) translate(-131.378730, -134.122139) " cx="131.37873" cy="134.122139" rx="3.56234097" ry="1.33587786"></ellipse>
                <ellipse id="Oval" fill="#2F2E41" fill-rule="nonzero" transform="translate(139.750230, 134.122139) rotate(-30.000000) translate(-139.750230, -134.122139) " cx="139.75023" cy="134.122139" rx="3.56234097" ry="1.33587786"></ellipse>
                <circle id="Oval" fill="#FFFFFF" fill-rule="nonzero" cx="136.187889" cy="111.05598" r="4.80916031"></circle>
                <circle id="Oval" fill="#3F3D56" fill-rule="nonzero" cx="134.550024" cy="109.007634" r="1.60305344"></circle>
                <path d="M150.193708,101.532465 C151.329897,96.4440924 147.697959,91.3025069 142.081545,90.0484115 C136.465132,88.794316 130.991069,91.9026099 129.854879,96.9909847 C128.718688,102.07936 132.440892,103.956038 138.057304,105.210134 C143.673716,106.464229 149.057519,106.620838 150.193708,101.532465 Z" id="Path" fill="#0F70EB" fill-rule="nonzero"></path>
                <ellipse id="Oval" fill="#2F2E41" fill-rule="nonzero" transform="translate(124.215728, 109.781305) rotate(-66.828840) translate(-124.215728, -109.781305) " cx="124.215728" cy="109.781305" rx="2.20869949" ry="7.03562341"></ellipse>
                <ellipse id="Oval" fill="#2F2E41" fill-rule="nonzero" transform="translate(150.577051, 119.221508) rotate(-66.828840) translate(-150.577051, -119.221508) " cx="150.577051" cy="119.221508" rx="2.20869949" ry="7.03562341"></ellipse>
                <rect id="Rectangle" fill="#FF6584" fill-rule="nonzero" x="112.819745" y="101.348601" width="6.41221374" height="6.41221374"></rect>
                <rect id="Rectangle" stroke="#3F3D56" stroke-width="2" x="106.051297" y="89.9491094" width="6.41221374" height="6.41221374"></rect>
                <path d="M139.359185,120.763359 C139.359185,122.534043 137.923762,123.969466 136.153078,123.969466 C134.382394,123.969466 132.946971,122.534043 132.946971,120.763359 C132.946971,118.992674 134.382393,118.625954 136.153078,118.625954 C137.923763,118.625954 139.359185,118.992674 139.359185,120.763359 Z" id="Path" fill="#FFFFFF" fill-rule="nonzero"></path>
            </g>
        </g>
    </g>
</svg>